G04 #@! TF.GenerationSoftware,KiCad,Pcbnew,9.0.4*
G04 #@! TF.CreationDate,2026-02-27T08:05:58+01:00*
G04 #@! TF.ProjectId,SABR-PCB,53414252-2050-4434-9220-424f41524420,rev?*
G04 #@! TF.SameCoordinates,Original*
G04 #@! TF.FileFunction,Soldermask,Bot*
G04 #@! TF.FilePolarity,Negative*
%FSLAX46Y46*%
G04 Gerber Fmt 4.6, Leading zero omitted, Abs format (unit mm)*
G04 Created by KiCad (PCBNEW 9.0.4) date 2026-02-27 08:05:58*
%MOMM*%
%LPD*%
G01*
G04 APERTURE LIST*
G04 Aperture macros list*
%AMRoundRect*
0 Rectangle with rounded corners*
0 $1 Rounding radius*
0 $2 $3 $4 $5 $6 $7 $8 $9 X,Y pos of 4 corners*
0 Add a 4 corners polygon primitive as box body*
4,1,4,$2,$3,$4,$5,$6,$7,$8,$9,$2,$3,0*
0 Add four circle primitives for the rounded corners*
1,1,$1+$1,$2,$3*
1,1,$1+$1,$4,$5*
1,1,$1+$1,$6,$7*
1,1,$1+$1,$8,$9*
0 Add four rect primitives between the rounded corners*
20,1,$1+$1,$2,$3,$4,$5,0*
20,1,$1+$1,$4,$5,$6,$7,0*
20,1,$1+$1,$6,$7,$8,$9,0*
20,1,$1+$1,$8,$9,$2,$3,0*%
G04 Aperture macros list end*
%ADD10RoundRect,0.102000X0.762000X0.762000X-0.762000X0.762000X-0.762000X-0.762000X0.762000X-0.762000X0*%
%ADD11C,1.728000*%
%ADD12R,1.700000X1.700000*%
%ADD13C,1.700000*%
%ADD14C,3.000000*%
%ADD15R,1.800000X1.800000*%
%ADD16C,1.800000*%
%ADD17C,1.300000*%
%ADD18RoundRect,0.102000X0.754000X-0.754000X0.754000X0.754000X-0.754000X0.754000X-0.754000X-0.754000X0*%
%ADD19C,1.712000*%
%ADD20RoundRect,0.250000X-0.750000X0.750000X-0.750000X-0.750000X0.750000X-0.750000X0.750000X0.750000X0*%
%ADD21C,2.000000*%
%ADD22C,1.500000*%
%ADD23RoundRect,0.102000X-0.704000X-0.704000X0.704000X-0.704000X0.704000X0.704000X-0.704000X0.704000X0*%
%ADD24C,1.612000*%
%ADD25C,1.400000*%
G04 APERTURE END LIST*
D10*
X132900000Y-65020000D03*
D11*
X132900000Y-62480000D03*
X132900000Y-59940000D03*
X132900000Y-57400000D03*
X132900000Y-54860000D03*
X132900000Y-52320000D03*
X132900000Y-49780000D03*
X132900000Y-47240000D03*
D10*
X145600000Y-47240000D03*
D11*
X145600000Y-49780000D03*
X145600000Y-52320000D03*
X145600000Y-54860000D03*
X145600000Y-57400000D03*
X145600000Y-59940000D03*
X145600000Y-62480000D03*
X145600000Y-65020000D03*
X137980000Y-47240000D03*
X135440000Y-47240000D03*
X136710000Y-48891000D03*
D12*
X46400000Y-51340000D03*
D13*
X46400000Y-53880000D03*
X46400000Y-56420000D03*
X46400000Y-58960000D03*
X46400000Y-61500000D03*
X46400000Y-64040000D03*
X46400000Y-66580000D03*
X46400000Y-69120000D03*
X46400000Y-71660000D03*
X46400000Y-74200000D03*
X46400000Y-76740000D03*
X46400000Y-79280000D03*
X46400000Y-81820000D03*
X46400000Y-84360000D03*
X46400000Y-86900000D03*
X46400000Y-89440000D03*
X46400000Y-91980000D03*
X46400000Y-94520000D03*
X46400000Y-97060000D03*
D14*
X103000000Y-99000000D03*
D15*
X145800000Y-93400000D03*
D16*
X143260000Y-93400000D03*
D17*
X155000000Y-73100000D03*
D18*
X157000000Y-74700000D03*
D19*
X157000000Y-77200000D03*
X157000000Y-79700000D03*
X157000000Y-82200000D03*
D14*
X102200000Y-44400000D03*
D12*
X78800000Y-97060000D03*
D13*
X78800000Y-94520000D03*
X78800000Y-91980000D03*
X78800000Y-89440000D03*
X78800000Y-86900000D03*
X78800000Y-84360000D03*
X78800000Y-81820000D03*
X78800000Y-79280000D03*
X78800000Y-76740000D03*
X78800000Y-74200000D03*
X78800000Y-71660000D03*
X78800000Y-69120000D03*
X78800000Y-66580000D03*
X78800000Y-64040000D03*
X78800000Y-61500000D03*
X78800000Y-58960000D03*
X78800000Y-56420000D03*
X78800000Y-53880000D03*
X78800000Y-51340000D03*
D20*
X155600000Y-93060000D03*
D21*
X155600000Y-95600000D03*
D22*
X94590000Y-68605000D03*
X97130000Y-68605000D03*
X99660000Y-68605000D03*
X102200000Y-68605000D03*
X104740000Y-68605000D03*
X107270000Y-68605000D03*
X109810000Y-68605000D03*
X112350000Y-68605000D03*
D17*
X154600000Y-50700000D03*
D18*
X156600000Y-52300000D03*
D19*
X156600000Y-54800000D03*
X156600000Y-57300000D03*
X156600000Y-59800000D03*
D23*
X49800000Y-51380000D03*
D24*
X49800000Y-53920000D03*
X49800000Y-56460000D03*
X49800000Y-59000000D03*
X49800000Y-61540000D03*
X49800000Y-64080000D03*
X49800000Y-66620000D03*
X49800000Y-69160000D03*
X49800000Y-71700000D03*
X49800000Y-74240000D03*
X49800000Y-76780000D03*
X49800000Y-79320000D03*
X49800000Y-81860000D03*
X49800000Y-84400000D03*
X49800000Y-86940000D03*
X49800000Y-89480000D03*
X49800000Y-92020000D03*
X49800000Y-94560000D03*
X49800000Y-97100000D03*
X75200000Y-51380000D03*
X75200000Y-53920000D03*
X75200000Y-56460000D03*
X75200000Y-59000000D03*
X75200000Y-61540000D03*
X75200000Y-64080000D03*
X75200000Y-66620000D03*
X75200000Y-69160000D03*
X75200000Y-71700000D03*
X75200000Y-74240000D03*
X75200000Y-76780000D03*
X75200000Y-79320000D03*
X75200000Y-81860000D03*
X75200000Y-84400000D03*
X75200000Y-86940000D03*
X75200000Y-89480000D03*
X75200000Y-92020000D03*
X75200000Y-94560000D03*
X75200000Y-97100000D03*
D10*
X132900000Y-88480000D03*
D11*
X132900000Y-85940000D03*
X132900000Y-83400000D03*
X132900000Y-80860000D03*
X132900000Y-78320000D03*
X132900000Y-75780000D03*
X132900000Y-73240000D03*
X132900000Y-70700000D03*
D10*
X145600000Y-70700000D03*
D11*
X145600000Y-73240000D03*
X145600000Y-75780000D03*
X145600000Y-78320000D03*
X145600000Y-80860000D03*
X145600000Y-83400000D03*
X145600000Y-85940000D03*
X145600000Y-88480000D03*
X137980000Y-70700000D03*
X135440000Y-70700000D03*
X136710000Y-72351000D03*
D25*
X137200000Y-92660000D03*
X137200000Y-97740000D03*
D22*
X124955500Y-92200000D03*
X124955500Y-75054000D03*
X85459500Y-92200000D03*
X85459500Y-75054000D03*
M02*
