G04 #@! TF.GenerationSoftware,KiCad,Pcbnew,9.0.4*
G04 #@! TF.CreationDate,2026-02-27T08:05:58+01:00*
G04 #@! TF.ProjectId,SABR-PCB,53414252-2050-4434-9220-424f41524420,rev?*
G04 #@! TF.SameCoordinates,Original*
G04 #@! TF.FileFunction,Legend,Top*
G04 #@! TF.FilePolarity,Positive*
%FSLAX46Y46*%
G04 Gerber Fmt 4.6, Leading zero omitted, Abs format (unit mm)*
G04 Created by KiCad (PCBNEW 9.0.4) date 2026-02-27 08:05:58*
%MOMM*%
%LPD*%
G01*
G04 APERTURE LIST*
%ADD10C,0.100000*%
%ADD11C,0.150000*%
%ADD12C,0.127000*%
%ADD13C,0.200000*%
%ADD14C,0.120000*%
%ADD15C,0.000000*%
G04 APERTURE END LIST*
D10*
X97503884Y-103272419D02*
X97503884Y-102272419D01*
X97503884Y-102272419D02*
X97837217Y-102986704D01*
X97837217Y-102986704D02*
X98170550Y-102272419D01*
X98170550Y-102272419D02*
X98170550Y-103272419D01*
X98551503Y-102272419D02*
X99170550Y-102272419D01*
X99170550Y-102272419D02*
X98837217Y-102653371D01*
X98837217Y-102653371D02*
X98980074Y-102653371D01*
X98980074Y-102653371D02*
X99075312Y-102700990D01*
X99075312Y-102700990D02*
X99122931Y-102748609D01*
X99122931Y-102748609D02*
X99170550Y-102843847D01*
X99170550Y-102843847D02*
X99170550Y-103081942D01*
X99170550Y-103081942D02*
X99122931Y-103177180D01*
X99122931Y-103177180D02*
X99075312Y-103224800D01*
X99075312Y-103224800D02*
X98980074Y-103272419D01*
X98980074Y-103272419D02*
X98694360Y-103272419D01*
X98694360Y-103272419D02*
X98599122Y-103224800D01*
X98599122Y-103224800D02*
X98551503Y-103177180D01*
X100361027Y-103272419D02*
X100361027Y-102272419D01*
X100361027Y-102272419D02*
X100694360Y-102986704D01*
X100694360Y-102986704D02*
X101027693Y-102272419D01*
X101027693Y-102272419D02*
X101027693Y-103272419D01*
X101646741Y-103272419D02*
X101551503Y-103224800D01*
X101551503Y-103224800D02*
X101503884Y-103177180D01*
X101503884Y-103177180D02*
X101456265Y-103081942D01*
X101456265Y-103081942D02*
X101456265Y-102796228D01*
X101456265Y-102796228D02*
X101503884Y-102700990D01*
X101503884Y-102700990D02*
X101551503Y-102653371D01*
X101551503Y-102653371D02*
X101646741Y-102605752D01*
X101646741Y-102605752D02*
X101789598Y-102605752D01*
X101789598Y-102605752D02*
X101884836Y-102653371D01*
X101884836Y-102653371D02*
X101932455Y-102700990D01*
X101932455Y-102700990D02*
X101980074Y-102796228D01*
X101980074Y-102796228D02*
X101980074Y-103081942D01*
X101980074Y-103081942D02*
X101932455Y-103177180D01*
X101932455Y-103177180D02*
X101884836Y-103224800D01*
X101884836Y-103224800D02*
X101789598Y-103272419D01*
X101789598Y-103272419D02*
X101646741Y-103272419D01*
X102837217Y-102605752D02*
X102837217Y-103272419D01*
X102408646Y-102605752D02*
X102408646Y-103129561D01*
X102408646Y-103129561D02*
X102456265Y-103224800D01*
X102456265Y-103224800D02*
X102551503Y-103272419D01*
X102551503Y-103272419D02*
X102694360Y-103272419D01*
X102694360Y-103272419D02*
X102789598Y-103224800D01*
X102789598Y-103224800D02*
X102837217Y-103177180D01*
X103313408Y-102605752D02*
X103313408Y-103272419D01*
X103313408Y-102700990D02*
X103361027Y-102653371D01*
X103361027Y-102653371D02*
X103456265Y-102605752D01*
X103456265Y-102605752D02*
X103599122Y-102605752D01*
X103599122Y-102605752D02*
X103694360Y-102653371D01*
X103694360Y-102653371D02*
X103741979Y-102748609D01*
X103741979Y-102748609D02*
X103741979Y-103272419D01*
X104075313Y-102605752D02*
X104456265Y-102605752D01*
X104218170Y-102272419D02*
X104218170Y-103129561D01*
X104218170Y-103129561D02*
X104265789Y-103224800D01*
X104265789Y-103224800D02*
X104361027Y-103272419D01*
X104361027Y-103272419D02*
X104456265Y-103272419D01*
X104789599Y-103272419D02*
X104789599Y-102605752D01*
X104789599Y-102272419D02*
X104741980Y-102320038D01*
X104741980Y-102320038D02*
X104789599Y-102367657D01*
X104789599Y-102367657D02*
X104837218Y-102320038D01*
X104837218Y-102320038D02*
X104789599Y-102272419D01*
X104789599Y-102272419D02*
X104789599Y-102367657D01*
X105265789Y-102605752D02*
X105265789Y-103272419D01*
X105265789Y-102700990D02*
X105313408Y-102653371D01*
X105313408Y-102653371D02*
X105408646Y-102605752D01*
X105408646Y-102605752D02*
X105551503Y-102605752D01*
X105551503Y-102605752D02*
X105646741Y-102653371D01*
X105646741Y-102653371D02*
X105694360Y-102748609D01*
X105694360Y-102748609D02*
X105694360Y-103272419D01*
X106599122Y-102605752D02*
X106599122Y-103415276D01*
X106599122Y-103415276D02*
X106551503Y-103510514D01*
X106551503Y-103510514D02*
X106503884Y-103558133D01*
X106503884Y-103558133D02*
X106408646Y-103605752D01*
X106408646Y-103605752D02*
X106265789Y-103605752D01*
X106265789Y-103605752D02*
X106170551Y-103558133D01*
X106599122Y-103224800D02*
X106503884Y-103272419D01*
X106503884Y-103272419D02*
X106313408Y-103272419D01*
X106313408Y-103272419D02*
X106218170Y-103224800D01*
X106218170Y-103224800D02*
X106170551Y-103177180D01*
X106170551Y-103177180D02*
X106122932Y-103081942D01*
X106122932Y-103081942D02*
X106122932Y-102796228D01*
X106122932Y-102796228D02*
X106170551Y-102700990D01*
X106170551Y-102700990D02*
X106218170Y-102653371D01*
X106218170Y-102653371D02*
X106313408Y-102605752D01*
X106313408Y-102605752D02*
X106503884Y-102605752D01*
X106503884Y-102605752D02*
X106599122Y-102653371D01*
X107837218Y-103272419D02*
X107837218Y-102272419D01*
X108265789Y-103272419D02*
X108265789Y-102748609D01*
X108265789Y-102748609D02*
X108218170Y-102653371D01*
X108218170Y-102653371D02*
X108122932Y-102605752D01*
X108122932Y-102605752D02*
X107980075Y-102605752D01*
X107980075Y-102605752D02*
X107884837Y-102653371D01*
X107884837Y-102653371D02*
X107837218Y-102700990D01*
X108884837Y-103272419D02*
X108789599Y-103224800D01*
X108789599Y-103224800D02*
X108741980Y-103177180D01*
X108741980Y-103177180D02*
X108694361Y-103081942D01*
X108694361Y-103081942D02*
X108694361Y-102796228D01*
X108694361Y-102796228D02*
X108741980Y-102700990D01*
X108741980Y-102700990D02*
X108789599Y-102653371D01*
X108789599Y-102653371D02*
X108884837Y-102605752D01*
X108884837Y-102605752D02*
X109027694Y-102605752D01*
X109027694Y-102605752D02*
X109122932Y-102653371D01*
X109122932Y-102653371D02*
X109170551Y-102700990D01*
X109170551Y-102700990D02*
X109218170Y-102796228D01*
X109218170Y-102796228D02*
X109218170Y-103081942D01*
X109218170Y-103081942D02*
X109170551Y-103177180D01*
X109170551Y-103177180D02*
X109122932Y-103224800D01*
X109122932Y-103224800D02*
X109027694Y-103272419D01*
X109027694Y-103272419D02*
X108884837Y-103272419D01*
X109789599Y-103272419D02*
X109694361Y-103224800D01*
X109694361Y-103224800D02*
X109646742Y-103129561D01*
X109646742Y-103129561D02*
X109646742Y-102272419D01*
X110551504Y-103224800D02*
X110456266Y-103272419D01*
X110456266Y-103272419D02*
X110265790Y-103272419D01*
X110265790Y-103272419D02*
X110170552Y-103224800D01*
X110170552Y-103224800D02*
X110122933Y-103129561D01*
X110122933Y-103129561D02*
X110122933Y-102748609D01*
X110122933Y-102748609D02*
X110170552Y-102653371D01*
X110170552Y-102653371D02*
X110265790Y-102605752D01*
X110265790Y-102605752D02*
X110456266Y-102605752D01*
X110456266Y-102605752D02*
X110551504Y-102653371D01*
X110551504Y-102653371D02*
X110599123Y-102748609D01*
X110599123Y-102748609D02*
X110599123Y-102843847D01*
X110599123Y-102843847D02*
X110122933Y-102939085D01*
X84494360Y-71472419D02*
X84684836Y-71472419D01*
X84684836Y-71472419D02*
X84780074Y-71520038D01*
X84780074Y-71520038D02*
X84875312Y-71615276D01*
X84875312Y-71615276D02*
X84922931Y-71805752D01*
X84922931Y-71805752D02*
X84922931Y-72139085D01*
X84922931Y-72139085D02*
X84875312Y-72329561D01*
X84875312Y-72329561D02*
X84780074Y-72424800D01*
X84780074Y-72424800D02*
X84684836Y-72472419D01*
X84684836Y-72472419D02*
X84494360Y-72472419D01*
X84494360Y-72472419D02*
X84399122Y-72424800D01*
X84399122Y-72424800D02*
X84303884Y-72329561D01*
X84303884Y-72329561D02*
X84256265Y-72139085D01*
X84256265Y-72139085D02*
X84256265Y-71805752D01*
X84256265Y-71805752D02*
X84303884Y-71615276D01*
X84303884Y-71615276D02*
X84399122Y-71520038D01*
X84399122Y-71520038D02*
X84494360Y-71472419D01*
X85351503Y-71472419D02*
X85351503Y-72281942D01*
X85351503Y-72281942D02*
X85399122Y-72377180D01*
X85399122Y-72377180D02*
X85446741Y-72424800D01*
X85446741Y-72424800D02*
X85541979Y-72472419D01*
X85541979Y-72472419D02*
X85732455Y-72472419D01*
X85732455Y-72472419D02*
X85827693Y-72424800D01*
X85827693Y-72424800D02*
X85875312Y-72377180D01*
X85875312Y-72377180D02*
X85922931Y-72281942D01*
X85922931Y-72281942D02*
X85922931Y-71472419D01*
X86256265Y-71472419D02*
X86827693Y-71472419D01*
X86541979Y-72472419D02*
X86541979Y-71472419D01*
X87161027Y-72091466D02*
X87922932Y-72091466D01*
X126303884Y-70872419D02*
X126303884Y-69872419D01*
X126780074Y-70872419D02*
X126780074Y-69872419D01*
X126780074Y-69872419D02*
X127351502Y-70872419D01*
X127351502Y-70872419D02*
X127351502Y-69872419D01*
X127827693Y-70491466D02*
X128589598Y-70491466D01*
X56503884Y-87948609D02*
X56837217Y-87948609D01*
X56980074Y-88472419D02*
X56503884Y-88472419D01*
X56503884Y-88472419D02*
X56503884Y-87472419D01*
X56503884Y-87472419D02*
X56980074Y-87472419D01*
X57361027Y-88424800D02*
X57503884Y-88472419D01*
X57503884Y-88472419D02*
X57741979Y-88472419D01*
X57741979Y-88472419D02*
X57837217Y-88424800D01*
X57837217Y-88424800D02*
X57884836Y-88377180D01*
X57884836Y-88377180D02*
X57932455Y-88281942D01*
X57932455Y-88281942D02*
X57932455Y-88186704D01*
X57932455Y-88186704D02*
X57884836Y-88091466D01*
X57884836Y-88091466D02*
X57837217Y-88043847D01*
X57837217Y-88043847D02*
X57741979Y-87996228D01*
X57741979Y-87996228D02*
X57551503Y-87948609D01*
X57551503Y-87948609D02*
X57456265Y-87900990D01*
X57456265Y-87900990D02*
X57408646Y-87853371D01*
X57408646Y-87853371D02*
X57361027Y-87758133D01*
X57361027Y-87758133D02*
X57361027Y-87662895D01*
X57361027Y-87662895D02*
X57408646Y-87567657D01*
X57408646Y-87567657D02*
X57456265Y-87520038D01*
X57456265Y-87520038D02*
X57551503Y-87472419D01*
X57551503Y-87472419D02*
X57789598Y-87472419D01*
X57789598Y-87472419D02*
X57932455Y-87520038D01*
X58361027Y-88472419D02*
X58361027Y-87472419D01*
X58361027Y-87472419D02*
X58741979Y-87472419D01*
X58741979Y-87472419D02*
X58837217Y-87520038D01*
X58837217Y-87520038D02*
X58884836Y-87567657D01*
X58884836Y-87567657D02*
X58932455Y-87662895D01*
X58932455Y-87662895D02*
X58932455Y-87805752D01*
X58932455Y-87805752D02*
X58884836Y-87900990D01*
X58884836Y-87900990D02*
X58837217Y-87948609D01*
X58837217Y-87948609D02*
X58741979Y-87996228D01*
X58741979Y-87996228D02*
X58361027Y-87996228D01*
X59265789Y-87472419D02*
X59884836Y-87472419D01*
X59884836Y-87472419D02*
X59551503Y-87853371D01*
X59551503Y-87853371D02*
X59694360Y-87853371D01*
X59694360Y-87853371D02*
X59789598Y-87900990D01*
X59789598Y-87900990D02*
X59837217Y-87948609D01*
X59837217Y-87948609D02*
X59884836Y-88043847D01*
X59884836Y-88043847D02*
X59884836Y-88281942D01*
X59884836Y-88281942D02*
X59837217Y-88377180D01*
X59837217Y-88377180D02*
X59789598Y-88424800D01*
X59789598Y-88424800D02*
X59694360Y-88472419D01*
X59694360Y-88472419D02*
X59408646Y-88472419D01*
X59408646Y-88472419D02*
X59313408Y-88424800D01*
X59313408Y-88424800D02*
X59265789Y-88377180D01*
X60265789Y-87567657D02*
X60313408Y-87520038D01*
X60313408Y-87520038D02*
X60408646Y-87472419D01*
X60408646Y-87472419D02*
X60646741Y-87472419D01*
X60646741Y-87472419D02*
X60741979Y-87520038D01*
X60741979Y-87520038D02*
X60789598Y-87567657D01*
X60789598Y-87567657D02*
X60837217Y-87662895D01*
X60837217Y-87662895D02*
X60837217Y-87758133D01*
X60837217Y-87758133D02*
X60789598Y-87900990D01*
X60789598Y-87900990D02*
X60218170Y-88472419D01*
X60218170Y-88472419D02*
X60837217Y-88472419D01*
X62027694Y-88472419D02*
X62027694Y-87472419D01*
X62027694Y-87472419D02*
X62265789Y-87472419D01*
X62265789Y-87472419D02*
X62408646Y-87520038D01*
X62408646Y-87520038D02*
X62503884Y-87615276D01*
X62503884Y-87615276D02*
X62551503Y-87710514D01*
X62551503Y-87710514D02*
X62599122Y-87900990D01*
X62599122Y-87900990D02*
X62599122Y-88043847D01*
X62599122Y-88043847D02*
X62551503Y-88234323D01*
X62551503Y-88234323D02*
X62503884Y-88329561D01*
X62503884Y-88329561D02*
X62408646Y-88424800D01*
X62408646Y-88424800D02*
X62265789Y-88472419D01*
X62265789Y-88472419D02*
X62027694Y-88472419D01*
X63027694Y-87948609D02*
X63361027Y-87948609D01*
X63503884Y-88472419D02*
X63027694Y-88472419D01*
X63027694Y-88472419D02*
X63027694Y-87472419D01*
X63027694Y-87472419D02*
X63503884Y-87472419D01*
X63789599Y-87472419D02*
X64122932Y-88472419D01*
X64122932Y-88472419D02*
X64456265Y-87472419D01*
X65551504Y-88472419D02*
X65551504Y-87472419D01*
X65551504Y-87472419D02*
X65884837Y-88186704D01*
X65884837Y-88186704D02*
X66218170Y-87472419D01*
X66218170Y-87472419D02*
X66218170Y-88472419D01*
X66884837Y-87472419D02*
X67075313Y-87472419D01*
X67075313Y-87472419D02*
X67170551Y-87520038D01*
X67170551Y-87520038D02*
X67265789Y-87615276D01*
X67265789Y-87615276D02*
X67313408Y-87805752D01*
X67313408Y-87805752D02*
X67313408Y-88139085D01*
X67313408Y-88139085D02*
X67265789Y-88329561D01*
X67265789Y-88329561D02*
X67170551Y-88424800D01*
X67170551Y-88424800D02*
X67075313Y-88472419D01*
X67075313Y-88472419D02*
X66884837Y-88472419D01*
X66884837Y-88472419D02*
X66789599Y-88424800D01*
X66789599Y-88424800D02*
X66694361Y-88329561D01*
X66694361Y-88329561D02*
X66646742Y-88139085D01*
X66646742Y-88139085D02*
X66646742Y-87805752D01*
X66646742Y-87805752D02*
X66694361Y-87615276D01*
X66694361Y-87615276D02*
X66789599Y-87520038D01*
X66789599Y-87520038D02*
X66884837Y-87472419D01*
X67741980Y-88472419D02*
X67741980Y-87472419D01*
X67741980Y-87472419D02*
X67980075Y-87472419D01*
X67980075Y-87472419D02*
X68122932Y-87520038D01*
X68122932Y-87520038D02*
X68218170Y-87615276D01*
X68218170Y-87615276D02*
X68265789Y-87710514D01*
X68265789Y-87710514D02*
X68313408Y-87900990D01*
X68313408Y-87900990D02*
X68313408Y-88043847D01*
X68313408Y-88043847D02*
X68265789Y-88234323D01*
X68265789Y-88234323D02*
X68218170Y-88329561D01*
X68218170Y-88329561D02*
X68122932Y-88424800D01*
X68122932Y-88424800D02*
X67980075Y-88472419D01*
X67980075Y-88472419D02*
X67741980Y-88472419D01*
X68741980Y-87472419D02*
X68741980Y-88281942D01*
X68741980Y-88281942D02*
X68789599Y-88377180D01*
X68789599Y-88377180D02*
X68837218Y-88424800D01*
X68837218Y-88424800D02*
X68932456Y-88472419D01*
X68932456Y-88472419D02*
X69122932Y-88472419D01*
X69122932Y-88472419D02*
X69218170Y-88424800D01*
X69218170Y-88424800D02*
X69265789Y-88377180D01*
X69265789Y-88377180D02*
X69313408Y-88281942D01*
X69313408Y-88281942D02*
X69313408Y-87472419D01*
X70265789Y-88472419D02*
X69789599Y-88472419D01*
X69789599Y-88472419D02*
X69789599Y-87472419D01*
X70599123Y-87948609D02*
X70932456Y-87948609D01*
X71075313Y-88472419D02*
X70599123Y-88472419D01*
X70599123Y-88472419D02*
X70599123Y-87472419D01*
X70599123Y-87472419D02*
X71075313Y-87472419D01*
X153303884Y-86672419D02*
X153303884Y-85672419D01*
X153303884Y-85672419D02*
X153637217Y-86386704D01*
X153637217Y-86386704D02*
X153970550Y-85672419D01*
X153970550Y-85672419D02*
X153970550Y-86672419D01*
X154970550Y-86672419D02*
X154399122Y-86672419D01*
X154684836Y-86672419D02*
X154684836Y-85672419D01*
X154684836Y-85672419D02*
X154589598Y-85815276D01*
X154589598Y-85815276D02*
X154494360Y-85910514D01*
X154494360Y-85910514D02*
X154399122Y-85958133D01*
X155399122Y-86291466D02*
X156161027Y-86291466D01*
X156922931Y-85672419D02*
X156922931Y-86386704D01*
X156922931Y-86386704D02*
X156875312Y-86529561D01*
X156875312Y-86529561D02*
X156780074Y-86624800D01*
X156780074Y-86624800D02*
X156637217Y-86672419D01*
X156637217Y-86672419D02*
X156541979Y-86672419D01*
X157351503Y-86624800D02*
X157494360Y-86672419D01*
X157494360Y-86672419D02*
X157732455Y-86672419D01*
X157732455Y-86672419D02*
X157827693Y-86624800D01*
X157827693Y-86624800D02*
X157875312Y-86577180D01*
X157875312Y-86577180D02*
X157922931Y-86481942D01*
X157922931Y-86481942D02*
X157922931Y-86386704D01*
X157922931Y-86386704D02*
X157875312Y-86291466D01*
X157875312Y-86291466D02*
X157827693Y-86243847D01*
X157827693Y-86243847D02*
X157732455Y-86196228D01*
X157732455Y-86196228D02*
X157541979Y-86148609D01*
X157541979Y-86148609D02*
X157446741Y-86100990D01*
X157446741Y-86100990D02*
X157399122Y-86053371D01*
X157399122Y-86053371D02*
X157351503Y-85958133D01*
X157351503Y-85958133D02*
X157351503Y-85862895D01*
X157351503Y-85862895D02*
X157399122Y-85767657D01*
X157399122Y-85767657D02*
X157446741Y-85720038D01*
X157446741Y-85720038D02*
X157541979Y-85672419D01*
X157541979Y-85672419D02*
X157780074Y-85672419D01*
X157780074Y-85672419D02*
X157922931Y-85720038D01*
X158208646Y-85672419D02*
X158780074Y-85672419D01*
X158494360Y-86672419D02*
X158494360Y-85672419D01*
X86494360Y-96672419D02*
X86684836Y-96672419D01*
X86684836Y-96672419D02*
X86780074Y-96720038D01*
X86780074Y-96720038D02*
X86875312Y-96815276D01*
X86875312Y-96815276D02*
X86922931Y-97005752D01*
X86922931Y-97005752D02*
X86922931Y-97339085D01*
X86922931Y-97339085D02*
X86875312Y-97529561D01*
X86875312Y-97529561D02*
X86780074Y-97624800D01*
X86780074Y-97624800D02*
X86684836Y-97672419D01*
X86684836Y-97672419D02*
X86494360Y-97672419D01*
X86494360Y-97672419D02*
X86399122Y-97624800D01*
X86399122Y-97624800D02*
X86303884Y-97529561D01*
X86303884Y-97529561D02*
X86256265Y-97339085D01*
X86256265Y-97339085D02*
X86256265Y-97005752D01*
X86256265Y-97005752D02*
X86303884Y-96815276D01*
X86303884Y-96815276D02*
X86399122Y-96720038D01*
X86399122Y-96720038D02*
X86494360Y-96672419D01*
X87351503Y-96672419D02*
X87351503Y-97481942D01*
X87351503Y-97481942D02*
X87399122Y-97577180D01*
X87399122Y-97577180D02*
X87446741Y-97624800D01*
X87446741Y-97624800D02*
X87541979Y-97672419D01*
X87541979Y-97672419D02*
X87732455Y-97672419D01*
X87732455Y-97672419D02*
X87827693Y-97624800D01*
X87827693Y-97624800D02*
X87875312Y-97577180D01*
X87875312Y-97577180D02*
X87922931Y-97481942D01*
X87922931Y-97481942D02*
X87922931Y-96672419D01*
X88256265Y-96672419D02*
X88827693Y-96672419D01*
X88541979Y-97672419D02*
X88541979Y-96672419D01*
X89161027Y-97291466D02*
X89922932Y-97291466D01*
X89541979Y-97672419D02*
X89541979Y-96910514D01*
X155303884Y-98691466D02*
X156065789Y-98691466D01*
X155684836Y-99072419D02*
X155684836Y-98310514D01*
X153503884Y-49072419D02*
X153503884Y-48072419D01*
X153503884Y-48072419D02*
X153837217Y-48786704D01*
X153837217Y-48786704D02*
X154170550Y-48072419D01*
X154170550Y-48072419D02*
X154170550Y-49072419D01*
X155170550Y-49072419D02*
X154599122Y-49072419D01*
X154884836Y-49072419D02*
X154884836Y-48072419D01*
X154884836Y-48072419D02*
X154789598Y-48215276D01*
X154789598Y-48215276D02*
X154694360Y-48310514D01*
X154694360Y-48310514D02*
X154599122Y-48358133D01*
X155599122Y-48691466D02*
X156361027Y-48691466D01*
X157122931Y-48072419D02*
X157122931Y-48786704D01*
X157122931Y-48786704D02*
X157075312Y-48929561D01*
X157075312Y-48929561D02*
X156980074Y-49024800D01*
X156980074Y-49024800D02*
X156837217Y-49072419D01*
X156837217Y-49072419D02*
X156741979Y-49072419D01*
X157551503Y-49024800D02*
X157694360Y-49072419D01*
X157694360Y-49072419D02*
X157932455Y-49072419D01*
X157932455Y-49072419D02*
X158027693Y-49024800D01*
X158027693Y-49024800D02*
X158075312Y-48977180D01*
X158075312Y-48977180D02*
X158122931Y-48881942D01*
X158122931Y-48881942D02*
X158122931Y-48786704D01*
X158122931Y-48786704D02*
X158075312Y-48691466D01*
X158075312Y-48691466D02*
X158027693Y-48643847D01*
X158027693Y-48643847D02*
X157932455Y-48596228D01*
X157932455Y-48596228D02*
X157741979Y-48548609D01*
X157741979Y-48548609D02*
X157646741Y-48500990D01*
X157646741Y-48500990D02*
X157599122Y-48453371D01*
X157599122Y-48453371D02*
X157551503Y-48358133D01*
X157551503Y-48358133D02*
X157551503Y-48262895D01*
X157551503Y-48262895D02*
X157599122Y-48167657D01*
X157599122Y-48167657D02*
X157646741Y-48120038D01*
X157646741Y-48120038D02*
X157741979Y-48072419D01*
X157741979Y-48072419D02*
X157980074Y-48072419D01*
X157980074Y-48072419D02*
X158122931Y-48120038D01*
X158408646Y-48072419D02*
X158980074Y-48072419D01*
X158694360Y-49072419D02*
X158694360Y-48072419D01*
X123703884Y-97872419D02*
X123703884Y-96872419D01*
X124180074Y-97872419D02*
X124180074Y-96872419D01*
X124180074Y-96872419D02*
X124751502Y-97872419D01*
X124751502Y-97872419D02*
X124751502Y-96872419D01*
X125227693Y-97491466D02*
X125989598Y-97491466D01*
X125608645Y-97872419D02*
X125608645Y-97110514D01*
X129103884Y-44872419D02*
X129103884Y-43872419D01*
X129103884Y-43872419D02*
X129437217Y-44586704D01*
X129437217Y-44586704D02*
X129770550Y-43872419D01*
X129770550Y-43872419D02*
X129770550Y-44872419D01*
X130770550Y-44872419D02*
X130199122Y-44872419D01*
X130484836Y-44872419D02*
X130484836Y-43872419D01*
X130484836Y-43872419D02*
X130389598Y-44015276D01*
X130389598Y-44015276D02*
X130294360Y-44110514D01*
X130294360Y-44110514D02*
X130199122Y-44158133D01*
X131818170Y-43872419D02*
X132389598Y-43872419D01*
X132103884Y-44872419D02*
X132103884Y-43872419D01*
X132722932Y-44872419D02*
X132722932Y-43872419D01*
X132722932Y-43872419D02*
X133056265Y-44586704D01*
X133056265Y-44586704D02*
X133389598Y-43872419D01*
X133389598Y-43872419D02*
X133389598Y-44872419D01*
X134437217Y-44777180D02*
X134389598Y-44824800D01*
X134389598Y-44824800D02*
X134246741Y-44872419D01*
X134246741Y-44872419D02*
X134151503Y-44872419D01*
X134151503Y-44872419D02*
X134008646Y-44824800D01*
X134008646Y-44824800D02*
X133913408Y-44729561D01*
X133913408Y-44729561D02*
X133865789Y-44634323D01*
X133865789Y-44634323D02*
X133818170Y-44443847D01*
X133818170Y-44443847D02*
X133818170Y-44300990D01*
X133818170Y-44300990D02*
X133865789Y-44110514D01*
X133865789Y-44110514D02*
X133913408Y-44015276D01*
X133913408Y-44015276D02*
X134008646Y-43920038D01*
X134008646Y-43920038D02*
X134151503Y-43872419D01*
X134151503Y-43872419D02*
X134246741Y-43872419D01*
X134246741Y-43872419D02*
X134389598Y-43920038D01*
X134389598Y-43920038D02*
X134437217Y-43967657D01*
X134818170Y-43967657D02*
X134865789Y-43920038D01*
X134865789Y-43920038D02*
X134961027Y-43872419D01*
X134961027Y-43872419D02*
X135199122Y-43872419D01*
X135199122Y-43872419D02*
X135294360Y-43920038D01*
X135294360Y-43920038D02*
X135341979Y-43967657D01*
X135341979Y-43967657D02*
X135389598Y-44062895D01*
X135389598Y-44062895D02*
X135389598Y-44158133D01*
X135389598Y-44158133D02*
X135341979Y-44300990D01*
X135341979Y-44300990D02*
X134770551Y-44872419D01*
X134770551Y-44872419D02*
X135389598Y-44872419D01*
X135770551Y-43967657D02*
X135818170Y-43920038D01*
X135818170Y-43920038D02*
X135913408Y-43872419D01*
X135913408Y-43872419D02*
X136151503Y-43872419D01*
X136151503Y-43872419D02*
X136246741Y-43920038D01*
X136246741Y-43920038D02*
X136294360Y-43967657D01*
X136294360Y-43967657D02*
X136341979Y-44062895D01*
X136341979Y-44062895D02*
X136341979Y-44158133D01*
X136341979Y-44158133D02*
X136294360Y-44300990D01*
X136294360Y-44300990D02*
X135722932Y-44872419D01*
X135722932Y-44872419D02*
X136341979Y-44872419D01*
X136961027Y-43872419D02*
X137056265Y-43872419D01*
X137056265Y-43872419D02*
X137151503Y-43920038D01*
X137151503Y-43920038D02*
X137199122Y-43967657D01*
X137199122Y-43967657D02*
X137246741Y-44062895D01*
X137246741Y-44062895D02*
X137294360Y-44253371D01*
X137294360Y-44253371D02*
X137294360Y-44491466D01*
X137294360Y-44491466D02*
X137246741Y-44681942D01*
X137246741Y-44681942D02*
X137199122Y-44777180D01*
X137199122Y-44777180D02*
X137151503Y-44824800D01*
X137151503Y-44824800D02*
X137056265Y-44872419D01*
X137056265Y-44872419D02*
X136961027Y-44872419D01*
X136961027Y-44872419D02*
X136865789Y-44824800D01*
X136865789Y-44824800D02*
X136818170Y-44777180D01*
X136818170Y-44777180D02*
X136770551Y-44681942D01*
X136770551Y-44681942D02*
X136722932Y-44491466D01*
X136722932Y-44491466D02*
X136722932Y-44253371D01*
X136722932Y-44253371D02*
X136770551Y-44062895D01*
X136770551Y-44062895D02*
X136818170Y-43967657D01*
X136818170Y-43967657D02*
X136865789Y-43920038D01*
X136865789Y-43920038D02*
X136961027Y-43872419D01*
X137865789Y-44300990D02*
X137770551Y-44253371D01*
X137770551Y-44253371D02*
X137722932Y-44205752D01*
X137722932Y-44205752D02*
X137675313Y-44110514D01*
X137675313Y-44110514D02*
X137675313Y-44062895D01*
X137675313Y-44062895D02*
X137722932Y-43967657D01*
X137722932Y-43967657D02*
X137770551Y-43920038D01*
X137770551Y-43920038D02*
X137865789Y-43872419D01*
X137865789Y-43872419D02*
X138056265Y-43872419D01*
X138056265Y-43872419D02*
X138151503Y-43920038D01*
X138151503Y-43920038D02*
X138199122Y-43967657D01*
X138199122Y-43967657D02*
X138246741Y-44062895D01*
X138246741Y-44062895D02*
X138246741Y-44110514D01*
X138246741Y-44110514D02*
X138199122Y-44205752D01*
X138199122Y-44205752D02*
X138151503Y-44253371D01*
X138151503Y-44253371D02*
X138056265Y-44300990D01*
X138056265Y-44300990D02*
X137865789Y-44300990D01*
X137865789Y-44300990D02*
X137770551Y-44348609D01*
X137770551Y-44348609D02*
X137722932Y-44396228D01*
X137722932Y-44396228D02*
X137675313Y-44491466D01*
X137675313Y-44491466D02*
X137675313Y-44681942D01*
X137675313Y-44681942D02*
X137722932Y-44777180D01*
X137722932Y-44777180D02*
X137770551Y-44824800D01*
X137770551Y-44824800D02*
X137865789Y-44872419D01*
X137865789Y-44872419D02*
X138056265Y-44872419D01*
X138056265Y-44872419D02*
X138151503Y-44824800D01*
X138151503Y-44824800D02*
X138199122Y-44777180D01*
X138199122Y-44777180D02*
X138246741Y-44681942D01*
X138246741Y-44681942D02*
X138246741Y-44491466D01*
X138246741Y-44491466D02*
X138199122Y-44396228D01*
X138199122Y-44396228D02*
X138151503Y-44348609D01*
X138151503Y-44348609D02*
X138056265Y-44300990D01*
X58361027Y-92272419D02*
X58932455Y-92272419D01*
X58646741Y-93272419D02*
X58646741Y-92272419D01*
X59265789Y-93272419D02*
X59265789Y-92272419D01*
X59265789Y-92748609D02*
X59837217Y-92748609D01*
X59837217Y-93272419D02*
X59837217Y-92272419D01*
X60313408Y-93272419D02*
X60313408Y-92272419D01*
X60741979Y-93224800D02*
X60884836Y-93272419D01*
X60884836Y-93272419D02*
X61122931Y-93272419D01*
X61122931Y-93272419D02*
X61218169Y-93224800D01*
X61218169Y-93224800D02*
X61265788Y-93177180D01*
X61265788Y-93177180D02*
X61313407Y-93081942D01*
X61313407Y-93081942D02*
X61313407Y-92986704D01*
X61313407Y-92986704D02*
X61265788Y-92891466D01*
X61265788Y-92891466D02*
X61218169Y-92843847D01*
X61218169Y-92843847D02*
X61122931Y-92796228D01*
X61122931Y-92796228D02*
X60932455Y-92748609D01*
X60932455Y-92748609D02*
X60837217Y-92700990D01*
X60837217Y-92700990D02*
X60789598Y-92653371D01*
X60789598Y-92653371D02*
X60741979Y-92558133D01*
X60741979Y-92558133D02*
X60741979Y-92462895D01*
X60741979Y-92462895D02*
X60789598Y-92367657D01*
X60789598Y-92367657D02*
X60837217Y-92320038D01*
X60837217Y-92320038D02*
X60932455Y-92272419D01*
X60932455Y-92272419D02*
X61170550Y-92272419D01*
X61170550Y-92272419D02*
X61313407Y-92320038D01*
X62408646Y-92272419D02*
X62646741Y-93272419D01*
X62646741Y-93272419D02*
X62837217Y-92558133D01*
X62837217Y-92558133D02*
X63027693Y-93272419D01*
X63027693Y-93272419D02*
X63265789Y-92272419D01*
X63599122Y-92986704D02*
X64075312Y-92986704D01*
X63503884Y-93272419D02*
X63837217Y-92272419D01*
X63837217Y-92272419D02*
X64170550Y-93272419D01*
X64694360Y-92796228D02*
X64694360Y-93272419D01*
X64361027Y-92272419D02*
X64694360Y-92796228D01*
X64694360Y-92796228D02*
X65027693Y-92272419D01*
X66884837Y-92272419D02*
X66884837Y-93081942D01*
X66884837Y-93081942D02*
X66932456Y-93177180D01*
X66932456Y-93177180D02*
X66980075Y-93224800D01*
X66980075Y-93224800D02*
X67075313Y-93272419D01*
X67075313Y-93272419D02*
X67265789Y-93272419D01*
X67265789Y-93272419D02*
X67361027Y-93224800D01*
X67361027Y-93224800D02*
X67408646Y-93177180D01*
X67408646Y-93177180D02*
X67456265Y-93081942D01*
X67456265Y-93081942D02*
X67456265Y-92272419D01*
X67932456Y-93272419D02*
X67932456Y-92272419D01*
X67932456Y-92272419D02*
X68313408Y-92272419D01*
X68313408Y-92272419D02*
X68408646Y-92320038D01*
X68408646Y-92320038D02*
X68456265Y-92367657D01*
X68456265Y-92367657D02*
X68503884Y-92462895D01*
X68503884Y-92462895D02*
X68503884Y-92605752D01*
X68503884Y-92605752D02*
X68456265Y-92700990D01*
X68456265Y-92700990D02*
X68408646Y-92748609D01*
X68408646Y-92748609D02*
X68313408Y-92796228D01*
X68313408Y-92796228D02*
X67932456Y-92796228D01*
X97503884Y-40072419D02*
X97503884Y-39072419D01*
X97503884Y-39072419D02*
X97837217Y-39786704D01*
X97837217Y-39786704D02*
X98170550Y-39072419D01*
X98170550Y-39072419D02*
X98170550Y-40072419D01*
X98551503Y-39072419D02*
X99170550Y-39072419D01*
X99170550Y-39072419D02*
X98837217Y-39453371D01*
X98837217Y-39453371D02*
X98980074Y-39453371D01*
X98980074Y-39453371D02*
X99075312Y-39500990D01*
X99075312Y-39500990D02*
X99122931Y-39548609D01*
X99122931Y-39548609D02*
X99170550Y-39643847D01*
X99170550Y-39643847D02*
X99170550Y-39881942D01*
X99170550Y-39881942D02*
X99122931Y-39977180D01*
X99122931Y-39977180D02*
X99075312Y-40024800D01*
X99075312Y-40024800D02*
X98980074Y-40072419D01*
X98980074Y-40072419D02*
X98694360Y-40072419D01*
X98694360Y-40072419D02*
X98599122Y-40024800D01*
X98599122Y-40024800D02*
X98551503Y-39977180D01*
X100361027Y-40072419D02*
X100361027Y-39072419D01*
X100361027Y-39072419D02*
X100694360Y-39786704D01*
X100694360Y-39786704D02*
X101027693Y-39072419D01*
X101027693Y-39072419D02*
X101027693Y-40072419D01*
X101646741Y-40072419D02*
X101551503Y-40024800D01*
X101551503Y-40024800D02*
X101503884Y-39977180D01*
X101503884Y-39977180D02*
X101456265Y-39881942D01*
X101456265Y-39881942D02*
X101456265Y-39596228D01*
X101456265Y-39596228D02*
X101503884Y-39500990D01*
X101503884Y-39500990D02*
X101551503Y-39453371D01*
X101551503Y-39453371D02*
X101646741Y-39405752D01*
X101646741Y-39405752D02*
X101789598Y-39405752D01*
X101789598Y-39405752D02*
X101884836Y-39453371D01*
X101884836Y-39453371D02*
X101932455Y-39500990D01*
X101932455Y-39500990D02*
X101980074Y-39596228D01*
X101980074Y-39596228D02*
X101980074Y-39881942D01*
X101980074Y-39881942D02*
X101932455Y-39977180D01*
X101932455Y-39977180D02*
X101884836Y-40024800D01*
X101884836Y-40024800D02*
X101789598Y-40072419D01*
X101789598Y-40072419D02*
X101646741Y-40072419D01*
X102837217Y-39405752D02*
X102837217Y-40072419D01*
X102408646Y-39405752D02*
X102408646Y-39929561D01*
X102408646Y-39929561D02*
X102456265Y-40024800D01*
X102456265Y-40024800D02*
X102551503Y-40072419D01*
X102551503Y-40072419D02*
X102694360Y-40072419D01*
X102694360Y-40072419D02*
X102789598Y-40024800D01*
X102789598Y-40024800D02*
X102837217Y-39977180D01*
X103313408Y-39405752D02*
X103313408Y-40072419D01*
X103313408Y-39500990D02*
X103361027Y-39453371D01*
X103361027Y-39453371D02*
X103456265Y-39405752D01*
X103456265Y-39405752D02*
X103599122Y-39405752D01*
X103599122Y-39405752D02*
X103694360Y-39453371D01*
X103694360Y-39453371D02*
X103741979Y-39548609D01*
X103741979Y-39548609D02*
X103741979Y-40072419D01*
X104075313Y-39405752D02*
X104456265Y-39405752D01*
X104218170Y-39072419D02*
X104218170Y-39929561D01*
X104218170Y-39929561D02*
X104265789Y-40024800D01*
X104265789Y-40024800D02*
X104361027Y-40072419D01*
X104361027Y-40072419D02*
X104456265Y-40072419D01*
X104789599Y-40072419D02*
X104789599Y-39405752D01*
X104789599Y-39072419D02*
X104741980Y-39120038D01*
X104741980Y-39120038D02*
X104789599Y-39167657D01*
X104789599Y-39167657D02*
X104837218Y-39120038D01*
X104837218Y-39120038D02*
X104789599Y-39072419D01*
X104789599Y-39072419D02*
X104789599Y-39167657D01*
X105265789Y-39405752D02*
X105265789Y-40072419D01*
X105265789Y-39500990D02*
X105313408Y-39453371D01*
X105313408Y-39453371D02*
X105408646Y-39405752D01*
X105408646Y-39405752D02*
X105551503Y-39405752D01*
X105551503Y-39405752D02*
X105646741Y-39453371D01*
X105646741Y-39453371D02*
X105694360Y-39548609D01*
X105694360Y-39548609D02*
X105694360Y-40072419D01*
X106599122Y-39405752D02*
X106599122Y-40215276D01*
X106599122Y-40215276D02*
X106551503Y-40310514D01*
X106551503Y-40310514D02*
X106503884Y-40358133D01*
X106503884Y-40358133D02*
X106408646Y-40405752D01*
X106408646Y-40405752D02*
X106265789Y-40405752D01*
X106265789Y-40405752D02*
X106170551Y-40358133D01*
X106599122Y-40024800D02*
X106503884Y-40072419D01*
X106503884Y-40072419D02*
X106313408Y-40072419D01*
X106313408Y-40072419D02*
X106218170Y-40024800D01*
X106218170Y-40024800D02*
X106170551Y-39977180D01*
X106170551Y-39977180D02*
X106122932Y-39881942D01*
X106122932Y-39881942D02*
X106122932Y-39596228D01*
X106122932Y-39596228D02*
X106170551Y-39500990D01*
X106170551Y-39500990D02*
X106218170Y-39453371D01*
X106218170Y-39453371D02*
X106313408Y-39405752D01*
X106313408Y-39405752D02*
X106503884Y-39405752D01*
X106503884Y-39405752D02*
X106599122Y-39453371D01*
X107837218Y-40072419D02*
X107837218Y-39072419D01*
X108265789Y-40072419D02*
X108265789Y-39548609D01*
X108265789Y-39548609D02*
X108218170Y-39453371D01*
X108218170Y-39453371D02*
X108122932Y-39405752D01*
X108122932Y-39405752D02*
X107980075Y-39405752D01*
X107980075Y-39405752D02*
X107884837Y-39453371D01*
X107884837Y-39453371D02*
X107837218Y-39500990D01*
X108884837Y-40072419D02*
X108789599Y-40024800D01*
X108789599Y-40024800D02*
X108741980Y-39977180D01*
X108741980Y-39977180D02*
X108694361Y-39881942D01*
X108694361Y-39881942D02*
X108694361Y-39596228D01*
X108694361Y-39596228D02*
X108741980Y-39500990D01*
X108741980Y-39500990D02*
X108789599Y-39453371D01*
X108789599Y-39453371D02*
X108884837Y-39405752D01*
X108884837Y-39405752D02*
X109027694Y-39405752D01*
X109027694Y-39405752D02*
X109122932Y-39453371D01*
X109122932Y-39453371D02*
X109170551Y-39500990D01*
X109170551Y-39500990D02*
X109218170Y-39596228D01*
X109218170Y-39596228D02*
X109218170Y-39881942D01*
X109218170Y-39881942D02*
X109170551Y-39977180D01*
X109170551Y-39977180D02*
X109122932Y-40024800D01*
X109122932Y-40024800D02*
X109027694Y-40072419D01*
X109027694Y-40072419D02*
X108884837Y-40072419D01*
X109789599Y-40072419D02*
X109694361Y-40024800D01*
X109694361Y-40024800D02*
X109646742Y-39929561D01*
X109646742Y-39929561D02*
X109646742Y-39072419D01*
X110551504Y-40024800D02*
X110456266Y-40072419D01*
X110456266Y-40072419D02*
X110265790Y-40072419D01*
X110265790Y-40072419D02*
X110170552Y-40024800D01*
X110170552Y-40024800D02*
X110122933Y-39929561D01*
X110122933Y-39929561D02*
X110122933Y-39548609D01*
X110122933Y-39548609D02*
X110170552Y-39453371D01*
X110170552Y-39453371D02*
X110265790Y-39405752D01*
X110265790Y-39405752D02*
X110456266Y-39405752D01*
X110456266Y-39405752D02*
X110551504Y-39453371D01*
X110551504Y-39453371D02*
X110599123Y-39548609D01*
X110599123Y-39548609D02*
X110599123Y-39643847D01*
X110599123Y-39643847D02*
X110122933Y-39739085D01*
X127903884Y-68472419D02*
X127903884Y-67472419D01*
X127903884Y-67472419D02*
X128237217Y-68186704D01*
X128237217Y-68186704D02*
X128570550Y-67472419D01*
X128570550Y-67472419D02*
X128570550Y-68472419D01*
X128999122Y-67567657D02*
X129046741Y-67520038D01*
X129046741Y-67520038D02*
X129141979Y-67472419D01*
X129141979Y-67472419D02*
X129380074Y-67472419D01*
X129380074Y-67472419D02*
X129475312Y-67520038D01*
X129475312Y-67520038D02*
X129522931Y-67567657D01*
X129522931Y-67567657D02*
X129570550Y-67662895D01*
X129570550Y-67662895D02*
X129570550Y-67758133D01*
X129570550Y-67758133D02*
X129522931Y-67900990D01*
X129522931Y-67900990D02*
X128951503Y-68472419D01*
X128951503Y-68472419D02*
X129570550Y-68472419D01*
X130618170Y-67472419D02*
X131189598Y-67472419D01*
X130903884Y-68472419D02*
X130903884Y-67472419D01*
X131522932Y-68472419D02*
X131522932Y-67472419D01*
X131522932Y-67472419D02*
X131856265Y-68186704D01*
X131856265Y-68186704D02*
X132189598Y-67472419D01*
X132189598Y-67472419D02*
X132189598Y-68472419D01*
X133237217Y-68377180D02*
X133189598Y-68424800D01*
X133189598Y-68424800D02*
X133046741Y-68472419D01*
X133046741Y-68472419D02*
X132951503Y-68472419D01*
X132951503Y-68472419D02*
X132808646Y-68424800D01*
X132808646Y-68424800D02*
X132713408Y-68329561D01*
X132713408Y-68329561D02*
X132665789Y-68234323D01*
X132665789Y-68234323D02*
X132618170Y-68043847D01*
X132618170Y-68043847D02*
X132618170Y-67900990D01*
X132618170Y-67900990D02*
X132665789Y-67710514D01*
X132665789Y-67710514D02*
X132713408Y-67615276D01*
X132713408Y-67615276D02*
X132808646Y-67520038D01*
X132808646Y-67520038D02*
X132951503Y-67472419D01*
X132951503Y-67472419D02*
X133046741Y-67472419D01*
X133046741Y-67472419D02*
X133189598Y-67520038D01*
X133189598Y-67520038D02*
X133237217Y-67567657D01*
X133618170Y-67567657D02*
X133665789Y-67520038D01*
X133665789Y-67520038D02*
X133761027Y-67472419D01*
X133761027Y-67472419D02*
X133999122Y-67472419D01*
X133999122Y-67472419D02*
X134094360Y-67520038D01*
X134094360Y-67520038D02*
X134141979Y-67567657D01*
X134141979Y-67567657D02*
X134189598Y-67662895D01*
X134189598Y-67662895D02*
X134189598Y-67758133D01*
X134189598Y-67758133D02*
X134141979Y-67900990D01*
X134141979Y-67900990D02*
X133570551Y-68472419D01*
X133570551Y-68472419D02*
X134189598Y-68472419D01*
X134570551Y-67567657D02*
X134618170Y-67520038D01*
X134618170Y-67520038D02*
X134713408Y-67472419D01*
X134713408Y-67472419D02*
X134951503Y-67472419D01*
X134951503Y-67472419D02*
X135046741Y-67520038D01*
X135046741Y-67520038D02*
X135094360Y-67567657D01*
X135094360Y-67567657D02*
X135141979Y-67662895D01*
X135141979Y-67662895D02*
X135141979Y-67758133D01*
X135141979Y-67758133D02*
X135094360Y-67900990D01*
X135094360Y-67900990D02*
X134522932Y-68472419D01*
X134522932Y-68472419D02*
X135141979Y-68472419D01*
X135761027Y-67472419D02*
X135856265Y-67472419D01*
X135856265Y-67472419D02*
X135951503Y-67520038D01*
X135951503Y-67520038D02*
X135999122Y-67567657D01*
X135999122Y-67567657D02*
X136046741Y-67662895D01*
X136046741Y-67662895D02*
X136094360Y-67853371D01*
X136094360Y-67853371D02*
X136094360Y-68091466D01*
X136094360Y-68091466D02*
X136046741Y-68281942D01*
X136046741Y-68281942D02*
X135999122Y-68377180D01*
X135999122Y-68377180D02*
X135951503Y-68424800D01*
X135951503Y-68424800D02*
X135856265Y-68472419D01*
X135856265Y-68472419D02*
X135761027Y-68472419D01*
X135761027Y-68472419D02*
X135665789Y-68424800D01*
X135665789Y-68424800D02*
X135618170Y-68377180D01*
X135618170Y-68377180D02*
X135570551Y-68281942D01*
X135570551Y-68281942D02*
X135522932Y-68091466D01*
X135522932Y-68091466D02*
X135522932Y-67853371D01*
X135522932Y-67853371D02*
X135570551Y-67662895D01*
X135570551Y-67662895D02*
X135618170Y-67567657D01*
X135618170Y-67567657D02*
X135665789Y-67520038D01*
X135665789Y-67520038D02*
X135761027Y-67472419D01*
X136665789Y-67900990D02*
X136570551Y-67853371D01*
X136570551Y-67853371D02*
X136522932Y-67805752D01*
X136522932Y-67805752D02*
X136475313Y-67710514D01*
X136475313Y-67710514D02*
X136475313Y-67662895D01*
X136475313Y-67662895D02*
X136522932Y-67567657D01*
X136522932Y-67567657D02*
X136570551Y-67520038D01*
X136570551Y-67520038D02*
X136665789Y-67472419D01*
X136665789Y-67472419D02*
X136856265Y-67472419D01*
X136856265Y-67472419D02*
X136951503Y-67520038D01*
X136951503Y-67520038D02*
X136999122Y-67567657D01*
X136999122Y-67567657D02*
X137046741Y-67662895D01*
X137046741Y-67662895D02*
X137046741Y-67710514D01*
X137046741Y-67710514D02*
X136999122Y-67805752D01*
X136999122Y-67805752D02*
X136951503Y-67853371D01*
X136951503Y-67853371D02*
X136856265Y-67900990D01*
X136856265Y-67900990D02*
X136665789Y-67900990D01*
X136665789Y-67900990D02*
X136570551Y-67948609D01*
X136570551Y-67948609D02*
X136522932Y-67996228D01*
X136522932Y-67996228D02*
X136475313Y-68091466D01*
X136475313Y-68091466D02*
X136475313Y-68281942D01*
X136475313Y-68281942D02*
X136522932Y-68377180D01*
X136522932Y-68377180D02*
X136570551Y-68424800D01*
X136570551Y-68424800D02*
X136665789Y-68472419D01*
X136665789Y-68472419D02*
X136856265Y-68472419D01*
X136856265Y-68472419D02*
X136951503Y-68424800D01*
X136951503Y-68424800D02*
X136999122Y-68377180D01*
X136999122Y-68377180D02*
X137046741Y-68281942D01*
X137046741Y-68281942D02*
X137046741Y-68091466D01*
X137046741Y-68091466D02*
X136999122Y-67996228D01*
X136999122Y-67996228D02*
X136951503Y-67948609D01*
X136951503Y-67948609D02*
X136856265Y-67900990D01*
X155303884Y-89691466D02*
X156065789Y-89691466D01*
X100303884Y-54072419D02*
X100303884Y-53072419D01*
X100303884Y-53072419D02*
X100637217Y-53786704D01*
X100637217Y-53786704D02*
X100970550Y-53072419D01*
X100970550Y-53072419D02*
X100970550Y-54072419D01*
X101446741Y-54072419D02*
X101446741Y-53072419D01*
X101446741Y-53072419D02*
X101827693Y-53072419D01*
X101827693Y-53072419D02*
X101922931Y-53120038D01*
X101922931Y-53120038D02*
X101970550Y-53167657D01*
X101970550Y-53167657D02*
X102018169Y-53262895D01*
X102018169Y-53262895D02*
X102018169Y-53405752D01*
X102018169Y-53405752D02*
X101970550Y-53500990D01*
X101970550Y-53500990D02*
X101922931Y-53548609D01*
X101922931Y-53548609D02*
X101827693Y-53596228D01*
X101827693Y-53596228D02*
X101446741Y-53596228D01*
X102446741Y-53072419D02*
X102446741Y-53881942D01*
X102446741Y-53881942D02*
X102494360Y-53977180D01*
X102494360Y-53977180D02*
X102541979Y-54024800D01*
X102541979Y-54024800D02*
X102637217Y-54072419D01*
X102637217Y-54072419D02*
X102827693Y-54072419D01*
X102827693Y-54072419D02*
X102922931Y-54024800D01*
X102922931Y-54024800D02*
X102970550Y-53977180D01*
X102970550Y-53977180D02*
X103018169Y-53881942D01*
X103018169Y-53881942D02*
X103018169Y-53072419D01*
X103922931Y-53072419D02*
X103732455Y-53072419D01*
X103732455Y-53072419D02*
X103637217Y-53120038D01*
X103637217Y-53120038D02*
X103589598Y-53167657D01*
X103589598Y-53167657D02*
X103494360Y-53310514D01*
X103494360Y-53310514D02*
X103446741Y-53500990D01*
X103446741Y-53500990D02*
X103446741Y-53881942D01*
X103446741Y-53881942D02*
X103494360Y-53977180D01*
X103494360Y-53977180D02*
X103541979Y-54024800D01*
X103541979Y-54024800D02*
X103637217Y-54072419D01*
X103637217Y-54072419D02*
X103827693Y-54072419D01*
X103827693Y-54072419D02*
X103922931Y-54024800D01*
X103922931Y-54024800D02*
X103970550Y-53977180D01*
X103970550Y-53977180D02*
X104018169Y-53881942D01*
X104018169Y-53881942D02*
X104018169Y-53643847D01*
X104018169Y-53643847D02*
X103970550Y-53548609D01*
X103970550Y-53548609D02*
X103922931Y-53500990D01*
X103922931Y-53500990D02*
X103827693Y-53453371D01*
X103827693Y-53453371D02*
X103637217Y-53453371D01*
X103637217Y-53453371D02*
X103541979Y-53500990D01*
X103541979Y-53500990D02*
X103494360Y-53548609D01*
X103494360Y-53548609D02*
X103446741Y-53643847D01*
X104637217Y-53072419D02*
X104732455Y-53072419D01*
X104732455Y-53072419D02*
X104827693Y-53120038D01*
X104827693Y-53120038D02*
X104875312Y-53167657D01*
X104875312Y-53167657D02*
X104922931Y-53262895D01*
X104922931Y-53262895D02*
X104970550Y-53453371D01*
X104970550Y-53453371D02*
X104970550Y-53691466D01*
X104970550Y-53691466D02*
X104922931Y-53881942D01*
X104922931Y-53881942D02*
X104875312Y-53977180D01*
X104875312Y-53977180D02*
X104827693Y-54024800D01*
X104827693Y-54024800D02*
X104732455Y-54072419D01*
X104732455Y-54072419D02*
X104637217Y-54072419D01*
X104637217Y-54072419D02*
X104541979Y-54024800D01*
X104541979Y-54024800D02*
X104494360Y-53977180D01*
X104494360Y-53977180D02*
X104446741Y-53881942D01*
X104446741Y-53881942D02*
X104399122Y-53691466D01*
X104399122Y-53691466D02*
X104399122Y-53453371D01*
X104399122Y-53453371D02*
X104446741Y-53262895D01*
X104446741Y-53262895D02*
X104494360Y-53167657D01*
X104494360Y-53167657D02*
X104541979Y-53120038D01*
X104541979Y-53120038D02*
X104637217Y-53072419D01*
X105875312Y-53072419D02*
X105399122Y-53072419D01*
X105399122Y-53072419D02*
X105351503Y-53548609D01*
X105351503Y-53548609D02*
X105399122Y-53500990D01*
X105399122Y-53500990D02*
X105494360Y-53453371D01*
X105494360Y-53453371D02*
X105732455Y-53453371D01*
X105732455Y-53453371D02*
X105827693Y-53500990D01*
X105827693Y-53500990D02*
X105875312Y-53548609D01*
X105875312Y-53548609D02*
X105922931Y-53643847D01*
X105922931Y-53643847D02*
X105922931Y-53881942D01*
X105922931Y-53881942D02*
X105875312Y-53977180D01*
X105875312Y-53977180D02*
X105827693Y-54024800D01*
X105827693Y-54024800D02*
X105732455Y-54072419D01*
X105732455Y-54072419D02*
X105494360Y-54072419D01*
X105494360Y-54072419D02*
X105399122Y-54024800D01*
X105399122Y-54024800D02*
X105351503Y-53977180D01*
X106541979Y-53072419D02*
X106637217Y-53072419D01*
X106637217Y-53072419D02*
X106732455Y-53120038D01*
X106732455Y-53120038D02*
X106780074Y-53167657D01*
X106780074Y-53167657D02*
X106827693Y-53262895D01*
X106827693Y-53262895D02*
X106875312Y-53453371D01*
X106875312Y-53453371D02*
X106875312Y-53691466D01*
X106875312Y-53691466D02*
X106827693Y-53881942D01*
X106827693Y-53881942D02*
X106780074Y-53977180D01*
X106780074Y-53977180D02*
X106732455Y-54024800D01*
X106732455Y-54024800D02*
X106637217Y-54072419D01*
X106637217Y-54072419D02*
X106541979Y-54072419D01*
X106541979Y-54072419D02*
X106446741Y-54024800D01*
X106446741Y-54024800D02*
X106399122Y-53977180D01*
X106399122Y-53977180D02*
X106351503Y-53881942D01*
X106351503Y-53881942D02*
X106303884Y-53691466D01*
X106303884Y-53691466D02*
X106303884Y-53453371D01*
X106303884Y-53453371D02*
X106351503Y-53262895D01*
X106351503Y-53262895D02*
X106399122Y-53167657D01*
X106399122Y-53167657D02*
X106446741Y-53120038D01*
X106446741Y-53120038D02*
X106541979Y-53072419D01*
D11*
X141338333Y-66858866D02*
X141338333Y-67992200D01*
X141338333Y-67992200D02*
X141405000Y-68125533D01*
X141405000Y-68125533D02*
X141471666Y-68192200D01*
X141471666Y-68192200D02*
X141605000Y-68258866D01*
X141605000Y-68258866D02*
X141871666Y-68258866D01*
X141871666Y-68258866D02*
X142005000Y-68192200D01*
X142005000Y-68192200D02*
X142071666Y-68125533D01*
X142071666Y-68125533D02*
X142138333Y-67992200D01*
X142138333Y-67992200D02*
X142138333Y-66858866D01*
X143405000Y-67325533D02*
X143405000Y-68258866D01*
X143071667Y-66792200D02*
X142738333Y-67792200D01*
X142738333Y-67792200D02*
X143605000Y-67792200D01*
X46066666Y-48414819D02*
X46066666Y-49129104D01*
X46066666Y-49129104D02*
X46019047Y-49271961D01*
X46019047Y-49271961D02*
X45923809Y-49367200D01*
X45923809Y-49367200D02*
X45780952Y-49414819D01*
X45780952Y-49414819D02*
X45685714Y-49414819D01*
X47066666Y-49414819D02*
X46495238Y-49414819D01*
X46780952Y-49414819D02*
X46780952Y-48414819D01*
X46780952Y-48414819D02*
X46685714Y-48557676D01*
X46685714Y-48557676D02*
X46590476Y-48652914D01*
X46590476Y-48652914D02*
X46495238Y-48700533D01*
X148461905Y-95854819D02*
X148461905Y-94854819D01*
X148461905Y-94854819D02*
X148700000Y-94854819D01*
X148700000Y-94854819D02*
X148842857Y-94902438D01*
X148842857Y-94902438D02*
X148938095Y-94997676D01*
X148938095Y-94997676D02*
X148985714Y-95092914D01*
X148985714Y-95092914D02*
X149033333Y-95283390D01*
X149033333Y-95283390D02*
X149033333Y-95426247D01*
X149033333Y-95426247D02*
X148985714Y-95616723D01*
X148985714Y-95616723D02*
X148938095Y-95711961D01*
X148938095Y-95711961D02*
X148842857Y-95807200D01*
X148842857Y-95807200D02*
X148700000Y-95854819D01*
X148700000Y-95854819D02*
X148461905Y-95854819D01*
X149985714Y-95854819D02*
X149414286Y-95854819D01*
X149700000Y-95854819D02*
X149700000Y-94854819D01*
X149700000Y-94854819D02*
X149604762Y-94997676D01*
X149604762Y-94997676D02*
X149509524Y-95092914D01*
X149509524Y-95092914D02*
X149414286Y-95140533D01*
X151544819Y-81758333D02*
X152259104Y-81758333D01*
X152259104Y-81758333D02*
X152401961Y-81805952D01*
X152401961Y-81805952D02*
X152497200Y-81901190D01*
X152497200Y-81901190D02*
X152544819Y-82044047D01*
X152544819Y-82044047D02*
X152544819Y-82139285D01*
X151544819Y-80805952D02*
X151544819Y-81282142D01*
X151544819Y-81282142D02*
X152021009Y-81329761D01*
X152021009Y-81329761D02*
X151973390Y-81282142D01*
X151973390Y-81282142D02*
X151925771Y-81186904D01*
X151925771Y-81186904D02*
X151925771Y-80948809D01*
X151925771Y-80948809D02*
X151973390Y-80853571D01*
X151973390Y-80853571D02*
X152021009Y-80805952D01*
X152021009Y-80805952D02*
X152116247Y-80758333D01*
X152116247Y-80758333D02*
X152354342Y-80758333D01*
X152354342Y-80758333D02*
X152449580Y-80805952D01*
X152449580Y-80805952D02*
X152497200Y-80853571D01*
X152497200Y-80853571D02*
X152544819Y-80948809D01*
X152544819Y-80948809D02*
X152544819Y-81186904D01*
X152544819Y-81186904D02*
X152497200Y-81282142D01*
X152497200Y-81282142D02*
X152449580Y-81329761D01*
X81066666Y-94654819D02*
X81066666Y-95369104D01*
X81066666Y-95369104D02*
X81019047Y-95511961D01*
X81019047Y-95511961D02*
X80923809Y-95607200D01*
X80923809Y-95607200D02*
X80780952Y-95654819D01*
X80780952Y-95654819D02*
X80685714Y-95654819D01*
X81495238Y-94750057D02*
X81542857Y-94702438D01*
X81542857Y-94702438D02*
X81638095Y-94654819D01*
X81638095Y-94654819D02*
X81876190Y-94654819D01*
X81876190Y-94654819D02*
X81971428Y-94702438D01*
X81971428Y-94702438D02*
X82019047Y-94750057D01*
X82019047Y-94750057D02*
X82066666Y-94845295D01*
X82066666Y-94845295D02*
X82066666Y-94940533D01*
X82066666Y-94940533D02*
X82019047Y-95083390D01*
X82019047Y-95083390D02*
X81447619Y-95654819D01*
X81447619Y-95654819D02*
X82066666Y-95654819D01*
X160254819Y-96333333D02*
X160969104Y-96333333D01*
X160969104Y-96333333D02*
X161111961Y-96380952D01*
X161111961Y-96380952D02*
X161207200Y-96476190D01*
X161207200Y-96476190D02*
X161254819Y-96619047D01*
X161254819Y-96619047D02*
X161254819Y-96714285D01*
X160254819Y-95952380D02*
X160254819Y-95333333D01*
X160254819Y-95333333D02*
X160635771Y-95666666D01*
X160635771Y-95666666D02*
X160635771Y-95523809D01*
X160635771Y-95523809D02*
X160683390Y-95428571D01*
X160683390Y-95428571D02*
X160731009Y-95380952D01*
X160731009Y-95380952D02*
X160826247Y-95333333D01*
X160826247Y-95333333D02*
X161064342Y-95333333D01*
X161064342Y-95333333D02*
X161159580Y-95380952D01*
X161159580Y-95380952D02*
X161207200Y-95428571D01*
X161207200Y-95428571D02*
X161254819Y-95523809D01*
X161254819Y-95523809D02*
X161254819Y-95809523D01*
X161254819Y-95809523D02*
X161207200Y-95904761D01*
X161207200Y-95904761D02*
X161159580Y-95952380D01*
D10*
X102168095Y-59462419D02*
X102168095Y-60271942D01*
X102168095Y-60271942D02*
X102215714Y-60367180D01*
X102215714Y-60367180D02*
X102263333Y-60414800D01*
X102263333Y-60414800D02*
X102358571Y-60462419D01*
X102358571Y-60462419D02*
X102549047Y-60462419D01*
X102549047Y-60462419D02*
X102644285Y-60414800D01*
X102644285Y-60414800D02*
X102691904Y-60367180D01*
X102691904Y-60367180D02*
X102739523Y-60271942D01*
X102739523Y-60271942D02*
X102739523Y-59462419D01*
X103644285Y-59462419D02*
X103453809Y-59462419D01*
X103453809Y-59462419D02*
X103358571Y-59510038D01*
X103358571Y-59510038D02*
X103310952Y-59557657D01*
X103310952Y-59557657D02*
X103215714Y-59700514D01*
X103215714Y-59700514D02*
X103168095Y-59890990D01*
X103168095Y-59890990D02*
X103168095Y-60271942D01*
X103168095Y-60271942D02*
X103215714Y-60367180D01*
X103215714Y-60367180D02*
X103263333Y-60414800D01*
X103263333Y-60414800D02*
X103358571Y-60462419D01*
X103358571Y-60462419D02*
X103549047Y-60462419D01*
X103549047Y-60462419D02*
X103644285Y-60414800D01*
X103644285Y-60414800D02*
X103691904Y-60367180D01*
X103691904Y-60367180D02*
X103739523Y-60271942D01*
X103739523Y-60271942D02*
X103739523Y-60033847D01*
X103739523Y-60033847D02*
X103691904Y-59938609D01*
X103691904Y-59938609D02*
X103644285Y-59890990D01*
X103644285Y-59890990D02*
X103549047Y-59843371D01*
X103549047Y-59843371D02*
X103358571Y-59843371D01*
X103358571Y-59843371D02*
X103263333Y-59890990D01*
X103263333Y-59890990D02*
X103215714Y-59938609D01*
X103215714Y-59938609D02*
X103168095Y-60033847D01*
D11*
X151144819Y-59358333D02*
X151859104Y-59358333D01*
X151859104Y-59358333D02*
X152001961Y-59405952D01*
X152001961Y-59405952D02*
X152097200Y-59501190D01*
X152097200Y-59501190D02*
X152144819Y-59644047D01*
X152144819Y-59644047D02*
X152144819Y-59739285D01*
X151478152Y-58453571D02*
X152144819Y-58453571D01*
X151097200Y-58691666D02*
X151811485Y-58929761D01*
X151811485Y-58929761D02*
X151811485Y-58310714D01*
X55705595Y-41602319D02*
X55705595Y-42411842D01*
X55705595Y-42411842D02*
X55753214Y-42507080D01*
X55753214Y-42507080D02*
X55800833Y-42554700D01*
X55800833Y-42554700D02*
X55896071Y-42602319D01*
X55896071Y-42602319D02*
X56086547Y-42602319D01*
X56086547Y-42602319D02*
X56181785Y-42554700D01*
X56181785Y-42554700D02*
X56229404Y-42507080D01*
X56229404Y-42507080D02*
X56277023Y-42411842D01*
X56277023Y-42411842D02*
X56277023Y-41602319D01*
X57277023Y-42602319D02*
X56705595Y-42602319D01*
X56991309Y-42602319D02*
X56991309Y-41602319D01*
X56991309Y-41602319D02*
X56896071Y-41745176D01*
X56896071Y-41745176D02*
X56800833Y-41840414D01*
X56800833Y-41840414D02*
X56705595Y-41888033D01*
X148133333Y-89439866D02*
X148133333Y-90573200D01*
X148133333Y-90573200D02*
X148200000Y-90706533D01*
X148200000Y-90706533D02*
X148266666Y-90773200D01*
X148266666Y-90773200D02*
X148400000Y-90839866D01*
X148400000Y-90839866D02*
X148666666Y-90839866D01*
X148666666Y-90839866D02*
X148800000Y-90773200D01*
X148800000Y-90773200D02*
X148866666Y-90706533D01*
X148866666Y-90706533D02*
X148933333Y-90573200D01*
X148933333Y-90573200D02*
X148933333Y-89439866D01*
X150266667Y-89439866D02*
X149600000Y-89439866D01*
X149600000Y-89439866D02*
X149533333Y-90106533D01*
X149533333Y-90106533D02*
X149600000Y-90039866D01*
X149600000Y-90039866D02*
X149733333Y-89973200D01*
X149733333Y-89973200D02*
X150066667Y-89973200D01*
X150066667Y-89973200D02*
X150200000Y-90039866D01*
X150200000Y-90039866D02*
X150266667Y-90106533D01*
X150266667Y-90106533D02*
X150333333Y-90239866D01*
X150333333Y-90239866D02*
X150333333Y-90573200D01*
X150333333Y-90573200D02*
X150266667Y-90706533D01*
X150266667Y-90706533D02*
X150200000Y-90773200D01*
X150200000Y-90773200D02*
X150066667Y-90839866D01*
X150066667Y-90839866D02*
X149733333Y-90839866D01*
X149733333Y-90839866D02*
X149600000Y-90773200D01*
X149600000Y-90773200D02*
X149533333Y-90706533D01*
X139574819Y-95366666D02*
X139098628Y-95699999D01*
X139574819Y-95938094D02*
X138574819Y-95938094D01*
X138574819Y-95938094D02*
X138574819Y-95557142D01*
X138574819Y-95557142D02*
X138622438Y-95461904D01*
X138622438Y-95461904D02*
X138670057Y-95414285D01*
X138670057Y-95414285D02*
X138765295Y-95366666D01*
X138765295Y-95366666D02*
X138908152Y-95366666D01*
X138908152Y-95366666D02*
X139003390Y-95414285D01*
X139003390Y-95414285D02*
X139051009Y-95461904D01*
X139051009Y-95461904D02*
X139098628Y-95557142D01*
X139098628Y-95557142D02*
X139098628Y-95938094D01*
X139574819Y-94414285D02*
X139574819Y-94985713D01*
X139574819Y-94699999D02*
X138574819Y-94699999D01*
X138574819Y-94699999D02*
X138717676Y-94795237D01*
X138717676Y-94795237D02*
X138812914Y-94890475D01*
X138812914Y-94890475D02*
X138860533Y-94985713D01*
D10*
X106024404Y-88271580D02*
X106024404Y-87462057D01*
X106024404Y-87462057D02*
X105976785Y-87366819D01*
X105976785Y-87366819D02*
X105929166Y-87319200D01*
X105929166Y-87319200D02*
X105833928Y-87271580D01*
X105833928Y-87271580D02*
X105643452Y-87271580D01*
X105643452Y-87271580D02*
X105548214Y-87319200D01*
X105548214Y-87319200D02*
X105500595Y-87366819D01*
X105500595Y-87366819D02*
X105452976Y-87462057D01*
X105452976Y-87462057D02*
X105452976Y-88271580D01*
X105072023Y-88271580D02*
X104452976Y-88271580D01*
X104452976Y-88271580D02*
X104786309Y-87890628D01*
X104786309Y-87890628D02*
X104643452Y-87890628D01*
X104643452Y-87890628D02*
X104548214Y-87843009D01*
X104548214Y-87843009D02*
X104500595Y-87795390D01*
X104500595Y-87795390D02*
X104452976Y-87700152D01*
X104452976Y-87700152D02*
X104452976Y-87462057D01*
X104452976Y-87462057D02*
X104500595Y-87366819D01*
X104500595Y-87366819D02*
X104548214Y-87319200D01*
X104548214Y-87319200D02*
X104643452Y-87271580D01*
X104643452Y-87271580D02*
X104929166Y-87271580D01*
X104929166Y-87271580D02*
X105024404Y-87319200D01*
X105024404Y-87319200D02*
X105072023Y-87366819D01*
D12*
X131630000Y-45970000D02*
X131630000Y-66290000D01*
X131630000Y-66290000D02*
X146870000Y-66290000D01*
X146870000Y-45970000D02*
X131630000Y-45970000D01*
X146870000Y-66290000D02*
X146870000Y-45970000D01*
D13*
X131140000Y-65020000D02*
G75*
G02*
X130940000Y-65020000I-100000J0D01*
G01*
X130940000Y-65020000D02*
G75*
G02*
X131140000Y-65020000I100000J0D01*
G01*
D14*
X45020000Y-49960000D02*
X46400000Y-49960000D01*
X45020000Y-51340000D02*
X45020000Y-49960000D01*
X45020000Y-52610000D02*
X45020000Y-98440000D01*
X45020000Y-52610000D02*
X47780000Y-52610000D01*
X45020000Y-98440000D02*
X47780000Y-98440000D01*
X47780000Y-52610000D02*
X47780000Y-98440000D01*
X147090000Y-94945000D02*
X147090000Y-91855000D01*
X141540000Y-93400000D02*
G75*
G02*
X147090000Y-91855170I2990000J0D01*
G01*
X147090000Y-94944830D02*
G75*
G02*
X141540000Y-93400000I-2560000J1544830D01*
G01*
X147030000Y-93400000D02*
G75*
G02*
X142030000Y-93400000I-2500000J0D01*
G01*
X142030000Y-93400000D02*
G75*
G02*
X147030000Y-93400000I2500000J0D01*
G01*
D12*
X153600000Y-72250000D02*
X154175000Y-72250000D01*
X153600000Y-84650000D02*
X153600000Y-72250000D01*
X155725000Y-72250000D02*
X159350000Y-72250000D01*
X159350000Y-72250000D02*
X159350000Y-84650000D01*
X159350000Y-84650000D02*
X153600000Y-84650000D01*
D13*
X156925000Y-71600000D02*
G75*
G02*
X156725000Y-71600000I-100000J0D01*
G01*
X156725000Y-71600000D02*
G75*
G02*
X156925000Y-71600000I100000J0D01*
G01*
D14*
X77420000Y-95790000D02*
X77420000Y-49960000D01*
X80180000Y-49960000D02*
X77420000Y-49960000D01*
X80180000Y-95790000D02*
X77420000Y-95790000D01*
X80180000Y-95790000D02*
X80180000Y-49960000D01*
X80180000Y-97060000D02*
X80180000Y-98440000D01*
X80180000Y-98440000D02*
X78800000Y-98440000D01*
X152080000Y-91420000D02*
X158820000Y-91420000D01*
X152080000Y-92760000D02*
X152080000Y-91420000D01*
X152080000Y-97240000D02*
X152080000Y-93360000D01*
X153000000Y-91420000D02*
X153000000Y-97240000D01*
X154000000Y-91420000D02*
X154000000Y-97240000D01*
X157100000Y-91420000D02*
X157100000Y-97240000D01*
X158820000Y-91420000D02*
X158820000Y-97240000D01*
X158820000Y-97240000D02*
X152080000Y-97240000D01*
X152080000Y-93060000D02*
X151470000Y-93500000D01*
X151470000Y-92620000D01*
X152080000Y-93060000D01*
G36*
X152080000Y-93060000D02*
G01*
X151470000Y-93500000D01*
X151470000Y-92620000D01*
X152080000Y-93060000D01*
G37*
D10*
X93590000Y-70355000D02*
X93590000Y-68605000D01*
X93580000Y-67695000D02*
X113570000Y-67695000D01*
X113570000Y-69475000D01*
X93580000Y-69475000D01*
X93580000Y-67695000D01*
X93590000Y-54855000D02*
X113590000Y-54855000D01*
X113590000Y-70355000D01*
X93590000Y-70355000D01*
X93590000Y-54855000D01*
D12*
X153200000Y-49850000D02*
X153775000Y-49850000D01*
X153200000Y-62250000D02*
X153200000Y-49850000D01*
X155325000Y-49850000D02*
X158950000Y-49850000D01*
X158950000Y-49850000D02*
X158950000Y-62250000D01*
X158950000Y-62250000D02*
X153200000Y-62250000D01*
D13*
X156525000Y-49200000D02*
G75*
G02*
X156325000Y-49200000I-100000J0D01*
G01*
X156325000Y-49200000D02*
G75*
G02*
X156525000Y-49200000I100000J0D01*
G01*
D12*
X48530000Y-97345000D02*
X48530000Y-51085000D01*
X49530000Y-50085000D02*
X53500000Y-50085000D01*
X49530000Y-98345000D02*
X58450000Y-98345000D01*
X53500000Y-43345000D02*
X71500000Y-43345000D01*
X53500000Y-50085000D02*
X53500000Y-43345000D01*
X58450000Y-98345000D02*
X58450000Y-99345000D01*
X58450000Y-99345000D02*
X66550000Y-99345000D01*
X66550000Y-98345000D02*
X75470000Y-98345000D01*
X66550000Y-99345000D02*
X66550000Y-98345000D01*
X71500000Y-43345000D02*
X71500000Y-50085000D01*
X71500000Y-50085000D02*
X75470000Y-50085000D01*
X76470000Y-97345000D02*
X76470000Y-51085000D01*
X48530000Y-51085000D02*
G75*
G02*
X49530000Y-50085000I999999J1D01*
G01*
X49530000Y-98345000D02*
G75*
G02*
X48530000Y-97345000I-1J999999D01*
G01*
X75470000Y-50085000D02*
G75*
G02*
X76470000Y-51085000I0J-1000000D01*
G01*
X76470000Y-97345000D02*
G75*
G02*
X75470000Y-98345000I-1000000J0D01*
G01*
D13*
X48100000Y-51380000D02*
G75*
G02*
X47900000Y-51380000I-100000J0D01*
G01*
X47900000Y-51380000D02*
G75*
G02*
X48100000Y-51380000I100000J0D01*
G01*
D12*
X131630000Y-69430000D02*
X131630000Y-89750000D01*
X131630000Y-89750000D02*
X146870000Y-89750000D01*
X146870000Y-69430000D02*
X131630000Y-69430000D01*
X146870000Y-89750000D02*
X146870000Y-69430000D01*
D13*
X131140000Y-88480000D02*
G75*
G02*
X130940000Y-88480000I-100000J0D01*
G01*
X130940000Y-88480000D02*
G75*
G02*
X131140000Y-88480000I100000J0D01*
G01*
D15*
G36*
X116864678Y-50528726D02*
G01*
X116864678Y-50735357D01*
X116829129Y-50735357D01*
X116793579Y-50735357D01*
X116793579Y-50528726D01*
X116793579Y-50322096D01*
X116829129Y-50322096D01*
X116864678Y-50322096D01*
X116864678Y-50528726D01*
G37*
G36*
X126822935Y-50357645D02*
G01*
X126822935Y-50393194D01*
X126665185Y-50393194D01*
X126507435Y-50393194D01*
X126507435Y-50357645D01*
X126507435Y-50322096D01*
X126665185Y-50322096D01*
X126822935Y-50322096D01*
X126822935Y-50357645D01*
G37*
G36*
X127780546Y-50357645D02*
G01*
X127780546Y-50390973D01*
X127709447Y-50393194D01*
X127638348Y-50395416D01*
X127637185Y-50565386D01*
X127636021Y-50735357D01*
X127600577Y-50735357D01*
X127565133Y-50735357D01*
X127563970Y-50565386D01*
X127562806Y-50395416D01*
X127491707Y-50393194D01*
X127420609Y-50390973D01*
X127420609Y-50357645D01*
X127420609Y-50324318D01*
X127600577Y-50324318D01*
X127780546Y-50324318D01*
X127780546Y-50357645D01*
G37*
G36*
X121341672Y-50528726D02*
G01*
X121341672Y-50733135D01*
X121307167Y-50734434D01*
X121287882Y-50734663D01*
X121276186Y-50733485D01*
X121270869Y-50730753D01*
X121270459Y-50729990D01*
X121270029Y-50724481D01*
X121269677Y-50711005D01*
X121269408Y-50690485D01*
X121269227Y-50663841D01*
X121269139Y-50631994D01*
X121269148Y-50595865D01*
X121269258Y-50556376D01*
X121269415Y-50524283D01*
X121270574Y-50324318D01*
X121306123Y-50324318D01*
X121341672Y-50324318D01*
X121341672Y-50528726D01*
G37*
G36*
X118354417Y-50242988D02*
G01*
X118377747Y-50244332D01*
X118377747Y-50517617D01*
X118377747Y-50790903D01*
X118357585Y-50792218D01*
X118344800Y-50792368D01*
X118335994Y-50791214D01*
X118334255Y-50790367D01*
X118333693Y-50785477D01*
X118333163Y-50772471D01*
X118332674Y-50752120D01*
X118332234Y-50725194D01*
X118331853Y-50692466D01*
X118331539Y-50654707D01*
X118331301Y-50612686D01*
X118331148Y-50567177D01*
X118331088Y-50518949D01*
X118331088Y-50514422D01*
X118331088Y-50241645D01*
X118354417Y-50242988D01*
G37*
G36*
X114807260Y-50357645D02*
G01*
X114807260Y-50393194D01*
X114736214Y-50393194D01*
X114665168Y-50393194D01*
X114664005Y-50563165D01*
X114662841Y-50733135D01*
X114629314Y-50734416D01*
X114612803Y-50734644D01*
X114599896Y-50734071D01*
X114593030Y-50732821D01*
X114592653Y-50732565D01*
X114591950Y-50727562D01*
X114591302Y-50714662D01*
X114590727Y-50694859D01*
X114590243Y-50669142D01*
X114589869Y-50638504D01*
X114589623Y-50603935D01*
X114589522Y-50566427D01*
X114589521Y-50561313D01*
X114589521Y-50393194D01*
X114518422Y-50393194D01*
X114447323Y-50393194D01*
X114447323Y-50357645D01*
X114447323Y-50322096D01*
X114627292Y-50322096D01*
X114807260Y-50322096D01*
X114807260Y-50357645D01*
G37*
G36*
X115753761Y-50357645D02*
G01*
X115753761Y-50393194D01*
X115682715Y-50393194D01*
X115611669Y-50393194D01*
X115610506Y-50563165D01*
X115609342Y-50733135D01*
X115575815Y-50734416D01*
X115559304Y-50734644D01*
X115546397Y-50734071D01*
X115539531Y-50732821D01*
X115539155Y-50732565D01*
X115538451Y-50727562D01*
X115537803Y-50714662D01*
X115537228Y-50694859D01*
X115536744Y-50669142D01*
X115536370Y-50638504D01*
X115536124Y-50603935D01*
X115536023Y-50566427D01*
X115536022Y-50561313D01*
X115536022Y-50393194D01*
X115464923Y-50393194D01*
X115393824Y-50393194D01*
X115393824Y-50357645D01*
X115393824Y-50322096D01*
X115573793Y-50322096D01*
X115753761Y-50322096D01*
X115753761Y-50357645D01*
G37*
G36*
X121157260Y-50357645D02*
G01*
X121157260Y-50393194D01*
X121086214Y-50393194D01*
X121015168Y-50393194D01*
X121014005Y-50563165D01*
X121012841Y-50733135D01*
X120979314Y-50734416D01*
X120962803Y-50734644D01*
X120949896Y-50734071D01*
X120943030Y-50732821D01*
X120942653Y-50732565D01*
X120941950Y-50727562D01*
X120941302Y-50714662D01*
X120940727Y-50694859D01*
X120940243Y-50669142D01*
X120939869Y-50638504D01*
X120939623Y-50603935D01*
X120939522Y-50566427D01*
X120939521Y-50561313D01*
X120939521Y-50393194D01*
X120868422Y-50393194D01*
X120797323Y-50393194D01*
X120797323Y-50357645D01*
X120797323Y-50322096D01*
X120977292Y-50322096D01*
X121157260Y-50322096D01*
X121157260Y-50357645D01*
G37*
G36*
X123416031Y-50323037D02*
G01*
X123437050Y-50323484D01*
X123452113Y-50324206D01*
X123461954Y-50325225D01*
X123467305Y-50326560D01*
X123468711Y-50327592D01*
X123470836Y-50335491D01*
X123472030Y-50348799D01*
X123472234Y-50364080D01*
X123471389Y-50377898D01*
X123469713Y-50386165D01*
X123468187Y-50388050D01*
X123464632Y-50389570D01*
X123458188Y-50390762D01*
X123447996Y-50391666D01*
X123433195Y-50392320D01*
X123412925Y-50392761D01*
X123386327Y-50393028D01*
X123352541Y-50393160D01*
X123311824Y-50393194D01*
X123269331Y-50393139D01*
X123234936Y-50392951D01*
X123207849Y-50392601D01*
X123187281Y-50392059D01*
X123172442Y-50391295D01*
X123162544Y-50390277D01*
X123156796Y-50388978D01*
X123154410Y-50387365D01*
X123154320Y-50387172D01*
X123153310Y-50379787D01*
X123152993Y-50366590D01*
X123153349Y-50352733D01*
X123154688Y-50324318D01*
X123309918Y-50323148D01*
X123353198Y-50322890D01*
X123388324Y-50322846D01*
X123416031Y-50323037D01*
G37*
G36*
X124406969Y-50323037D02*
G01*
X124427987Y-50323484D01*
X124443051Y-50324206D01*
X124452892Y-50325225D01*
X124458242Y-50326560D01*
X124459649Y-50327592D01*
X124461774Y-50335491D01*
X124462968Y-50348799D01*
X124463171Y-50364080D01*
X124462327Y-50377898D01*
X124460651Y-50386165D01*
X124459125Y-50388050D01*
X124455570Y-50389570D01*
X124449126Y-50390762D01*
X124438934Y-50391666D01*
X124424133Y-50392320D01*
X124403863Y-50392761D01*
X124377265Y-50393028D01*
X124343479Y-50393160D01*
X124302761Y-50393194D01*
X124260269Y-50393139D01*
X124225874Y-50392951D01*
X124198787Y-50392601D01*
X124178219Y-50392059D01*
X124163380Y-50391295D01*
X124153481Y-50390277D01*
X124147734Y-50388978D01*
X124145347Y-50387365D01*
X124145258Y-50387172D01*
X124144248Y-50379787D01*
X124143931Y-50366590D01*
X124144287Y-50352733D01*
X124145626Y-50324318D01*
X124300856Y-50323148D01*
X124344136Y-50322890D01*
X124379262Y-50322846D01*
X124406969Y-50323037D01*
G37*
G36*
X124641937Y-50472069D02*
G01*
X124642352Y-50513062D01*
X124642800Y-50546135D01*
X124643337Y-50572254D01*
X124644019Y-50592387D01*
X124644900Y-50607500D01*
X124646037Y-50618561D01*
X124647485Y-50626537D01*
X124649299Y-50632395D01*
X124651388Y-50636835D01*
X124656758Y-50645289D01*
X124663266Y-50651823D01*
X124672056Y-50656678D01*
X124684274Y-50660097D01*
X124701061Y-50662321D01*
X124723563Y-50663594D01*
X124752922Y-50664156D01*
X124780928Y-50664258D01*
X124872166Y-50664258D01*
X124872166Y-50699807D01*
X124872166Y-50735357D01*
X124764407Y-50734975D01*
X124733666Y-50734720D01*
X124705319Y-50734209D01*
X124680763Y-50733491D01*
X124661393Y-50732611D01*
X124648607Y-50731617D01*
X124644490Y-50730932D01*
X124618500Y-50718742D01*
X124597886Y-50699592D01*
X124582899Y-50673783D01*
X124574881Y-50647376D01*
X124573478Y-50635841D01*
X124572281Y-50616211D01*
X124571313Y-50589274D01*
X124570594Y-50555822D01*
X124570148Y-50516644D01*
X124569996Y-50472962D01*
X124569996Y-50322096D01*
X124605277Y-50322096D01*
X124640558Y-50322096D01*
X124641937Y-50472069D01*
G37*
G36*
X127756902Y-49384636D02*
G01*
X127786737Y-49384981D01*
X127809771Y-49385775D01*
X127827049Y-49387210D01*
X127839615Y-49389479D01*
X127848512Y-49392774D01*
X127854783Y-49397288D01*
X127859472Y-49403213D01*
X127863624Y-49410741D01*
X127863858Y-49411206D01*
X127866324Y-49417088D01*
X127868216Y-49424442D01*
X127869607Y-49434444D01*
X127870571Y-49448268D01*
X127871180Y-49467091D01*
X127871508Y-49492088D01*
X127871628Y-49524435D01*
X127871634Y-49536015D01*
X127871434Y-49572284D01*
X127870852Y-49603539D01*
X127869924Y-49628856D01*
X127868686Y-49647311D01*
X127867175Y-49657978D01*
X127866865Y-49659033D01*
X127863890Y-49666759D01*
X127860292Y-49672891D01*
X127855086Y-49677614D01*
X127847288Y-49681111D01*
X127835911Y-49683566D01*
X127819972Y-49685164D01*
X127798485Y-49686087D01*
X127770464Y-49686520D01*
X127734925Y-49686646D01*
X127718832Y-49686651D01*
X127596815Y-49686651D01*
X127583143Y-49675147D01*
X127569472Y-49663643D01*
X127569472Y-49539323D01*
X127569638Y-49500441D01*
X127570123Y-49467310D01*
X127570901Y-49440619D01*
X127571950Y-49421058D01*
X127573245Y-49409317D01*
X127574047Y-49406454D01*
X127578058Y-49400153D01*
X127583259Y-49395178D01*
X127590668Y-49391374D01*
X127601302Y-49388589D01*
X127616176Y-49386669D01*
X127636307Y-49385460D01*
X127662713Y-49384810D01*
X127696409Y-49384565D01*
X127719225Y-49384548D01*
X127756902Y-49384636D01*
G37*
G36*
X115983133Y-50426360D02*
G01*
X115998255Y-50453865D01*
X116012043Y-50478481D01*
X116023922Y-50499223D01*
X116033321Y-50515105D01*
X116039665Y-50525140D01*
X116042383Y-50528344D01*
X116042391Y-50528337D01*
X116045113Y-50523979D01*
X116051521Y-50512889D01*
X116061021Y-50496122D01*
X116073018Y-50474734D01*
X116086917Y-50449779D01*
X116100539Y-50425184D01*
X116156256Y-50324318D01*
X116194967Y-50323034D01*
X116212479Y-50322887D01*
X116225791Y-50323613D01*
X116232963Y-50325069D01*
X116233677Y-50325840D01*
X116231581Y-50330541D01*
X116225618Y-50342081D01*
X116216282Y-50359555D01*
X116204063Y-50382057D01*
X116189455Y-50408679D01*
X116172947Y-50438516D01*
X116157024Y-50467099D01*
X116080371Y-50604269D01*
X116078149Y-50668702D01*
X116075927Y-50733135D01*
X116042400Y-50734416D01*
X116025889Y-50734644D01*
X116012982Y-50734071D01*
X116006116Y-50732821D01*
X116005740Y-50732565D01*
X116004594Y-50727197D01*
X116003636Y-50714666D01*
X116002950Y-50696696D01*
X116002623Y-50675010D01*
X116002607Y-50668830D01*
X116002607Y-50608229D01*
X115926822Y-50471560D01*
X115909084Y-50439517D01*
X115892682Y-50409783D01*
X115878125Y-50383288D01*
X115865923Y-50360967D01*
X115856585Y-50343749D01*
X115850622Y-50332567D01*
X115848582Y-50328493D01*
X115848828Y-50325407D01*
X115853381Y-50323474D01*
X115863658Y-50322454D01*
X115881074Y-50322106D01*
X115886217Y-50322096D01*
X115926306Y-50322096D01*
X115983133Y-50426360D01*
G37*
G36*
X123318362Y-50492007D02*
G01*
X123465745Y-50493177D01*
X123465745Y-50526504D01*
X123465745Y-50559832D01*
X123346877Y-50561015D01*
X123228009Y-50562199D01*
X123228009Y-50597968D01*
X123228288Y-50616437D01*
X123229734Y-50631113D01*
X123233262Y-50642434D01*
X123239789Y-50650833D01*
X123250227Y-50656745D01*
X123265494Y-50660607D01*
X123286503Y-50662854D01*
X123314170Y-50663920D01*
X123349409Y-50664241D01*
X123367366Y-50664258D01*
X123400590Y-50664229D01*
X123425976Y-50664377D01*
X123444576Y-50665058D01*
X123457439Y-50666628D01*
X123465613Y-50669440D01*
X123470148Y-50673851D01*
X123472093Y-50680215D01*
X123472497Y-50688888D01*
X123472411Y-50699807D01*
X123472532Y-50710446D01*
X123472241Y-50718729D01*
X123470554Y-50724946D01*
X123466488Y-50729387D01*
X123459059Y-50732344D01*
X123447283Y-50734106D01*
X123430177Y-50734963D01*
X123406758Y-50735207D01*
X123376042Y-50735128D01*
X123353067Y-50735044D01*
X123315164Y-50734819D01*
X123285127Y-50734343D01*
X123261937Y-50733563D01*
X123244573Y-50732426D01*
X123232018Y-50730880D01*
X123223251Y-50728873D01*
X123221476Y-50728272D01*
X123200137Y-50717453D01*
X123183121Y-50701820D01*
X123170146Y-50680697D01*
X123160934Y-50653408D01*
X123155205Y-50619276D01*
X123152679Y-50577626D01*
X123152500Y-50561542D01*
X123152695Y-50539734D01*
X123153528Y-50524793D01*
X123155314Y-50514703D01*
X123158369Y-50507449D01*
X123161723Y-50502604D01*
X123170980Y-50490836D01*
X123318362Y-50492007D01*
G37*
G36*
X124309300Y-50492007D02*
G01*
X124456683Y-50493177D01*
X124456683Y-50526504D01*
X124456683Y-50559832D01*
X124337815Y-50561015D01*
X124218947Y-50562199D01*
X124218947Y-50597968D01*
X124219225Y-50616437D01*
X124220672Y-50631113D01*
X124224200Y-50642434D01*
X124230726Y-50650833D01*
X124241165Y-50656745D01*
X124256432Y-50660607D01*
X124277441Y-50662854D01*
X124305107Y-50663920D01*
X124340347Y-50664241D01*
X124358304Y-50664258D01*
X124391527Y-50664229D01*
X124416914Y-50664377D01*
X124435514Y-50665058D01*
X124448377Y-50666628D01*
X124456550Y-50669440D01*
X124461085Y-50673851D01*
X124463030Y-50680215D01*
X124463435Y-50688888D01*
X124463348Y-50699807D01*
X124463470Y-50710446D01*
X124463179Y-50718729D01*
X124461492Y-50724946D01*
X124457426Y-50729387D01*
X124449996Y-50732344D01*
X124438221Y-50734106D01*
X124421115Y-50734963D01*
X124397696Y-50735207D01*
X124366980Y-50735128D01*
X124344005Y-50735044D01*
X124306102Y-50734819D01*
X124276065Y-50734343D01*
X124252874Y-50733563D01*
X124235511Y-50732426D01*
X124222956Y-50730880D01*
X124214189Y-50728873D01*
X124212413Y-50728272D01*
X124191075Y-50717453D01*
X124174058Y-50701820D01*
X124161084Y-50680697D01*
X124151872Y-50653408D01*
X124146143Y-50619276D01*
X124143617Y-50577626D01*
X124143438Y-50561542D01*
X124143633Y-50539734D01*
X124144466Y-50524793D01*
X124146252Y-50514703D01*
X124149306Y-50507449D01*
X124152661Y-50502604D01*
X124161918Y-50490836D01*
X124309300Y-50492007D01*
G37*
G36*
X126818492Y-50526432D02*
G01*
X126818492Y-50561909D01*
X126699624Y-50563092D01*
X126580756Y-50564276D01*
X126579459Y-50593494D01*
X126579690Y-50617375D01*
X126583236Y-50634582D01*
X126590680Y-50646894D01*
X126599231Y-50654027D01*
X126604154Y-50656636D01*
X126610794Y-50658687D01*
X126620318Y-50660281D01*
X126633892Y-50661521D01*
X126652683Y-50662510D01*
X126677857Y-50663349D01*
X126710580Y-50664140D01*
X126716075Y-50664258D01*
X126820714Y-50666480D01*
X126820714Y-50699807D01*
X126820714Y-50733135D01*
X126707400Y-50734089D01*
X126669860Y-50734291D01*
X126640159Y-50734164D01*
X126617254Y-50733665D01*
X126600103Y-50732752D01*
X126587661Y-50731383D01*
X126578886Y-50729515D01*
X126576569Y-50728765D01*
X126556342Y-50719638D01*
X126541286Y-50707640D01*
X126528794Y-50690380D01*
X126522988Y-50679612D01*
X126518057Y-50669491D01*
X126514484Y-50660583D01*
X126512012Y-50651155D01*
X126510384Y-50639471D01*
X126509342Y-50623797D01*
X126508630Y-50602399D01*
X126508109Y-50579276D01*
X126507576Y-50552091D01*
X126507393Y-50532408D01*
X126507710Y-50518844D01*
X126508675Y-50510017D01*
X126510438Y-50504542D01*
X126513150Y-50501037D01*
X126516874Y-50498179D01*
X126520643Y-50496173D01*
X126526232Y-50494569D01*
X126534580Y-50493325D01*
X126546627Y-50492396D01*
X126563312Y-50491739D01*
X126585574Y-50491311D01*
X126614353Y-50491068D01*
X126650588Y-50490966D01*
X126672840Y-50490955D01*
X126818492Y-50490955D01*
X126818492Y-50526432D01*
G37*
G36*
X121780957Y-50345984D02*
G01*
X121781813Y-50361968D01*
X121780852Y-50376056D01*
X121779487Y-50381786D01*
X121775150Y-50393194D01*
X121674915Y-50393194D01*
X121637907Y-50393361D01*
X121608717Y-50393981D01*
X121586277Y-50395234D01*
X121569522Y-50397300D01*
X121557387Y-50400358D01*
X121548804Y-50404587D01*
X121542708Y-50410168D01*
X121538662Y-50416147D01*
X121536606Y-50422187D01*
X121535042Y-50432774D01*
X121533923Y-50448821D01*
X121533201Y-50471239D01*
X121532829Y-50500941D01*
X121532750Y-50528726D01*
X121532812Y-50561944D01*
X121533053Y-50587467D01*
X121533558Y-50606489D01*
X121534412Y-50620200D01*
X121535698Y-50629795D01*
X121537501Y-50636465D01*
X121539905Y-50641403D01*
X121540820Y-50642818D01*
X121545979Y-50649256D01*
X121552406Y-50654276D01*
X121561195Y-50658050D01*
X121573441Y-50660751D01*
X121590239Y-50662550D01*
X121612682Y-50663619D01*
X121641865Y-50664131D01*
X121677213Y-50664258D01*
X121778136Y-50664258D01*
X121780804Y-50686785D01*
X121781879Y-50702855D01*
X121781516Y-50717483D01*
X121780867Y-50722334D01*
X121778263Y-50735357D01*
X121662172Y-50735162D01*
X121621597Y-50734931D01*
X121589212Y-50734370D01*
X121564328Y-50733448D01*
X121546250Y-50732132D01*
X121534290Y-50730393D01*
X121530017Y-50729226D01*
X121505868Y-50717337D01*
X121487532Y-50700272D01*
X121474146Y-50678593D01*
X121461651Y-50653149D01*
X121461651Y-50528412D01*
X121461651Y-50403675D01*
X121475050Y-50377475D01*
X121486098Y-50359093D01*
X121498651Y-50345933D01*
X121510238Y-50337797D01*
X121532027Y-50324318D01*
X121655058Y-50322953D01*
X121778090Y-50321589D01*
X121780957Y-50345984D01*
G37*
G36*
X115385214Y-48398003D02*
G01*
X115421343Y-48398078D01*
X115450307Y-48398252D01*
X115472969Y-48398567D01*
X115490190Y-48399064D01*
X115502831Y-48399786D01*
X115511754Y-48400772D01*
X115517821Y-48402065D01*
X115521894Y-48403706D01*
X115524833Y-48405735D01*
X115526092Y-48406858D01*
X115533750Y-48417705D01*
X115538203Y-48430187D01*
X115538504Y-48436300D01*
X115538777Y-48450777D01*
X115539021Y-48473093D01*
X115539234Y-48502725D01*
X115539416Y-48539149D01*
X115539565Y-48581842D01*
X115539680Y-48630279D01*
X115539760Y-48683936D01*
X115539805Y-48742291D01*
X115539812Y-48804818D01*
X115539782Y-48870995D01*
X115539712Y-48940297D01*
X115539602Y-49012200D01*
X115539519Y-49054925D01*
X115538243Y-49665203D01*
X115525776Y-49675927D01*
X115513308Y-49686651D01*
X115340050Y-49686651D01*
X115166793Y-49686651D01*
X115155886Y-49675744D01*
X115144979Y-49664837D01*
X115144979Y-49339383D01*
X115144979Y-49013928D01*
X115227187Y-48930993D01*
X115253939Y-48903873D01*
X115274855Y-48882136D01*
X115290424Y-48864922D01*
X115301139Y-48851372D01*
X115307488Y-48840628D01*
X115309963Y-48831831D01*
X115309054Y-48824120D01*
X115305251Y-48816638D01*
X115299045Y-48808526D01*
X115297890Y-48807146D01*
X115286386Y-48793474D01*
X115234120Y-48793474D01*
X115203374Y-48792812D01*
X115180424Y-48790685D01*
X115164271Y-48786881D01*
X115153912Y-48781188D01*
X115149329Y-48775524D01*
X115148225Y-48769015D01*
X115147256Y-48754291D01*
X115146437Y-48732024D01*
X115145785Y-48702885D01*
X115145315Y-48667547D01*
X115145043Y-48626680D01*
X115144979Y-48592354D01*
X115144979Y-48417312D01*
X115155264Y-48407650D01*
X115158019Y-48405224D01*
X115161192Y-48403242D01*
X115165647Y-48401660D01*
X115172248Y-48400432D01*
X115181862Y-48399514D01*
X115195352Y-48398860D01*
X115213583Y-48398426D01*
X115237420Y-48398167D01*
X115267729Y-48398038D01*
X115305373Y-48397993D01*
X115341060Y-48397988D01*
X115385214Y-48398003D01*
G37*
G36*
X113279926Y-48398007D02*
G01*
X113316102Y-48398092D01*
X113345122Y-48398282D01*
X113367854Y-48398617D01*
X113385163Y-48399135D01*
X113397916Y-48399878D01*
X113406979Y-48400884D01*
X113413218Y-48402192D01*
X113417499Y-48403844D01*
X113420688Y-48405878D01*
X113421455Y-48406482D01*
X113431945Y-48414975D01*
X113434167Y-48888497D01*
X113436389Y-49362019D01*
X113446509Y-49372140D01*
X113456630Y-49382260D01*
X113901985Y-49384482D01*
X114347341Y-49386704D01*
X114485094Y-49480424D01*
X114516565Y-49501796D01*
X114546025Y-49521732D01*
X114572595Y-49539639D01*
X114595396Y-49554930D01*
X114613550Y-49567016D01*
X114626177Y-49575305D01*
X114632398Y-49579210D01*
X114632554Y-49579295D01*
X114638598Y-49580758D01*
X114650993Y-49581959D01*
X114670173Y-49582908D01*
X114696571Y-49583620D01*
X114730618Y-49584105D01*
X114772748Y-49584376D01*
X114815492Y-49584447D01*
X114854097Y-49584516D01*
X114890075Y-49584712D01*
X114922420Y-49585021D01*
X114950125Y-49585426D01*
X114972184Y-49585913D01*
X114987590Y-49586466D01*
X114995338Y-49587069D01*
X114995917Y-49587207D01*
X115005639Y-49595301D01*
X115012090Y-49609278D01*
X115015270Y-49626759D01*
X115015179Y-49645363D01*
X115011818Y-49662711D01*
X115005185Y-49676424D01*
X114995917Y-49683891D01*
X114990847Y-49684154D01*
X114977298Y-49684411D01*
X114955677Y-49684659D01*
X114926393Y-49684899D01*
X114889853Y-49685128D01*
X114846466Y-49685345D01*
X114796638Y-49685550D01*
X114740779Y-49685742D01*
X114679296Y-49685918D01*
X114612596Y-49686078D01*
X114541089Y-49686221D01*
X114465181Y-49686346D01*
X114385281Y-49686450D01*
X114301797Y-49686535D01*
X114215136Y-49686597D01*
X114125707Y-49686636D01*
X114033917Y-49686651D01*
X114024609Y-49686651D01*
X113060495Y-49686651D01*
X113049588Y-49675744D01*
X113038681Y-49664837D01*
X113038681Y-49042320D01*
X113038681Y-48419802D01*
X113049588Y-48408895D01*
X113060495Y-48397988D01*
X113235730Y-48397988D01*
X113279926Y-48398007D01*
G37*
G36*
X118493484Y-48408895D02*
G01*
X118504391Y-48419802D01*
X118504391Y-48593060D01*
X118504391Y-48766317D01*
X118493674Y-48778785D01*
X118489178Y-48783702D01*
X118484503Y-48787178D01*
X118478047Y-48789531D01*
X118468212Y-48791081D01*
X118453398Y-48792147D01*
X118432005Y-48793048D01*
X118420086Y-48793474D01*
X118395227Y-48794422D01*
X118377695Y-48795406D01*
X118365933Y-48796717D01*
X118358383Y-48798646D01*
X118353490Y-48801484D01*
X118349695Y-48805520D01*
X118348694Y-48806805D01*
X118342588Y-48819292D01*
X118340074Y-48833095D01*
X118340516Y-48838191D01*
X118342378Y-48843676D01*
X118346363Y-48850388D01*
X118353170Y-48859167D01*
X118363504Y-48870852D01*
X118378066Y-48886282D01*
X118397558Y-48906295D01*
X118422183Y-48931228D01*
X118504391Y-49014181D01*
X118504391Y-49339509D01*
X118504391Y-49664837D01*
X118493484Y-49675744D01*
X118482577Y-49686651D01*
X118307688Y-49686651D01*
X118263635Y-49686637D01*
X118227605Y-49686565D01*
X118198734Y-49686394D01*
X118176159Y-49686082D01*
X118159014Y-49685586D01*
X118146436Y-49684864D01*
X118137560Y-49683874D01*
X118131523Y-49682573D01*
X118127461Y-49680921D01*
X118124508Y-49678873D01*
X118123127Y-49677641D01*
X118115111Y-49667609D01*
X118111058Y-49658755D01*
X118110781Y-49653205D01*
X118110531Y-49639284D01*
X118110309Y-49617507D01*
X118110114Y-49588389D01*
X118109950Y-49552447D01*
X118109815Y-49510197D01*
X118109712Y-49462153D01*
X118109641Y-49408832D01*
X118109603Y-49350750D01*
X118109599Y-49288422D01*
X118109631Y-49222364D01*
X118109698Y-49153092D01*
X118109803Y-49081121D01*
X118109893Y-49031928D01*
X118111127Y-48414977D01*
X118121617Y-48406482D01*
X118124663Y-48404341D01*
X118128573Y-48402593D01*
X118134212Y-48401197D01*
X118142446Y-48400115D01*
X118154143Y-48399307D01*
X118170168Y-48398734D01*
X118191386Y-48398355D01*
X118218666Y-48398130D01*
X118252872Y-48398022D01*
X118294871Y-48397989D01*
X118307342Y-48397988D01*
X118482577Y-48397988D01*
X118493484Y-48408895D01*
G37*
G36*
X122867159Y-50322225D02*
G01*
X122899482Y-50322755D01*
X122925189Y-50323900D01*
X122945417Y-50325874D01*
X122961299Y-50328891D01*
X122973972Y-50333164D01*
X122984569Y-50338908D01*
X122994226Y-50346337D01*
X123003822Y-50355407D01*
X123013915Y-50366229D01*
X123021900Y-50377031D01*
X123028021Y-50389000D01*
X123032517Y-50403324D01*
X123035633Y-50421189D01*
X123037609Y-50443783D01*
X123038688Y-50472292D01*
X123039112Y-50507904D01*
X123039153Y-50528726D01*
X123038967Y-50568331D01*
X123038245Y-50600240D01*
X123036748Y-50625640D01*
X123034232Y-50645720D01*
X123030455Y-50661664D01*
X123025176Y-50674662D01*
X123018153Y-50685898D01*
X123009143Y-50696562D01*
X123003822Y-50702045D01*
X122993901Y-50711391D01*
X122984135Y-50718815D01*
X122973374Y-50724536D01*
X122960471Y-50728773D01*
X122944279Y-50731744D01*
X122923651Y-50733669D01*
X122897439Y-50734767D01*
X122864495Y-50735256D01*
X122829167Y-50735357D01*
X122716304Y-50735357D01*
X122703314Y-50722368D01*
X122690325Y-50709378D01*
X122690325Y-50664808D01*
X122765868Y-50664808D01*
X122847765Y-50663422D01*
X122877006Y-50662853D01*
X122898750Y-50662174D01*
X122914387Y-50661228D01*
X122925307Y-50659858D01*
X122932901Y-50657906D01*
X122938559Y-50655216D01*
X122942193Y-50652749D01*
X122950449Y-50646054D01*
X122956742Y-50638950D01*
X122961335Y-50630169D01*
X122964493Y-50618448D01*
X122966479Y-50602520D01*
X122967557Y-50581119D01*
X122967992Y-50552981D01*
X122968054Y-50528726D01*
X122967912Y-50495146D01*
X122967310Y-50469186D01*
X122965984Y-50449580D01*
X122963671Y-50435062D01*
X122960105Y-50424366D01*
X122955024Y-50416228D01*
X122948164Y-50409382D01*
X122942193Y-50404703D01*
X122937067Y-50401388D01*
X122931000Y-50398923D01*
X122922602Y-50397153D01*
X122910483Y-50395919D01*
X122893251Y-50395065D01*
X122869518Y-50394433D01*
X122847765Y-50394031D01*
X122765868Y-50392645D01*
X122765868Y-50528726D01*
X122765868Y-50664808D01*
X122690325Y-50664808D01*
X122690325Y-50528726D01*
X122690325Y-50526644D01*
X122690325Y-50343910D01*
X122701232Y-50333003D01*
X122712140Y-50322096D01*
X122827085Y-50322096D01*
X122867159Y-50322225D01*
G37*
G36*
X123999417Y-50313481D02*
G01*
X124012607Y-50315306D01*
X124020640Y-50318327D01*
X124021755Y-50319710D01*
X124020677Y-50325063D01*
X124016598Y-50337805D01*
X124009836Y-50357082D01*
X124000708Y-50382036D01*
X123989530Y-50411814D01*
X123976620Y-50445558D01*
X123962292Y-50482413D01*
X123949803Y-50514120D01*
X123931793Y-50559457D01*
X123916648Y-50597261D01*
X123904032Y-50628286D01*
X123893609Y-50653291D01*
X123885041Y-50673031D01*
X123877992Y-50688264D01*
X123872127Y-50699745D01*
X123867107Y-50708231D01*
X123862597Y-50714480D01*
X123858818Y-50718693D01*
X123847771Y-50728776D01*
X123838242Y-50733679D01*
X123826183Y-50735151D01*
X123820650Y-50735179D01*
X123805087Y-50733763D01*
X123791362Y-50730409D01*
X123787437Y-50728705D01*
X123776056Y-50720018D01*
X123768688Y-50711474D01*
X123765093Y-50704406D01*
X123758851Y-50690396D01*
X123750353Y-50670431D01*
X123739991Y-50645499D01*
X123728155Y-50616587D01*
X123715237Y-50584682D01*
X123701627Y-50550772D01*
X123687718Y-50515843D01*
X123673900Y-50480883D01*
X123660564Y-50446880D01*
X123648102Y-50414820D01*
X123636904Y-50385690D01*
X123627362Y-50360479D01*
X123619867Y-50340173D01*
X123614810Y-50325760D01*
X123612583Y-50318227D01*
X123612551Y-50317386D01*
X123617924Y-50315412D01*
X123629840Y-50313941D01*
X123645959Y-50313235D01*
X123649911Y-50313208D01*
X123684689Y-50313208D01*
X123715923Y-50389862D01*
X123728215Y-50420124D01*
X123742500Y-50455447D01*
X123757487Y-50492633D01*
X123771888Y-50528484D01*
X123781445Y-50552365D01*
X123791813Y-50577749D01*
X123801265Y-50599809D01*
X123809272Y-50617392D01*
X123815302Y-50629349D01*
X123818825Y-50634527D01*
X123819328Y-50634572D01*
X123821728Y-50629740D01*
X123826989Y-50617573D01*
X123834727Y-50599011D01*
X123844558Y-50574991D01*
X123856098Y-50546454D01*
X123868962Y-50514338D01*
X123882766Y-50479583D01*
X123883524Y-50477667D01*
X123897416Y-50442694D01*
X123910435Y-50410226D01*
X123922190Y-50381217D01*
X123932288Y-50356622D01*
X123940337Y-50337395D01*
X123945945Y-50324493D01*
X123948720Y-50318870D01*
X123948770Y-50318806D01*
X123955747Y-50315514D01*
X123968303Y-50313551D01*
X123983754Y-50312885D01*
X123999417Y-50313481D01*
G37*
G36*
X113231887Y-50322117D02*
G01*
X113262598Y-50322224D01*
X113286551Y-50322487D01*
X113304809Y-50322973D01*
X113318437Y-50323750D01*
X113328500Y-50324885D01*
X113336061Y-50326448D01*
X113342185Y-50328506D01*
X113347936Y-50331126D01*
X113349871Y-50332094D01*
X113367954Y-50344215D01*
X113380936Y-50360475D01*
X113389842Y-50382504D01*
X113394320Y-50402946D01*
X113397640Y-50438686D01*
X113395718Y-50472957D01*
X113388851Y-50503764D01*
X113377335Y-50529115D01*
X113375048Y-50532577D01*
X113368188Y-50541260D01*
X113360381Y-50548060D01*
X113350499Y-50553202D01*
X113337419Y-50556912D01*
X113320012Y-50559416D01*
X113297153Y-50560941D01*
X113267717Y-50561711D01*
X113230576Y-50561954D01*
X113228648Y-50561956D01*
X113127554Y-50562054D01*
X113127554Y-50641676D01*
X113127409Y-50667784D01*
X113127005Y-50691102D01*
X113126393Y-50710055D01*
X113125621Y-50723067D01*
X113124857Y-50728328D01*
X113121427Y-50732129D01*
X113113585Y-50734320D01*
X113099560Y-50735253D01*
X113089392Y-50735357D01*
X113072460Y-50735140D01*
X113062385Y-50734104D01*
X113057140Y-50731675D01*
X113054699Y-50727277D01*
X113054179Y-50725359D01*
X113053552Y-50718270D01*
X113053086Y-50703632D01*
X113052792Y-50682780D01*
X113052684Y-50657053D01*
X113052775Y-50627785D01*
X113052983Y-50604269D01*
X113054234Y-50493177D01*
X113180167Y-50490955D01*
X113216867Y-50490294D01*
X113245710Y-50489691D01*
X113267725Y-50489050D01*
X113283940Y-50488272D01*
X113295384Y-50487261D01*
X113303086Y-50485919D01*
X113308074Y-50484150D01*
X113311377Y-50481855D01*
X113314024Y-50478937D01*
X113314587Y-50478243D01*
X113320283Y-50467452D01*
X113322810Y-50451857D01*
X113323075Y-50442075D01*
X113321835Y-50423313D01*
X113317713Y-50410572D01*
X113314587Y-50405907D01*
X113311948Y-50402848D01*
X113308866Y-50400431D01*
X113304314Y-50398560D01*
X113297262Y-50397137D01*
X113286682Y-50396065D01*
X113271545Y-50395247D01*
X113250822Y-50394585D01*
X113223485Y-50393983D01*
X113188505Y-50393342D01*
X113180167Y-50393194D01*
X113054234Y-50390973D01*
X113052860Y-50366770D01*
X113052540Y-50351044D01*
X113053235Y-50337539D01*
X113054056Y-50332331D01*
X113056625Y-50322096D01*
X113193352Y-50322096D01*
X113231887Y-50322117D01*
G37*
G36*
X116511313Y-50322117D02*
G01*
X116542024Y-50322224D01*
X116565977Y-50322487D01*
X116584235Y-50322973D01*
X116597863Y-50323750D01*
X116607926Y-50324885D01*
X116615487Y-50326448D01*
X116621611Y-50328506D01*
X116627363Y-50331126D01*
X116629297Y-50332094D01*
X116647380Y-50344215D01*
X116660362Y-50360475D01*
X116669268Y-50382504D01*
X116673746Y-50402946D01*
X116677066Y-50438686D01*
X116675144Y-50472957D01*
X116668277Y-50503764D01*
X116656761Y-50529115D01*
X116654475Y-50532577D01*
X116647614Y-50541260D01*
X116639807Y-50548060D01*
X116629926Y-50553202D01*
X116616845Y-50556912D01*
X116599438Y-50559416D01*
X116576579Y-50560941D01*
X116547143Y-50561711D01*
X116510002Y-50561954D01*
X116508074Y-50561956D01*
X116406980Y-50562054D01*
X116406980Y-50641676D01*
X116406835Y-50667784D01*
X116406431Y-50691102D01*
X116405819Y-50710055D01*
X116405047Y-50723067D01*
X116404283Y-50728328D01*
X116400854Y-50732129D01*
X116393011Y-50734320D01*
X116378986Y-50735253D01*
X116368818Y-50735357D01*
X116351886Y-50735140D01*
X116341811Y-50734104D01*
X116336567Y-50731675D01*
X116334125Y-50727277D01*
X116333605Y-50725359D01*
X116332978Y-50718270D01*
X116332512Y-50703632D01*
X116332218Y-50682780D01*
X116332110Y-50657053D01*
X116332201Y-50627785D01*
X116332409Y-50604269D01*
X116333660Y-50493177D01*
X116459593Y-50490955D01*
X116496293Y-50490294D01*
X116525137Y-50489691D01*
X116547151Y-50489050D01*
X116563366Y-50488272D01*
X116574810Y-50487261D01*
X116582512Y-50485919D01*
X116587500Y-50484150D01*
X116590803Y-50481855D01*
X116593450Y-50478937D01*
X116594014Y-50478243D01*
X116599709Y-50467452D01*
X116602236Y-50451857D01*
X116602502Y-50442075D01*
X116601261Y-50423313D01*
X116597139Y-50410572D01*
X116594014Y-50405907D01*
X116591374Y-50402848D01*
X116588292Y-50400431D01*
X116583740Y-50398560D01*
X116576688Y-50397137D01*
X116566108Y-50396065D01*
X116550971Y-50395247D01*
X116530248Y-50394585D01*
X116502912Y-50393983D01*
X116467932Y-50393342D01*
X116459593Y-50393194D01*
X116333660Y-50390973D01*
X116332286Y-50366770D01*
X116331966Y-50351044D01*
X116332661Y-50337539D01*
X116333482Y-50332331D01*
X116336051Y-50322096D01*
X116472778Y-50322096D01*
X116511313Y-50322117D01*
G37*
G36*
X117828954Y-50357645D02*
G01*
X117828954Y-50393194D01*
X117710086Y-50393201D01*
X117673709Y-50393262D01*
X117645104Y-50393484D01*
X117623153Y-50393931D01*
X117606740Y-50394667D01*
X117594748Y-50395758D01*
X117586063Y-50397268D01*
X117579567Y-50399261D01*
X117575726Y-50400978D01*
X117567651Y-50405400D01*
X117561384Y-50410326D01*
X117556712Y-50416860D01*
X117553423Y-50426109D01*
X117551304Y-50439177D01*
X117550141Y-50457171D01*
X117549722Y-50481197D01*
X117549833Y-50512359D01*
X117550057Y-50534188D01*
X117551224Y-50637411D01*
X117563536Y-50649724D01*
X117575848Y-50662036D01*
X117662086Y-50663483D01*
X117748323Y-50664930D01*
X117755484Y-50654000D01*
X117759066Y-50646209D01*
X117761053Y-50635095D01*
X117761670Y-50618660D01*
X117761361Y-50601451D01*
X117760077Y-50559832D01*
X117691200Y-50557610D01*
X117622323Y-50555388D01*
X117622323Y-50522061D01*
X117622323Y-50488733D01*
X117724528Y-50488733D01*
X117826732Y-50488733D01*
X117828019Y-50582050D01*
X117828321Y-50619391D01*
X117827961Y-50648990D01*
X117826761Y-50671979D01*
X117824546Y-50689490D01*
X117821138Y-50702655D01*
X117816360Y-50712606D01*
X117810035Y-50720474D01*
X117805784Y-50724367D01*
X117792722Y-50735357D01*
X117678639Y-50734897D01*
X117646683Y-50734597D01*
X117616808Y-50733992D01*
X117590435Y-50733137D01*
X117568987Y-50732087D01*
X117553884Y-50730895D01*
X117547384Y-50729892D01*
X117526809Y-50720276D01*
X117507933Y-50703773D01*
X117492627Y-50682381D01*
X117483877Y-50662036D01*
X117481204Y-50652191D01*
X117479168Y-50641414D01*
X117477688Y-50628368D01*
X117476682Y-50611717D01*
X117476067Y-50590123D01*
X117475761Y-50562250D01*
X117475682Y-50528726D01*
X117475893Y-50487922D01*
X117476674Y-50454864D01*
X117478250Y-50428419D01*
X117480842Y-50407452D01*
X117484674Y-50390830D01*
X117489970Y-50377418D01*
X117496953Y-50366083D01*
X117505845Y-50355690D01*
X117510696Y-50350858D01*
X117519059Y-50343207D01*
X117527259Y-50337046D01*
X117536337Y-50332213D01*
X117547335Y-50328548D01*
X117561294Y-50325891D01*
X117579255Y-50324081D01*
X117602260Y-50322957D01*
X117631349Y-50322359D01*
X117667566Y-50322127D01*
X117697270Y-50322096D01*
X117828954Y-50322096D01*
X117828954Y-50357645D01*
G37*
G36*
X125647492Y-50322117D02*
G01*
X125678203Y-50322224D01*
X125702156Y-50322487D01*
X125720414Y-50322973D01*
X125734042Y-50323750D01*
X125744105Y-50324885D01*
X125751666Y-50326448D01*
X125757790Y-50328506D01*
X125763542Y-50331126D01*
X125765476Y-50332094D01*
X125783559Y-50344215D01*
X125796542Y-50360475D01*
X125805447Y-50382504D01*
X125809925Y-50402946D01*
X125813245Y-50438686D01*
X125811324Y-50472957D01*
X125804456Y-50503764D01*
X125792940Y-50529115D01*
X125790654Y-50532577D01*
X125783794Y-50541260D01*
X125775986Y-50548060D01*
X125766105Y-50553202D01*
X125753024Y-50556912D01*
X125735617Y-50559416D01*
X125712759Y-50560941D01*
X125683322Y-50561711D01*
X125646181Y-50561954D01*
X125644253Y-50561956D01*
X125543159Y-50562054D01*
X125543159Y-50641676D01*
X125543014Y-50667784D01*
X125542611Y-50691102D01*
X125541998Y-50710055D01*
X125541226Y-50723067D01*
X125540462Y-50728328D01*
X125537033Y-50732129D01*
X125529190Y-50734320D01*
X125515165Y-50735253D01*
X125504997Y-50735357D01*
X125488065Y-50735140D01*
X125477990Y-50734104D01*
X125472746Y-50731675D01*
X125470304Y-50727277D01*
X125469784Y-50725359D01*
X125469158Y-50718270D01*
X125468691Y-50703632D01*
X125468397Y-50682780D01*
X125468289Y-50657053D01*
X125468381Y-50627785D01*
X125468588Y-50604269D01*
X125469839Y-50493177D01*
X125595772Y-50490955D01*
X125632472Y-50490294D01*
X125661316Y-50489691D01*
X125683331Y-50489050D01*
X125699546Y-50488272D01*
X125710990Y-50487261D01*
X125718691Y-50485919D01*
X125723679Y-50484150D01*
X125726982Y-50481855D01*
X125729629Y-50478937D01*
X125730193Y-50478243D01*
X125735888Y-50467452D01*
X125738415Y-50451857D01*
X125738681Y-50442075D01*
X125737441Y-50423313D01*
X125733318Y-50410572D01*
X125730193Y-50405907D01*
X125727553Y-50402848D01*
X125724471Y-50400431D01*
X125719919Y-50398560D01*
X125712867Y-50397137D01*
X125702287Y-50396065D01*
X125687150Y-50395247D01*
X125666428Y-50394585D01*
X125639091Y-50393983D01*
X125604111Y-50393342D01*
X125595772Y-50393194D01*
X125469839Y-50390973D01*
X125468465Y-50366770D01*
X125468145Y-50351044D01*
X125468840Y-50337539D01*
X125469661Y-50332331D01*
X125472230Y-50322096D01*
X125608958Y-50322096D01*
X125647492Y-50322117D01*
G37*
G36*
X114184223Y-50321814D02*
G01*
X114212752Y-50322700D01*
X114237741Y-50324178D01*
X114257419Y-50326250D01*
X114270013Y-50328915D01*
X114270066Y-50328934D01*
X114288789Y-50337312D01*
X114304086Y-50348513D01*
X114316250Y-50363373D01*
X114325577Y-50382729D01*
X114332360Y-50407414D01*
X114336893Y-50438266D01*
X114339471Y-50476119D01*
X114340388Y-50521810D01*
X114340401Y-50528726D01*
X114339905Y-50572044D01*
X114338265Y-50607604D01*
X114335251Y-50636489D01*
X114330635Y-50659783D01*
X114324187Y-50678568D01*
X114315679Y-50693926D01*
X114304882Y-50706940D01*
X114302137Y-50709633D01*
X114293014Y-50717446D01*
X114283272Y-50723517D01*
X114271696Y-50728051D01*
X114257070Y-50731255D01*
X114238177Y-50733332D01*
X114213804Y-50734488D01*
X114182735Y-50734928D01*
X114152372Y-50734903D01*
X114119596Y-50734528D01*
X114090628Y-50733759D01*
X114066721Y-50732654D01*
X114049124Y-50731272D01*
X114039091Y-50729671D01*
X114038771Y-50729574D01*
X114018575Y-50718994D01*
X114000091Y-50701723D01*
X113985295Y-50679950D01*
X113977824Y-50662036D01*
X113975213Y-50652470D01*
X113973216Y-50642063D01*
X113971759Y-50629517D01*
X113970766Y-50613534D01*
X113970161Y-50592814D01*
X113969871Y-50566061D01*
X113969818Y-50531976D01*
X113969823Y-50528469D01*
X114045171Y-50528469D01*
X114045190Y-50562241D01*
X114045313Y-50588272D01*
X114045642Y-50607710D01*
X114046277Y-50621703D01*
X114047321Y-50631396D01*
X114048874Y-50637938D01*
X114051037Y-50642475D01*
X114053911Y-50646154D01*
X114055722Y-50648111D01*
X114065735Y-50656496D01*
X114075409Y-50661300D01*
X114075718Y-50661371D01*
X114083158Y-50662003D01*
X114097807Y-50662474D01*
X114117984Y-50662756D01*
X114142013Y-50662825D01*
X114161725Y-50662718D01*
X114238287Y-50662036D01*
X114250599Y-50649715D01*
X114262911Y-50637394D01*
X114262911Y-50528726D01*
X114262911Y-50420058D01*
X114250590Y-50407737D01*
X114238269Y-50395416D01*
X114154041Y-50395416D01*
X114069813Y-50395416D01*
X114057492Y-50407737D01*
X114045171Y-50420058D01*
X114045171Y-50528469D01*
X113969823Y-50528469D01*
X113969829Y-50524283D01*
X113969937Y-50489608D01*
X113970183Y-50462544D01*
X113970660Y-50441817D01*
X113971462Y-50426149D01*
X113972088Y-50420058D01*
X113972684Y-50414265D01*
X113974418Y-50404889D01*
X113976760Y-50396745D01*
X113979802Y-50388559D01*
X113979817Y-50388522D01*
X113994579Y-50361555D01*
X114014572Y-50341370D01*
X114037970Y-50328950D01*
X114050517Y-50326280D01*
X114070158Y-50324201D01*
X114095122Y-50322715D01*
X114123636Y-50321822D01*
X114153927Y-50321522D01*
X114184223Y-50321814D01*
G37*
G36*
X115130724Y-50321814D02*
G01*
X115159253Y-50322700D01*
X115184242Y-50324178D01*
X115203920Y-50326250D01*
X115216514Y-50328915D01*
X115216567Y-50328934D01*
X115235290Y-50337312D01*
X115250587Y-50348513D01*
X115262751Y-50363373D01*
X115272078Y-50382729D01*
X115278861Y-50407414D01*
X115283394Y-50438266D01*
X115285972Y-50476119D01*
X115286889Y-50521810D01*
X115286902Y-50528726D01*
X115286406Y-50572044D01*
X115284766Y-50607604D01*
X115281752Y-50636489D01*
X115277136Y-50659783D01*
X115270688Y-50678568D01*
X115262180Y-50693926D01*
X115251383Y-50706940D01*
X115248638Y-50709633D01*
X115239515Y-50717446D01*
X115229773Y-50723517D01*
X115218197Y-50728051D01*
X115203571Y-50731255D01*
X115184679Y-50733332D01*
X115160305Y-50734488D01*
X115129236Y-50734928D01*
X115098873Y-50734903D01*
X115066097Y-50734528D01*
X115037130Y-50733759D01*
X115013222Y-50732654D01*
X114995625Y-50731272D01*
X114985592Y-50729671D01*
X114985272Y-50729574D01*
X114965076Y-50718994D01*
X114946592Y-50701723D01*
X114931796Y-50679950D01*
X114924325Y-50662036D01*
X114921714Y-50652470D01*
X114919717Y-50642063D01*
X114918260Y-50629517D01*
X114917267Y-50613534D01*
X114916663Y-50592814D01*
X114916372Y-50566061D01*
X114916319Y-50531976D01*
X114916324Y-50528469D01*
X114991672Y-50528469D01*
X114991691Y-50562241D01*
X114991814Y-50588272D01*
X114992143Y-50607710D01*
X114992778Y-50621703D01*
X114993822Y-50631396D01*
X114995375Y-50637938D01*
X114997538Y-50642475D01*
X115000412Y-50646154D01*
X115002223Y-50648111D01*
X115012236Y-50656496D01*
X115021910Y-50661300D01*
X115022219Y-50661371D01*
X115029660Y-50662003D01*
X115044308Y-50662474D01*
X115064485Y-50662756D01*
X115088514Y-50662825D01*
X115108227Y-50662718D01*
X115184788Y-50662036D01*
X115197100Y-50649715D01*
X115209412Y-50637394D01*
X115209412Y-50528726D01*
X115209412Y-50420058D01*
X115197091Y-50407737D01*
X115184770Y-50395416D01*
X115100542Y-50395416D01*
X115016315Y-50395416D01*
X115003993Y-50407737D01*
X114991672Y-50420058D01*
X114991672Y-50528469D01*
X114916324Y-50528469D01*
X114916330Y-50524283D01*
X114916438Y-50489608D01*
X114916684Y-50462544D01*
X114917161Y-50441817D01*
X114917963Y-50426149D01*
X114918589Y-50420058D01*
X114919185Y-50414265D01*
X114920919Y-50404889D01*
X114923261Y-50396745D01*
X114926303Y-50388559D01*
X114926318Y-50388522D01*
X114941080Y-50361555D01*
X114961073Y-50341370D01*
X114984471Y-50328950D01*
X114997018Y-50326280D01*
X115016660Y-50324201D01*
X115041623Y-50322715D01*
X115070137Y-50321822D01*
X115100428Y-50321522D01*
X115130724Y-50321814D01*
G37*
G36*
X119583278Y-50321814D02*
G01*
X119611807Y-50322700D01*
X119636797Y-50324178D01*
X119656475Y-50326250D01*
X119669068Y-50328915D01*
X119669121Y-50328934D01*
X119687844Y-50337312D01*
X119703141Y-50348513D01*
X119715305Y-50363373D01*
X119724632Y-50382729D01*
X119731415Y-50407414D01*
X119735948Y-50438266D01*
X119738526Y-50476119D01*
X119739443Y-50521810D01*
X119739456Y-50528726D01*
X119738960Y-50572044D01*
X119737320Y-50607604D01*
X119734306Y-50636489D01*
X119729690Y-50659783D01*
X119723242Y-50678568D01*
X119714734Y-50693926D01*
X119703937Y-50706940D01*
X119701192Y-50709633D01*
X119692070Y-50717446D01*
X119682328Y-50723517D01*
X119670751Y-50728051D01*
X119656125Y-50731255D01*
X119637233Y-50733332D01*
X119612860Y-50734488D01*
X119581790Y-50734928D01*
X119551427Y-50734903D01*
X119518651Y-50734528D01*
X119489684Y-50733759D01*
X119465776Y-50732654D01*
X119448180Y-50731272D01*
X119438146Y-50729671D01*
X119437826Y-50729574D01*
X119417631Y-50718994D01*
X119399146Y-50701723D01*
X119384351Y-50679950D01*
X119376880Y-50662036D01*
X119374268Y-50652470D01*
X119372271Y-50642063D01*
X119370814Y-50629517D01*
X119369821Y-50613534D01*
X119369217Y-50592814D01*
X119368926Y-50566061D01*
X119368874Y-50531976D01*
X119368879Y-50528469D01*
X119444227Y-50528469D01*
X119444245Y-50562241D01*
X119444368Y-50588272D01*
X119444697Y-50607710D01*
X119445333Y-50621703D01*
X119446376Y-50631396D01*
X119447929Y-50637938D01*
X119450092Y-50642475D01*
X119452967Y-50646154D01*
X119454777Y-50648111D01*
X119464790Y-50656496D01*
X119474464Y-50661300D01*
X119474774Y-50661371D01*
X119482214Y-50662003D01*
X119496862Y-50662474D01*
X119517040Y-50662756D01*
X119541068Y-50662825D01*
X119560781Y-50662718D01*
X119637342Y-50662036D01*
X119649654Y-50649715D01*
X119661966Y-50637394D01*
X119661966Y-50528726D01*
X119661966Y-50420058D01*
X119649645Y-50407737D01*
X119637324Y-50395416D01*
X119553096Y-50395416D01*
X119468869Y-50395416D01*
X119456548Y-50407737D01*
X119444227Y-50420058D01*
X119444227Y-50528469D01*
X119368879Y-50528469D01*
X119368885Y-50524283D01*
X119368992Y-50489608D01*
X119369238Y-50462544D01*
X119369715Y-50441817D01*
X119370517Y-50426149D01*
X119371143Y-50420058D01*
X119371739Y-50414265D01*
X119373474Y-50404889D01*
X119375815Y-50396745D01*
X119378858Y-50388559D01*
X119378872Y-50388522D01*
X119393635Y-50361555D01*
X119413627Y-50341370D01*
X119437025Y-50328950D01*
X119449572Y-50326280D01*
X119469214Y-50324201D01*
X119494177Y-50322715D01*
X119522691Y-50321822D01*
X119552982Y-50321522D01*
X119583278Y-50321814D01*
G37*
G36*
X120534223Y-50321814D02*
G01*
X120562752Y-50322700D01*
X120587741Y-50324178D01*
X120607419Y-50326250D01*
X120620013Y-50328915D01*
X120620066Y-50328934D01*
X120638789Y-50337312D01*
X120654086Y-50348513D01*
X120666250Y-50363373D01*
X120675577Y-50382729D01*
X120682360Y-50407414D01*
X120686893Y-50438266D01*
X120689471Y-50476119D01*
X120690388Y-50521810D01*
X120690401Y-50528726D01*
X120689905Y-50572044D01*
X120688265Y-50607604D01*
X120685251Y-50636489D01*
X120680635Y-50659783D01*
X120674187Y-50678568D01*
X120665679Y-50693926D01*
X120654882Y-50706940D01*
X120652137Y-50709633D01*
X120643014Y-50717446D01*
X120633272Y-50723517D01*
X120621696Y-50728051D01*
X120607070Y-50731255D01*
X120588177Y-50733332D01*
X120563804Y-50734488D01*
X120532735Y-50734928D01*
X120502372Y-50734903D01*
X120469596Y-50734528D01*
X120440628Y-50733759D01*
X120416721Y-50732654D01*
X120399124Y-50731272D01*
X120389091Y-50729671D01*
X120388771Y-50729574D01*
X120368575Y-50718994D01*
X120350091Y-50701723D01*
X120335295Y-50679950D01*
X120327824Y-50662036D01*
X120325213Y-50652470D01*
X120323216Y-50642063D01*
X120321759Y-50629517D01*
X120320766Y-50613534D01*
X120320161Y-50592814D01*
X120319871Y-50566061D01*
X120319818Y-50531976D01*
X120319823Y-50528469D01*
X120395171Y-50528469D01*
X120395190Y-50562241D01*
X120395313Y-50588272D01*
X120395642Y-50607710D01*
X120396277Y-50621703D01*
X120397321Y-50631396D01*
X120398874Y-50637938D01*
X120401037Y-50642475D01*
X120403911Y-50646154D01*
X120405722Y-50648111D01*
X120415735Y-50656496D01*
X120425409Y-50661300D01*
X120425718Y-50661371D01*
X120433158Y-50662003D01*
X120447807Y-50662474D01*
X120467984Y-50662756D01*
X120492013Y-50662825D01*
X120511725Y-50662718D01*
X120588287Y-50662036D01*
X120600599Y-50649715D01*
X120612911Y-50637394D01*
X120612911Y-50528726D01*
X120612911Y-50420058D01*
X120600590Y-50407737D01*
X120588269Y-50395416D01*
X120504041Y-50395416D01*
X120419813Y-50395416D01*
X120407492Y-50407737D01*
X120395171Y-50420058D01*
X120395171Y-50528469D01*
X120319823Y-50528469D01*
X120319829Y-50524283D01*
X120319937Y-50489608D01*
X120320183Y-50462544D01*
X120320660Y-50441817D01*
X120321462Y-50426149D01*
X120322088Y-50420058D01*
X120322684Y-50414265D01*
X120324418Y-50404889D01*
X120326760Y-50396745D01*
X120329802Y-50388559D01*
X120329817Y-50388522D01*
X120344579Y-50361555D01*
X120364572Y-50341370D01*
X120387970Y-50328950D01*
X120400517Y-50326280D01*
X120420158Y-50324201D01*
X120445122Y-50322715D01*
X120473636Y-50321822D01*
X120503927Y-50321522D01*
X120534223Y-50321814D01*
G37*
G36*
X125195629Y-50321814D02*
G01*
X125224158Y-50322700D01*
X125249148Y-50324178D01*
X125268826Y-50326250D01*
X125281420Y-50328915D01*
X125281472Y-50328934D01*
X125300195Y-50337312D01*
X125315492Y-50348513D01*
X125327657Y-50363373D01*
X125336983Y-50382729D01*
X125343766Y-50407414D01*
X125348300Y-50438266D01*
X125350878Y-50476119D01*
X125351795Y-50521810D01*
X125351807Y-50528726D01*
X125351311Y-50572044D01*
X125349671Y-50607604D01*
X125346657Y-50636489D01*
X125342041Y-50659783D01*
X125335594Y-50678568D01*
X125327086Y-50693926D01*
X125316288Y-50706940D01*
X125313544Y-50709633D01*
X125304421Y-50717446D01*
X125294679Y-50723517D01*
X125283103Y-50728051D01*
X125268476Y-50731255D01*
X125249584Y-50733332D01*
X125225211Y-50734488D01*
X125194141Y-50734928D01*
X125163778Y-50734903D01*
X125131002Y-50734528D01*
X125102035Y-50733759D01*
X125078127Y-50732654D01*
X125060531Y-50731272D01*
X125050497Y-50729671D01*
X125050177Y-50729574D01*
X125029982Y-50718994D01*
X125011498Y-50701723D01*
X124996702Y-50679950D01*
X124989231Y-50662036D01*
X124986619Y-50652470D01*
X124984622Y-50642063D01*
X124983165Y-50629517D01*
X124982172Y-50613534D01*
X124981568Y-50592814D01*
X124981277Y-50566061D01*
X124981225Y-50531976D01*
X124981230Y-50528469D01*
X125056578Y-50528469D01*
X125056596Y-50562241D01*
X125056720Y-50588272D01*
X125057048Y-50607710D01*
X125057684Y-50621703D01*
X125058727Y-50631396D01*
X125060280Y-50637938D01*
X125062443Y-50642475D01*
X125065318Y-50646154D01*
X125067128Y-50648111D01*
X125077141Y-50656496D01*
X125086815Y-50661300D01*
X125087125Y-50661371D01*
X125094565Y-50662003D01*
X125109213Y-50662474D01*
X125129391Y-50662756D01*
X125153420Y-50662825D01*
X125173132Y-50662718D01*
X125249693Y-50662036D01*
X125262005Y-50649715D01*
X125274318Y-50637394D01*
X125274318Y-50528726D01*
X125274318Y-50420058D01*
X125261996Y-50407737D01*
X125249675Y-50395416D01*
X125165448Y-50395416D01*
X125081220Y-50395416D01*
X125068899Y-50407737D01*
X125056578Y-50420058D01*
X125056578Y-50528469D01*
X124981230Y-50528469D01*
X124981236Y-50524283D01*
X124981344Y-50489608D01*
X124981589Y-50462544D01*
X124982066Y-50441817D01*
X124982869Y-50426149D01*
X124983495Y-50420058D01*
X124984090Y-50414265D01*
X124985825Y-50404889D01*
X124988166Y-50396745D01*
X124991209Y-50388559D01*
X124991223Y-50388522D01*
X125005986Y-50361555D01*
X125025978Y-50341370D01*
X125049377Y-50328950D01*
X125061924Y-50326280D01*
X125081565Y-50324201D01*
X125106529Y-50322715D01*
X125135042Y-50321822D01*
X125165333Y-50321522D01*
X125195629Y-50321814D01*
G37*
G36*
X127359260Y-48408712D02*
G01*
X127371728Y-48419437D01*
X127371728Y-48549073D01*
X127371728Y-48678708D01*
X127359260Y-48689433D01*
X127346793Y-48700157D01*
X126582388Y-48700157D01*
X125817983Y-48700157D01*
X125804994Y-48713146D01*
X125792005Y-48726136D01*
X125792005Y-48803901D01*
X125792041Y-48831920D01*
X125792269Y-48852497D01*
X125792871Y-48867076D01*
X125794027Y-48877102D01*
X125795920Y-48884018D01*
X125798731Y-48889271D01*
X125802641Y-48894303D01*
X125803475Y-48895297D01*
X125814945Y-48908928D01*
X126516560Y-48910080D01*
X127218176Y-48911231D01*
X127227803Y-48920859D01*
X127236111Y-48935238D01*
X127239577Y-48952835D01*
X127240196Y-48975506D01*
X127236653Y-48992101D01*
X127228456Y-49004638D01*
X127226417Y-49006647D01*
X127223814Y-49008829D01*
X127220578Y-49010627D01*
X127215885Y-49012078D01*
X127208909Y-49013220D01*
X127198828Y-49014089D01*
X127184818Y-49014723D01*
X127166053Y-49015158D01*
X127141710Y-49015432D01*
X127110965Y-49015582D01*
X127072993Y-49015645D01*
X127026971Y-49015658D01*
X127026204Y-49015658D01*
X126835661Y-49015658D01*
X126679325Y-49101198D01*
X126522988Y-49186739D01*
X126168219Y-49188961D01*
X125813450Y-49191183D01*
X125802727Y-49203650D01*
X125798711Y-49208693D01*
X125795848Y-49214003D01*
X125793942Y-49221097D01*
X125792799Y-49231493D01*
X125792225Y-49246710D01*
X125792026Y-49268264D01*
X125792005Y-49287311D01*
X125792005Y-49358504D01*
X125804994Y-49371493D01*
X125817983Y-49384482D01*
X126577903Y-49384482D01*
X126684885Y-49384508D01*
X126784309Y-49384586D01*
X126876066Y-49384715D01*
X126960049Y-49384894D01*
X127036151Y-49385123D01*
X127104263Y-49385401D01*
X127164279Y-49385728D01*
X127216090Y-49386103D01*
X127259589Y-49386526D01*
X127294669Y-49386995D01*
X127321221Y-49387510D01*
X127339139Y-49388071D01*
X127348315Y-49388677D01*
X127349436Y-49388897D01*
X127361629Y-49398155D01*
X127369623Y-49414612D01*
X127373151Y-49437502D01*
X127372845Y-49456614D01*
X127370917Y-49472977D01*
X127367980Y-49486386D01*
X127364896Y-49493553D01*
X127359997Y-49497578D01*
X127348589Y-49505979D01*
X127331528Y-49518154D01*
X127309669Y-49533503D01*
X127283867Y-49551425D01*
X127254979Y-49571320D01*
X127223859Y-49592587D01*
X127222371Y-49593600D01*
X127085651Y-49686651D01*
X126437650Y-49686651D01*
X125789648Y-49686651D01*
X125593083Y-49489903D01*
X125396518Y-49293154D01*
X125396518Y-49042136D01*
X125396518Y-48791118D01*
X125593267Y-48594553D01*
X125790016Y-48397988D01*
X126568404Y-48397988D01*
X127346793Y-48397988D01*
X127359260Y-48408712D01*
G37*
G36*
X113650881Y-50322193D02*
G01*
X113689857Y-50322263D01*
X113721001Y-50322447D01*
X113745364Y-50322803D01*
X113764000Y-50323387D01*
X113777963Y-50324258D01*
X113788306Y-50325471D01*
X113796083Y-50327084D01*
X113802347Y-50329153D01*
X113805653Y-50330563D01*
X113824110Y-50342261D01*
X113837817Y-50358885D01*
X113847126Y-50381270D01*
X113852394Y-50410254D01*
X113853976Y-50444708D01*
X113853760Y-50466000D01*
X113852748Y-50481141D01*
X113850426Y-50492867D01*
X113846281Y-50503908D01*
X113840713Y-50515235D01*
X113830079Y-50532570D01*
X113817631Y-50545010D01*
X113800702Y-50554786D01*
X113786472Y-50560604D01*
X113776618Y-50564276D01*
X113790523Y-50586494D01*
X113805966Y-50611744D01*
X113820998Y-50637357D01*
X113834909Y-50662021D01*
X113846993Y-50684422D01*
X113856541Y-50703248D01*
X113862846Y-50717185D01*
X113865201Y-50724920D01*
X113865203Y-50725045D01*
X113864752Y-50730057D01*
X113862223Y-50733109D01*
X113855853Y-50734686D01*
X113843879Y-50735273D01*
X113827727Y-50735357D01*
X113790250Y-50735357D01*
X113741757Y-50649816D01*
X113693264Y-50564276D01*
X113639258Y-50563028D01*
X113585252Y-50561780D01*
X113585252Y-50641540D01*
X113585107Y-50667670D01*
X113584704Y-50691010D01*
X113584092Y-50709988D01*
X113583321Y-50723028D01*
X113582555Y-50728328D01*
X113579125Y-50732129D01*
X113571282Y-50734320D01*
X113557258Y-50735253D01*
X113547090Y-50735357D01*
X113530158Y-50735140D01*
X113520083Y-50734104D01*
X113514838Y-50731675D01*
X113512397Y-50727277D01*
X113511876Y-50725359D01*
X113511250Y-50718270D01*
X113510783Y-50703632D01*
X113510489Y-50682780D01*
X113510382Y-50657053D01*
X113510473Y-50627785D01*
X113510681Y-50604269D01*
X113511931Y-50493177D01*
X113637864Y-50490955D01*
X113674565Y-50490294D01*
X113703408Y-50489691D01*
X113725423Y-50489050D01*
X113741638Y-50488272D01*
X113753082Y-50487261D01*
X113760783Y-50485919D01*
X113765771Y-50484150D01*
X113769075Y-50481855D01*
X113771721Y-50478937D01*
X113772285Y-50478243D01*
X113777980Y-50467452D01*
X113780508Y-50451857D01*
X113780773Y-50442075D01*
X113779533Y-50423313D01*
X113775410Y-50410572D01*
X113772285Y-50405907D01*
X113769645Y-50402848D01*
X113766564Y-50400431D01*
X113762011Y-50398560D01*
X113754960Y-50397137D01*
X113744380Y-50396065D01*
X113729243Y-50395247D01*
X113708520Y-50394585D01*
X113681183Y-50393983D01*
X113646203Y-50393342D01*
X113637864Y-50393194D01*
X113511931Y-50390973D01*
X113510558Y-50366770D01*
X113510238Y-50351044D01*
X113510932Y-50337539D01*
X113511753Y-50332331D01*
X113514322Y-50322096D01*
X113650881Y-50322193D01*
G37*
G36*
X119049936Y-50322193D02*
G01*
X119088913Y-50322263D01*
X119120056Y-50322447D01*
X119144419Y-50322803D01*
X119163055Y-50323387D01*
X119177018Y-50324258D01*
X119187361Y-50325471D01*
X119195138Y-50327084D01*
X119201402Y-50329153D01*
X119204708Y-50330563D01*
X119223166Y-50342261D01*
X119236872Y-50358885D01*
X119246182Y-50381270D01*
X119251449Y-50410254D01*
X119253031Y-50444708D01*
X119252815Y-50466000D01*
X119251803Y-50481141D01*
X119249482Y-50492867D01*
X119245336Y-50503908D01*
X119239768Y-50515235D01*
X119229134Y-50532570D01*
X119216686Y-50545010D01*
X119199758Y-50554786D01*
X119185527Y-50560604D01*
X119175674Y-50564276D01*
X119189578Y-50586494D01*
X119205021Y-50611744D01*
X119220053Y-50637357D01*
X119233964Y-50662021D01*
X119246048Y-50684422D01*
X119255596Y-50703248D01*
X119261902Y-50717185D01*
X119264256Y-50724920D01*
X119264258Y-50725045D01*
X119263807Y-50730057D01*
X119261279Y-50733109D01*
X119254909Y-50734686D01*
X119242934Y-50735273D01*
X119226782Y-50735357D01*
X119189306Y-50735357D01*
X119140812Y-50649816D01*
X119092319Y-50564276D01*
X119038313Y-50563028D01*
X118984307Y-50561780D01*
X118984307Y-50641540D01*
X118984162Y-50667670D01*
X118983759Y-50691010D01*
X118983148Y-50709988D01*
X118982377Y-50723028D01*
X118981610Y-50728328D01*
X118978180Y-50732129D01*
X118970338Y-50734320D01*
X118956313Y-50735253D01*
X118946145Y-50735357D01*
X118929213Y-50735140D01*
X118919138Y-50734104D01*
X118913893Y-50731675D01*
X118911452Y-50727277D01*
X118910932Y-50725359D01*
X118910305Y-50718270D01*
X118909839Y-50703632D01*
X118909545Y-50682780D01*
X118909437Y-50657053D01*
X118909528Y-50627785D01*
X118909736Y-50604269D01*
X118910987Y-50493177D01*
X119036920Y-50490955D01*
X119073620Y-50490294D01*
X119102463Y-50489691D01*
X119124478Y-50489050D01*
X119140693Y-50488272D01*
X119152137Y-50487261D01*
X119159839Y-50485919D01*
X119164827Y-50484150D01*
X119168130Y-50481855D01*
X119170777Y-50478937D01*
X119171340Y-50478243D01*
X119177036Y-50467452D01*
X119179563Y-50451857D01*
X119179828Y-50442075D01*
X119178588Y-50423313D01*
X119174466Y-50410572D01*
X119171340Y-50405907D01*
X119168701Y-50402848D01*
X119165619Y-50400431D01*
X119161067Y-50398560D01*
X119154015Y-50397137D01*
X119143435Y-50396065D01*
X119128298Y-50395247D01*
X119107575Y-50394585D01*
X119080238Y-50393983D01*
X119045258Y-50393342D01*
X119036920Y-50393194D01*
X118910987Y-50390973D01*
X118909613Y-50366770D01*
X118909293Y-50351044D01*
X118909988Y-50337539D01*
X118910809Y-50332331D01*
X118913378Y-50322096D01*
X119049936Y-50322193D01*
G37*
G36*
X117337149Y-50322307D02*
G01*
X117347358Y-50323317D01*
X117352711Y-50325689D01*
X117355223Y-50329986D01*
X117355815Y-50332094D01*
X117356327Y-50338602D01*
X117356740Y-50352999D01*
X117357049Y-50374286D01*
X117357247Y-50401465D01*
X117357328Y-50433538D01*
X117357286Y-50469507D01*
X117357115Y-50508374D01*
X117357011Y-50524283D01*
X117356660Y-50571057D01*
X117356276Y-50609759D01*
X117355761Y-50641204D01*
X117355018Y-50666205D01*
X117353951Y-50685580D01*
X117352461Y-50700141D01*
X117350452Y-50710704D01*
X117347827Y-50718083D01*
X117344488Y-50723095D01*
X117340338Y-50726552D01*
X117335281Y-50729271D01*
X117332404Y-50730597D01*
X117322896Y-50732938D01*
X117307663Y-50734637D01*
X117289865Y-50735352D01*
X117288395Y-50735357D01*
X117270976Y-50735119D01*
X117259712Y-50733855D01*
X117251874Y-50730737D01*
X117244732Y-50724940D01*
X117240702Y-50720915D01*
X117235294Y-50713788D01*
X117226136Y-50699878D01*
X117213818Y-50680155D01*
X117198928Y-50655593D01*
X117182057Y-50627163D01*
X117163794Y-50595838D01*
X117144986Y-50563043D01*
X117126395Y-50530472D01*
X117109087Y-50500370D01*
X117093573Y-50473604D01*
X117080363Y-50451044D01*
X117069964Y-50433560D01*
X117062887Y-50422022D01*
X117059641Y-50417299D01*
X117059577Y-50417250D01*
X117058700Y-50420973D01*
X117057894Y-50432618D01*
X117057183Y-50451219D01*
X117056591Y-50475811D01*
X117056140Y-50505428D01*
X117055853Y-50539104D01*
X117055756Y-50575122D01*
X117055756Y-50735357D01*
X117022513Y-50735357D01*
X117005433Y-50735145D01*
X116995224Y-50734135D01*
X116989871Y-50731764D01*
X116987359Y-50727467D01*
X116986767Y-50725359D01*
X116986256Y-50718855D01*
X116985844Y-50704460D01*
X116985535Y-50683170D01*
X116985336Y-50655981D01*
X116985254Y-50623887D01*
X116985294Y-50587886D01*
X116985463Y-50548972D01*
X116985571Y-50532378D01*
X116985867Y-50483993D01*
X116986153Y-50443740D01*
X116986653Y-50410869D01*
X116987594Y-50384629D01*
X116989202Y-50364268D01*
X116991703Y-50349034D01*
X116995322Y-50338178D01*
X117000284Y-50330947D01*
X117006817Y-50326590D01*
X117015145Y-50324355D01*
X117025495Y-50323493D01*
X117038092Y-50323251D01*
X117048485Y-50323045D01*
X117068623Y-50322614D01*
X117081961Y-50322989D01*
X117090576Y-50324519D01*
X117096543Y-50327553D01*
X117101441Y-50331933D01*
X117105852Y-50338011D01*
X117114061Y-50350923D01*
X117125521Y-50369750D01*
X117139687Y-50393574D01*
X117156012Y-50421474D01*
X117173952Y-50452531D01*
X117192959Y-50485827D01*
X117195289Y-50489935D01*
X117214110Y-50523031D01*
X117231656Y-50553668D01*
X117247426Y-50580989D01*
X117260920Y-50604137D01*
X117271638Y-50622255D01*
X117279080Y-50634486D01*
X117282745Y-50639973D01*
X117282954Y-50640171D01*
X117283865Y-50636463D01*
X117284694Y-50624778D01*
X117285418Y-50606026D01*
X117286016Y-50581117D01*
X117286464Y-50550961D01*
X117286742Y-50516469D01*
X117286826Y-50482330D01*
X117286826Y-50322096D01*
X117320069Y-50322096D01*
X117337149Y-50322307D01*
G37*
G36*
X127286519Y-50322307D02*
G01*
X127296728Y-50323317D01*
X127302082Y-50325689D01*
X127304593Y-50329986D01*
X127305185Y-50332094D01*
X127305697Y-50338602D01*
X127306110Y-50352999D01*
X127306419Y-50374286D01*
X127306617Y-50401465D01*
X127306698Y-50433538D01*
X127306657Y-50469507D01*
X127306485Y-50508374D01*
X127306381Y-50524283D01*
X127306030Y-50571057D01*
X127305646Y-50609759D01*
X127305131Y-50641204D01*
X127304388Y-50666205D01*
X127303321Y-50685580D01*
X127301831Y-50700141D01*
X127299823Y-50710704D01*
X127297197Y-50718083D01*
X127293858Y-50723095D01*
X127289709Y-50726552D01*
X127284651Y-50729271D01*
X127281774Y-50730597D01*
X127272266Y-50732938D01*
X127257034Y-50734637D01*
X127239235Y-50735352D01*
X127237765Y-50735357D01*
X127220346Y-50735119D01*
X127209082Y-50733855D01*
X127201244Y-50730737D01*
X127194102Y-50724940D01*
X127190073Y-50720915D01*
X127184664Y-50713788D01*
X127175506Y-50699878D01*
X127163188Y-50680155D01*
X127148298Y-50655593D01*
X127131428Y-50627163D01*
X127113164Y-50595838D01*
X127094356Y-50563043D01*
X127075765Y-50530472D01*
X127058457Y-50500370D01*
X127042944Y-50473604D01*
X127029733Y-50451044D01*
X127019334Y-50433560D01*
X127012257Y-50422022D01*
X127009011Y-50417299D01*
X127008948Y-50417250D01*
X127008070Y-50420973D01*
X127007264Y-50432618D01*
X127006554Y-50451219D01*
X127005961Y-50475811D01*
X127005510Y-50505428D01*
X127005224Y-50539104D01*
X127005126Y-50575122D01*
X127005126Y-50735357D01*
X126971883Y-50735357D01*
X126954804Y-50735145D01*
X126944594Y-50734135D01*
X126939241Y-50731764D01*
X126936729Y-50727467D01*
X126936137Y-50725359D01*
X126935626Y-50718855D01*
X126935214Y-50704460D01*
X126934905Y-50683170D01*
X126934706Y-50655981D01*
X126934624Y-50623887D01*
X126934664Y-50587886D01*
X126934833Y-50548972D01*
X126934941Y-50532378D01*
X126935237Y-50483993D01*
X126935523Y-50443740D01*
X126936023Y-50410869D01*
X126936965Y-50384629D01*
X126938573Y-50364268D01*
X126941073Y-50349034D01*
X126944692Y-50338178D01*
X126949655Y-50330947D01*
X126956187Y-50326590D01*
X126964515Y-50324355D01*
X126974865Y-50323493D01*
X126987462Y-50323251D01*
X126997855Y-50323045D01*
X127017993Y-50322614D01*
X127031332Y-50322989D01*
X127039946Y-50324519D01*
X127045913Y-50327553D01*
X127050811Y-50331933D01*
X127055222Y-50338011D01*
X127063431Y-50350923D01*
X127074891Y-50369750D01*
X127089057Y-50393574D01*
X127105382Y-50421474D01*
X127123322Y-50452531D01*
X127142329Y-50485827D01*
X127144659Y-50489935D01*
X127163480Y-50523031D01*
X127181026Y-50553668D01*
X127196796Y-50580989D01*
X127210290Y-50604137D01*
X127221008Y-50622255D01*
X127228450Y-50634486D01*
X127232116Y-50639973D01*
X127232324Y-50640171D01*
X127233235Y-50636463D01*
X127234064Y-50624778D01*
X127234788Y-50606026D01*
X127235386Y-50581117D01*
X127235835Y-50550961D01*
X127236112Y-50516469D01*
X127236196Y-50482330D01*
X127236196Y-50322096D01*
X127269439Y-50322096D01*
X127286519Y-50322307D01*
G37*
G36*
X125256745Y-48408895D02*
G01*
X125267652Y-48419802D01*
X125267652Y-48546285D01*
X125267558Y-48579223D01*
X125267292Y-48609470D01*
X125266880Y-48635827D01*
X125266345Y-48657092D01*
X125265713Y-48672064D01*
X125265009Y-48679542D01*
X125264892Y-48679962D01*
X125264019Y-48682490D01*
X125263170Y-48684798D01*
X125261953Y-48686896D01*
X125259978Y-48688794D01*
X125256856Y-48690502D01*
X125252196Y-48692030D01*
X125245608Y-48693388D01*
X125236702Y-48694587D01*
X125225089Y-48695635D01*
X125210377Y-48696543D01*
X125192177Y-48697321D01*
X125170099Y-48697979D01*
X125143753Y-48698527D01*
X125112748Y-48698976D01*
X125076696Y-48699334D01*
X125035204Y-48699612D01*
X124987884Y-48699820D01*
X124934346Y-48699968D01*
X124874198Y-48700067D01*
X124807052Y-48700125D01*
X124732517Y-48700153D01*
X124650203Y-48700161D01*
X124559720Y-48700159D01*
X124476970Y-48700157D01*
X123716953Y-48700157D01*
X123702441Y-48713122D01*
X123687928Y-48726087D01*
X123686728Y-49036373D01*
X123686520Y-49103080D01*
X123686449Y-49161239D01*
X123686519Y-49211187D01*
X123686733Y-49253262D01*
X123687097Y-49287801D01*
X123687613Y-49315143D01*
X123688286Y-49335625D01*
X123689120Y-49349584D01*
X123690118Y-49357359D01*
X123690510Y-49358688D01*
X123692134Y-49362933D01*
X123693627Y-49366683D01*
X123695521Y-49369969D01*
X123698345Y-49372824D01*
X123702630Y-49375280D01*
X123708905Y-49377369D01*
X123717701Y-49379123D01*
X123729548Y-49380575D01*
X123744976Y-49381757D01*
X123764515Y-49382700D01*
X123788695Y-49383437D01*
X123818046Y-49384000D01*
X123853099Y-49384421D01*
X123894383Y-49384732D01*
X123942430Y-49384966D01*
X123997768Y-49385155D01*
X124060928Y-49385330D01*
X124132440Y-49385524D01*
X124133147Y-49385526D01*
X124550000Y-49386704D01*
X124705528Y-49484465D01*
X124861057Y-49582225D01*
X125055864Y-49584447D01*
X125250672Y-49586669D01*
X125259162Y-49597159D01*
X125264396Y-49606553D01*
X125267032Y-49619861D01*
X125267652Y-49636243D01*
X125267140Y-49652910D01*
X125265057Y-49663686D01*
X125260584Y-49671535D01*
X125256745Y-49675744D01*
X125245838Y-49686651D01*
X124464782Y-49686651D01*
X123683725Y-49686651D01*
X123493177Y-49496685D01*
X123457492Y-49460976D01*
X123424035Y-49427237D01*
X123393329Y-49396013D01*
X123365901Y-49367849D01*
X123342276Y-49343290D01*
X123322979Y-49322883D01*
X123308536Y-49307172D01*
X123299472Y-49296704D01*
X123296425Y-49292419D01*
X123294911Y-49284479D01*
X123293585Y-49268751D01*
X123292447Y-49246253D01*
X123291495Y-49218005D01*
X123290731Y-49185028D01*
X123290153Y-49148341D01*
X123289762Y-49108963D01*
X123289556Y-49067914D01*
X123289536Y-49026214D01*
X123289701Y-48984883D01*
X123290051Y-48944940D01*
X123290586Y-48907404D01*
X123291306Y-48873297D01*
X123292209Y-48843637D01*
X123293296Y-48819443D01*
X123294567Y-48801737D01*
X123296021Y-48791536D01*
X123296577Y-48789921D01*
X123300805Y-48784688D01*
X123310777Y-48773782D01*
X123325924Y-48757788D01*
X123345678Y-48737288D01*
X123369470Y-48712867D01*
X123396732Y-48685107D01*
X123426895Y-48654592D01*
X123459391Y-48621907D01*
X123493329Y-48587955D01*
X123683725Y-48397988D01*
X124464782Y-48397988D01*
X125245838Y-48397988D01*
X125256745Y-48408895D01*
G37*
G36*
X122136598Y-50322106D02*
G01*
X122159509Y-50322494D01*
X122176329Y-50323468D01*
X122187990Y-50325280D01*
X122195425Y-50328179D01*
X122199565Y-50332413D01*
X122201341Y-50338233D01*
X122201686Y-50345889D01*
X122201531Y-50355629D01*
X122201522Y-50357645D01*
X122201633Y-50368448D01*
X122201300Y-50376816D01*
X122199520Y-50383059D01*
X122195292Y-50387486D01*
X122187615Y-50390406D01*
X122175486Y-50392129D01*
X122157904Y-50392964D01*
X122133868Y-50393220D01*
X122102375Y-50393206D01*
X122086400Y-50393194D01*
X122048731Y-50393337D01*
X122019296Y-50393784D01*
X121997449Y-50394566D01*
X121982540Y-50395712D01*
X121973922Y-50397253D01*
X121971340Y-50398527D01*
X121968512Y-50405773D01*
X121966704Y-50419098D01*
X121965905Y-50435909D01*
X121966104Y-50453612D01*
X121967290Y-50469611D01*
X121969452Y-50481314D01*
X121971707Y-50485710D01*
X121978189Y-50487432D01*
X121992757Y-50488960D01*
X122014607Y-50490244D01*
X122042939Y-50491235D01*
X122071377Y-50491808D01*
X122105359Y-50492402D01*
X122131675Y-50493306D01*
X122151546Y-50494877D01*
X122166195Y-50497471D01*
X122176841Y-50501442D01*
X122184708Y-50507148D01*
X122191016Y-50514943D01*
X122196986Y-50525184D01*
X122198995Y-50528978D01*
X122202623Y-50536836D01*
X122205161Y-50545414D01*
X122206798Y-50556432D01*
X122207721Y-50571613D01*
X122208120Y-50592678D01*
X122208187Y-50613156D01*
X122207719Y-50645122D01*
X122206051Y-50669683D01*
X122202787Y-50688284D01*
X122197533Y-50702369D01*
X122189892Y-50713383D01*
X122179470Y-50722773D01*
X122177875Y-50723961D01*
X122173955Y-50726545D01*
X122169359Y-50728607D01*
X122163078Y-50730220D01*
X122154101Y-50731451D01*
X122141419Y-50732374D01*
X122124022Y-50733057D01*
X122100900Y-50733571D01*
X122071042Y-50733987D01*
X122033439Y-50734375D01*
X122027901Y-50734428D01*
X121890465Y-50735721D01*
X121890465Y-50699989D01*
X121890465Y-50664258D01*
X122007970Y-50664258D01*
X122045576Y-50664279D01*
X122075236Y-50664097D01*
X122097890Y-50663346D01*
X122114480Y-50661661D01*
X122125945Y-50658676D01*
X122133226Y-50654025D01*
X122137263Y-50647342D01*
X122138996Y-50638262D01*
X122139366Y-50626417D01*
X122139311Y-50613156D01*
X122139259Y-50597071D01*
X122138404Y-50584771D01*
X122135695Y-50575749D01*
X122130083Y-50569498D01*
X122120516Y-50565509D01*
X122105945Y-50563276D01*
X122085319Y-50562292D01*
X122057588Y-50562048D01*
X122033522Y-50562047D01*
X121998235Y-50561884D01*
X121970659Y-50561192D01*
X121949620Y-50559659D01*
X121933942Y-50556973D01*
X121922453Y-50552822D01*
X121913977Y-50546893D01*
X121907341Y-50538875D01*
X121901371Y-50528456D01*
X121900463Y-50526674D01*
X121896495Y-50518004D01*
X121893733Y-50509197D01*
X121891963Y-50498438D01*
X121890971Y-50483915D01*
X121890544Y-50463811D01*
X121890465Y-50441832D01*
X121890581Y-50415889D01*
X121891072Y-50397040D01*
X121892154Y-50383490D01*
X121894042Y-50373448D01*
X121896952Y-50365121D01*
X121900574Y-50357701D01*
X121905932Y-50348071D01*
X121911402Y-50340354D01*
X121917984Y-50334339D01*
X121926678Y-50329814D01*
X121938485Y-50326568D01*
X121954406Y-50324388D01*
X121975440Y-50323062D01*
X122002589Y-50322380D01*
X122036853Y-50322129D01*
X122068778Y-50322096D01*
X122106665Y-50322057D01*
X122136598Y-50322106D01*
G37*
G36*
X126014671Y-50322443D02*
G01*
X126029015Y-50323682D01*
X126038389Y-50326108D01*
X126044569Y-50329872D01*
X126048703Y-50336111D01*
X126055589Y-50349765D01*
X126064830Y-50369940D01*
X126076029Y-50395742D01*
X126088790Y-50426275D01*
X126102715Y-50460645D01*
X126104036Y-50463955D01*
X126116688Y-50495412D01*
X126128455Y-50524098D01*
X126138903Y-50548996D01*
X126147596Y-50569090D01*
X126154097Y-50583361D01*
X126157972Y-50590793D01*
X126158703Y-50591628D01*
X126161358Y-50588000D01*
X126166848Y-50577074D01*
X126174746Y-50559819D01*
X126184627Y-50537202D01*
X126196062Y-50510193D01*
X126208625Y-50479761D01*
X126215907Y-50461802D01*
X126231733Y-50423011D01*
X126245608Y-50390009D01*
X126257299Y-50363315D01*
X126266573Y-50343447D01*
X126273197Y-50330923D01*
X126276715Y-50326352D01*
X126285452Y-50324201D01*
X126300390Y-50322831D01*
X126318877Y-50322236D01*
X126338264Y-50322409D01*
X126355898Y-50323344D01*
X126369128Y-50325033D01*
X126374223Y-50326592D01*
X126380878Y-50333650D01*
X126386487Y-50345266D01*
X126387237Y-50347699D01*
X126388175Y-50355409D01*
X126389026Y-50370697D01*
X126389782Y-50392397D01*
X126390437Y-50419341D01*
X126390987Y-50450361D01*
X126391423Y-50484292D01*
X126391742Y-50519965D01*
X126391936Y-50556213D01*
X126391999Y-50591870D01*
X126391926Y-50625767D01*
X126391710Y-50656739D01*
X126391346Y-50683616D01*
X126390827Y-50705233D01*
X126390148Y-50720423D01*
X126389302Y-50728017D01*
X126389203Y-50728328D01*
X126385780Y-50732124D01*
X126377952Y-50734315D01*
X126363952Y-50735251D01*
X126353653Y-50735357D01*
X126320801Y-50735357D01*
X126320801Y-50574496D01*
X126320695Y-50533831D01*
X126320388Y-50498159D01*
X126319897Y-50468164D01*
X126319240Y-50444533D01*
X126318435Y-50427951D01*
X126317500Y-50419105D01*
X126316799Y-50417857D01*
X126314141Y-50422925D01*
X126308618Y-50435148D01*
X126300691Y-50453443D01*
X126290825Y-50476725D01*
X126279482Y-50503910D01*
X126267126Y-50533914D01*
X126264922Y-50539304D01*
X126252104Y-50570233D01*
X126239834Y-50598992D01*
X126228645Y-50624390D01*
X126219073Y-50645240D01*
X126211654Y-50660351D01*
X126206922Y-50668533D01*
X126206568Y-50668985D01*
X126190284Y-50682134D01*
X126170387Y-50689038D01*
X126149292Y-50689631D01*
X126129410Y-50683846D01*
X126113153Y-50671617D01*
X126113092Y-50671547D01*
X126107294Y-50662586D01*
X126098740Y-50645997D01*
X126087754Y-50622485D01*
X126074662Y-50592759D01*
X126059789Y-50557524D01*
X126052406Y-50539581D01*
X126039907Y-50509164D01*
X126028341Y-50481377D01*
X126018171Y-50457304D01*
X126009859Y-50438027D01*
X126003869Y-50424628D01*
X126000662Y-50418192D01*
X126000416Y-50417857D01*
X125999401Y-50421059D01*
X125998506Y-50432463D01*
X125997746Y-50451381D01*
X125997141Y-50477129D01*
X125996708Y-50509021D01*
X125996463Y-50546370D01*
X125996413Y-50574496D01*
X125996413Y-50735357D01*
X125963561Y-50735357D01*
X125945656Y-50734936D01*
X125934841Y-50733441D01*
X125929350Y-50730523D01*
X125928012Y-50728328D01*
X125927148Y-50721605D01*
X125926451Y-50707163D01*
X125925916Y-50686170D01*
X125925535Y-50659793D01*
X125925304Y-50629199D01*
X125925217Y-50595556D01*
X125925266Y-50560030D01*
X125925446Y-50523789D01*
X125925752Y-50488000D01*
X125926176Y-50453830D01*
X125926714Y-50422447D01*
X125927359Y-50395017D01*
X125928104Y-50372708D01*
X125928945Y-50356687D01*
X125929874Y-50348121D01*
X125929978Y-50347699D01*
X125935083Y-50335683D01*
X125941737Y-50327410D01*
X125942992Y-50326592D01*
X125950988Y-50324615D01*
X125965385Y-50323082D01*
X125983698Y-50322212D01*
X125993407Y-50322096D01*
X126014671Y-50322443D01*
G37*
G36*
X120009683Y-50322193D02*
G01*
X120048539Y-50322258D01*
X120079570Y-50322429D01*
X120103837Y-50322767D01*
X120122404Y-50323331D01*
X120136333Y-50324182D01*
X120146684Y-50325378D01*
X120154522Y-50326980D01*
X120160907Y-50329048D01*
X120165403Y-50330949D01*
X120179951Y-50339769D01*
X120190612Y-50351936D01*
X120197849Y-50368677D01*
X120202125Y-50391219D01*
X120203904Y-50420787D01*
X120204023Y-50433187D01*
X120203808Y-50456341D01*
X120202961Y-50472815D01*
X120201163Y-50484810D01*
X120198094Y-50494530D01*
X120193842Y-50503416D01*
X120183670Y-50522543D01*
X120193882Y-50538966D01*
X120197913Y-50546090D01*
X120200721Y-50553451D01*
X120202525Y-50562779D01*
X120203542Y-50575803D01*
X120203992Y-50594256D01*
X120204094Y-50619821D01*
X120203687Y-50650109D01*
X120202145Y-50673076D01*
X120198983Y-50690265D01*
X120193718Y-50703220D01*
X120185864Y-50713483D01*
X120174937Y-50722597D01*
X120170980Y-50725343D01*
X120166564Y-50728165D01*
X120161945Y-50730399D01*
X120156091Y-50732112D01*
X120147971Y-50733371D01*
X120136552Y-50734246D01*
X120120805Y-50734802D01*
X120099698Y-50735107D01*
X120072200Y-50735230D01*
X120037279Y-50735237D01*
X120020135Y-50735222D01*
X119974510Y-50735008D01*
X119937315Y-50734468D01*
X119908654Y-50733606D01*
X119888628Y-50732425D01*
X119877340Y-50730929D01*
X119875262Y-50730226D01*
X119870462Y-50727505D01*
X119866498Y-50724536D01*
X119863292Y-50720497D01*
X119860763Y-50714568D01*
X119858829Y-50705929D01*
X119857413Y-50693757D01*
X119856432Y-50677234D01*
X119855807Y-50655539D01*
X119855458Y-50627850D01*
X119855305Y-50593348D01*
X119855300Y-50587741D01*
X119927105Y-50587741D01*
X119927186Y-50614168D01*
X119927409Y-50635481D01*
X119927767Y-50650512D01*
X119928251Y-50658090D01*
X119928377Y-50658649D01*
X119933451Y-50660767D01*
X119945819Y-50662433D01*
X119963900Y-50663652D01*
X119986111Y-50664430D01*
X120010871Y-50664771D01*
X120036599Y-50664680D01*
X120061713Y-50664162D01*
X120084632Y-50663222D01*
X120103773Y-50661866D01*
X120117555Y-50660098D01*
X120124261Y-50658030D01*
X120130095Y-50649160D01*
X120133822Y-50634455D01*
X120135345Y-50616738D01*
X120134562Y-50598831D01*
X120131376Y-50583557D01*
X120127170Y-50575302D01*
X120123254Y-50570960D01*
X120118653Y-50567867D01*
X120111815Y-50565741D01*
X120101187Y-50564299D01*
X120085214Y-50563256D01*
X120062344Y-50562330D01*
X120054527Y-50562054D01*
X119990798Y-50559832D01*
X119989500Y-50525393D01*
X119988202Y-50490955D01*
X120050802Y-50490955D01*
X120075583Y-50490895D01*
X120093101Y-50490549D01*
X120104981Y-50489667D01*
X120112847Y-50487997D01*
X120118325Y-50485291D01*
X120123037Y-50481299D01*
X120124795Y-50479562D01*
X120130781Y-50472778D01*
X120134000Y-50465755D01*
X120135068Y-50455770D01*
X120134597Y-50440098D01*
X120134419Y-50436863D01*
X120133586Y-50423232D01*
X120132118Y-50412759D01*
X120128963Y-50405044D01*
X120123067Y-50399688D01*
X120113377Y-50396292D01*
X120098838Y-50394454D01*
X120078399Y-50393777D01*
X120051005Y-50393859D01*
X120022048Y-50394220D01*
X119928586Y-50395416D01*
X119927405Y-50524228D01*
X119927175Y-50557371D01*
X119927105Y-50587741D01*
X119855300Y-50587741D01*
X119855267Y-50551211D01*
X119855266Y-50525655D01*
X119855279Y-50480126D01*
X119855345Y-50442652D01*
X119855502Y-50412401D01*
X119855787Y-50388542D01*
X119856239Y-50370240D01*
X119856894Y-50356666D01*
X119857793Y-50346986D01*
X119858972Y-50340369D01*
X119860469Y-50335981D01*
X119862323Y-50332992D01*
X119864153Y-50330983D01*
X119867020Y-50328480D01*
X119870711Y-50326498D01*
X119876214Y-50324976D01*
X119884515Y-50323856D01*
X119896602Y-50323078D01*
X119913462Y-50322581D01*
X119936080Y-50322307D01*
X119965444Y-50322196D01*
X120002541Y-50322189D01*
X120009683Y-50322193D01*
G37*
G36*
X120777529Y-48408895D02*
G01*
X120788436Y-48419802D01*
X120788436Y-48548378D01*
X120788402Y-48585746D01*
X120788260Y-48615259D01*
X120787947Y-48637950D01*
X120787398Y-48654852D01*
X120786551Y-48666997D01*
X120785343Y-48675419D01*
X120783712Y-48681149D01*
X120781593Y-48685220D01*
X120779942Y-48687445D01*
X120771447Y-48697935D01*
X120002400Y-48700157D01*
X119233353Y-48702379D01*
X119221033Y-48714688D01*
X119216248Y-48719736D01*
X119212860Y-48724800D01*
X119210586Y-48731477D01*
X119209141Y-48741365D01*
X119208242Y-48756060D01*
X119207604Y-48777160D01*
X119207260Y-48792158D01*
X119206782Y-48823679D01*
X119207065Y-48847688D01*
X119208301Y-48865540D01*
X119210679Y-48878591D01*
X119214389Y-48888198D01*
X119219620Y-48895716D01*
X119222136Y-48898397D01*
X119232748Y-48909010D01*
X119928605Y-48909010D01*
X120021971Y-48909007D01*
X120106857Y-48909008D01*
X120183671Y-48909023D01*
X120252820Y-48909063D01*
X120314713Y-48909140D01*
X120369757Y-48909266D01*
X120418360Y-48909452D01*
X120460929Y-48909709D01*
X120497871Y-48910048D01*
X120529595Y-48910481D01*
X120556509Y-48911019D01*
X120579019Y-48911674D01*
X120597534Y-48912457D01*
X120612461Y-48913380D01*
X120624207Y-48914453D01*
X120633182Y-48915688D01*
X120639791Y-48917097D01*
X120644443Y-48918690D01*
X120647546Y-48920480D01*
X120649506Y-48922478D01*
X120650733Y-48924694D01*
X120651633Y-48927141D01*
X120652365Y-48929205D01*
X120653773Y-48937151D01*
X120654767Y-48950934D01*
X120655126Y-48966818D01*
X120654792Y-48983417D01*
X120653269Y-48993779D01*
X120649779Y-49000544D01*
X120643540Y-49006352D01*
X120643417Y-49006448D01*
X120640331Y-49008684D01*
X120636733Y-49010526D01*
X120631789Y-49012012D01*
X120624663Y-49013181D01*
X120614519Y-49014071D01*
X120600521Y-49014721D01*
X120581833Y-49015169D01*
X120557620Y-49015454D01*
X120527046Y-49015614D01*
X120489274Y-49015688D01*
X120443470Y-49015714D01*
X120442341Y-49015714D01*
X120252974Y-49015771D01*
X120093002Y-49102350D01*
X119933030Y-49188928D01*
X119585157Y-49188944D01*
X119519774Y-49188938D01*
X119462701Y-49188942D01*
X119413358Y-49188999D01*
X119371166Y-49189151D01*
X119335548Y-49189442D01*
X119305925Y-49189913D01*
X119281717Y-49190609D01*
X119262348Y-49191570D01*
X119247237Y-49192842D01*
X119235807Y-49194465D01*
X119227480Y-49196483D01*
X119221676Y-49198938D01*
X119217817Y-49201874D01*
X119215325Y-49205333D01*
X119213621Y-49209358D01*
X119212126Y-49213991D01*
X119211267Y-49216579D01*
X119209288Y-49226988D01*
X119207845Y-49243857D01*
X119206947Y-49264953D01*
X119206604Y-49288039D01*
X119206826Y-49310882D01*
X119207622Y-49331248D01*
X119209002Y-49346900D01*
X119210662Y-49354882D01*
X119217133Y-49366198D01*
X119224831Y-49375168D01*
X119234828Y-49384482D01*
X119996300Y-49384482D01*
X120094054Y-49384479D01*
X120183310Y-49384479D01*
X120264459Y-49384489D01*
X120337889Y-49384521D01*
X120403991Y-49384585D01*
X120463154Y-49384690D01*
X120515768Y-49384846D01*
X120562222Y-49385064D01*
X120602907Y-49385353D01*
X120638212Y-49385724D01*
X120668527Y-49386186D01*
X120694241Y-49386749D01*
X120715744Y-49387423D01*
X120733426Y-49388219D01*
X120747676Y-49389146D01*
X120758885Y-49390214D01*
X120767441Y-49391433D01*
X120773736Y-49392813D01*
X120778157Y-49394364D01*
X120781096Y-49396097D01*
X120782942Y-49398020D01*
X120784084Y-49400144D01*
X120784912Y-49402480D01*
X120785676Y-49404678D01*
X120786961Y-49412305D01*
X120787928Y-49426183D01*
X120788410Y-49443677D01*
X120788436Y-49448786D01*
X120787969Y-49468991D01*
X120786336Y-49482419D01*
X120783185Y-49491143D01*
X120780659Y-49494708D01*
X120775279Y-49499209D01*
X120763401Y-49508044D01*
X120745904Y-49520593D01*
X120723669Y-49536237D01*
X120697577Y-49554355D01*
X120668508Y-49574330D01*
X120637871Y-49595183D01*
X120502860Y-49686651D01*
X119853684Y-49686651D01*
X119204509Y-49686651D01*
X119013961Y-49496685D01*
X118978276Y-49460976D01*
X118944818Y-49427237D01*
X118914113Y-49396013D01*
X118886685Y-49367849D01*
X118863059Y-49343290D01*
X118843763Y-49322883D01*
X118829320Y-49307172D01*
X118820256Y-49296704D01*
X118817208Y-49292419D01*
X118815796Y-49287719D01*
X118814604Y-49280214D01*
X118813617Y-49269221D01*
X118812817Y-49254057D01*
X118812188Y-49234041D01*
X118811712Y-49208490D01*
X118811372Y-49176721D01*
X118811153Y-49138054D01*
X118811036Y-49091806D01*
X118811004Y-49042320D01*
X118811042Y-48988545D01*
X118811167Y-48942974D01*
X118811397Y-48904927D01*
X118811747Y-48873720D01*
X118812236Y-48848671D01*
X118812879Y-48829098D01*
X118813694Y-48814320D01*
X118814698Y-48803653D01*
X118815908Y-48796416D01*
X118817208Y-48792221D01*
X118821480Y-48786446D01*
X118831562Y-48774984D01*
X118846926Y-48758378D01*
X118867049Y-48737176D01*
X118891405Y-48711921D01*
X118919468Y-48683160D01*
X118950714Y-48651437D01*
X118984616Y-48617300D01*
X119013961Y-48587955D01*
X119204509Y-48397988D01*
X119985565Y-48397988D01*
X120766621Y-48397988D01*
X120777529Y-48408895D01*
G37*
G36*
X122752138Y-48394236D02*
G01*
X122790074Y-48394450D01*
X122793522Y-48394476D01*
X122961151Y-48395766D01*
X122971268Y-48405887D01*
X122981385Y-48416009D01*
X122982661Y-49028001D01*
X122982795Y-49101277D01*
X122982888Y-49172257D01*
X122982941Y-49240416D01*
X122982956Y-49305232D01*
X122982933Y-49366181D01*
X122982873Y-49422741D01*
X122982779Y-49474388D01*
X122982650Y-49520600D01*
X122982487Y-49560854D01*
X122982293Y-49594626D01*
X122982068Y-49621393D01*
X122981813Y-49640632D01*
X122981529Y-49651821D01*
X122981345Y-49654452D01*
X122976544Y-49667604D01*
X122969234Y-49677782D01*
X122966634Y-49679937D01*
X122963345Y-49681711D01*
X122958540Y-49683140D01*
X122951392Y-49684260D01*
X122941076Y-49685107D01*
X122926763Y-49685719D01*
X122907628Y-49686130D01*
X122882842Y-49686378D01*
X122851581Y-49686499D01*
X122813015Y-49686528D01*
X122770584Y-49686507D01*
X122581455Y-49686362D01*
X122139311Y-49388296D01*
X122080052Y-49348352D01*
X122021008Y-49308557D01*
X121962808Y-49269338D01*
X121906085Y-49231119D01*
X121851469Y-49194327D01*
X121799593Y-49159385D01*
X121751087Y-49126720D01*
X121706582Y-49096756D01*
X121666711Y-49069918D01*
X121632104Y-49046633D01*
X121603393Y-49027324D01*
X121581209Y-49012418D01*
X121575384Y-49008508D01*
X121539473Y-48984484D01*
X121510103Y-48965135D01*
X121486478Y-48950127D01*
X121467798Y-48939123D01*
X121453265Y-48931790D01*
X121442082Y-48927792D01*
X121433449Y-48926795D01*
X121426568Y-48928463D01*
X121420641Y-48932462D01*
X121414870Y-48938457D01*
X121413166Y-48940456D01*
X121401662Y-48954128D01*
X121401662Y-49305058D01*
X121401657Y-49371042D01*
X121401624Y-49428712D01*
X121401530Y-49478642D01*
X121401346Y-49521403D01*
X121401041Y-49557570D01*
X121400585Y-49587715D01*
X121399946Y-49612413D01*
X121399095Y-49632234D01*
X121398001Y-49647754D01*
X121396633Y-49659545D01*
X121394960Y-49668181D01*
X121392953Y-49674234D01*
X121390580Y-49678277D01*
X121387812Y-49680885D01*
X121384617Y-49682629D01*
X121381466Y-49683891D01*
X121375546Y-49684503D01*
X121361746Y-49685069D01*
X121341071Y-49685571D01*
X121314528Y-49685996D01*
X121283125Y-49686327D01*
X121247867Y-49686550D01*
X121209762Y-49686648D01*
X121201131Y-49686651D01*
X121027990Y-49686651D01*
X121017083Y-49675744D01*
X121006176Y-49664837D01*
X121006176Y-49042320D01*
X121006176Y-48419802D01*
X121017083Y-48408895D01*
X121027990Y-48397988D01*
X121215941Y-48397988D01*
X121403893Y-48397988D01*
X121753979Y-48631390D01*
X121817735Y-48673950D01*
X121874330Y-48711846D01*
X121924043Y-48745272D01*
X121967156Y-48774422D01*
X122003948Y-48799489D01*
X122034701Y-48820667D01*
X122059695Y-48838150D01*
X122079210Y-48852132D01*
X122093527Y-48862805D01*
X122102926Y-48870365D01*
X122107689Y-48875004D01*
X122108357Y-48876081D01*
X122109393Y-48883231D01*
X122110323Y-48898403D01*
X122111124Y-48920730D01*
X122111777Y-48949348D01*
X122112263Y-48983392D01*
X122112559Y-49021995D01*
X122112649Y-49059891D01*
X122112675Y-49103890D01*
X122112780Y-49139863D01*
X122113001Y-49168673D01*
X122113373Y-49191181D01*
X122113934Y-49208248D01*
X122114720Y-49220737D01*
X122115769Y-49229509D01*
X122117118Y-49235426D01*
X122118803Y-49239350D01*
X122120425Y-49241641D01*
X122126421Y-49246978D01*
X122138500Y-49256320D01*
X122155622Y-49268952D01*
X122176747Y-49284155D01*
X122200836Y-49301213D01*
X122226849Y-49319409D01*
X122253745Y-49338026D01*
X122280485Y-49356348D01*
X122306030Y-49373657D01*
X122329338Y-49389238D01*
X122349371Y-49402372D01*
X122365088Y-49412343D01*
X122375450Y-49418434D01*
X122379187Y-49420031D01*
X122385164Y-49418534D01*
X122397918Y-49414413D01*
X122415930Y-49408223D01*
X122437679Y-49400518D01*
X122461643Y-49391855D01*
X122486301Y-49382789D01*
X122510133Y-49373873D01*
X122531617Y-49365664D01*
X122549233Y-49358717D01*
X122561460Y-49353586D01*
X122562356Y-49353181D01*
X122566441Y-49351409D01*
X122570070Y-49349702D01*
X122573271Y-49347551D01*
X122576069Y-49344450D01*
X122578494Y-49339892D01*
X122580570Y-49333369D01*
X122582324Y-49324375D01*
X122583785Y-49312402D01*
X122584978Y-49296944D01*
X122585931Y-49277493D01*
X122586671Y-49253542D01*
X122587223Y-49224585D01*
X122587616Y-49190114D01*
X122587876Y-49149622D01*
X122588030Y-49102602D01*
X122588104Y-49048547D01*
X122588127Y-48986950D01*
X122588124Y-48917304D01*
X122588121Y-48867234D01*
X122588124Y-48793986D01*
X122588140Y-48729106D01*
X122588179Y-48672076D01*
X122588251Y-48622376D01*
X122588366Y-48579488D01*
X122588533Y-48542892D01*
X122588763Y-48512069D01*
X122589065Y-48486501D01*
X122589449Y-48465669D01*
X122589926Y-48449053D01*
X122590504Y-48436135D01*
X122591195Y-48426395D01*
X122592007Y-48419315D01*
X122592951Y-48414376D01*
X122594037Y-48411059D01*
X122595274Y-48408844D01*
X122596673Y-48407213D01*
X122596895Y-48406988D01*
X122607299Y-48399335D01*
X122615781Y-48395700D01*
X122622403Y-48395165D01*
X122636864Y-48394737D01*
X122658116Y-48394423D01*
X122685111Y-48394230D01*
X122716801Y-48394166D01*
X122752138Y-48394236D01*
G37*
G36*
X117809820Y-48408712D02*
G01*
X117822288Y-48419437D01*
X117822288Y-48549073D01*
X117822288Y-48678708D01*
X117809820Y-48689433D01*
X117797352Y-48700157D01*
X117032948Y-48700157D01*
X116268543Y-48700157D01*
X116255554Y-48713146D01*
X116242565Y-48726136D01*
X116242565Y-49042320D01*
X116242565Y-49358504D01*
X116255554Y-49371493D01*
X116268543Y-49384482D01*
X116834341Y-49384383D01*
X116917083Y-49384363D01*
X116991397Y-49384330D01*
X117057743Y-49384276D01*
X117116580Y-49384197D01*
X117168368Y-49384086D01*
X117213567Y-49383936D01*
X117252636Y-49383741D01*
X117286034Y-49383496D01*
X117314222Y-49383193D01*
X117337659Y-49382827D01*
X117356804Y-49382392D01*
X117372118Y-49381881D01*
X117384059Y-49381288D01*
X117393088Y-49380607D01*
X117399663Y-49379832D01*
X117404245Y-49378956D01*
X117407292Y-49377973D01*
X117409266Y-49376877D01*
X117409618Y-49376607D01*
X117417288Y-49369265D01*
X117422669Y-49360629D01*
X117426144Y-49349051D01*
X117428098Y-49332881D01*
X117428917Y-49310471D01*
X117429024Y-49293458D01*
X117428477Y-49264060D01*
X117426615Y-49242179D01*
X117423104Y-49226500D01*
X117417610Y-49215706D01*
X117409798Y-49208482D01*
X117407051Y-49206867D01*
X117400107Y-49205588D01*
X117384661Y-49204504D01*
X117361094Y-49203624D01*
X117329792Y-49202958D01*
X117291135Y-49202516D01*
X117245508Y-49202308D01*
X117227418Y-49202292D01*
X117188902Y-49202191D01*
X117152882Y-49201905D01*
X117120397Y-49201456D01*
X117092484Y-49200866D01*
X117070179Y-49200159D01*
X117054520Y-49199356D01*
X117046543Y-49198481D01*
X117046047Y-49198335D01*
X117040030Y-49194441D01*
X117028335Y-49185489D01*
X117011957Y-49172295D01*
X116991890Y-49155671D01*
X116969131Y-49136431D01*
X116945589Y-49116184D01*
X116921267Y-49095194D01*
X116898800Y-49075996D01*
X116879161Y-49059406D01*
X116863322Y-49046242D01*
X116852258Y-49037319D01*
X116847010Y-49033489D01*
X116840197Y-49032260D01*
X116825004Y-49031206D01*
X116801935Y-49030342D01*
X116771495Y-49029679D01*
X116734188Y-49029231D01*
X116690521Y-49029010D01*
X116670287Y-49028989D01*
X116627142Y-49028973D01*
X116592002Y-49028897D01*
X116563985Y-49028714D01*
X116542206Y-49028382D01*
X116525783Y-49027854D01*
X116513835Y-49027087D01*
X116505477Y-49026036D01*
X116499828Y-49024655D01*
X116496005Y-49022900D01*
X116493124Y-49020728D01*
X116492302Y-49019978D01*
X116483277Y-49008124D01*
X116478906Y-48992661D01*
X116478698Y-48971556D01*
X116479186Y-48965708D01*
X116479434Y-48959997D01*
X116479324Y-48954869D01*
X116479310Y-48950292D01*
X116479845Y-48946236D01*
X116481382Y-48942670D01*
X116484374Y-48939561D01*
X116489275Y-48936881D01*
X116496538Y-48934596D01*
X116506615Y-48932676D01*
X116519960Y-48931090D01*
X116537027Y-48929807D01*
X116558268Y-48928795D01*
X116584137Y-48928024D01*
X116615087Y-48927463D01*
X116651571Y-48927079D01*
X116694042Y-48926843D01*
X116742954Y-48926723D01*
X116798759Y-48926688D01*
X116861911Y-48926706D01*
X116932864Y-48926748D01*
X117012069Y-48926781D01*
X117046045Y-48926784D01*
X117590809Y-48926784D01*
X117701322Y-49036765D01*
X117727407Y-49062883D01*
X117751659Y-49087470D01*
X117773305Y-49109719D01*
X117791571Y-49128822D01*
X117805682Y-49143969D01*
X117814865Y-49154354D01*
X117818172Y-49158745D01*
X117819585Y-49162681D01*
X117820779Y-49169158D01*
X117821772Y-49178855D01*
X117822581Y-49192453D01*
X117823222Y-49210630D01*
X117823712Y-49234065D01*
X117824069Y-49263439D01*
X117824309Y-49299431D01*
X117824449Y-49342720D01*
X117824506Y-49393986D01*
X117824510Y-49413366D01*
X117824492Y-49468267D01*
X117824405Y-49514967D01*
X117824197Y-49554155D01*
X117823817Y-49586516D01*
X117823213Y-49612737D01*
X117822335Y-49633507D01*
X117821130Y-49649511D01*
X117819549Y-49661437D01*
X117817538Y-49669972D01*
X117815048Y-49675803D01*
X117812027Y-49679617D01*
X117808423Y-49682100D01*
X117804314Y-49683891D01*
X117798391Y-49684505D01*
X117784590Y-49685071D01*
X117763919Y-49685574D01*
X117737387Y-49685999D01*
X117706003Y-49686330D01*
X117670776Y-49686552D01*
X117632715Y-49686648D01*
X117624674Y-49686651D01*
X117578277Y-49686699D01*
X117539977Y-49686693D01*
X117508988Y-49686408D01*
X117484519Y-49685621D01*
X117465785Y-49684106D01*
X117451995Y-49681641D01*
X117442364Y-49678000D01*
X117436101Y-49672959D01*
X117432420Y-49666294D01*
X117430532Y-49657780D01*
X117429650Y-49647194D01*
X117428985Y-49634311D01*
X117428773Y-49630895D01*
X117427259Y-49611729D01*
X117425350Y-49599181D01*
X117422371Y-49590988D01*
X117417644Y-49584885D01*
X117414029Y-49581579D01*
X117398448Y-49572972D01*
X117387056Y-49571116D01*
X117381118Y-49571740D01*
X117374826Y-49574181D01*
X117367121Y-49579294D01*
X117356944Y-49587932D01*
X117343233Y-49600950D01*
X117324930Y-49619201D01*
X117315371Y-49628884D01*
X117258495Y-49686651D01*
X116749475Y-49686651D01*
X116240454Y-49686651D01*
X116043766Y-49489963D01*
X115847078Y-49293275D01*
X115847078Y-49042320D01*
X115847078Y-48791364D01*
X116043766Y-48594676D01*
X116240454Y-48397988D01*
X117018903Y-48397988D01*
X117797352Y-48397988D01*
X117809820Y-48408712D01*
G37*
G36*
X110855672Y-47937015D02*
G01*
X111047918Y-48129260D01*
X111047918Y-48375704D01*
X111047918Y-48622147D01*
X110862395Y-48808103D01*
X110828537Y-48841945D01*
X110796270Y-48874016D01*
X110766187Y-48903739D01*
X110738878Y-48930537D01*
X110714935Y-48953835D01*
X110694950Y-48973058D01*
X110679514Y-48987628D01*
X110669219Y-48996970D01*
X110664872Y-49000414D01*
X110662358Y-49001235D01*
X110657800Y-49001984D01*
X110650820Y-49002665D01*
X110641038Y-49003280D01*
X110628073Y-49003832D01*
X110611547Y-49004325D01*
X110591078Y-49004762D01*
X110566289Y-49005146D01*
X110536798Y-49005480D01*
X110502225Y-49005767D01*
X110462192Y-49006011D01*
X110416319Y-49006214D01*
X110364225Y-49006380D01*
X110305531Y-49006512D01*
X110239857Y-49006613D01*
X110166823Y-49006686D01*
X110086050Y-49006735D01*
X109997158Y-49006762D01*
X109899767Y-49006770D01*
X109897477Y-49006770D01*
X109142080Y-49006770D01*
X109129613Y-48996053D01*
X109117145Y-48985335D01*
X109115707Y-48870519D01*
X109115348Y-48830358D01*
X109115458Y-48798126D01*
X109116150Y-48772872D01*
X109117538Y-48753644D01*
X109119734Y-48739492D01*
X109122853Y-48729464D01*
X109127006Y-48722610D01*
X109132306Y-48717977D01*
X109133965Y-48716974D01*
X109137502Y-48716036D01*
X109144896Y-48715185D01*
X109156562Y-48714416D01*
X109172914Y-48713722D01*
X109194369Y-48713098D01*
X109221341Y-48712536D01*
X109254246Y-48712030D01*
X109293497Y-48711575D01*
X109339511Y-48711164D01*
X109392703Y-48710790D01*
X109453487Y-48710448D01*
X109522279Y-48710131D01*
X109599493Y-48709833D01*
X109609281Y-48709798D01*
X110074755Y-48708168D01*
X110074738Y-48636397D01*
X110074624Y-48608936D01*
X110074190Y-48588804D01*
X110073277Y-48574445D01*
X110071726Y-48564302D01*
X110069376Y-48556818D01*
X110066070Y-48550437D01*
X110065916Y-48550184D01*
X110059961Y-48540628D01*
X110056278Y-48535113D01*
X110055935Y-48534706D01*
X110051423Y-48534537D01*
X110038626Y-48534331D01*
X110018144Y-48534093D01*
X109990580Y-48533826D01*
X109956535Y-48533535D01*
X109916611Y-48533225D01*
X109871409Y-48532901D01*
X109821531Y-48532566D01*
X109767578Y-48532226D01*
X109710152Y-48531885D01*
X109649854Y-48531548D01*
X109617057Y-48531373D01*
X109179356Y-48529076D01*
X109039381Y-48433537D01*
X108899405Y-48337998D01*
X108724007Y-48336737D01*
X108679917Y-48336408D01*
X108643850Y-48336084D01*
X108614941Y-48335715D01*
X108592324Y-48335250D01*
X108575136Y-48334639D01*
X108562510Y-48333832D01*
X108553584Y-48332779D01*
X108547490Y-48331429D01*
X108543366Y-48329732D01*
X108540346Y-48327639D01*
X108538484Y-48325964D01*
X108532718Y-48319048D01*
X108529628Y-48310234D01*
X108528459Y-48296700D01*
X108528359Y-48288051D01*
X108529236Y-48267426D01*
X108532451Y-48253664D01*
X108538878Y-48244863D01*
X108549393Y-48239119D01*
X108551146Y-48238483D01*
X108555856Y-48237866D01*
X108566437Y-48237294D01*
X108583084Y-48236768D01*
X108605991Y-48236286D01*
X108635353Y-48235847D01*
X108671364Y-48235450D01*
X108714220Y-48235094D01*
X108764115Y-48234778D01*
X108821243Y-48234502D01*
X108885799Y-48234263D01*
X108957978Y-48234062D01*
X109037974Y-48233897D01*
X109125982Y-48233766D01*
X109222197Y-48233670D01*
X109326812Y-48233607D01*
X109440024Y-48233576D01*
X109499715Y-48233572D01*
X110434196Y-48233572D01*
X110446664Y-48244294D01*
X110459132Y-48255015D01*
X110460398Y-48482030D01*
X110461664Y-48709045D01*
X110548502Y-48709045D01*
X110635341Y-48709045D01*
X110648330Y-48696055D01*
X110661319Y-48683066D01*
X110661319Y-48378113D01*
X110661320Y-48316772D01*
X110661292Y-48263698D01*
X110661188Y-48218269D01*
X110660962Y-48179865D01*
X110660567Y-48147863D01*
X110659957Y-48121644D01*
X110659086Y-48100587D01*
X110657906Y-48084069D01*
X110656371Y-48071471D01*
X110654436Y-48062170D01*
X110652052Y-48055547D01*
X110649174Y-48050980D01*
X110645756Y-48047848D01*
X110641750Y-48045530D01*
X110637110Y-48043406D01*
X110636220Y-48043003D01*
X110632309Y-48041992D01*
X110624990Y-48041113D01*
X110613786Y-48040359D01*
X110598219Y-48039727D01*
X110577812Y-48039209D01*
X110552088Y-48038802D01*
X110520570Y-48038500D01*
X110482781Y-48038297D01*
X110438243Y-48038189D01*
X110386479Y-48038170D01*
X110327013Y-48038235D01*
X110259367Y-48038379D01*
X110223737Y-48038475D01*
X110152899Y-48038656D01*
X110090444Y-48038768D01*
X110035869Y-48038804D01*
X109988671Y-48038759D01*
X109948346Y-48038627D01*
X109914391Y-48038402D01*
X109886301Y-48038079D01*
X109863574Y-48037650D01*
X109845706Y-48037111D01*
X109832194Y-48036455D01*
X109822534Y-48035677D01*
X109816222Y-48034770D01*
X109812755Y-48033730D01*
X109812632Y-48033666D01*
X109806446Y-48030008D01*
X109793643Y-48022181D01*
X109775130Y-48010746D01*
X109751811Y-47996267D01*
X109724594Y-47979306D01*
X109694382Y-47960425D01*
X109662084Y-47940188D01*
X109659325Y-47938457D01*
X109517075Y-47849195D01*
X109325039Y-47846973D01*
X109276897Y-47846442D01*
X109236880Y-47845959D01*
X109204226Y-47845373D01*
X109178176Y-47844530D01*
X109157970Y-47843278D01*
X109142845Y-47841466D01*
X109132043Y-47838939D01*
X109124803Y-47835545D01*
X109120364Y-47831133D01*
X109117966Y-47825548D01*
X109116847Y-47818640D01*
X109116249Y-47810254D01*
X109115870Y-47805006D01*
X109116301Y-47780351D01*
X109122122Y-47762205D01*
X109133210Y-47750919D01*
X109135429Y-47749789D01*
X109139598Y-47749099D01*
X109149114Y-47748468D01*
X109164225Y-47747892D01*
X109185177Y-47747371D01*
X109212219Y-47746902D01*
X109245598Y-47746485D01*
X109285561Y-47746117D01*
X109332356Y-47745798D01*
X109386230Y-47745525D01*
X109447431Y-47745297D01*
X109516206Y-47745111D01*
X109592802Y-47744968D01*
X109677467Y-47744864D01*
X109770449Y-47744799D01*
X109871994Y-47744771D01*
X109904937Y-47744769D01*
X110663427Y-47744769D01*
X110855672Y-47937015D01*
G37*
G36*
X109268798Y-49089722D02*
G01*
X109284026Y-49092791D01*
X109307343Y-49098278D01*
X109338534Y-49106130D01*
X109377383Y-49116290D01*
X109423674Y-49128704D01*
X109477193Y-49143317D01*
X109521518Y-49155567D01*
X109567237Y-49168284D01*
X109610643Y-49180406D01*
X109650935Y-49191704D01*
X109687311Y-49201954D01*
X109718972Y-49210927D01*
X109745117Y-49218397D01*
X109764945Y-49224138D01*
X109777655Y-49227922D01*
X109782181Y-49229396D01*
X109784386Y-49231183D01*
X109787891Y-49235455D01*
X109792876Y-49242522D01*
X109799522Y-49252694D01*
X109808007Y-49266282D01*
X109818512Y-49283597D01*
X109831217Y-49304949D01*
X109846301Y-49330649D01*
X109863944Y-49361007D01*
X109884326Y-49396334D01*
X109907626Y-49436939D01*
X109934025Y-49483134D01*
X109963702Y-49535230D01*
X109996837Y-49593536D01*
X110033609Y-49658363D01*
X110074199Y-49730022D01*
X110118786Y-49808823D01*
X110165448Y-49891356D01*
X110213408Y-49976210D01*
X110257181Y-50053670D01*
X110296951Y-50124084D01*
X110332896Y-50187798D01*
X110365198Y-50245158D01*
X110394039Y-50296513D01*
X110419599Y-50342207D01*
X110442059Y-50382589D01*
X110461601Y-50418005D01*
X110478405Y-50448803D01*
X110492653Y-50475327D01*
X110504525Y-50497927D01*
X110514202Y-50516947D01*
X110521867Y-50532736D01*
X110527698Y-50545640D01*
X110531879Y-50556006D01*
X110534589Y-50564181D01*
X110536010Y-50570511D01*
X110536323Y-50575343D01*
X110535709Y-50579024D01*
X110534349Y-50581902D01*
X110532423Y-50584322D01*
X110530114Y-50586632D01*
X110528974Y-50587751D01*
X110522175Y-50592845D01*
X110509087Y-50601195D01*
X110490978Y-50612095D01*
X110469117Y-50624840D01*
X110444771Y-50638727D01*
X110419210Y-50653050D01*
X110393700Y-50667105D01*
X110369510Y-50680188D01*
X110347909Y-50691592D01*
X110330165Y-50700615D01*
X110317545Y-50706550D01*
X110311318Y-50708695D01*
X110311310Y-50708695D01*
X110307051Y-50708627D01*
X110303031Y-50708131D01*
X110298972Y-50706765D01*
X110294595Y-50704088D01*
X110289622Y-50699659D01*
X110283776Y-50693038D01*
X110276779Y-50683782D01*
X110268352Y-50671452D01*
X110258219Y-50655606D01*
X110246100Y-50635803D01*
X110231718Y-50611602D01*
X110214795Y-50582563D01*
X110195054Y-50548244D01*
X110172215Y-50508203D01*
X110146001Y-50462001D01*
X110116135Y-50409196D01*
X110082338Y-50349348D01*
X110060940Y-50311438D01*
X110030216Y-50257008D01*
X110000587Y-50204531D01*
X109972364Y-50154554D01*
X109945856Y-50107625D01*
X109921372Y-50064293D01*
X109899223Y-50025104D01*
X109879718Y-49990607D01*
X109863167Y-49961349D01*
X109849879Y-49937879D01*
X109840164Y-49920745D01*
X109834332Y-49910493D01*
X109832872Y-49907952D01*
X109823261Y-49891517D01*
X109760460Y-49926857D01*
X109731060Y-49943942D01*
X109709076Y-49958079D01*
X109693786Y-49969889D01*
X109684466Y-49979994D01*
X109680395Y-49989016D01*
X109680400Y-49995715D01*
X109682800Y-50000840D01*
X109689282Y-50013151D01*
X109699543Y-50032103D01*
X109713280Y-50057151D01*
X109730189Y-50087749D01*
X109749969Y-50123354D01*
X109772316Y-50163420D01*
X109796928Y-50207403D01*
X109823500Y-50254757D01*
X109851731Y-50304938D01*
X109881317Y-50357401D01*
X109892684Y-50377524D01*
X110103188Y-50750020D01*
X110089221Y-50921546D01*
X110075254Y-51093072D01*
X110159434Y-51242178D01*
X110184710Y-51287284D01*
X110205397Y-51324941D01*
X110221560Y-51355271D01*
X110233261Y-51378398D01*
X110240565Y-51394443D01*
X110243535Y-51403530D01*
X110243614Y-51404494D01*
X110239588Y-51422050D01*
X110227361Y-51436824D01*
X110212392Y-51446403D01*
X110191411Y-51453900D01*
X110173148Y-51453952D01*
X110159734Y-51447454D01*
X110156732Y-51442933D01*
X110149619Y-51431105D01*
X110138644Y-51412409D01*
X110124056Y-51387283D01*
X110106102Y-51356166D01*
X110085032Y-51319497D01*
X110061092Y-51277713D01*
X110034532Y-51231254D01*
X110005600Y-51180558D01*
X109974543Y-51126064D01*
X109941611Y-51068210D01*
X109907051Y-51007435D01*
X109871111Y-50944177D01*
X109834040Y-50878875D01*
X109796087Y-50811967D01*
X109757499Y-50743892D01*
X109718524Y-50675089D01*
X109679411Y-50605996D01*
X109640408Y-50537051D01*
X109601764Y-50468694D01*
X109563726Y-50401362D01*
X109526543Y-50335494D01*
X109490462Y-50271530D01*
X109455733Y-50209907D01*
X109422604Y-50151063D01*
X109391322Y-50095438D01*
X109362136Y-50043471D01*
X109335295Y-49995598D01*
X109311046Y-49952260D01*
X109289637Y-49913895D01*
X109271318Y-49880941D01*
X109256335Y-49853836D01*
X109244939Y-49833020D01*
X109237375Y-49818931D01*
X109233894Y-49812007D01*
X109233699Y-49811485D01*
X109233446Y-49799868D01*
X109236723Y-49786907D01*
X109236746Y-49786853D01*
X109238891Y-49783171D01*
X109242815Y-49778895D01*
X109249162Y-49773627D01*
X109258573Y-49766970D01*
X109271690Y-49758528D01*
X109289157Y-49747904D01*
X109311616Y-49734700D01*
X109339709Y-49718520D01*
X109374078Y-49698968D01*
X109415367Y-49675645D01*
X109430923Y-49666882D01*
X109468550Y-49645660D01*
X109503906Y-49625641D01*
X109536217Y-49607269D01*
X109564708Y-49590990D01*
X109588602Y-49577247D01*
X109607126Y-49566485D01*
X109619504Y-49559148D01*
X109624960Y-49555680D01*
X109625065Y-49555592D01*
X109626429Y-49552256D01*
X109625296Y-49546047D01*
X109621216Y-49535954D01*
X109613740Y-49520968D01*
X109602419Y-49500081D01*
X109592216Y-49481852D01*
X109575949Y-49453252D01*
X109563153Y-49431536D01*
X109553076Y-49415770D01*
X109544967Y-49405018D01*
X109538075Y-49398345D01*
X109531649Y-49394816D01*
X109524937Y-49393494D01*
X109521146Y-49393369D01*
X109515947Y-49394590D01*
X109506588Y-49398393D01*
X109492670Y-49404992D01*
X109473796Y-49414600D01*
X109449568Y-49427430D01*
X109419589Y-49443695D01*
X109383460Y-49463609D01*
X109340785Y-49487384D01*
X109291164Y-49515234D01*
X109243080Y-49542353D01*
X109198464Y-49567624D01*
X109156056Y-49591768D01*
X109116503Y-49614407D01*
X109080453Y-49635165D01*
X109048554Y-49653667D01*
X109021451Y-49669535D01*
X108999794Y-49682393D01*
X108984228Y-49691866D01*
X108975402Y-49697576D01*
X108973643Y-49698992D01*
X108971130Y-49702417D01*
X108969145Y-49705835D01*
X108967930Y-49709733D01*
X108967728Y-49714602D01*
X108968781Y-49720929D01*
X108971332Y-49729203D01*
X108975624Y-49739913D01*
X108981899Y-49753547D01*
X108990399Y-49770594D01*
X109001366Y-49791542D01*
X109015045Y-49816881D01*
X109031676Y-49847098D01*
X109051503Y-49882683D01*
X109074767Y-49924124D01*
X109101713Y-49971909D01*
X109132581Y-50026528D01*
X109162120Y-50078755D01*
X109361339Y-50430966D01*
X109360050Y-50477624D01*
X109359513Y-50494290D01*
X109358636Y-50518200D01*
X109357485Y-50547721D01*
X109356125Y-50581220D01*
X109354621Y-50617063D01*
X109353039Y-50653616D01*
X109352784Y-50659400D01*
X109351367Y-50693379D01*
X109350226Y-50724637D01*
X109349392Y-50752029D01*
X109348892Y-50774410D01*
X109348756Y-50790637D01*
X109349013Y-50799563D01*
X109349218Y-50800799D01*
X109351870Y-50805932D01*
X109358426Y-50817937D01*
X109368407Y-50835957D01*
X109381332Y-50859133D01*
X109396723Y-50886606D01*
X109414102Y-50917519D01*
X109432987Y-50951012D01*
X109439906Y-50963259D01*
X109463262Y-51004668D01*
X109482494Y-51039112D01*
X109497894Y-51067337D01*
X109509756Y-51090091D01*
X109518372Y-51108120D01*
X109524034Y-51122172D01*
X109527035Y-51132993D01*
X109527668Y-51141331D01*
X109526225Y-51147932D01*
X109522998Y-51153543D01*
X109518281Y-51158911D01*
X109517032Y-51160173D01*
X109498252Y-51174580D01*
X109478831Y-51181826D01*
X109460240Y-51181865D01*
X109443947Y-51174651D01*
X109433043Y-51162843D01*
X109427318Y-51153441D01*
X109417728Y-51137098D01*
X109404549Y-51114307D01*
X109388057Y-51085558D01*
X109368528Y-51051344D01*
X109346237Y-51012155D01*
X109321460Y-50968483D01*
X109294473Y-50920820D01*
X109265552Y-50869657D01*
X109234972Y-50815484D01*
X109203010Y-50758795D01*
X109169941Y-50700080D01*
X109136040Y-50639830D01*
X109101585Y-50578537D01*
X109066849Y-50516692D01*
X109032110Y-50454787D01*
X108997643Y-50393313D01*
X108963723Y-50332762D01*
X108930627Y-50273625D01*
X108898631Y-50216393D01*
X108868009Y-50161558D01*
X108839039Y-50109611D01*
X108811995Y-50061044D01*
X108787153Y-50016348D01*
X108764790Y-49976014D01*
X108745181Y-49940534D01*
X108728602Y-49910400D01*
X108715328Y-49886102D01*
X108705635Y-49868132D01*
X108699800Y-49856982D01*
X108698076Y-49853213D01*
X108698885Y-49845800D01*
X108701942Y-49830921D01*
X108706989Y-49809490D01*
X108713767Y-49782423D01*
X108722020Y-49750635D01*
X108731491Y-49715040D01*
X108741920Y-49676554D01*
X108753052Y-49636090D01*
X108764628Y-49594565D01*
X108776392Y-49552893D01*
X108788084Y-49511988D01*
X108799448Y-49472767D01*
X108810227Y-49436143D01*
X108820162Y-49403031D01*
X108828997Y-49374348D01*
X108836473Y-49351006D01*
X108842334Y-49333921D01*
X108846321Y-49324009D01*
X108847625Y-49321943D01*
X108853859Y-49317839D01*
X108866846Y-49310013D01*
X108885690Y-49298970D01*
X108909492Y-49285215D01*
X108937355Y-49269253D01*
X108968380Y-49251588D01*
X109001670Y-49232725D01*
X109036326Y-49213169D01*
X109071451Y-49193423D01*
X109106148Y-49173994D01*
X109139518Y-49155384D01*
X109170663Y-49138100D01*
X109198685Y-49122645D01*
X109222687Y-49109524D01*
X109241770Y-49099242D01*
X109255037Y-49092304D01*
X109261591Y-49089214D01*
X109261874Y-49089128D01*
X109268798Y-49089722D01*
G37*
G36*
X112104701Y-48385389D02*
G01*
X112107571Y-48387019D01*
X112123952Y-48400092D01*
X112133634Y-48415460D01*
X112135671Y-48431481D01*
X112135048Y-48434737D01*
X112132539Y-48439632D01*
X112125756Y-48451739D01*
X112114956Y-48470623D01*
X112100394Y-48495850D01*
X112082328Y-48526985D01*
X112061013Y-48563593D01*
X112036706Y-48605240D01*
X112009662Y-48651492D01*
X111980138Y-48701913D01*
X111948390Y-48756070D01*
X111914675Y-48813527D01*
X111879247Y-48873850D01*
X111842365Y-48936604D01*
X111804283Y-49001356D01*
X111765258Y-49067669D01*
X111725546Y-49135111D01*
X111685404Y-49203245D01*
X111645087Y-49271638D01*
X111604852Y-49339855D01*
X111564955Y-49407462D01*
X111525653Y-49474023D01*
X111487200Y-49539104D01*
X111449854Y-49602272D01*
X111413871Y-49663090D01*
X111379506Y-49721125D01*
X111347017Y-49775941D01*
X111316659Y-49827106D01*
X111288689Y-49874182D01*
X111263362Y-49916738D01*
X111240935Y-49954336D01*
X111221664Y-49986544D01*
X111205805Y-50012927D01*
X111193615Y-50033049D01*
X111185349Y-50046477D01*
X111181265Y-50052775D01*
X111180960Y-50053153D01*
X111176237Y-50057538D01*
X111171305Y-50060687D01*
X111165513Y-50062310D01*
X111158208Y-50062115D01*
X111148739Y-50059809D01*
X111136454Y-50055101D01*
X111120700Y-50047699D01*
X111100826Y-50037312D01*
X111076179Y-50023647D01*
X111046107Y-50006413D01*
X111009958Y-49985318D01*
X110967080Y-49960070D01*
X110948751Y-49949246D01*
X110911377Y-49927211D01*
X110876382Y-49906668D01*
X110844499Y-49888039D01*
X110816459Y-49871747D01*
X110792994Y-49858216D01*
X110774835Y-49847870D01*
X110762716Y-49841132D01*
X110757366Y-49838424D01*
X110757175Y-49838401D01*
X110751972Y-49845889D01*
X110743805Y-49859191D01*
X110733496Y-49876819D01*
X110721864Y-49897282D01*
X110709729Y-49919092D01*
X110697912Y-49940759D01*
X110687232Y-49960794D01*
X110678509Y-49977708D01*
X110672563Y-49990010D01*
X110670215Y-49996212D01*
X110670206Y-49996362D01*
X110673148Y-50006052D01*
X110680422Y-50017222D01*
X110682426Y-50019498D01*
X110688588Y-50024261D01*
X110701544Y-50032893D01*
X110720525Y-50044943D01*
X110744763Y-50059960D01*
X110773490Y-50077492D01*
X110805936Y-50097088D01*
X110841335Y-50118295D01*
X110878916Y-50140663D01*
X110917912Y-50163741D01*
X110957554Y-50187076D01*
X110997074Y-50210217D01*
X111035703Y-50232713D01*
X111072673Y-50254112D01*
X111107215Y-50273963D01*
X111138561Y-50291814D01*
X111165942Y-50307214D01*
X111188590Y-50319711D01*
X111205737Y-50328855D01*
X111216613Y-50334192D01*
X111220178Y-50335427D01*
X111230211Y-50332342D01*
X111241087Y-50324763D01*
X111242688Y-50323207D01*
X111246678Y-50317616D01*
X111254815Y-50304927D01*
X111266753Y-50285714D01*
X111282148Y-50260547D01*
X111300657Y-50229999D01*
X111321934Y-50194641D01*
X111345635Y-50155047D01*
X111371416Y-50111788D01*
X111398933Y-50065436D01*
X111427841Y-50016563D01*
X111454450Y-49971426D01*
X111489320Y-49912214D01*
X111520003Y-49860195D01*
X111546795Y-49814890D01*
X111569996Y-49775820D01*
X111589903Y-49742507D01*
X111606814Y-49714471D01*
X111621025Y-49691233D01*
X111632837Y-49672313D01*
X111642545Y-49657234D01*
X111650449Y-49645515D01*
X111656845Y-49636678D01*
X111662032Y-49630244D01*
X111666307Y-49625734D01*
X111669969Y-49622668D01*
X111672172Y-49621217D01*
X111680183Y-49616735D01*
X111695066Y-49608700D01*
X111715802Y-49597653D01*
X111741371Y-49584131D01*
X111770755Y-49568673D01*
X111802935Y-49551819D01*
X111835310Y-49534930D01*
X111980592Y-49459292D01*
X112072381Y-49303019D01*
X112092561Y-49268841D01*
X112111641Y-49236865D01*
X112129095Y-49207950D01*
X112144393Y-49182958D01*
X112157006Y-49162750D01*
X112166407Y-49148186D01*
X112172066Y-49140128D01*
X112173104Y-49138969D01*
X112187373Y-49132227D01*
X112205518Y-49132750D01*
X112225373Y-49140021D01*
X112243757Y-49152618D01*
X112253964Y-49167778D01*
X112256595Y-49183111D01*
X112255604Y-49186726D01*
X112252524Y-49193720D01*
X112247197Y-49204367D01*
X112239464Y-49218943D01*
X112229167Y-49237723D01*
X112216148Y-49260982D01*
X112200246Y-49288995D01*
X112181305Y-49322037D01*
X112159165Y-49360384D01*
X112133667Y-49404310D01*
X112104654Y-49454091D01*
X112071966Y-49510002D01*
X112035445Y-49572318D01*
X111994932Y-49641314D01*
X111950269Y-49717265D01*
X111901297Y-49800447D01*
X111876158Y-49843117D01*
X111835014Y-49912920D01*
X111795044Y-49980688D01*
X111756487Y-50046022D01*
X111719577Y-50108522D01*
X111684553Y-50167789D01*
X111651652Y-50223423D01*
X111621109Y-50275024D01*
X111593163Y-50322191D01*
X111568049Y-50364527D01*
X111546005Y-50401630D01*
X111527268Y-50433100D01*
X111512074Y-50458539D01*
X111500661Y-50477546D01*
X111493265Y-50489721D01*
X111490123Y-50494665D01*
X111490069Y-50494730D01*
X111484916Y-50496825D01*
X111472055Y-50500840D01*
X111452399Y-50506538D01*
X111426860Y-50513682D01*
X111396351Y-50522035D01*
X111361784Y-50531358D01*
X111324074Y-50541414D01*
X111284132Y-50551966D01*
X111242871Y-50562775D01*
X111201204Y-50573605D01*
X111160044Y-50584218D01*
X111120304Y-50594375D01*
X111082897Y-50603841D01*
X111048734Y-50612377D01*
X111018730Y-50619745D01*
X110993797Y-50625708D01*
X110974848Y-50630028D01*
X110962796Y-50632469D01*
X110959045Y-50632934D01*
X110953021Y-50630670D01*
X110940049Y-50624197D01*
X110920793Y-50613887D01*
X110895919Y-50600114D01*
X110866093Y-50583251D01*
X110831980Y-50563672D01*
X110794246Y-50541750D01*
X110753556Y-50517859D01*
X110745749Y-50513248D01*
X110706975Y-50490234D01*
X110670448Y-50468377D01*
X110636900Y-50448126D01*
X110607062Y-50429931D01*
X110581666Y-50414243D01*
X110561442Y-50401510D01*
X110547123Y-50392183D01*
X110539439Y-50386712D01*
X110538373Y-50385683D01*
X110536313Y-50379947D01*
X110532331Y-50366522D01*
X110526668Y-50346339D01*
X110519567Y-50320330D01*
X110511266Y-50289425D01*
X110502007Y-50254557D01*
X110492030Y-50216657D01*
X110481577Y-50176655D01*
X110470888Y-50135483D01*
X110460204Y-50094072D01*
X110449765Y-50053355D01*
X110439812Y-50014261D01*
X110430586Y-49977723D01*
X110422328Y-49944671D01*
X110415277Y-49916037D01*
X110409676Y-49892753D01*
X110405765Y-49875749D01*
X110403785Y-49865957D01*
X110403586Y-49864217D01*
X110405713Y-49855039D01*
X110411236Y-49841524D01*
X110417543Y-49829208D01*
X110426010Y-49814357D01*
X110438316Y-49793059D01*
X110454173Y-49765799D01*
X110473293Y-49733063D01*
X110495389Y-49695338D01*
X110520172Y-49653110D01*
X110547356Y-49606864D01*
X110576652Y-49557086D01*
X110607773Y-49504264D01*
X110640430Y-49448883D01*
X110674337Y-49391428D01*
X110709205Y-49332387D01*
X110744748Y-49272244D01*
X110780676Y-49211487D01*
X110816703Y-49150602D01*
X110852540Y-49090074D01*
X110887900Y-49030389D01*
X110922496Y-48972034D01*
X110956039Y-48915495D01*
X110988242Y-48861257D01*
X111018817Y-48809807D01*
X111047477Y-48761631D01*
X111073933Y-48717216D01*
X111097898Y-48677046D01*
X111119085Y-48641609D01*
X111137205Y-48611390D01*
X111151970Y-48586875D01*
X111163094Y-48568551D01*
X111170289Y-48556903D01*
X111173266Y-48552418D01*
X111173279Y-48552405D01*
X111180510Y-48547196D01*
X111188396Y-48544357D01*
X111197885Y-48544219D01*
X111209924Y-48547114D01*
X111225462Y-48553371D01*
X111245445Y-48563323D01*
X111270820Y-48577301D01*
X111302535Y-48595635D01*
X111310741Y-48600453D01*
X111337552Y-48616431D01*
X111362252Y-48631541D01*
X111383651Y-48645023D01*
X111400559Y-48656118D01*
X111411788Y-48664069D01*
X111415631Y-48667356D01*
X111423010Y-48679705D01*
X111425630Y-48691637D01*
X111424095Y-48696583D01*
X111419400Y-48706636D01*
X111411409Y-48722036D01*
X111399985Y-48743021D01*
X111384991Y-48769832D01*
X111366291Y-48802707D01*
X111343750Y-48841884D01*
X111317229Y-48887604D01*
X111286594Y-48940105D01*
X111251707Y-48999626D01*
X111212433Y-49066407D01*
X111192337Y-49100509D01*
X111160277Y-49154920D01*
X111129520Y-49207190D01*
X111100363Y-49256810D01*
X111073105Y-49303270D01*
X111048043Y-49346060D01*
X111025476Y-49384669D01*
X111005700Y-49418587D01*
X110989015Y-49447304D01*
X110975717Y-49470310D01*
X110966106Y-49487095D01*
X110960478Y-49497149D01*
X110959045Y-49500004D01*
X110962652Y-49503354D01*
X110972466Y-49510184D01*
X110986977Y-49519567D01*
X111004671Y-49530580D01*
X111024038Y-49542296D01*
X111043566Y-49553789D01*
X111061744Y-49564134D01*
X111077060Y-49572406D01*
X111078391Y-49573091D01*
X111095073Y-49578323D01*
X111109706Y-49575312D01*
X111123442Y-49563763D01*
X111125659Y-49561071D01*
X111129534Y-49555214D01*
X111137582Y-49542255D01*
X111149469Y-49522752D01*
X111164862Y-49497263D01*
X111183426Y-49466345D01*
X111204829Y-49430558D01*
X111228736Y-49390458D01*
X111254814Y-49346605D01*
X111282730Y-49299555D01*
X111312150Y-49249868D01*
X111342740Y-49198100D01*
X111349106Y-49187315D01*
X111561162Y-48827953D01*
X111713421Y-48756057D01*
X111747845Y-48739710D01*
X111779864Y-48724329D01*
X111808554Y-48710371D01*
X111832992Y-48698293D01*
X111852253Y-48688552D01*
X111865414Y-48681605D01*
X111871551Y-48677910D01*
X111871762Y-48677717D01*
X111875357Y-48672493D01*
X111882875Y-48660503D01*
X111893767Y-48642658D01*
X111907484Y-48619872D01*
X111923475Y-48593057D01*
X111941191Y-48563125D01*
X111958600Y-48533520D01*
X111977631Y-48501301D01*
X111995686Y-48471199D01*
X112012175Y-48444160D01*
X112026511Y-48421131D01*
X112038105Y-48403057D01*
X112046370Y-48390884D01*
X112050463Y-48385768D01*
X112065748Y-48377333D01*
X112083764Y-48377205D01*
X112104701Y-48385389D01*
G37*
D14*
X136280000Y-93280000D02*
X136280000Y-97120000D01*
X138120000Y-93280000D02*
X138120000Y-97120000D01*
D10*
X126801500Y-94167000D02*
X83613500Y-94167000D01*
X83613500Y-73087000D01*
X126801500Y-73087000D01*
X126801500Y-94167000D01*
M02*
