G04 #@! TF.GenerationSoftware,KiCad,Pcbnew,9.0.4*
G04 #@! TF.CreationDate,2026-02-27T08:05:58+01:00*
G04 #@! TF.ProjectId,SABR-PCB,53414252-2050-4434-9220-424f41524420,rev?*
G04 #@! TF.SameCoordinates,Original*
G04 #@! TF.FileFunction,Copper,L2,Bot*
G04 #@! TF.FilePolarity,Positive*
%FSLAX46Y46*%
G04 Gerber Fmt 4.6, Leading zero omitted, Abs format (unit mm)*
G04 Created by KiCad (PCBNEW 9.0.4) date 2026-02-27 08:05:58*
%MOMM*%
%LPD*%
G01*
G04 APERTURE LIST*
G04 Aperture macros list*
%AMRoundRect*
0 Rectangle with rounded corners*
0 $1 Rounding radius*
0 $2 $3 $4 $5 $6 $7 $8 $9 X,Y pos of 4 corners*
0 Add a 4 corners polygon primitive as box body*
4,1,4,$2,$3,$4,$5,$6,$7,$8,$9,$2,$3,0*
0 Add four circle primitives for the rounded corners*
1,1,$1+$1,$2,$3*
1,1,$1+$1,$4,$5*
1,1,$1+$1,$6,$7*
1,1,$1+$1,$8,$9*
0 Add four rect primitives between the rounded corners*
20,1,$1+$1,$2,$3,$4,$5,0*
20,1,$1+$1,$4,$5,$6,$7,0*
20,1,$1+$1,$6,$7,$8,$9,0*
20,1,$1+$1,$8,$9,$2,$3,0*%
G04 Aperture macros list end*
G04 #@! TA.AperFunction,ComponentPad*
%ADD10R,1.524000X1.524000*%
G04 #@! TD*
G04 #@! TA.AperFunction,ComponentPad*
%ADD11C,1.524000*%
G04 #@! TD*
G04 #@! TA.AperFunction,ComponentPad*
%ADD12R,1.700000X1.700000*%
G04 #@! TD*
G04 #@! TA.AperFunction,ComponentPad*
%ADD13C,1.700000*%
G04 #@! TD*
G04 #@! TA.AperFunction,ComponentPad*
%ADD14R,1.800000X1.800000*%
G04 #@! TD*
G04 #@! TA.AperFunction,ComponentPad*
%ADD15C,1.800000*%
G04 #@! TD*
G04 #@! TA.AperFunction,ComponentPad*
%ADD16R,1.508000X1.508000*%
G04 #@! TD*
G04 #@! TA.AperFunction,ComponentPad*
%ADD17C,1.508000*%
G04 #@! TD*
G04 #@! TA.AperFunction,ComponentPad*
%ADD18RoundRect,0.250000X-0.750000X0.750000X-0.750000X-0.750000X0.750000X-0.750000X0.750000X0.750000X0*%
G04 #@! TD*
G04 #@! TA.AperFunction,ComponentPad*
%ADD19C,2.000000*%
G04 #@! TD*
G04 #@! TA.AperFunction,ComponentPad*
%ADD20C,1.500000*%
G04 #@! TD*
G04 #@! TA.AperFunction,ComponentPad*
%ADD21R,1.408000X1.408000*%
G04 #@! TD*
G04 #@! TA.AperFunction,ComponentPad*
%ADD22C,1.408000*%
G04 #@! TD*
G04 #@! TA.AperFunction,ComponentPad*
%ADD23C,1.400000*%
G04 #@! TD*
G04 #@! TA.AperFunction,Conductor*
%ADD24C,0.250000*%
G04 #@! TD*
G04 #@! TA.AperFunction,Conductor*
%ADD25C,2.000000*%
G04 #@! TD*
G04 APERTURE END LIST*
D10*
X132900000Y-65020000D03*
D11*
X132900000Y-62480000D03*
X132900000Y-59940000D03*
X132900000Y-57400000D03*
X132900000Y-54860000D03*
X132900000Y-52320000D03*
X132900000Y-49780000D03*
X132900000Y-47240000D03*
D10*
X145600000Y-47240000D03*
D11*
X145600000Y-49780000D03*
X145600000Y-52320000D03*
X145600000Y-54860000D03*
X145600000Y-57400000D03*
X145600000Y-59940000D03*
X145600000Y-62480000D03*
X145600000Y-65020000D03*
X137980000Y-47240000D03*
X135440000Y-47240000D03*
X136710000Y-48891000D03*
D12*
X46400000Y-51340000D03*
D13*
X46400000Y-53880000D03*
X46400000Y-56420000D03*
X46400000Y-58960000D03*
X46400000Y-61500000D03*
X46400000Y-64040000D03*
X46400000Y-66580000D03*
X46400000Y-69120000D03*
X46400000Y-71660000D03*
X46400000Y-74200000D03*
X46400000Y-76740000D03*
X46400000Y-79280000D03*
X46400000Y-81820000D03*
X46400000Y-84360000D03*
X46400000Y-86900000D03*
X46400000Y-89440000D03*
X46400000Y-91980000D03*
X46400000Y-94520000D03*
X46400000Y-97060000D03*
D14*
X145800000Y-93400000D03*
D15*
X143260000Y-93400000D03*
D16*
X157000000Y-74700000D03*
D17*
X157000000Y-77200000D03*
X157000000Y-79700000D03*
X157000000Y-82200000D03*
D12*
X78800000Y-97060000D03*
D13*
X78800000Y-94520000D03*
X78800000Y-91980000D03*
X78800000Y-89440000D03*
X78800000Y-86900000D03*
X78800000Y-84360000D03*
X78800000Y-81820000D03*
X78800000Y-79280000D03*
X78800000Y-76740000D03*
X78800000Y-74200000D03*
X78800000Y-71660000D03*
X78800000Y-69120000D03*
X78800000Y-66580000D03*
X78800000Y-64040000D03*
X78800000Y-61500000D03*
X78800000Y-58960000D03*
X78800000Y-56420000D03*
X78800000Y-53880000D03*
X78800000Y-51340000D03*
D18*
X155600000Y-93060000D03*
D19*
X155600000Y-95600000D03*
D20*
X94590000Y-68605000D03*
X97130000Y-68605000D03*
X99660000Y-68605000D03*
X102200000Y-68605000D03*
X104740000Y-68605000D03*
X107270000Y-68605000D03*
X109810000Y-68605000D03*
X112350000Y-68605000D03*
D16*
X156600000Y-52300000D03*
D17*
X156600000Y-54800000D03*
X156600000Y-57300000D03*
X156600000Y-59800000D03*
D21*
X49800000Y-51380000D03*
D22*
X49800000Y-53920000D03*
X49800000Y-56460000D03*
X49800000Y-59000000D03*
X49800000Y-61540000D03*
X49800000Y-64080000D03*
X49800000Y-66620000D03*
X49800000Y-69160000D03*
X49800000Y-71700000D03*
X49800000Y-74240000D03*
X49800000Y-76780000D03*
X49800000Y-79320000D03*
X49800000Y-81860000D03*
X49800000Y-84400000D03*
X49800000Y-86940000D03*
X49800000Y-89480000D03*
X49800000Y-92020000D03*
X49800000Y-94560000D03*
X49800000Y-97100000D03*
X75200000Y-51380000D03*
X75200000Y-53920000D03*
X75200000Y-56460000D03*
X75200000Y-59000000D03*
X75200000Y-61540000D03*
X75200000Y-64080000D03*
X75200000Y-66620000D03*
X75200000Y-69160000D03*
X75200000Y-71700000D03*
X75200000Y-74240000D03*
X75200000Y-76780000D03*
X75200000Y-79320000D03*
X75200000Y-81860000D03*
X75200000Y-84400000D03*
X75200000Y-86940000D03*
X75200000Y-89480000D03*
X75200000Y-92020000D03*
X75200000Y-94560000D03*
X75200000Y-97100000D03*
D10*
X132900000Y-88480000D03*
D11*
X132900000Y-85940000D03*
X132900000Y-83400000D03*
X132900000Y-80860000D03*
X132900000Y-78320000D03*
X132900000Y-75780000D03*
X132900000Y-73240000D03*
X132900000Y-70700000D03*
D10*
X145600000Y-70700000D03*
D11*
X145600000Y-73240000D03*
X145600000Y-75780000D03*
X145600000Y-78320000D03*
X145600000Y-80860000D03*
X145600000Y-83400000D03*
X145600000Y-85940000D03*
X145600000Y-88480000D03*
X137980000Y-70700000D03*
X135440000Y-70700000D03*
X136710000Y-72351000D03*
D23*
X137200000Y-92660000D03*
X137200000Y-97740000D03*
D20*
X124955500Y-92200000D03*
X124955500Y-75054000D03*
X85459500Y-92200000D03*
X85459500Y-75054000D03*
D24*
X129309500Y-70700000D02*
X124955500Y-75054000D01*
X132900000Y-70700000D02*
X129309500Y-70700000D01*
D25*
X160079000Y-65020000D02*
X151400000Y-65020000D01*
X151400000Y-65020000D02*
X145600000Y-65020000D01*
X160099000Y-45400000D02*
X160099000Y-65000000D01*
X145600000Y-73240000D02*
X146986000Y-73240000D01*
X150020000Y-49780000D02*
X154400000Y-45400000D01*
X151400000Y-68826000D02*
X151400000Y-65020000D01*
X146986000Y-73240000D02*
X151400000Y-68826000D01*
X160099000Y-65000000D02*
X160079000Y-65020000D01*
X154400000Y-45400000D02*
X160099000Y-45400000D01*
X145600000Y-49780000D02*
X150020000Y-49780000D01*
D24*
X90540000Y-85940000D02*
X132900000Y-85940000D01*
X78800000Y-74200000D02*
X90540000Y-85940000D01*
X83000000Y-77200000D02*
X83000000Y-71600000D01*
X79860000Y-70600000D02*
X78800000Y-71660000D01*
X121980000Y-65020000D02*
X105800000Y-81200000D01*
X83000000Y-71600000D02*
X82000000Y-70600000D01*
X132900000Y-65020000D02*
X121980000Y-65020000D01*
X105800000Y-81200000D02*
X87000000Y-81200000D01*
X87000000Y-81200000D02*
X83000000Y-77200000D01*
X82000000Y-70600000D02*
X79860000Y-70600000D01*
X78800000Y-76740000D02*
X90540000Y-88480000D01*
X90540000Y-88480000D02*
X132900000Y-88480000D01*
X81920000Y-69120000D02*
X83800000Y-71000000D01*
X78800000Y-69120000D02*
X81920000Y-69120000D01*
X83800000Y-71000000D02*
X83800000Y-77000000D01*
X83800000Y-77000000D02*
X108000000Y-77000000D01*
X108000000Y-77000000D02*
X122520000Y-62480000D01*
X122520000Y-62480000D02*
X132900000Y-62480000D01*
D25*
X120134340Y-42000000D02*
X94590000Y-67544340D01*
X140400000Y-59480000D02*
X143400000Y-62480000D01*
X143400000Y-62800000D02*
X140400000Y-65800000D01*
X144522370Y-85940000D02*
X140400000Y-81817630D01*
X94590000Y-67544340D02*
X94590000Y-68605000D01*
X140400000Y-58800000D02*
X140400000Y-59480000D01*
X140400000Y-81817630D02*
X140400000Y-65800000D01*
X145600000Y-62480000D02*
X143400000Y-62480000D01*
X143400000Y-62480000D02*
X143400000Y-62800000D01*
X140400000Y-42400000D02*
X140000000Y-42000000D01*
X145600000Y-85940000D02*
X144522370Y-85940000D01*
X140400000Y-58800000D02*
X140400000Y-42400000D01*
X140000000Y-42000000D02*
X120134340Y-42000000D01*
X145600000Y-54860000D02*
X153775212Y-54860000D01*
X156335212Y-52300000D02*
X156600000Y-52300000D01*
X153775212Y-54860000D02*
X156335212Y-52300000D01*
X145600000Y-59940000D02*
X156460000Y-59940000D01*
X156460000Y-59940000D02*
X156600000Y-59800000D01*
X156500000Y-57400000D02*
X156600000Y-57300000D01*
X145600000Y-57400000D02*
X156500000Y-57400000D01*
X157000000Y-77200000D02*
X148000000Y-77200000D01*
X146580000Y-75780000D02*
X145600000Y-75780000D01*
X148000000Y-77200000D02*
X146580000Y-75780000D01*
X154773683Y-80860000D02*
X145600000Y-80860000D01*
X157000000Y-79700000D02*
X155933683Y-79700000D01*
X155933683Y-79700000D02*
X154773683Y-80860000D01*
X155800000Y-83400000D02*
X145600000Y-83400000D01*
X157000000Y-82200000D02*
X155800000Y-83400000D01*
X49800000Y-97100000D02*
X54100000Y-101400000D01*
X85459500Y-92200000D02*
X85459500Y-95340500D01*
X54100000Y-101400000D02*
X79400000Y-101400000D01*
X85459500Y-95340500D02*
X79400000Y-101400000D01*
X50795606Y-84400000D02*
X49800000Y-84400000D01*
X85400000Y-43200000D02*
X67200000Y-43200000D01*
X88400000Y-46200000D02*
X85400000Y-43200000D01*
X86746000Y-75054000D02*
X88400000Y-73400000D01*
X85459500Y-75054000D02*
X86746000Y-75054000D01*
X58000000Y-52400000D02*
X58000000Y-77195606D01*
X67200000Y-43200000D02*
X58000000Y-52400000D01*
X88400000Y-73400000D02*
X88400000Y-46200000D01*
X58000000Y-77195606D02*
X50795606Y-84400000D01*
G04 #@! TA.AperFunction,Conductor*
G36*
X160186952Y-44406527D02*
G01*
X160322361Y-44427973D01*
X160341274Y-44432513D01*
X160471669Y-44474881D01*
X160489637Y-44482324D01*
X160611794Y-44544566D01*
X160611802Y-44544570D01*
X160628389Y-44554735D01*
X160705491Y-44610753D01*
X160705493Y-44610754D01*
X160705502Y-44610760D01*
X160812503Y-44670182D01*
X160812505Y-44670183D01*
X160867743Y-44692603D01*
X160985917Y-44724569D01*
X161075500Y-44724568D01*
X161142538Y-44744252D01*
X161188294Y-44797055D01*
X161199500Y-44848568D01*
X161199500Y-65554149D01*
X161179815Y-65621188D01*
X161127011Y-65666943D01*
X161064891Y-65677694D01*
X161039564Y-65675519D01*
X161039554Y-65675519D01*
X160898552Y-65704090D01*
X160898534Y-65704095D01*
X160838585Y-65725486D01*
X160834169Y-65726817D01*
X160705481Y-65794720D01*
X160608387Y-65865264D01*
X160591797Y-65875431D01*
X160469645Y-65937671D01*
X160451667Y-65945117D01*
X160321271Y-65987484D01*
X160302354Y-65992026D01*
X160204693Y-66007495D01*
X160166953Y-66013473D01*
X160147556Y-66015000D01*
X153024500Y-66015000D01*
X153024491Y-66015000D01*
X153024490Y-66015001D01*
X152917049Y-66026552D01*
X152917037Y-66026554D01*
X152865527Y-66037760D01*
X152763002Y-66071883D01*
X152762996Y-66071886D01*
X152641962Y-66149671D01*
X152641951Y-66149679D01*
X152589159Y-66195423D01*
X152494933Y-66304164D01*
X152494930Y-66304168D01*
X152435164Y-66435034D01*
X152415476Y-66502082D01*
X152410449Y-66537049D01*
X152395002Y-66644490D01*
X152395000Y-66644501D01*
X152395000Y-68894555D01*
X152393473Y-68913955D01*
X152372026Y-69049354D01*
X152367484Y-69068272D01*
X152325118Y-69198663D01*
X152317672Y-69216640D01*
X152255429Y-69338798D01*
X152245263Y-69355388D01*
X152164678Y-69466305D01*
X152152040Y-69481101D01*
X148572052Y-73061089D01*
X147641101Y-73992039D01*
X147626306Y-74004676D01*
X147515386Y-74085265D01*
X147498797Y-74095431D01*
X147478331Y-74105859D01*
X147440617Y-74127158D01*
X147422602Y-74138376D01*
X147386889Y-74162798D01*
X147386886Y-74162800D01*
X147285160Y-74264523D01*
X147285148Y-74264537D01*
X147251863Y-74309000D01*
X147243279Y-74320467D01*
X147243273Y-74320475D01*
X147242905Y-74321147D01*
X147240755Y-74324244D01*
X147215190Y-74344835D01*
X147190371Y-74366321D01*
X147188115Y-74366644D01*
X147186342Y-74368073D01*
X147153698Y-74371575D01*
X147121208Y-74376230D01*
X147117769Y-74375429D01*
X147116871Y-74375526D01*
X147115730Y-74374955D01*
X147100597Y-74371432D01*
X146931370Y-74316447D01*
X146698097Y-74279500D01*
X146698092Y-74279500D01*
X146337309Y-74279500D01*
X146270270Y-74259815D01*
X146249628Y-74243181D01*
X145735942Y-73729495D01*
X145796081Y-73713381D01*
X145911920Y-73646502D01*
X146006502Y-73551920D01*
X146073381Y-73436081D01*
X146089495Y-73375942D01*
X146652268Y-73938715D01*
X146679362Y-73901425D01*
X146769542Y-73724437D01*
X146830924Y-73535523D01*
X146830924Y-73535520D01*
X146862000Y-73339321D01*
X146862000Y-73140678D01*
X146830924Y-72944479D01*
X146830924Y-72944476D01*
X146769542Y-72755562D01*
X146679358Y-72578567D01*
X146652268Y-72541283D01*
X146089494Y-73104057D01*
X146073381Y-73043919D01*
X146006502Y-72928080D01*
X145911920Y-72833498D01*
X145796081Y-72766619D01*
X145735941Y-72750504D01*
X146298715Y-72187730D01*
X146298715Y-72187729D01*
X146297458Y-72186816D01*
X146254793Y-72131485D01*
X146248815Y-72061872D01*
X146281422Y-72000077D01*
X146342262Y-71965721D01*
X146370345Y-71962499D01*
X146409871Y-71962499D01*
X146409872Y-71962499D01*
X146469483Y-71956091D01*
X146604331Y-71905796D01*
X146719546Y-71819546D01*
X146805796Y-71704331D01*
X146827513Y-71646105D01*
X146869383Y-71590171D01*
X146934847Y-71565753D01*
X146952537Y-71565753D01*
X146976798Y-71567488D01*
X146976798Y-71567487D01*
X146976799Y-71567488D01*
X146986377Y-71566802D01*
X147120309Y-71557224D01*
X147255118Y-71506942D01*
X147316441Y-71473457D01*
X147431622Y-71387233D01*
X150220623Y-68598232D01*
X150256788Y-68557971D01*
X150273422Y-68537329D01*
X150305067Y-68493445D01*
X150364838Y-68362568D01*
X150384523Y-68295529D01*
X150384524Y-68295525D01*
X150405000Y-68153109D01*
X150405000Y-66644500D01*
X150393447Y-66537044D01*
X150382241Y-66485533D01*
X150382137Y-66485222D01*
X150348116Y-66383002D01*
X150348113Y-66382996D01*
X150270328Y-66261962D01*
X150270325Y-66261957D01*
X150270320Y-66261951D01*
X150224576Y-66209159D01*
X150224572Y-66209156D01*
X150224570Y-66209153D01*
X150115836Y-66114933D01*
X150115833Y-66114931D01*
X150115831Y-66114930D01*
X149984965Y-66055164D01*
X149984960Y-66055162D01*
X149984959Y-66055162D01*
X149917920Y-66035477D01*
X149917922Y-66035477D01*
X149917917Y-66035476D01*
X149855847Y-66026552D01*
X149775500Y-66015000D01*
X149775498Y-66015000D01*
X146680371Y-66015000D01*
X146613332Y-65995315D01*
X146567577Y-65942511D01*
X146557633Y-65873353D01*
X146580053Y-65818114D01*
X146679358Y-65681432D01*
X146769542Y-65504437D01*
X146830924Y-65315523D01*
X146830924Y-65315520D01*
X146862000Y-65119321D01*
X146862000Y-64920678D01*
X146830924Y-64724479D01*
X146830924Y-64724476D01*
X146769542Y-64535562D01*
X146679358Y-64358567D01*
X146580053Y-64221886D01*
X146556573Y-64156079D01*
X146572398Y-64088025D01*
X146622504Y-64039331D01*
X146680371Y-64025000D01*
X158474490Y-64025000D01*
X158474500Y-64025000D01*
X158581956Y-64013447D01*
X158633467Y-64002241D01*
X158667697Y-63990847D01*
X158735997Y-63968116D01*
X158736001Y-63968113D01*
X158736004Y-63968113D01*
X158857043Y-63890325D01*
X158909847Y-63844570D01*
X159004067Y-63735836D01*
X159063838Y-63604959D01*
X159083523Y-63537920D01*
X159083524Y-63537916D01*
X159104000Y-63395500D01*
X159104000Y-47024500D01*
X159092447Y-46917044D01*
X159081241Y-46865533D01*
X159081137Y-46865222D01*
X159047116Y-46763002D01*
X159047113Y-46762996D01*
X158969328Y-46641962D01*
X158969325Y-46641957D01*
X158926519Y-46592556D01*
X158923576Y-46589159D01*
X158923572Y-46589156D01*
X158923570Y-46589153D01*
X158814836Y-46494933D01*
X158814833Y-46494931D01*
X158814831Y-46494930D01*
X158683965Y-46435164D01*
X158683960Y-46435162D01*
X158683959Y-46435162D01*
X158616920Y-46415477D01*
X158616922Y-46415477D01*
X158616917Y-46415476D01*
X158569444Y-46408650D01*
X158474500Y-46395000D01*
X155072889Y-46395000D01*
X155072887Y-46395000D01*
X155018838Y-46397897D01*
X155018837Y-46397897D01*
X154992504Y-46400729D01*
X154992477Y-46400732D01*
X154939081Y-46409385D01*
X154939079Y-46409385D01*
X154804274Y-46459666D01*
X154742949Y-46493151D01*
X154627767Y-46579376D01*
X154627755Y-46579386D01*
X150675104Y-50532037D01*
X150660309Y-50544674D01*
X150549386Y-50625265D01*
X150532795Y-50635432D01*
X150410645Y-50697671D01*
X150392667Y-50705117D01*
X150262271Y-50747484D01*
X150243354Y-50752026D01*
X150145693Y-50767495D01*
X150107953Y-50773473D01*
X150088556Y-50775000D01*
X146680371Y-50775000D01*
X146613332Y-50755315D01*
X146567577Y-50702511D01*
X146557633Y-50633353D01*
X146580053Y-50578114D01*
X146679358Y-50441432D01*
X146769542Y-50264437D01*
X146830924Y-50075523D01*
X146830924Y-50075520D01*
X146862000Y-49879321D01*
X146862000Y-49680678D01*
X146830924Y-49484479D01*
X146830924Y-49484476D01*
X146769542Y-49295562D01*
X146679358Y-49118567D01*
X146652268Y-49081283D01*
X146089494Y-49644056D01*
X146073381Y-49583919D01*
X146006502Y-49468080D01*
X145911920Y-49373498D01*
X145796081Y-49306619D01*
X145735941Y-49290504D01*
X146298715Y-48727730D01*
X146298715Y-48727729D01*
X146297458Y-48726816D01*
X146254793Y-48671485D01*
X146248815Y-48601872D01*
X146281422Y-48540077D01*
X146342262Y-48505721D01*
X146370345Y-48502499D01*
X146389019Y-48502499D01*
X146456058Y-48522184D01*
X146482732Y-48545297D01*
X146522195Y-48590840D01*
X146522198Y-48590843D01*
X146522202Y-48590847D01*
X146630936Y-48685067D01*
X146630939Y-48685068D01*
X146630940Y-48685069D01*
X146745149Y-48737228D01*
X146761813Y-48744838D01*
X146828852Y-48764523D01*
X146828856Y-48764524D01*
X146971272Y-48785000D01*
X146971275Y-48785000D01*
X149347113Y-48785000D01*
X149357259Y-48784455D01*
X149401151Y-48782103D01*
X149401159Y-48782102D01*
X149401161Y-48782102D01*
X149401162Y-48782102D01*
X149408155Y-48781349D01*
X149427509Y-48779269D01*
X149427519Y-48779267D01*
X149427522Y-48779267D01*
X149437121Y-48777711D01*
X149480921Y-48770614D01*
X149615730Y-48720332D01*
X149677053Y-48686847D01*
X149792235Y-48600623D01*
X153744902Y-44647953D01*
X153759684Y-44635327D01*
X153870618Y-44554728D01*
X153887195Y-44544570D01*
X154009361Y-44482323D01*
X154027321Y-44474884D01*
X154157721Y-44432513D01*
X154176631Y-44427973D01*
X154266288Y-44413773D01*
X154312054Y-44406526D01*
X154331450Y-44405000D01*
X160167555Y-44405000D01*
X160186952Y-44406527D01*
G37*
G04 #@! TD.AperFunction*
G04 #@! TA.AperFunction,Conductor*
G36*
X129582608Y-70599685D02*
G01*
X129628363Y-70652489D01*
X129638307Y-70721647D01*
X129609282Y-70785203D01*
X129550504Y-70822977D01*
X129535404Y-70826403D01*
X129486145Y-70834385D01*
X129486142Y-70834385D01*
X129351337Y-70884666D01*
X129351334Y-70884667D01*
X129351333Y-70884668D01*
X129335869Y-70893111D01*
X129290009Y-70918153D01*
X129212727Y-70976005D01*
X129187969Y-70985238D01*
X129164776Y-70997903D01*
X129155745Y-70997257D01*
X129147263Y-71000421D01*
X129121442Y-70994804D01*
X129095084Y-70992919D01*
X129087836Y-70987493D01*
X129078990Y-70985569D01*
X129060302Y-70966881D01*
X129039151Y-70951047D01*
X129035987Y-70942565D01*
X129029585Y-70936163D01*
X129023967Y-70910339D01*
X129014734Y-70885583D01*
X129016658Y-70876736D01*
X129014734Y-70867890D01*
X129023968Y-70843131D01*
X129029586Y-70817310D01*
X129037587Y-70806621D01*
X129039152Y-70802426D01*
X129050724Y-70789069D01*
X129181081Y-70658713D01*
X129181084Y-70658710D01*
X129223472Y-70616320D01*
X129284794Y-70582834D01*
X129311155Y-70580000D01*
X129515569Y-70580000D01*
X129582608Y-70599685D01*
G37*
G04 #@! TD.AperFunction*
G04 #@! TA.AperFunction,Conductor*
G36*
X161142539Y-38520185D02*
G01*
X161188294Y-38572989D01*
X161199500Y-38624500D01*
X161199500Y-44101476D01*
X161179815Y-44168515D01*
X161127011Y-44214270D01*
X161057853Y-44224214D01*
X161002615Y-44201794D01*
X160885436Y-44116659D01*
X160885435Y-44116658D01*
X160885433Y-44116657D01*
X160769861Y-44057770D01*
X160674996Y-44009433D01*
X160450368Y-43936446D01*
X160217097Y-43899500D01*
X160217092Y-43899500D01*
X154281908Y-43899500D01*
X154281903Y-43899500D01*
X154048631Y-43936446D01*
X153824003Y-44009433D01*
X153613565Y-44116657D01*
X153422488Y-44255484D01*
X153422487Y-44255485D01*
X149434792Y-48243181D01*
X149373469Y-48276666D01*
X149347111Y-48279500D01*
X146971272Y-48279500D01*
X146904233Y-48259815D01*
X146858478Y-48207011D01*
X146848534Y-48137853D01*
X146855091Y-48112165D01*
X146856091Y-48109483D01*
X146862500Y-48049873D01*
X146862499Y-46430128D01*
X146856091Y-46370517D01*
X146821219Y-46277021D01*
X146805797Y-46235671D01*
X146805793Y-46235664D01*
X146719547Y-46120455D01*
X146719544Y-46120452D01*
X146604335Y-46034206D01*
X146604328Y-46034202D01*
X146469482Y-45983908D01*
X146469483Y-45983908D01*
X146409883Y-45977501D01*
X146409881Y-45977500D01*
X146409873Y-45977500D01*
X146409864Y-45977500D01*
X144790129Y-45977500D01*
X144790123Y-45977501D01*
X144730516Y-45983908D01*
X144595671Y-46034202D01*
X144595664Y-46034206D01*
X144480455Y-46120452D01*
X144480452Y-46120455D01*
X144394206Y-46235664D01*
X144394202Y-46235671D01*
X144343908Y-46370517D01*
X144337501Y-46430116D01*
X144337501Y-46430123D01*
X144337500Y-46430135D01*
X144337500Y-48049870D01*
X144337501Y-48049876D01*
X144343908Y-48109483D01*
X144394202Y-48244328D01*
X144394206Y-48244335D01*
X144480452Y-48359544D01*
X144480455Y-48359547D01*
X144602769Y-48451112D01*
X144600967Y-48453518D01*
X144639733Y-48492288D01*
X144654583Y-48560561D01*
X144630163Y-48626025D01*
X144618581Y-48639392D01*
X144455482Y-48802491D01*
X144316657Y-48993566D01*
X144209433Y-49204003D01*
X144136446Y-49428631D01*
X144099500Y-49661902D01*
X144099500Y-49898097D01*
X144136446Y-50131368D01*
X144209433Y-50355996D01*
X144316657Y-50566433D01*
X144455483Y-50757510D01*
X144622490Y-50924517D01*
X144749311Y-51016658D01*
X144813568Y-51063344D01*
X144849681Y-51081744D01*
X144900477Y-51129718D01*
X144917273Y-51197539D01*
X144894736Y-51263674D01*
X144866273Y-51292546D01*
X144777542Y-51357014D01*
X144777533Y-51357021D01*
X144637021Y-51497533D01*
X144520213Y-51658305D01*
X144429994Y-51835367D01*
X144429993Y-51835370D01*
X144368587Y-52024362D01*
X144364743Y-52048632D01*
X144337500Y-52220639D01*
X144337500Y-52419361D01*
X144349488Y-52495048D01*
X144368587Y-52615637D01*
X144429993Y-52804629D01*
X144429994Y-52804632D01*
X144471599Y-52886285D01*
X144520213Y-52981694D01*
X144637019Y-53142464D01*
X144777536Y-53282981D01*
X144866273Y-53347452D01*
X144908938Y-53402782D01*
X144914917Y-53472396D01*
X144882311Y-53534191D01*
X144849683Y-53558254D01*
X144813569Y-53576655D01*
X144729206Y-53637949D01*
X144622490Y-53715483D01*
X144622488Y-53715485D01*
X144622487Y-53715485D01*
X144455485Y-53882487D01*
X144455485Y-53882488D01*
X144455483Y-53882490D01*
X144444927Y-53897019D01*
X144316657Y-54073566D01*
X144209433Y-54284003D01*
X144136446Y-54508631D01*
X144099500Y-54741902D01*
X144099500Y-54978097D01*
X144136446Y-55211368D01*
X144209433Y-55435996D01*
X144316657Y-55646433D01*
X144455483Y-55837510D01*
X144622490Y-56004517D01*
X144657127Y-56029683D01*
X144699792Y-56085013D01*
X144705771Y-56154626D01*
X144673165Y-56216421D01*
X144657130Y-56230315D01*
X144643133Y-56240485D01*
X144622488Y-56255484D01*
X144455485Y-56422487D01*
X144455485Y-56422488D01*
X144455483Y-56422490D01*
X144444927Y-56437019D01*
X144316657Y-56613566D01*
X144209433Y-56824003D01*
X144136446Y-57048631D01*
X144099500Y-57281902D01*
X144099500Y-57518097D01*
X144136446Y-57751368D01*
X144209433Y-57975996D01*
X144316657Y-58186433D01*
X144455483Y-58377510D01*
X144622490Y-58544517D01*
X144657127Y-58569683D01*
X144699792Y-58625013D01*
X144705771Y-58694626D01*
X144673165Y-58756421D01*
X144657130Y-58770315D01*
X144643133Y-58780485D01*
X144622488Y-58795484D01*
X144455485Y-58962487D01*
X144455485Y-58962488D01*
X144455483Y-58962490D01*
X144444927Y-58977019D01*
X144316657Y-59153566D01*
X144209433Y-59364003D01*
X144136446Y-59588631D01*
X144099500Y-59821902D01*
X144099500Y-60058097D01*
X144136446Y-60291368D01*
X144209433Y-60515996D01*
X144316657Y-60726433D01*
X144455483Y-60917510D01*
X144622490Y-61084517D01*
X144813567Y-61223343D01*
X144850182Y-61241999D01*
X144900978Y-61289973D01*
X144917773Y-61357794D01*
X144903487Y-61399713D01*
X144901282Y-61427730D01*
X145464057Y-61990504D01*
X145403919Y-62006619D01*
X145288080Y-62073498D01*
X145193498Y-62168080D01*
X145126619Y-62283919D01*
X145110504Y-62344057D01*
X144547730Y-61781282D01*
X144547729Y-61781283D01*
X144520643Y-61818564D01*
X144430457Y-61995562D01*
X144369075Y-62184476D01*
X144369075Y-62184479D01*
X144338000Y-62380678D01*
X144338000Y-62579321D01*
X144369075Y-62775520D01*
X144369075Y-62775523D01*
X144430457Y-62964437D01*
X144520641Y-63141432D01*
X144547730Y-63178715D01*
X144547731Y-63178716D01*
X145110504Y-62615942D01*
X145126619Y-62676081D01*
X145193498Y-62791920D01*
X145288080Y-62886502D01*
X145403919Y-62953381D01*
X145464057Y-62969494D01*
X144901283Y-63532268D01*
X144903008Y-63554185D01*
X144909440Y-63562527D01*
X144915419Y-63632140D01*
X144882813Y-63693935D01*
X144850186Y-63717998D01*
X144813566Y-63736657D01*
X144721826Y-63803311D01*
X144622490Y-63875483D01*
X144622488Y-63875485D01*
X144622487Y-63875485D01*
X144455485Y-64042487D01*
X144455485Y-64042488D01*
X144455483Y-64042490D01*
X144395862Y-64124550D01*
X144316657Y-64233566D01*
X144209433Y-64444003D01*
X144136446Y-64668631D01*
X144099500Y-64901902D01*
X144099500Y-65138097D01*
X144136446Y-65371368D01*
X144209433Y-65595996D01*
X144316657Y-65806433D01*
X144455483Y-65997510D01*
X144622490Y-66164517D01*
X144813567Y-66303343D01*
X144881485Y-66337949D01*
X145024003Y-66410566D01*
X145024005Y-66410566D01*
X145024008Y-66410568D01*
X145144412Y-66449689D01*
X145248631Y-66483553D01*
X145481903Y-66520500D01*
X145481908Y-66520500D01*
X149775500Y-66520500D01*
X149842539Y-66540185D01*
X149888294Y-66592989D01*
X149899500Y-66644500D01*
X149899500Y-68153109D01*
X149879815Y-68220148D01*
X149863181Y-68240790D01*
X147074180Y-71029791D01*
X147012857Y-71063276D01*
X146943165Y-71058292D01*
X146887232Y-71016420D01*
X146862815Y-70950956D01*
X146862499Y-70942110D01*
X146862499Y-69890129D01*
X146862498Y-69890123D01*
X146862497Y-69890116D01*
X146856091Y-69830517D01*
X146846017Y-69803508D01*
X146805797Y-69695671D01*
X146805793Y-69695664D01*
X146719547Y-69580455D01*
X146719544Y-69580452D01*
X146604335Y-69494206D01*
X146604328Y-69494202D01*
X146469482Y-69443908D01*
X146469483Y-69443908D01*
X146409883Y-69437501D01*
X146409881Y-69437500D01*
X146409873Y-69437500D01*
X146409864Y-69437500D01*
X144790129Y-69437500D01*
X144790123Y-69437501D01*
X144730516Y-69443908D01*
X144595671Y-69494202D01*
X144595664Y-69494206D01*
X144480455Y-69580452D01*
X144480452Y-69580455D01*
X144394206Y-69695664D01*
X144394202Y-69695671D01*
X144343908Y-69830517D01*
X144337501Y-69890116D01*
X144337501Y-69890123D01*
X144337500Y-69890135D01*
X144337500Y-71509870D01*
X144337501Y-71509876D01*
X144343908Y-71569483D01*
X144394202Y-71704328D01*
X144394206Y-71704335D01*
X144480452Y-71819544D01*
X144480455Y-71819547D01*
X144602769Y-71911112D01*
X144600967Y-71913518D01*
X144639733Y-71952288D01*
X144654583Y-72020561D01*
X144630163Y-72086025D01*
X144618581Y-72099392D01*
X144455482Y-72262491D01*
X144316657Y-72453566D01*
X144209433Y-72664003D01*
X144136446Y-72888631D01*
X144099500Y-73121902D01*
X144099500Y-73358097D01*
X144136446Y-73591368D01*
X144209433Y-73815996D01*
X144285810Y-73965893D01*
X144316657Y-74026433D01*
X144455483Y-74217510D01*
X144622490Y-74384517D01*
X144657127Y-74409683D01*
X144699792Y-74465013D01*
X144705771Y-74534626D01*
X144673165Y-74596421D01*
X144657130Y-74610315D01*
X144643133Y-74620485D01*
X144622488Y-74635484D01*
X144455485Y-74802487D01*
X144455485Y-74802488D01*
X144455483Y-74802490D01*
X144444927Y-74817019D01*
X144316657Y-74993566D01*
X144209433Y-75204003D01*
X144136446Y-75428631D01*
X144099500Y-75661902D01*
X144099500Y-75898097D01*
X144136446Y-76131368D01*
X144209433Y-76355996D01*
X144281800Y-76498023D01*
X144316657Y-76566433D01*
X144455483Y-76757510D01*
X144622490Y-76924517D01*
X144709165Y-76987490D01*
X144813568Y-77063344D01*
X144849681Y-77081744D01*
X144900477Y-77129718D01*
X144917273Y-77197539D01*
X144894736Y-77263674D01*
X144866273Y-77292546D01*
X144777542Y-77357014D01*
X144777533Y-77357021D01*
X144637021Y-77497533D01*
X144520213Y-77658305D01*
X144429994Y-77835367D01*
X144429993Y-77835370D01*
X144368587Y-78024362D01*
X144337500Y-78220639D01*
X144337500Y-78419360D01*
X144368587Y-78615637D01*
X144429993Y-78804629D01*
X144429994Y-78804632D01*
X144511075Y-78963760D01*
X144520213Y-78981694D01*
X144637019Y-79142464D01*
X144777536Y-79282981D01*
X144866273Y-79347452D01*
X144908938Y-79402782D01*
X144914917Y-79472396D01*
X144882311Y-79534191D01*
X144849683Y-79558254D01*
X144813569Y-79576655D01*
X144742092Y-79628587D01*
X144622490Y-79715483D01*
X144622488Y-79715485D01*
X144622487Y-79715485D01*
X144455485Y-79882487D01*
X144455485Y-79882488D01*
X144455483Y-79882490D01*
X144444927Y-79897019D01*
X144316657Y-80073566D01*
X144209433Y-80284003D01*
X144136446Y-80508631D01*
X144099500Y-80741902D01*
X144099500Y-80978097D01*
X144136446Y-81211368D01*
X144209433Y-81435996D01*
X144305230Y-81624007D01*
X144316657Y-81646433D01*
X144455483Y-81837510D01*
X144622490Y-82004517D01*
X144657127Y-82029683D01*
X144699792Y-82085013D01*
X144705771Y-82154626D01*
X144673165Y-82216421D01*
X144657130Y-82230315D01*
X144643133Y-82240485D01*
X144622488Y-82255484D01*
X144455485Y-82422487D01*
X144455485Y-82422488D01*
X144455483Y-82422490D01*
X144444927Y-82437019D01*
X144316657Y-82613566D01*
X144209433Y-82824003D01*
X144136446Y-83048631D01*
X144099500Y-83281902D01*
X144099500Y-83518097D01*
X144136446Y-83751368D01*
X144209433Y-83975996D01*
X144316657Y-84186433D01*
X144455483Y-84377510D01*
X144622490Y-84544517D01*
X144813567Y-84683343D01*
X144850182Y-84701999D01*
X144900978Y-84749973D01*
X144917773Y-84817794D01*
X144903487Y-84859713D01*
X144901282Y-84887730D01*
X145464057Y-85450504D01*
X145403919Y-85466619D01*
X145288080Y-85533498D01*
X145193498Y-85628080D01*
X145126619Y-85743919D01*
X145110504Y-85804057D01*
X144547730Y-85241282D01*
X144547729Y-85241283D01*
X144520643Y-85278564D01*
X144430457Y-85455562D01*
X144369075Y-85644476D01*
X144369075Y-85644479D01*
X144338000Y-85840678D01*
X144338000Y-86039321D01*
X144369075Y-86235520D01*
X144369075Y-86235523D01*
X144430457Y-86424437D01*
X144520641Y-86601432D01*
X144547730Y-86638715D01*
X144547731Y-86638716D01*
X145110504Y-86075942D01*
X145126619Y-86136081D01*
X145193498Y-86251920D01*
X145288080Y-86346502D01*
X145403919Y-86413381D01*
X145464057Y-86429494D01*
X144901283Y-86992268D01*
X144901283Y-86992269D01*
X144938567Y-87019358D01*
X145095331Y-87099234D01*
X145146127Y-87147209D01*
X145162922Y-87215030D01*
X145140384Y-87281165D01*
X145095331Y-87320204D01*
X144938305Y-87400213D01*
X144777533Y-87517021D01*
X144637021Y-87657533D01*
X144520213Y-87818305D01*
X144429994Y-87995367D01*
X144429993Y-87995370D01*
X144368587Y-88184362D01*
X144337500Y-88380639D01*
X144337500Y-88579360D01*
X144368587Y-88775637D01*
X144429993Y-88964629D01*
X144429994Y-88964632D01*
X144511075Y-89123760D01*
X144520213Y-89141694D01*
X144637019Y-89302464D01*
X144777536Y-89442981D01*
X144938306Y-89559787D01*
X144967763Y-89574796D01*
X145115367Y-89650005D01*
X145115370Y-89650006D01*
X145209866Y-89680709D01*
X145304364Y-89711413D01*
X145500639Y-89742500D01*
X145500640Y-89742500D01*
X145699360Y-89742500D01*
X145699361Y-89742500D01*
X145895636Y-89711413D01*
X146084632Y-89650005D01*
X146261694Y-89559787D01*
X146422464Y-89442981D01*
X146562981Y-89302464D01*
X146679787Y-89141694D01*
X146770005Y-88964632D01*
X146831413Y-88775636D01*
X146862500Y-88579361D01*
X146862500Y-88380639D01*
X146831413Y-88184364D01*
X146770005Y-87995368D01*
X146770005Y-87995367D01*
X146724035Y-87905149D01*
X146679787Y-87818306D01*
X146562981Y-87657536D01*
X146422464Y-87517019D01*
X146261694Y-87400213D01*
X146104667Y-87320203D01*
X146053872Y-87272229D01*
X146037077Y-87204408D01*
X146059614Y-87138273D01*
X146104669Y-87099234D01*
X146261422Y-87019364D01*
X146298716Y-86992268D01*
X145735942Y-86429494D01*
X145796081Y-86413381D01*
X145911920Y-86346502D01*
X146006502Y-86251920D01*
X146073381Y-86136081D01*
X146089495Y-86075942D01*
X146652268Y-86638715D01*
X146679362Y-86601425D01*
X146769542Y-86424437D01*
X146830924Y-86235523D01*
X146830924Y-86235520D01*
X146862000Y-86039321D01*
X146862000Y-85840678D01*
X146830924Y-85644479D01*
X146830924Y-85644476D01*
X146769542Y-85455562D01*
X146679358Y-85278567D01*
X146652268Y-85241283D01*
X146089494Y-85804057D01*
X146073381Y-85743919D01*
X146006502Y-85628080D01*
X145911920Y-85533498D01*
X145796081Y-85466619D01*
X145735940Y-85450504D01*
X146249628Y-84936819D01*
X146310951Y-84903334D01*
X146337309Y-84900500D01*
X155918097Y-84900500D01*
X156151368Y-84863553D01*
X156163186Y-84859713D01*
X156375992Y-84790568D01*
X156586434Y-84683343D01*
X156777510Y-84544517D01*
X158144517Y-83177510D01*
X158283343Y-82986434D01*
X158390568Y-82775992D01*
X158463552Y-82551369D01*
X158483964Y-82422490D01*
X158500499Y-82318097D01*
X158500499Y-82081902D01*
X158472664Y-81906166D01*
X158463552Y-81848632D01*
X158410664Y-81685858D01*
X158390569Y-81624010D01*
X158390568Y-81624007D01*
X158283342Y-81413566D01*
X158144517Y-81222490D01*
X157977510Y-81055483D01*
X157970401Y-81050318D01*
X157927735Y-80994988D01*
X157921756Y-80925375D01*
X157954362Y-80863580D01*
X157970401Y-80849682D01*
X157970500Y-80849609D01*
X157977510Y-80844517D01*
X158144517Y-80677510D01*
X158283343Y-80486433D01*
X158390568Y-80275992D01*
X158463553Y-80051368D01*
X158487999Y-79897021D01*
X158500500Y-79818097D01*
X158500500Y-79581902D01*
X158463553Y-79348631D01*
X158402801Y-79161658D01*
X158390568Y-79124008D01*
X158390566Y-79124005D01*
X158390566Y-79124003D01*
X158318055Y-78981694D01*
X158283343Y-78913567D01*
X158144517Y-78722490D01*
X157977510Y-78555483D01*
X157970401Y-78550318D01*
X157927735Y-78494988D01*
X157921756Y-78425375D01*
X157954362Y-78363580D01*
X157970401Y-78349682D01*
X157971634Y-78348786D01*
X157977510Y-78344517D01*
X158144517Y-78177510D01*
X158283343Y-77986433D01*
X158390568Y-77775992D01*
X158463553Y-77551368D01*
X158473929Y-77485858D01*
X158500500Y-77318097D01*
X158500500Y-77081902D01*
X158463553Y-76848631D01*
X158410145Y-76684261D01*
X158390568Y-76624008D01*
X158390566Y-76624005D01*
X158390566Y-76624003D01*
X158297674Y-76441694D01*
X158283343Y-76413567D01*
X158144517Y-76222490D01*
X157996577Y-76074550D01*
X157963092Y-76013227D01*
X157968076Y-75943535D01*
X158009945Y-75887604D01*
X158111546Y-75811546D01*
X158197796Y-75696331D01*
X158248091Y-75561483D01*
X158254500Y-75501873D01*
X158254499Y-73898128D01*
X158248091Y-73838517D01*
X158246514Y-73834290D01*
X158197797Y-73703671D01*
X158197793Y-73703664D01*
X158111547Y-73588455D01*
X158111544Y-73588452D01*
X157996335Y-73502206D01*
X157996328Y-73502202D01*
X157861482Y-73451908D01*
X157861483Y-73451908D01*
X157801883Y-73445501D01*
X157801881Y-73445500D01*
X157801873Y-73445500D01*
X157801864Y-73445500D01*
X156198129Y-73445500D01*
X156198123Y-73445501D01*
X156138515Y-73451909D01*
X156033200Y-73491188D01*
X155963508Y-73496172D01*
X155902186Y-73462686D01*
X155868701Y-73401363D01*
X155868251Y-73350816D01*
X155886588Y-73258626D01*
X155900500Y-73188693D01*
X155900500Y-73011306D01*
X155900499Y-73011304D01*
X155865896Y-72837341D01*
X155865893Y-72837332D01*
X155798016Y-72673459D01*
X155798009Y-72673446D01*
X155699464Y-72525965D01*
X155699461Y-72525961D01*
X155574038Y-72400538D01*
X155574034Y-72400535D01*
X155426553Y-72301990D01*
X155426540Y-72301983D01*
X155262667Y-72234106D01*
X155262658Y-72234103D01*
X155088694Y-72199500D01*
X155088691Y-72199500D01*
X154911309Y-72199500D01*
X154911306Y-72199500D01*
X154737341Y-72234103D01*
X154737332Y-72234106D01*
X154573459Y-72301983D01*
X154573446Y-72301990D01*
X154425965Y-72400535D01*
X154425961Y-72400538D01*
X154300538Y-72525961D01*
X154300535Y-72525965D01*
X154201990Y-72673446D01*
X154201983Y-72673459D01*
X154134106Y-72837332D01*
X154134103Y-72837341D01*
X154099500Y-73011304D01*
X154099500Y-73188695D01*
X154134103Y-73362658D01*
X154134106Y-73362667D01*
X154201983Y-73526540D01*
X154201990Y-73526553D01*
X154300535Y-73674034D01*
X154300538Y-73674038D01*
X154425961Y-73799461D01*
X154425965Y-73799464D01*
X154573446Y-73898009D01*
X154573459Y-73898016D01*
X154619007Y-73916882D01*
X154737334Y-73965894D01*
X154737336Y-73965894D01*
X154737341Y-73965896D01*
X154911304Y-74000499D01*
X154911307Y-74000500D01*
X154911309Y-74000500D01*
X155088693Y-74000500D01*
X155088694Y-74000499D01*
X155169249Y-73984476D01*
X155262658Y-73965896D01*
X155262661Y-73965894D01*
X155262666Y-73965894D01*
X155426267Y-73898129D01*
X155426540Y-73898016D01*
X155426540Y-73898015D01*
X155426547Y-73898013D01*
X155552611Y-73813778D01*
X155619286Y-73792902D01*
X155686666Y-73811386D01*
X155733356Y-73863364D01*
X155745500Y-73916882D01*
X155745500Y-75501870D01*
X155745501Y-75501876D01*
X155751991Y-75562247D01*
X155739584Y-75631006D01*
X155691973Y-75682143D01*
X155628701Y-75699500D01*
X148672889Y-75699500D01*
X148605850Y-75679815D01*
X148585208Y-75663181D01*
X147676450Y-74754422D01*
X147642965Y-74693099D01*
X147647949Y-74623407D01*
X147689821Y-74567474D01*
X147707827Y-74556261D01*
X147772434Y-74523343D01*
X147963510Y-74384517D01*
X152544518Y-69803510D01*
X152683343Y-69612433D01*
X152790568Y-69401992D01*
X152863553Y-69177368D01*
X152873032Y-69117518D01*
X152900500Y-68944097D01*
X152900500Y-66644500D01*
X152920185Y-66577461D01*
X152972989Y-66531706D01*
X153024500Y-66520500D01*
X160197097Y-66520500D01*
X160430368Y-66483553D01*
X160460652Y-66473713D01*
X160654992Y-66410568D01*
X160865434Y-66303343D01*
X161002614Y-66203674D01*
X161068420Y-66180194D01*
X161136474Y-66196019D01*
X161185169Y-66246124D01*
X161199500Y-66303992D01*
X161199500Y-103375500D01*
X161179815Y-103442539D01*
X161127011Y-103488294D01*
X161075500Y-103499500D01*
X42524500Y-103499500D01*
X42457461Y-103479815D01*
X42411706Y-103427011D01*
X42400500Y-103375500D01*
X42400500Y-53773713D01*
X45049500Y-53773713D01*
X45049500Y-53986287D01*
X45054016Y-54014800D01*
X45074241Y-54142499D01*
X45082754Y-54196243D01*
X45143231Y-54382372D01*
X45148444Y-54398414D01*
X45244951Y-54587820D01*
X45369890Y-54759786D01*
X45520213Y-54910109D01*
X45692182Y-55035050D01*
X45700946Y-55039516D01*
X45751742Y-55087491D01*
X45768536Y-55155312D01*
X45745998Y-55221447D01*
X45700946Y-55260484D01*
X45692182Y-55264949D01*
X45520213Y-55389890D01*
X45369890Y-55540213D01*
X45244951Y-55712179D01*
X45148444Y-55901585D01*
X45082753Y-56103760D01*
X45049500Y-56313713D01*
X45049500Y-56526287D01*
X45082754Y-56736243D01*
X45143231Y-56922372D01*
X45148444Y-56938414D01*
X45244951Y-57127820D01*
X45369890Y-57299786D01*
X45520213Y-57450109D01*
X45692182Y-57575050D01*
X45700946Y-57579516D01*
X45751742Y-57627491D01*
X45768536Y-57695312D01*
X45745998Y-57761447D01*
X45700946Y-57800484D01*
X45692182Y-57804949D01*
X45520213Y-57929890D01*
X45369890Y-58080213D01*
X45244951Y-58252179D01*
X45148444Y-58441585D01*
X45082753Y-58643760D01*
X45054446Y-58822488D01*
X45049500Y-58853713D01*
X45049500Y-59066287D01*
X45054016Y-59094800D01*
X45074480Y-59224008D01*
X45082754Y-59276243D01*
X45143231Y-59462372D01*
X45148444Y-59478414D01*
X45244951Y-59667820D01*
X45369890Y-59839786D01*
X45520213Y-59990109D01*
X45692182Y-60115050D01*
X45700946Y-60119516D01*
X45751742Y-60167491D01*
X45768536Y-60235312D01*
X45745998Y-60301447D01*
X45700946Y-60340484D01*
X45692182Y-60344949D01*
X45520213Y-60469890D01*
X45369890Y-60620213D01*
X45244951Y-60792179D01*
X45148444Y-60981585D01*
X45082753Y-61183760D01*
X45059501Y-61330568D01*
X45049500Y-61393713D01*
X45049500Y-61606287D01*
X45054016Y-61634800D01*
X45077216Y-61781282D01*
X45082754Y-61816243D01*
X45144611Y-62006619D01*
X45148444Y-62018414D01*
X45244951Y-62207820D01*
X45369890Y-62379786D01*
X45520213Y-62530109D01*
X45692182Y-62655050D01*
X45700946Y-62659516D01*
X45751742Y-62707491D01*
X45768536Y-62775312D01*
X45745998Y-62841447D01*
X45700946Y-62880484D01*
X45692182Y-62884949D01*
X45520213Y-63009890D01*
X45369890Y-63160213D01*
X45244951Y-63332179D01*
X45148444Y-63521585D01*
X45082753Y-63723760D01*
X45061939Y-63855176D01*
X45049500Y-63933713D01*
X45049500Y-64146287D01*
X45082754Y-64356243D01*
X45143231Y-64542372D01*
X45148444Y-64558414D01*
X45244951Y-64747820D01*
X45369890Y-64919786D01*
X45520213Y-65070109D01*
X45692182Y-65195050D01*
X45700946Y-65199516D01*
X45751742Y-65247491D01*
X45768536Y-65315312D01*
X45745998Y-65381447D01*
X45700946Y-65420484D01*
X45692182Y-65424949D01*
X45520213Y-65549890D01*
X45369890Y-65700213D01*
X45244951Y-65872179D01*
X45148444Y-66061585D01*
X45082753Y-66263760D01*
X45059501Y-66410568D01*
X45049500Y-66473713D01*
X45049500Y-66686287D01*
X45082754Y-66896243D01*
X45143231Y-67082372D01*
X45148444Y-67098414D01*
X45244951Y-67287820D01*
X45369890Y-67459786D01*
X45520213Y-67610109D01*
X45692182Y-67735050D01*
X45700946Y-67739516D01*
X45751742Y-67787491D01*
X45768536Y-67855312D01*
X45745998Y-67921447D01*
X45700946Y-67960484D01*
X45692182Y-67964949D01*
X45520213Y-68089890D01*
X45369890Y-68240213D01*
X45244951Y-68412179D01*
X45148444Y-68601585D01*
X45082753Y-68803760D01*
X45049500Y-69013713D01*
X45049500Y-69226287D01*
X45054904Y-69260405D01*
X45080125Y-69419648D01*
X45082754Y-69436243D01*
X45143231Y-69622372D01*
X45148444Y-69638414D01*
X45244951Y-69827820D01*
X45369890Y-69999786D01*
X45520213Y-70150109D01*
X45692182Y-70275050D01*
X45700946Y-70279516D01*
X45751742Y-70327491D01*
X45768536Y-70395312D01*
X45745998Y-70461447D01*
X45700946Y-70500484D01*
X45692182Y-70504949D01*
X45520213Y-70629890D01*
X45369890Y-70780213D01*
X45244951Y-70952179D01*
X45148444Y-71141585D01*
X45082753Y-71343760D01*
X45071003Y-71417949D01*
X45049500Y-71553713D01*
X45049500Y-71766287D01*
X45054016Y-71794800D01*
X45075653Y-71931413D01*
X45082754Y-71976243D01*
X45143231Y-72162372D01*
X45148444Y-72178414D01*
X45244951Y-72367820D01*
X45369890Y-72539786D01*
X45520213Y-72690109D01*
X45692182Y-72815050D01*
X45700946Y-72819516D01*
X45751742Y-72867491D01*
X45768536Y-72935312D01*
X45745998Y-73001447D01*
X45700946Y-73040484D01*
X45692182Y-73044949D01*
X45520213Y-73169890D01*
X45369890Y-73320213D01*
X45244951Y-73492179D01*
X45148444Y-73681585D01*
X45082753Y-73883760D01*
X45060156Y-74026433D01*
X45049500Y-74093713D01*
X45049500Y-74306287D01*
X45054016Y-74334800D01*
X45075653Y-74471413D01*
X45082754Y-74516243D01*
X45143231Y-74702372D01*
X45148444Y-74718414D01*
X45244951Y-74907820D01*
X45369890Y-75079786D01*
X45520213Y-75230109D01*
X45692182Y-75355050D01*
X45700946Y-75359516D01*
X45751742Y-75407491D01*
X45768536Y-75475312D01*
X45745998Y-75541447D01*
X45700946Y-75580484D01*
X45692182Y-75584949D01*
X45520213Y-75709890D01*
X45369890Y-75860213D01*
X45244951Y-76032179D01*
X45148444Y-76221585D01*
X45082753Y-76423760D01*
X45071003Y-76497949D01*
X45049500Y-76633713D01*
X45049500Y-76846287D01*
X45054016Y-76874800D01*
X45075653Y-77011413D01*
X45082754Y-77056243D01*
X45143231Y-77242372D01*
X45148444Y-77258414D01*
X45244951Y-77447820D01*
X45369890Y-77619786D01*
X45520213Y-77770109D01*
X45692182Y-77895050D01*
X45700946Y-77899516D01*
X45751742Y-77947491D01*
X45768536Y-78015312D01*
X45745998Y-78081447D01*
X45700946Y-78120484D01*
X45692182Y-78124949D01*
X45520213Y-78249890D01*
X45369890Y-78400213D01*
X45244951Y-78572179D01*
X45148444Y-78761585D01*
X45082753Y-78963760D01*
X45054449Y-79142464D01*
X45049500Y-79173713D01*
X45049500Y-79386287D01*
X45054016Y-79414800D01*
X45080483Y-79581908D01*
X45082754Y-79596243D01*
X45143231Y-79782372D01*
X45148444Y-79798414D01*
X45244951Y-79987820D01*
X45369890Y-80159786D01*
X45520213Y-80310109D01*
X45692182Y-80435050D01*
X45700946Y-80439516D01*
X45751742Y-80487491D01*
X45768536Y-80555312D01*
X45745998Y-80621447D01*
X45700946Y-80660484D01*
X45692182Y-80664949D01*
X45520213Y-80789890D01*
X45369890Y-80940213D01*
X45244951Y-81112179D01*
X45148444Y-81301585D01*
X45082753Y-81503760D01*
X45060156Y-81646433D01*
X45049500Y-81713713D01*
X45049500Y-81926287D01*
X45054016Y-81954800D01*
X45075653Y-82091413D01*
X45082754Y-82136243D01*
X45143231Y-82322372D01*
X45148444Y-82338414D01*
X45244951Y-82527820D01*
X45369890Y-82699786D01*
X45520213Y-82850109D01*
X45692182Y-82975050D01*
X45700946Y-82979516D01*
X45751742Y-83027491D01*
X45768536Y-83095312D01*
X45745998Y-83161447D01*
X45700946Y-83200484D01*
X45692182Y-83204949D01*
X45520213Y-83329890D01*
X45369890Y-83480213D01*
X45244951Y-83652179D01*
X45148444Y-83841585D01*
X45082753Y-84043760D01*
X45071003Y-84117949D01*
X45049500Y-84253713D01*
X45049500Y-84466287D01*
X45054016Y-84494800D01*
X45075653Y-84631413D01*
X45082754Y-84676243D01*
X45143231Y-84862372D01*
X45148444Y-84878414D01*
X45244951Y-85067820D01*
X45369890Y-85239786D01*
X45520213Y-85390109D01*
X45692182Y-85515050D01*
X45700946Y-85519516D01*
X45751742Y-85567491D01*
X45768536Y-85635312D01*
X45745998Y-85701447D01*
X45700946Y-85740484D01*
X45692182Y-85744949D01*
X45520213Y-85869890D01*
X45369890Y-86020213D01*
X45244951Y-86192179D01*
X45148444Y-86381585D01*
X45082753Y-86583760D01*
X45071003Y-86657949D01*
X45049500Y-86793713D01*
X45049500Y-87006287D01*
X45054016Y-87034800D01*
X45080879Y-87204408D01*
X45082754Y-87216243D01*
X45143231Y-87402372D01*
X45148444Y-87418414D01*
X45244951Y-87607820D01*
X45369890Y-87779786D01*
X45520213Y-87930109D01*
X45692182Y-88055050D01*
X45700946Y-88059516D01*
X45751742Y-88107491D01*
X45768536Y-88175312D01*
X45745998Y-88241447D01*
X45700946Y-88280484D01*
X45692182Y-88284949D01*
X45520213Y-88409890D01*
X45369890Y-88560213D01*
X45244951Y-88732179D01*
X45148444Y-88921585D01*
X45082753Y-89123760D01*
X45071003Y-89197949D01*
X45049500Y-89333713D01*
X45049500Y-89546287D01*
X45054016Y-89574800D01*
X45076823Y-89718800D01*
X45082754Y-89756243D01*
X45143231Y-89942372D01*
X45148444Y-89958414D01*
X45244951Y-90147820D01*
X45369890Y-90319786D01*
X45520213Y-90470109D01*
X45692182Y-90595050D01*
X45700946Y-90599516D01*
X45751742Y-90647491D01*
X45768536Y-90715312D01*
X45745998Y-90781447D01*
X45700946Y-90820484D01*
X45692182Y-90824949D01*
X45520213Y-90949890D01*
X45369890Y-91100213D01*
X45244951Y-91272179D01*
X45148444Y-91461585D01*
X45082753Y-91663760D01*
X45069995Y-91744312D01*
X45049500Y-91873713D01*
X45049500Y-92086287D01*
X45054016Y-92114800D01*
X45077010Y-92259981D01*
X45082754Y-92296243D01*
X45146630Y-92492833D01*
X45148444Y-92498414D01*
X45244951Y-92687820D01*
X45369890Y-92859786D01*
X45520213Y-93010109D01*
X45692182Y-93135050D01*
X45700946Y-93139516D01*
X45751742Y-93187491D01*
X45768536Y-93255312D01*
X45745998Y-93321447D01*
X45700946Y-93360484D01*
X45692182Y-93364949D01*
X45520213Y-93489890D01*
X45369890Y-93640213D01*
X45244951Y-93812179D01*
X45148444Y-94001585D01*
X45082753Y-94203760D01*
X45054113Y-94384586D01*
X45049500Y-94413713D01*
X45049500Y-94626287D01*
X45054016Y-94654800D01*
X45077092Y-94800499D01*
X45082754Y-94836243D01*
X45143761Y-95024003D01*
X45148444Y-95038414D01*
X45244951Y-95227820D01*
X45369890Y-95399786D01*
X45520213Y-95550109D01*
X45692182Y-95675050D01*
X45700946Y-95679516D01*
X45751742Y-95727491D01*
X45768536Y-95795312D01*
X45745998Y-95861447D01*
X45700946Y-95900484D01*
X45692182Y-95904949D01*
X45520213Y-96029890D01*
X45369890Y-96180213D01*
X45244951Y-96352179D01*
X45148444Y-96541585D01*
X45082753Y-96743760D01*
X45049500Y-96953713D01*
X45049500Y-97166287D01*
X45054016Y-97194800D01*
X45067423Y-97279451D01*
X45082754Y-97376243D01*
X45143231Y-97562372D01*
X45148444Y-97578414D01*
X45244951Y-97767820D01*
X45369890Y-97939786D01*
X45520213Y-98090109D01*
X45692179Y-98215048D01*
X45692181Y-98215049D01*
X45692184Y-98215051D01*
X45881588Y-98311557D01*
X46083757Y-98377246D01*
X46293713Y-98410500D01*
X46293714Y-98410500D01*
X46506286Y-98410500D01*
X46506287Y-98410500D01*
X46716243Y-98377246D01*
X46918412Y-98311557D01*
X47107816Y-98215051D01*
X47194138Y-98152335D01*
X47279786Y-98090109D01*
X47279788Y-98090106D01*
X47279792Y-98090104D01*
X47430104Y-97939792D01*
X47430106Y-97939788D01*
X47430109Y-97939786D01*
X47555048Y-97767820D01*
X47555047Y-97767820D01*
X47555051Y-97767816D01*
X47651557Y-97578412D01*
X47717246Y-97376243D01*
X47750500Y-97166287D01*
X47750500Y-96953713D01*
X47717246Y-96743757D01*
X47651557Y-96541588D01*
X47555051Y-96352184D01*
X47555049Y-96352181D01*
X47555048Y-96352179D01*
X47430109Y-96180213D01*
X47279786Y-96029890D01*
X47107820Y-95904951D01*
X47107115Y-95904591D01*
X47099054Y-95900485D01*
X47048259Y-95852512D01*
X47031463Y-95784692D01*
X47053999Y-95718556D01*
X47099054Y-95679515D01*
X47107816Y-95675051D01*
X47150085Y-95644341D01*
X47279786Y-95550109D01*
X47279788Y-95550106D01*
X47279792Y-95550104D01*
X47430104Y-95399792D01*
X47430106Y-95399788D01*
X47430109Y-95399786D01*
X47555048Y-95227820D01*
X47555047Y-95227820D01*
X47555051Y-95227816D01*
X47651557Y-95038412D01*
X47717246Y-94836243D01*
X47750500Y-94626287D01*
X47750500Y-94413713D01*
X47717246Y-94203757D01*
X47651557Y-94001588D01*
X47555051Y-93812184D01*
X47555049Y-93812181D01*
X47555048Y-93812179D01*
X47430109Y-93640213D01*
X47279786Y-93489890D01*
X47107820Y-93364951D01*
X47107115Y-93364591D01*
X47099054Y-93360485D01*
X47048259Y-93312512D01*
X47031463Y-93244692D01*
X47053999Y-93178556D01*
X47099054Y-93139515D01*
X47107816Y-93135051D01*
X47129789Y-93119086D01*
X47279786Y-93010109D01*
X47279788Y-93010106D01*
X47279792Y-93010104D01*
X47430104Y-92859792D01*
X47430106Y-92859788D01*
X47430109Y-92859786D01*
X47555048Y-92687820D01*
X47555047Y-92687820D01*
X47555051Y-92687816D01*
X47651557Y-92498412D01*
X47717246Y-92296243D01*
X47750500Y-92086287D01*
X47750500Y-91873713D01*
X47717246Y-91663757D01*
X47651557Y-91461588D01*
X47555051Y-91272184D01*
X47555049Y-91272181D01*
X47555048Y-91272179D01*
X47430109Y-91100213D01*
X47279786Y-90949890D01*
X47107820Y-90824951D01*
X47107115Y-90824591D01*
X47099054Y-90820485D01*
X47048259Y-90772512D01*
X47031463Y-90704692D01*
X47053999Y-90638556D01*
X47099054Y-90599515D01*
X47107816Y-90595051D01*
X47129789Y-90579086D01*
X47279786Y-90470109D01*
X47279788Y-90470106D01*
X47279792Y-90470104D01*
X47430104Y-90319792D01*
X47430106Y-90319788D01*
X47430109Y-90319786D01*
X47555048Y-90147820D01*
X47555047Y-90147820D01*
X47555051Y-90147816D01*
X47651557Y-89958412D01*
X47717246Y-89756243D01*
X47750500Y-89546287D01*
X47750500Y-89333713D01*
X47717246Y-89123757D01*
X47651557Y-88921588D01*
X47555051Y-88732184D01*
X47555049Y-88732181D01*
X47555048Y-88732179D01*
X47430109Y-88560213D01*
X47279786Y-88409890D01*
X47107820Y-88284951D01*
X47107115Y-88284591D01*
X47099054Y-88280485D01*
X47048259Y-88232512D01*
X47031463Y-88164692D01*
X47053999Y-88098556D01*
X47099054Y-88059515D01*
X47107816Y-88055051D01*
X47129789Y-88039086D01*
X47279786Y-87930109D01*
X47279788Y-87930106D01*
X47279792Y-87930104D01*
X47430104Y-87779792D01*
X47430106Y-87779788D01*
X47430109Y-87779786D01*
X47555048Y-87607820D01*
X47555047Y-87607820D01*
X47555051Y-87607816D01*
X47651557Y-87418412D01*
X47717246Y-87216243D01*
X47750500Y-87006287D01*
X47750500Y-86793713D01*
X47717246Y-86583757D01*
X47651557Y-86381588D01*
X47555051Y-86192184D01*
X47555049Y-86192181D01*
X47555048Y-86192179D01*
X47430109Y-86020213D01*
X47279786Y-85869890D01*
X47107820Y-85744951D01*
X47107115Y-85744591D01*
X47099054Y-85740485D01*
X47048259Y-85692512D01*
X47031463Y-85624692D01*
X47053999Y-85558556D01*
X47099054Y-85519515D01*
X47107816Y-85515051D01*
X47129789Y-85499086D01*
X47279786Y-85390109D01*
X47279788Y-85390106D01*
X47279792Y-85390104D01*
X47430104Y-85239792D01*
X47430106Y-85239788D01*
X47430109Y-85239786D01*
X47555048Y-85067820D01*
X47555047Y-85067820D01*
X47555051Y-85067816D01*
X47651557Y-84878412D01*
X47717246Y-84676243D01*
X47750500Y-84466287D01*
X47750500Y-84281902D01*
X48299500Y-84281902D01*
X48299500Y-84518097D01*
X48336446Y-84751368D01*
X48409433Y-84975996D01*
X48481552Y-85117536D01*
X48516657Y-85186433D01*
X48655483Y-85377510D01*
X48822490Y-85544517D01*
X49013567Y-85683343D01*
X49094758Y-85724712D01*
X49107682Y-85731297D01*
X49158478Y-85779272D01*
X49175273Y-85847093D01*
X49152736Y-85913228D01*
X49124273Y-85942100D01*
X49015319Y-86021260D01*
X48881260Y-86155319D01*
X48769819Y-86308703D01*
X48683747Y-86477627D01*
X48625157Y-86657949D01*
X48595500Y-86845199D01*
X48595500Y-87034800D01*
X48624437Y-87217501D01*
X48625158Y-87222055D01*
X48664750Y-87343905D01*
X48683747Y-87402372D01*
X48769819Y-87571296D01*
X48881259Y-87724679D01*
X49015321Y-87858741D01*
X49168704Y-87970181D01*
X49248515Y-88010846D01*
X49337627Y-88056252D01*
X49337629Y-88056252D01*
X49337632Y-88056254D01*
X49447860Y-88092069D01*
X49505534Y-88131507D01*
X49532732Y-88195866D01*
X49520817Y-88264712D01*
X49473573Y-88316188D01*
X49447861Y-88327929D01*
X49405838Y-88341583D01*
X49337627Y-88363747D01*
X49168703Y-88449819D01*
X49015319Y-88561260D01*
X48881260Y-88695319D01*
X48769819Y-88848703D01*
X48683747Y-89017627D01*
X48625157Y-89197949D01*
X48595500Y-89385199D01*
X48595500Y-89574800D01*
X48622061Y-89742500D01*
X48625158Y-89762055D01*
X48664750Y-89883905D01*
X48683747Y-89942372D01*
X48769819Y-90111296D01*
X48881259Y-90264679D01*
X49015321Y-90398741D01*
X49168704Y-90510181D01*
X49248515Y-90550846D01*
X49337627Y-90596252D01*
X49337629Y-90596252D01*
X49337632Y-90596254D01*
X49447860Y-90632069D01*
X49505534Y-90671507D01*
X49532732Y-90735866D01*
X49520817Y-90804712D01*
X49473573Y-90856188D01*
X49447861Y-90867929D01*
X49405838Y-90881583D01*
X49337627Y-90903747D01*
X49168703Y-90989819D01*
X49015319Y-91101260D01*
X48881260Y-91235319D01*
X48769819Y-91388703D01*
X48683747Y-91557627D01*
X48625157Y-91737949D01*
X48595500Y-91925199D01*
X48595500Y-92114800D01*
X48624859Y-92300167D01*
X48625158Y-92302055D01*
X48650121Y-92378881D01*
X48683747Y-92482372D01*
X48769819Y-92651296D01*
X48881259Y-92804679D01*
X49015321Y-92938741D01*
X49168704Y-93050181D01*
X49248515Y-93090846D01*
X49337627Y-93136252D01*
X49337629Y-93136252D01*
X49337632Y-93136254D01*
X49447860Y-93172069D01*
X49505534Y-93211507D01*
X49532732Y-93275866D01*
X49520817Y-93344712D01*
X49473573Y-93396188D01*
X49447861Y-93407929D01*
X49411609Y-93419709D01*
X49337627Y-93443747D01*
X49168703Y-93529819D01*
X49015319Y-93641260D01*
X48881260Y-93775319D01*
X48769819Y-93928703D01*
X48683747Y-94097627D01*
X48625157Y-94277949D01*
X48595500Y-94465199D01*
X48595500Y-94654800D01*
X48620646Y-94813566D01*
X48625158Y-94842055D01*
X48664750Y-94963905D01*
X48683747Y-95022372D01*
X48769819Y-95191296D01*
X48881259Y-95344679D01*
X49015321Y-95478741D01*
X49124274Y-95557900D01*
X49166938Y-95613229D01*
X49172917Y-95682843D01*
X49140311Y-95744637D01*
X49107682Y-95768702D01*
X49013565Y-95816657D01*
X48822488Y-95955484D01*
X48655484Y-96122488D01*
X48516657Y-96313565D01*
X48409433Y-96524003D01*
X48336446Y-96748631D01*
X48299500Y-96981902D01*
X48299500Y-97218097D01*
X48336446Y-97451368D01*
X48409433Y-97675996D01*
X48494699Y-97843339D01*
X48516657Y-97886434D01*
X48655483Y-98077510D01*
X53122490Y-102544517D01*
X53313566Y-102683343D01*
X53412992Y-102734003D01*
X53524003Y-102790566D01*
X53524005Y-102790566D01*
X53524008Y-102790568D01*
X53644412Y-102829689D01*
X53748631Y-102863553D01*
X53981903Y-102900500D01*
X53981908Y-102900500D01*
X79518097Y-102900500D01*
X79751368Y-102863553D01*
X79975992Y-102790568D01*
X80186434Y-102683343D01*
X80377510Y-102544517D01*
X84036769Y-98885258D01*
X101249500Y-98885258D01*
X101249500Y-99114741D01*
X101274446Y-99304215D01*
X101279452Y-99342238D01*
X101279453Y-99342240D01*
X101338842Y-99563887D01*
X101426650Y-99775876D01*
X101426657Y-99775890D01*
X101541392Y-99974617D01*
X101681081Y-100156661D01*
X101681089Y-100156670D01*
X101843330Y-100318911D01*
X101843338Y-100318918D01*
X102025382Y-100458607D01*
X102025385Y-100458608D01*
X102025388Y-100458611D01*
X102224112Y-100573344D01*
X102224117Y-100573346D01*
X102224123Y-100573349D01*
X102315480Y-100611190D01*
X102436113Y-100661158D01*
X102657762Y-100720548D01*
X102885266Y-100750500D01*
X102885273Y-100750500D01*
X103114727Y-100750500D01*
X103114734Y-100750500D01*
X103342238Y-100720548D01*
X103563887Y-100661158D01*
X103775888Y-100573344D01*
X103974612Y-100458611D01*
X104156661Y-100318919D01*
X104156665Y-100318914D01*
X104156670Y-100318911D01*
X104318911Y-100156670D01*
X104318914Y-100156665D01*
X104318919Y-100156661D01*
X104458611Y-99974612D01*
X104573344Y-99775888D01*
X104661158Y-99563887D01*
X104720548Y-99342238D01*
X104750500Y-99114734D01*
X104750500Y-98885266D01*
X104720548Y-98657762D01*
X104661158Y-98436113D01*
X104594357Y-98274842D01*
X104573349Y-98224123D01*
X104573346Y-98224117D01*
X104573344Y-98224112D01*
X104458611Y-98025388D01*
X104458608Y-98025385D01*
X104458607Y-98025382D01*
X104318918Y-97843338D01*
X104318911Y-97843330D01*
X104156670Y-97681089D01*
X104156661Y-97681081D01*
X104110308Y-97645513D01*
X135999500Y-97645513D01*
X135999500Y-97834486D01*
X136029059Y-98021118D01*
X136087454Y-98200836D01*
X136140274Y-98304500D01*
X136173240Y-98369199D01*
X136284310Y-98522073D01*
X136417927Y-98655690D01*
X136570801Y-98766760D01*
X136650347Y-98807290D01*
X136739163Y-98852545D01*
X136739165Y-98852545D01*
X136739168Y-98852547D01*
X136835497Y-98883846D01*
X136918881Y-98910940D01*
X137105514Y-98940500D01*
X137105519Y-98940500D01*
X137294486Y-98940500D01*
X137481118Y-98910940D01*
X137560115Y-98885272D01*
X137660832Y-98852547D01*
X137829199Y-98766760D01*
X137982073Y-98655690D01*
X138115690Y-98522073D01*
X138226760Y-98369199D01*
X138312547Y-98200832D01*
X138370940Y-98021118D01*
X138371516Y-98017482D01*
X138400500Y-97834486D01*
X138400500Y-97645513D01*
X138370940Y-97458881D01*
X138331936Y-97338842D01*
X138312547Y-97279168D01*
X138312545Y-97279165D01*
X138312545Y-97279163D01*
X138226759Y-97110800D01*
X138115690Y-96957927D01*
X137982073Y-96824310D01*
X137829199Y-96713240D01*
X137660836Y-96627454D01*
X137481118Y-96569059D01*
X137294486Y-96539500D01*
X137294481Y-96539500D01*
X137105519Y-96539500D01*
X137105514Y-96539500D01*
X136918881Y-96569059D01*
X136739163Y-96627454D01*
X136570800Y-96713240D01*
X136522088Y-96748632D01*
X136417927Y-96824310D01*
X136417925Y-96824312D01*
X136417924Y-96824312D01*
X136284312Y-96957924D01*
X136284312Y-96957925D01*
X136284310Y-96957927D01*
X136260595Y-96990568D01*
X136173240Y-97110800D01*
X136087454Y-97279163D01*
X136029059Y-97458881D01*
X135999500Y-97645513D01*
X104110308Y-97645513D01*
X103974617Y-97541392D01*
X103775890Y-97426657D01*
X103775876Y-97426650D01*
X103563887Y-97338842D01*
X103342238Y-97279452D01*
X103304215Y-97274446D01*
X103114741Y-97249500D01*
X103114734Y-97249500D01*
X102885266Y-97249500D01*
X102885258Y-97249500D01*
X102668715Y-97278009D01*
X102657762Y-97279452D01*
X102564076Y-97304554D01*
X102436112Y-97338842D01*
X102224123Y-97426650D01*
X102224109Y-97426657D01*
X102025382Y-97541392D01*
X101843338Y-97681081D01*
X101681081Y-97843338D01*
X101541392Y-98025382D01*
X101426657Y-98224109D01*
X101426650Y-98224123D01*
X101338842Y-98436112D01*
X101279453Y-98657759D01*
X101279451Y-98657770D01*
X101249500Y-98885258D01*
X84036769Y-98885258D01*
X86604017Y-96318010D01*
X86742843Y-96126934D01*
X86850068Y-95916492D01*
X86923053Y-95691868D01*
X86929224Y-95652906D01*
X86960000Y-95458597D01*
X86960000Y-92101577D01*
X123705000Y-92101577D01*
X123705000Y-92298422D01*
X123735790Y-92492826D01*
X123796617Y-92680029D01*
X123860130Y-92804679D01*
X123885976Y-92855405D01*
X124001672Y-93014646D01*
X124140854Y-93153828D01*
X124300095Y-93269524D01*
X124382955Y-93311743D01*
X124475470Y-93358882D01*
X124475472Y-93358882D01*
X124475475Y-93358884D01*
X124556338Y-93385158D01*
X124662673Y-93419709D01*
X124857078Y-93450500D01*
X124857083Y-93450500D01*
X125053922Y-93450500D01*
X125248326Y-93419709D01*
X125435525Y-93358884D01*
X125610905Y-93269524D01*
X125770146Y-93153828D01*
X125909328Y-93014646D01*
X126025024Y-92855405D01*
X126114384Y-92680025D01*
X126151592Y-92565513D01*
X135999500Y-92565513D01*
X135999500Y-92754486D01*
X136029059Y-92941118D01*
X136087454Y-93120836D01*
X136173240Y-93289199D01*
X136284310Y-93442073D01*
X136417927Y-93575690D01*
X136570801Y-93686760D01*
X136650347Y-93727290D01*
X136739163Y-93772545D01*
X136739165Y-93772545D01*
X136739168Y-93772547D01*
X136835497Y-93803846D01*
X136918881Y-93830940D01*
X137105514Y-93860500D01*
X137105519Y-93860500D01*
X137294486Y-93860500D01*
X137481118Y-93830940D01*
X137660832Y-93772547D01*
X137829199Y-93686760D01*
X137982073Y-93575690D01*
X138115690Y-93442073D01*
X138226339Y-93289778D01*
X141859500Y-93289778D01*
X141859500Y-93510221D01*
X141893985Y-93727952D01*
X141962103Y-93937603D01*
X141962104Y-93937606D01*
X142030122Y-94071096D01*
X142059797Y-94129336D01*
X142062187Y-94134025D01*
X142191752Y-94312358D01*
X142191756Y-94312363D01*
X142347636Y-94468243D01*
X142347641Y-94468247D01*
X142479997Y-94564408D01*
X142525978Y-94597815D01*
X142654375Y-94663237D01*
X142722393Y-94697895D01*
X142722396Y-94697896D01*
X142787266Y-94718973D01*
X142932049Y-94766015D01*
X143149778Y-94800500D01*
X143149779Y-94800500D01*
X143370221Y-94800500D01*
X143370222Y-94800500D01*
X143587951Y-94766015D01*
X143797606Y-94697895D01*
X143994022Y-94597815D01*
X144172365Y-94468242D01*
X144222536Y-94418070D01*
X144283857Y-94384586D01*
X144353548Y-94389570D01*
X144409482Y-94431441D01*
X144426398Y-94462419D01*
X144456202Y-94542328D01*
X144456206Y-94542335D01*
X144542452Y-94657544D01*
X144542455Y-94657547D01*
X144657664Y-94743793D01*
X144657671Y-94743797D01*
X144792517Y-94794091D01*
X144792516Y-94794091D01*
X144799444Y-94794835D01*
X144852127Y-94800500D01*
X146747872Y-94800499D01*
X146807483Y-94794091D01*
X146942331Y-94743796D01*
X147057546Y-94657546D01*
X147143796Y-94542331D01*
X147194091Y-94407483D01*
X147200500Y-94347873D01*
X147200499Y-92452128D01*
X147194091Y-92392517D01*
X147189005Y-92378882D01*
X147159647Y-92300167D01*
X147144659Y-92259983D01*
X154099500Y-92259983D01*
X154099500Y-93860001D01*
X154099501Y-93860018D01*
X154110000Y-93962796D01*
X154110001Y-93962799D01*
X154165185Y-94129331D01*
X154165187Y-94129336D01*
X154168079Y-94134025D01*
X154257288Y-94278656D01*
X154381344Y-94402712D01*
X154399180Y-94413713D01*
X154429656Y-94432511D01*
X154476381Y-94484459D01*
X154487604Y-94553421D01*
X154459760Y-94617504D01*
X154458615Y-94618759D01*
X154458647Y-94618786D01*
X154455485Y-94622487D01*
X154455483Y-94622490D01*
X154430013Y-94657547D01*
X154316657Y-94813566D01*
X154209433Y-95024003D01*
X154136446Y-95248631D01*
X154099500Y-95481902D01*
X154099500Y-95718097D01*
X154136446Y-95951368D01*
X154209433Y-96175996D01*
X154299204Y-96352179D01*
X154316657Y-96386433D01*
X154455483Y-96577510D01*
X154622490Y-96744517D01*
X154813567Y-96883343D01*
X154912991Y-96934002D01*
X155024003Y-96990566D01*
X155024005Y-96990566D01*
X155024008Y-96990568D01*
X155144412Y-97029689D01*
X155248631Y-97063553D01*
X155481903Y-97100500D01*
X155481908Y-97100500D01*
X155718097Y-97100500D01*
X155951368Y-97063553D01*
X156175992Y-96990568D01*
X156386433Y-96883343D01*
X156577510Y-96744517D01*
X156744517Y-96577510D01*
X156883343Y-96386433D01*
X156990568Y-96175992D01*
X157063553Y-95951368D01*
X157079219Y-95852455D01*
X157100500Y-95718097D01*
X157100500Y-95481902D01*
X157063553Y-95248631D01*
X157029689Y-95144412D01*
X156990568Y-95024008D01*
X156990566Y-95024005D01*
X156990566Y-95024003D01*
X156897858Y-94842055D01*
X156883343Y-94813567D01*
X156744517Y-94622490D01*
X156744508Y-94622481D01*
X156741353Y-94618786D01*
X156743134Y-94617264D01*
X156714273Y-94564408D01*
X156719257Y-94494716D01*
X156761129Y-94438783D01*
X156770334Y-94432516D01*
X156818656Y-94402712D01*
X156942712Y-94278656D01*
X157034814Y-94129334D01*
X157089999Y-93962797D01*
X157100500Y-93860009D01*
X157100499Y-92259992D01*
X157089999Y-92157203D01*
X157034814Y-91990666D01*
X156942712Y-91841344D01*
X156818656Y-91717288D01*
X156669334Y-91625186D01*
X156502797Y-91570001D01*
X156502795Y-91570000D01*
X156400010Y-91559500D01*
X154799998Y-91559500D01*
X154799981Y-91559501D01*
X154697203Y-91570000D01*
X154697200Y-91570001D01*
X154530668Y-91625185D01*
X154530663Y-91625187D01*
X154381342Y-91717289D01*
X154257289Y-91841342D01*
X154165187Y-91990663D01*
X154165185Y-91990668D01*
X154150831Y-92033985D01*
X154110001Y-92157203D01*
X154110001Y-92157204D01*
X154110000Y-92157204D01*
X154099500Y-92259983D01*
X147144659Y-92259983D01*
X147143797Y-92257671D01*
X147143793Y-92257664D01*
X147057547Y-92142455D01*
X147057544Y-92142452D01*
X146942335Y-92056206D01*
X146942328Y-92056202D01*
X146807482Y-92005908D01*
X146807483Y-92005908D01*
X146747883Y-91999501D01*
X146747881Y-91999500D01*
X146747873Y-91999500D01*
X146747864Y-91999500D01*
X144852129Y-91999500D01*
X144852123Y-91999501D01*
X144792516Y-92005908D01*
X144657671Y-92056202D01*
X144657664Y-92056206D01*
X144542455Y-92142452D01*
X144542452Y-92142455D01*
X144456206Y-92257664D01*
X144456203Y-92257669D01*
X144426398Y-92337581D01*
X144384526Y-92393514D01*
X144319062Y-92417931D01*
X144250789Y-92403079D01*
X144222535Y-92381928D01*
X144172363Y-92331756D01*
X144172358Y-92331752D01*
X143994025Y-92202187D01*
X143994024Y-92202186D01*
X143994022Y-92202185D01*
X143876791Y-92142452D01*
X143797606Y-92102104D01*
X143797603Y-92102103D01*
X143587952Y-92033985D01*
X143479086Y-92016742D01*
X143370222Y-91999500D01*
X143149778Y-91999500D01*
X143077201Y-92010995D01*
X142932047Y-92033985D01*
X142722396Y-92102103D01*
X142722393Y-92102104D01*
X142525974Y-92202187D01*
X142347641Y-92331752D01*
X142347636Y-92331756D01*
X142191756Y-92487636D01*
X142191752Y-92487641D01*
X142062187Y-92665974D01*
X141962104Y-92862393D01*
X141962103Y-92862396D01*
X141893985Y-93072047D01*
X141859500Y-93289778D01*
X138226339Y-93289778D01*
X138226760Y-93289199D01*
X138312547Y-93120832D01*
X138370940Y-92941118D01*
X138371317Y-92938739D01*
X138400500Y-92754486D01*
X138400500Y-92565513D01*
X138370940Y-92378881D01*
X138331555Y-92257669D01*
X138312547Y-92199168D01*
X138312545Y-92199165D01*
X138312545Y-92199163D01*
X138226759Y-92030800D01*
X138115690Y-91877927D01*
X137982073Y-91744310D01*
X137829199Y-91633240D01*
X137811080Y-91624008D01*
X137660836Y-91547454D01*
X137481118Y-91489059D01*
X137294486Y-91459500D01*
X137294481Y-91459500D01*
X137105519Y-91459500D01*
X137105514Y-91459500D01*
X136918881Y-91489059D01*
X136739163Y-91547454D01*
X136570800Y-91633240D01*
X136528798Y-91663757D01*
X136417927Y-91744310D01*
X136417925Y-91744312D01*
X136417924Y-91744312D01*
X136284312Y-91877924D01*
X136284312Y-91877925D01*
X136284310Y-91877927D01*
X136263061Y-91907174D01*
X136173240Y-92030800D01*
X136087454Y-92199163D01*
X136029059Y-92378881D01*
X135999500Y-92565513D01*
X126151592Y-92565513D01*
X126165624Y-92522326D01*
X126175207Y-92492833D01*
X126175207Y-92492831D01*
X126175209Y-92492826D01*
X126193256Y-92378881D01*
X126206000Y-92298422D01*
X126206000Y-92101577D01*
X126175209Y-91907173D01*
X126146987Y-91820317D01*
X126114384Y-91719975D01*
X126114382Y-91719972D01*
X126114382Y-91719970D01*
X126032618Y-91559500D01*
X126025024Y-91544595D01*
X125909328Y-91385354D01*
X125770146Y-91246172D01*
X125610905Y-91130476D01*
X125435529Y-91041117D01*
X125248326Y-90980290D01*
X125053922Y-90949500D01*
X125053917Y-90949500D01*
X124857083Y-90949500D01*
X124857078Y-90949500D01*
X124662673Y-90980290D01*
X124475470Y-91041117D01*
X124300094Y-91130476D01*
X124209241Y-91196485D01*
X124140854Y-91246172D01*
X124140852Y-91246174D01*
X124140851Y-91246174D01*
X124001674Y-91385351D01*
X124001674Y-91385352D01*
X124001672Y-91385354D01*
X123981175Y-91413566D01*
X123885976Y-91544594D01*
X123796617Y-91719970D01*
X123735790Y-91907173D01*
X123705000Y-92101577D01*
X86960000Y-92101577D01*
X86960000Y-92081902D01*
X86923053Y-91848631D01*
X86862983Y-91663757D01*
X86850068Y-91624008D01*
X86850066Y-91624005D01*
X86850066Y-91624003D01*
X86793502Y-91512991D01*
X86742843Y-91413567D01*
X86604017Y-91222490D01*
X86437010Y-91055483D01*
X86245933Y-90916657D01*
X86220594Y-90903746D01*
X86035496Y-90809433D01*
X85810868Y-90736446D01*
X85577597Y-90699500D01*
X85577592Y-90699500D01*
X85341408Y-90699500D01*
X85341403Y-90699500D01*
X85108131Y-90736446D01*
X84883503Y-90809433D01*
X84673066Y-90916657D01*
X84572368Y-90989819D01*
X84481990Y-91055483D01*
X84481988Y-91055485D01*
X84481987Y-91055485D01*
X84314985Y-91222487D01*
X84314985Y-91222488D01*
X84314983Y-91222490D01*
X84305661Y-91235321D01*
X84176157Y-91413566D01*
X84068933Y-91624003D01*
X83995946Y-91848631D01*
X83959000Y-92081902D01*
X83959000Y-94667611D01*
X83939315Y-94734650D01*
X83922681Y-94755292D01*
X78814792Y-99863181D01*
X78753469Y-99896666D01*
X78727111Y-99899500D01*
X54772889Y-99899500D01*
X54705850Y-99879815D01*
X54685208Y-99863181D01*
X50777511Y-95955484D01*
X50767115Y-95947931D01*
X50586434Y-95816657D01*
X50544542Y-95795312D01*
X50492317Y-95768702D01*
X50441521Y-95720727D01*
X50424726Y-95652906D01*
X50447263Y-95586771D01*
X50475724Y-95557901D01*
X50584679Y-95478741D01*
X50718741Y-95344679D01*
X50830181Y-95191296D01*
X50916254Y-95022368D01*
X50974842Y-94842055D01*
X50997674Y-94697895D01*
X51004500Y-94654800D01*
X51004500Y-94465199D01*
X50980292Y-94312358D01*
X50974842Y-94277945D01*
X50916254Y-94097632D01*
X50916252Y-94097629D01*
X50916252Y-94097627D01*
X50847552Y-93962797D01*
X50830181Y-93928704D01*
X50718741Y-93775321D01*
X50584679Y-93641259D01*
X50431296Y-93529819D01*
X50352931Y-93489890D01*
X50262370Y-93443747D01*
X50262369Y-93443746D01*
X50262368Y-93443746D01*
X50152139Y-93407930D01*
X50094465Y-93368493D01*
X50067267Y-93304135D01*
X50079182Y-93235288D01*
X50126426Y-93183813D01*
X50152138Y-93172070D01*
X50262368Y-93136254D01*
X50431296Y-93050181D01*
X50584679Y-92938741D01*
X50718741Y-92804679D01*
X50830181Y-92651296D01*
X50916254Y-92482368D01*
X50974842Y-92302055D01*
X50991318Y-92198022D01*
X51004500Y-92114800D01*
X51004500Y-91925199D01*
X50975850Y-91744310D01*
X50974842Y-91737945D01*
X50916254Y-91557632D01*
X50916252Y-91557629D01*
X50916252Y-91557627D01*
X50842849Y-91413567D01*
X50830181Y-91388704D01*
X50718741Y-91235321D01*
X50584679Y-91101259D01*
X50431296Y-90989819D01*
X50262368Y-90903746D01*
X50152139Y-90867930D01*
X50094465Y-90828493D01*
X50067267Y-90764135D01*
X50079182Y-90695288D01*
X50126426Y-90643813D01*
X50152138Y-90632070D01*
X50262368Y-90596254D01*
X50431296Y-90510181D01*
X50584679Y-90398741D01*
X50718741Y-90264679D01*
X50830181Y-90111296D01*
X50916254Y-89942368D01*
X50974842Y-89762055D01*
X50993794Y-89642391D01*
X51004500Y-89574800D01*
X51004500Y-89385199D01*
X50988023Y-89281171D01*
X50974842Y-89197945D01*
X50916254Y-89017632D01*
X50916252Y-89017629D01*
X50916252Y-89017627D01*
X50867316Y-88921585D01*
X50830181Y-88848704D01*
X50718741Y-88695321D01*
X50584679Y-88561259D01*
X50431296Y-88449819D01*
X50262368Y-88363746D01*
X50152139Y-88327930D01*
X50094465Y-88288493D01*
X50067267Y-88224135D01*
X50079182Y-88155288D01*
X50126426Y-88103813D01*
X50152138Y-88092070D01*
X50262368Y-88056254D01*
X50431296Y-87970181D01*
X50584679Y-87858741D01*
X50718741Y-87724679D01*
X50830181Y-87571296D01*
X50916254Y-87402368D01*
X50974842Y-87222055D01*
X50994725Y-87096517D01*
X51004500Y-87034800D01*
X51004500Y-86845199D01*
X50988023Y-86741171D01*
X50974842Y-86657945D01*
X50916254Y-86477632D01*
X50916252Y-86477629D01*
X50916252Y-86477627D01*
X50849440Y-86346502D01*
X50830181Y-86308704D01*
X50718741Y-86155321D01*
X50675601Y-86112181D01*
X50642116Y-86050858D01*
X50647100Y-85981166D01*
X50688972Y-85925233D01*
X50754436Y-85900816D01*
X50763282Y-85900500D01*
X50913703Y-85900500D01*
X51146974Y-85863553D01*
X51371598Y-85790568D01*
X51582040Y-85683343D01*
X51773116Y-85544517D01*
X59144518Y-78173116D01*
X59283343Y-77982039D01*
X59390568Y-77771598D01*
X59463553Y-77546974D01*
X59473233Y-77485858D01*
X59500500Y-77313703D01*
X59500500Y-53072889D01*
X59520185Y-53005850D01*
X59536819Y-52985208D01*
X61236828Y-51285199D01*
X73995500Y-51285199D01*
X73995500Y-51474800D01*
X74024237Y-51656239D01*
X74025158Y-51662055D01*
X74051182Y-51742147D01*
X74083747Y-51842372D01*
X74137890Y-51948632D01*
X74169819Y-52011296D01*
X74281259Y-52164679D01*
X74415321Y-52298741D01*
X74568704Y-52410181D01*
X74611695Y-52432086D01*
X74737627Y-52496252D01*
X74737629Y-52496252D01*
X74737632Y-52496254D01*
X74847860Y-52532069D01*
X74905534Y-52571507D01*
X74932732Y-52635866D01*
X74920817Y-52704712D01*
X74873573Y-52756188D01*
X74847861Y-52767929D01*
X74805838Y-52781583D01*
X74737627Y-52803747D01*
X74568703Y-52889819D01*
X74415319Y-53001260D01*
X74281260Y-53135319D01*
X74169819Y-53288703D01*
X74083747Y-53457627D01*
X74049263Y-53563757D01*
X74031734Y-53617708D01*
X74025157Y-53637949D01*
X73995500Y-53825199D01*
X73995500Y-54014800D01*
X74024237Y-54196239D01*
X74025158Y-54202055D01*
X74062974Y-54318439D01*
X74083747Y-54382372D01*
X74169819Y-54551296D01*
X74281259Y-54704679D01*
X74415321Y-54838741D01*
X74568704Y-54950181D01*
X74648515Y-54990846D01*
X74737627Y-55036252D01*
X74737629Y-55036252D01*
X74737632Y-55036254D01*
X74847860Y-55072069D01*
X74905534Y-55111507D01*
X74932732Y-55175866D01*
X74920817Y-55244712D01*
X74873573Y-55296188D01*
X74847861Y-55307929D01*
X74805838Y-55321583D01*
X74737627Y-55343747D01*
X74568703Y-55429819D01*
X74415319Y-55541260D01*
X74281260Y-55675319D01*
X74169819Y-55828703D01*
X74083747Y-55997627D01*
X74073332Y-56029682D01*
X74032457Y-56155483D01*
X74025157Y-56177949D01*
X73995500Y-56365199D01*
X73995500Y-56554800D01*
X74022300Y-56724010D01*
X74025158Y-56742055D01*
X74064750Y-56863905D01*
X74083747Y-56922372D01*
X74169819Y-57091296D01*
X74281259Y-57244679D01*
X74415321Y-57378741D01*
X74568704Y-57490181D01*
X74648515Y-57530846D01*
X74737627Y-57576252D01*
X74737629Y-57576252D01*
X74737632Y-57576254D01*
X74847860Y-57612069D01*
X74905534Y-57651507D01*
X74932732Y-57715866D01*
X74920817Y-57784712D01*
X74873573Y-57836188D01*
X74847861Y-57847929D01*
X74805838Y-57861583D01*
X74737627Y-57883747D01*
X74568703Y-57969819D01*
X74415319Y-58081260D01*
X74281260Y-58215319D01*
X74169819Y-58368703D01*
X74083747Y-58537627D01*
X74073332Y-58569682D01*
X74040737Y-58670000D01*
X74025157Y-58717949D01*
X73995500Y-58905199D01*
X73995500Y-59094800D01*
X74024237Y-59276239D01*
X74025158Y-59282055D01*
X74064750Y-59403905D01*
X74083747Y-59462372D01*
X74169819Y-59631296D01*
X74281259Y-59784679D01*
X74415321Y-59918741D01*
X74568704Y-60030181D01*
X74648515Y-60070846D01*
X74737627Y-60116252D01*
X74737629Y-60116252D01*
X74737632Y-60116254D01*
X74847860Y-60152069D01*
X74905534Y-60191507D01*
X74932732Y-60255866D01*
X74920817Y-60324712D01*
X74873573Y-60376188D01*
X74847861Y-60387929D01*
X74805838Y-60401583D01*
X74737627Y-60423747D01*
X74568703Y-60509819D01*
X74415319Y-60621260D01*
X74281260Y-60755319D01*
X74169819Y-60908703D01*
X74083747Y-61077627D01*
X74025157Y-61257949D01*
X73995500Y-61445199D01*
X73995500Y-61634800D01*
X74025157Y-61822050D01*
X74025158Y-61822055D01*
X74049856Y-61898067D01*
X74083747Y-62002372D01*
X74146967Y-62126446D01*
X74169819Y-62171296D01*
X74281259Y-62324679D01*
X74415321Y-62458741D01*
X74568704Y-62570181D01*
X74648515Y-62610846D01*
X74737627Y-62656252D01*
X74737629Y-62656252D01*
X74737632Y-62656254D01*
X74847860Y-62692069D01*
X74905534Y-62731507D01*
X74932732Y-62795866D01*
X74920817Y-62864712D01*
X74873573Y-62916188D01*
X74847861Y-62927929D01*
X74805838Y-62941583D01*
X74737627Y-62963747D01*
X74568703Y-63049819D01*
X74415319Y-63161260D01*
X74281260Y-63295319D01*
X74169819Y-63448703D01*
X74083747Y-63617627D01*
X74053274Y-63711413D01*
X74031058Y-63779789D01*
X74025157Y-63797949D01*
X73995500Y-63985199D01*
X73995500Y-64174800D01*
X74004808Y-64233567D01*
X74025158Y-64362055D01*
X74058831Y-64465689D01*
X74083747Y-64542372D01*
X74169819Y-64711296D01*
X74281259Y-64864679D01*
X74415321Y-64998741D01*
X74568704Y-65110181D01*
X74648515Y-65150846D01*
X74737627Y-65196252D01*
X74737629Y-65196252D01*
X74737632Y-65196254D01*
X74847860Y-65232069D01*
X74905534Y-65271507D01*
X74932732Y-65335866D01*
X74920817Y-65404712D01*
X74873573Y-65456188D01*
X74847861Y-65467929D01*
X74805838Y-65481583D01*
X74737627Y-65503747D01*
X74568703Y-65589819D01*
X74415319Y-65701260D01*
X74281260Y-65835319D01*
X74169819Y-65988703D01*
X74083747Y-66157627D01*
X74025157Y-66337949D01*
X73995500Y-66525199D01*
X73995500Y-66714800D01*
X74024237Y-66896239D01*
X74025158Y-66902055D01*
X74064750Y-67023905D01*
X74083747Y-67082372D01*
X74169819Y-67251296D01*
X74281259Y-67404679D01*
X74415321Y-67538741D01*
X74568704Y-67650181D01*
X74648515Y-67690846D01*
X74737627Y-67736252D01*
X74737629Y-67736252D01*
X74737632Y-67736254D01*
X74847860Y-67772069D01*
X74905534Y-67811507D01*
X74932732Y-67875866D01*
X74920817Y-67944712D01*
X74873573Y-67996188D01*
X74847861Y-68007929D01*
X74805838Y-68021583D01*
X74737627Y-68043747D01*
X74568703Y-68129819D01*
X74415319Y-68241260D01*
X74281260Y-68375319D01*
X74169819Y-68528703D01*
X74083747Y-68697627D01*
X74025157Y-68877949D01*
X73995500Y-69065199D01*
X73995500Y-69254800D01*
X74024437Y-69437501D01*
X74025158Y-69442055D01*
X74053732Y-69529995D01*
X74083747Y-69622372D01*
X74146485Y-69745500D01*
X74169819Y-69791296D01*
X74281259Y-69944679D01*
X74415321Y-70078741D01*
X74568704Y-70190181D01*
X74648515Y-70230846D01*
X74737627Y-70276252D01*
X74737629Y-70276252D01*
X74737632Y-70276254D01*
X74847860Y-70312069D01*
X74905534Y-70351507D01*
X74932732Y-70415866D01*
X74920817Y-70484712D01*
X74873573Y-70536188D01*
X74847861Y-70547929D01*
X74805838Y-70561583D01*
X74737627Y-70583747D01*
X74568703Y-70669819D01*
X74415319Y-70781260D01*
X74281260Y-70915319D01*
X74169819Y-71068703D01*
X74083747Y-71237627D01*
X74054275Y-71328334D01*
X74038588Y-71376614D01*
X74025157Y-71417949D01*
X73995500Y-71605199D01*
X73995500Y-71794800D01*
X74025157Y-71982050D01*
X74025158Y-71982055D01*
X74063284Y-72099392D01*
X74083747Y-72162372D01*
X74154883Y-72301983D01*
X74169819Y-72331296D01*
X74281259Y-72484679D01*
X74415321Y-72618741D01*
X74568704Y-72730181D01*
X74648515Y-72770846D01*
X74737627Y-72816252D01*
X74737629Y-72816252D01*
X74737632Y-72816254D01*
X74847860Y-72852069D01*
X74905534Y-72891507D01*
X74932732Y-72955866D01*
X74920817Y-73024712D01*
X74873573Y-73076188D01*
X74847861Y-73087929D01*
X74805838Y-73101583D01*
X74737627Y-73123747D01*
X74568703Y-73209819D01*
X74415319Y-73321260D01*
X74281260Y-73455319D01*
X74169819Y-73608703D01*
X74083747Y-73777627D01*
X74049263Y-73883757D01*
X74040905Y-73909483D01*
X74025157Y-73957949D01*
X73995500Y-74145199D01*
X73995500Y-74334800D01*
X74025157Y-74522050D01*
X74025158Y-74522055D01*
X74062014Y-74635484D01*
X74083747Y-74702372D01*
X74169819Y-74871296D01*
X74281259Y-75024679D01*
X74415321Y-75158741D01*
X74568704Y-75270181D01*
X74648515Y-75310846D01*
X74737627Y-75356252D01*
X74737629Y-75356252D01*
X74737632Y-75356254D01*
X74847860Y-75392069D01*
X74905534Y-75431507D01*
X74932732Y-75495866D01*
X74920817Y-75564712D01*
X74873573Y-75616188D01*
X74847861Y-75627929D01*
X74805838Y-75641583D01*
X74737627Y-75663747D01*
X74568703Y-75749819D01*
X74415319Y-75861260D01*
X74281260Y-75995319D01*
X74169819Y-76148703D01*
X74083747Y-76317627D01*
X74025157Y-76497949D01*
X73995500Y-76685199D01*
X73995500Y-76874800D01*
X74025157Y-77062050D01*
X74025158Y-77062055D01*
X74063703Y-77180683D01*
X74083747Y-77242372D01*
X74163416Y-77398729D01*
X74169819Y-77411296D01*
X74281259Y-77564679D01*
X74415321Y-77698741D01*
X74568704Y-77810181D01*
X74621695Y-77837181D01*
X74737627Y-77896252D01*
X74737629Y-77896252D01*
X74737632Y-77896254D01*
X74847860Y-77932069D01*
X74905534Y-77971507D01*
X74932732Y-78035866D01*
X74920817Y-78104712D01*
X74873573Y-78156188D01*
X74847861Y-78167929D01*
X74818377Y-78177510D01*
X74737627Y-78203747D01*
X74568703Y-78289819D01*
X74415319Y-78401260D01*
X74281260Y-78535319D01*
X74169819Y-78688703D01*
X74083747Y-78857627D01*
X74025157Y-79037949D01*
X73995500Y-79225199D01*
X73995500Y-79414800D01*
X74025157Y-79602050D01*
X74025158Y-79602055D01*
X74062014Y-79715485D01*
X74083747Y-79782372D01*
X74169819Y-79951296D01*
X74281259Y-80104679D01*
X74415321Y-80238741D01*
X74568704Y-80350181D01*
X74648515Y-80390846D01*
X74737627Y-80436252D01*
X74737629Y-80436252D01*
X74737632Y-80436254D01*
X74847860Y-80472069D01*
X74905534Y-80511507D01*
X74932732Y-80575866D01*
X74920817Y-80644712D01*
X74873573Y-80696188D01*
X74847861Y-80707929D01*
X74805838Y-80721583D01*
X74737627Y-80743747D01*
X74568703Y-80829819D01*
X74415319Y-80941260D01*
X74281260Y-81075319D01*
X74169819Y-81228703D01*
X74083747Y-81397627D01*
X74025157Y-81577949D01*
X73995500Y-81765199D01*
X73995500Y-81954800D01*
X74025157Y-82142050D01*
X74025158Y-82142055D01*
X74062014Y-82255484D01*
X74083747Y-82322372D01*
X74169819Y-82491296D01*
X74281259Y-82644679D01*
X74415321Y-82778741D01*
X74568704Y-82890181D01*
X74648515Y-82930846D01*
X74737627Y-82976252D01*
X74737629Y-82976252D01*
X74737632Y-82976254D01*
X74847860Y-83012069D01*
X74905534Y-83051507D01*
X74932732Y-83115866D01*
X74920817Y-83184712D01*
X74873573Y-83236188D01*
X74847861Y-83247929D01*
X74805838Y-83261583D01*
X74737627Y-83283747D01*
X74568703Y-83369819D01*
X74415319Y-83481260D01*
X74281260Y-83615319D01*
X74169819Y-83768703D01*
X74083747Y-83937627D01*
X74025157Y-84117949D01*
X73995500Y-84305199D01*
X73995500Y-84494800D01*
X74025157Y-84682050D01*
X74025158Y-84682055D01*
X74064750Y-84803905D01*
X74083747Y-84862372D01*
X74169819Y-85031296D01*
X74281259Y-85184679D01*
X74415321Y-85318741D01*
X74568704Y-85430181D01*
X74618517Y-85455562D01*
X74737627Y-85516252D01*
X74737629Y-85516252D01*
X74737632Y-85516254D01*
X74847860Y-85552069D01*
X74905534Y-85591507D01*
X74932732Y-85655866D01*
X74920817Y-85724712D01*
X74873573Y-85776188D01*
X74847861Y-85787929D01*
X74805838Y-85801583D01*
X74737627Y-85823747D01*
X74568703Y-85909819D01*
X74415319Y-86021260D01*
X74281260Y-86155319D01*
X74169819Y-86308703D01*
X74083747Y-86477627D01*
X74025157Y-86657949D01*
X73995500Y-86845199D01*
X73995500Y-87034800D01*
X74024437Y-87217501D01*
X74025158Y-87222055D01*
X74064750Y-87343905D01*
X74083747Y-87402372D01*
X74169819Y-87571296D01*
X74281259Y-87724679D01*
X74415321Y-87858741D01*
X74568704Y-87970181D01*
X74648515Y-88010846D01*
X74737627Y-88056252D01*
X74737629Y-88056252D01*
X74737632Y-88056254D01*
X74847860Y-88092069D01*
X74905534Y-88131507D01*
X74932732Y-88195866D01*
X74920817Y-88264712D01*
X74873573Y-88316188D01*
X74847861Y-88327929D01*
X74805838Y-88341583D01*
X74737627Y-88363747D01*
X74568703Y-88449819D01*
X74415319Y-88561260D01*
X74281260Y-88695319D01*
X74169819Y-88848703D01*
X74083747Y-89017627D01*
X74025157Y-89197949D01*
X73995500Y-89385199D01*
X73995500Y-89574800D01*
X74022061Y-89742500D01*
X74025158Y-89762055D01*
X74064750Y-89883905D01*
X74083747Y-89942372D01*
X74169819Y-90111296D01*
X74281259Y-90264679D01*
X74415321Y-90398741D01*
X74568704Y-90510181D01*
X74648515Y-90550846D01*
X74737627Y-90596252D01*
X74737629Y-90596252D01*
X74737632Y-90596254D01*
X74847860Y-90632069D01*
X74905534Y-90671507D01*
X74932732Y-90735866D01*
X74920817Y-90804712D01*
X74873573Y-90856188D01*
X74847861Y-90867929D01*
X74805838Y-90881583D01*
X74737627Y-90903747D01*
X74568703Y-90989819D01*
X74415319Y-91101260D01*
X74281260Y-91235319D01*
X74169819Y-91388703D01*
X74083747Y-91557627D01*
X74025157Y-91737949D01*
X73995500Y-91925199D01*
X73995500Y-92114800D01*
X74024859Y-92300167D01*
X74025158Y-92302055D01*
X74050121Y-92378881D01*
X74083747Y-92482372D01*
X74169819Y-92651296D01*
X74281259Y-92804679D01*
X74415321Y-92938741D01*
X74568704Y-93050181D01*
X74648515Y-93090846D01*
X74737627Y-93136252D01*
X74737629Y-93136252D01*
X74737632Y-93136254D01*
X74847860Y-93172069D01*
X74905534Y-93211507D01*
X74932732Y-93275866D01*
X74920817Y-93344712D01*
X74873573Y-93396188D01*
X74847861Y-93407929D01*
X74811609Y-93419709D01*
X74737627Y-93443747D01*
X74568703Y-93529819D01*
X74415319Y-93641260D01*
X74281260Y-93775319D01*
X74169819Y-93928703D01*
X74083747Y-94097627D01*
X74025157Y-94277949D01*
X73995500Y-94465199D01*
X73995500Y-94654800D01*
X74020646Y-94813566D01*
X74025158Y-94842055D01*
X74064750Y-94963905D01*
X74083747Y-95022372D01*
X74169819Y-95191296D01*
X74281259Y-95344679D01*
X74415321Y-95478741D01*
X74568704Y-95590181D01*
X74648515Y-95630846D01*
X74737627Y-95676252D01*
X74737629Y-95676252D01*
X74737632Y-95676254D01*
X74847860Y-95712069D01*
X74905534Y-95751507D01*
X74932732Y-95815866D01*
X74920817Y-95884712D01*
X74873573Y-95936188D01*
X74847861Y-95947929D01*
X74805838Y-95961583D01*
X74737627Y-95983747D01*
X74568703Y-96069819D01*
X74415319Y-96181260D01*
X74281260Y-96315319D01*
X74169819Y-96468703D01*
X74083747Y-96637627D01*
X74025157Y-96817949D01*
X73995500Y-97005199D01*
X73995500Y-97194800D01*
X74018314Y-97338842D01*
X74025158Y-97382055D01*
X74050121Y-97458881D01*
X74083747Y-97562372D01*
X74126110Y-97645513D01*
X74169819Y-97731296D01*
X74281259Y-97884679D01*
X74415321Y-98018741D01*
X74568704Y-98130181D01*
X74612170Y-98152328D01*
X74737627Y-98216252D01*
X74737629Y-98216252D01*
X74737632Y-98216254D01*
X74917945Y-98274842D01*
X75011574Y-98289671D01*
X75105200Y-98304500D01*
X75105204Y-98304500D01*
X75294800Y-98304500D01*
X75378022Y-98291318D01*
X75482055Y-98274842D01*
X75662368Y-98216254D01*
X75831296Y-98130181D01*
X75984679Y-98018741D01*
X76118741Y-97884679D01*
X76230181Y-97731296D01*
X76316254Y-97562368D01*
X76374842Y-97382055D01*
X76400810Y-97218097D01*
X76404500Y-97194800D01*
X76404500Y-97005199D01*
X76385200Y-96883343D01*
X76374842Y-96817945D01*
X76316254Y-96637632D01*
X76316252Y-96637629D01*
X76316252Y-96637627D01*
X76230180Y-96468703D01*
X76170407Y-96386433D01*
X76118741Y-96315321D01*
X75984679Y-96181259D01*
X75831296Y-96069819D01*
X75662368Y-95983746D01*
X75552139Y-95947930D01*
X75494465Y-95908493D01*
X75467267Y-95844135D01*
X75479182Y-95775288D01*
X75526426Y-95723813D01*
X75552138Y-95712070D01*
X75662368Y-95676254D01*
X75831296Y-95590181D01*
X75984679Y-95478741D01*
X76118741Y-95344679D01*
X76230181Y-95191296D01*
X76316254Y-95022368D01*
X76374842Y-94842055D01*
X76397674Y-94697895D01*
X76404500Y-94654800D01*
X76404500Y-94465199D01*
X76380292Y-94312358D01*
X76374842Y-94277945D01*
X76316254Y-94097632D01*
X76316252Y-94097629D01*
X76316252Y-94097627D01*
X76247552Y-93962797D01*
X76230181Y-93928704D01*
X76118741Y-93775321D01*
X75984679Y-93641259D01*
X75831296Y-93529819D01*
X75752931Y-93489890D01*
X75662370Y-93443747D01*
X75662369Y-93443746D01*
X75662368Y-93443746D01*
X75552139Y-93407930D01*
X75494465Y-93368493D01*
X75467267Y-93304135D01*
X75479182Y-93235288D01*
X75526426Y-93183813D01*
X75552138Y-93172070D01*
X75662368Y-93136254D01*
X75831296Y-93050181D01*
X75984679Y-92938741D01*
X76118741Y-92804679D01*
X76230181Y-92651296D01*
X76316254Y-92482368D01*
X76374842Y-92302055D01*
X76391318Y-92198022D01*
X76404500Y-92114800D01*
X76404500Y-91925199D01*
X76375850Y-91744310D01*
X76374842Y-91737945D01*
X76316254Y-91557632D01*
X76316252Y-91557629D01*
X76316252Y-91557627D01*
X76242849Y-91413567D01*
X76230181Y-91388704D01*
X76118741Y-91235321D01*
X75984679Y-91101259D01*
X75831296Y-90989819D01*
X75662368Y-90903746D01*
X75552139Y-90867930D01*
X75494465Y-90828493D01*
X75467267Y-90764135D01*
X75479182Y-90695288D01*
X75526426Y-90643813D01*
X75552138Y-90632070D01*
X75662368Y-90596254D01*
X75831296Y-90510181D01*
X75984679Y-90398741D01*
X76118741Y-90264679D01*
X76230181Y-90111296D01*
X76316254Y-89942368D01*
X76374842Y-89762055D01*
X76393794Y-89642391D01*
X76404500Y-89574800D01*
X76404500Y-89385199D01*
X76388023Y-89281171D01*
X76374842Y-89197945D01*
X76316254Y-89017632D01*
X76316252Y-89017629D01*
X76316252Y-89017627D01*
X76267316Y-88921585D01*
X76230181Y-88848704D01*
X76118741Y-88695321D01*
X75984679Y-88561259D01*
X75831296Y-88449819D01*
X75662368Y-88363746D01*
X75552139Y-88327930D01*
X75494465Y-88288493D01*
X75467267Y-88224135D01*
X75479182Y-88155288D01*
X75526426Y-88103813D01*
X75552138Y-88092070D01*
X75662368Y-88056254D01*
X75831296Y-87970181D01*
X75984679Y-87858741D01*
X76118741Y-87724679D01*
X76230181Y-87571296D01*
X76316254Y-87402368D01*
X76374842Y-87222055D01*
X76394725Y-87096517D01*
X76404500Y-87034800D01*
X76404500Y-86845199D01*
X76388023Y-86741171D01*
X76374842Y-86657945D01*
X76316254Y-86477632D01*
X76316252Y-86477629D01*
X76316252Y-86477627D01*
X76249440Y-86346502D01*
X76230181Y-86308704D01*
X76118741Y-86155321D01*
X75984679Y-86021259D01*
X75831296Y-85909819D01*
X75662368Y-85823746D01*
X75552139Y-85787930D01*
X75494465Y-85748493D01*
X75467267Y-85684135D01*
X75479182Y-85615288D01*
X75526426Y-85563813D01*
X75552138Y-85552070D01*
X75662368Y-85516254D01*
X75831296Y-85430181D01*
X75984679Y-85318741D01*
X76118741Y-85184679D01*
X76230181Y-85031296D01*
X76316254Y-84862368D01*
X76374842Y-84682055D01*
X76400810Y-84518097D01*
X76404500Y-84494800D01*
X76404500Y-84305199D01*
X76385689Y-84186433D01*
X76374842Y-84117945D01*
X76316254Y-83937632D01*
X76316252Y-83937629D01*
X76316252Y-83937627D01*
X76230180Y-83768703D01*
X76118741Y-83615321D01*
X75984679Y-83481259D01*
X75831296Y-83369819D01*
X75662368Y-83283746D01*
X75552139Y-83247930D01*
X75494465Y-83208493D01*
X75467267Y-83144135D01*
X75479182Y-83075288D01*
X75526426Y-83023813D01*
X75552138Y-83012070D01*
X75662368Y-82976254D01*
X75831296Y-82890181D01*
X75984679Y-82778741D01*
X76118741Y-82644679D01*
X76230181Y-82491296D01*
X76316254Y-82322368D01*
X76374842Y-82142055D01*
X76396626Y-82004515D01*
X76404500Y-81954800D01*
X76404500Y-81765199D01*
X76385689Y-81646433D01*
X76374842Y-81577945D01*
X76316254Y-81397632D01*
X76316252Y-81397629D01*
X76316252Y-81397627D01*
X76230180Y-81228703D01*
X76225666Y-81222490D01*
X76118741Y-81075321D01*
X75984679Y-80941259D01*
X75831296Y-80829819D01*
X75662368Y-80743746D01*
X75552139Y-80707930D01*
X75494465Y-80668493D01*
X75467267Y-80604135D01*
X75479182Y-80535288D01*
X75526426Y-80483813D01*
X75552138Y-80472070D01*
X75662368Y-80436254D01*
X75831296Y-80350181D01*
X75984679Y-80238741D01*
X76118741Y-80104679D01*
X76230181Y-79951296D01*
X76316254Y-79782368D01*
X76374842Y-79602055D01*
X76394250Y-79479515D01*
X76404500Y-79414800D01*
X76404500Y-79225199D01*
X76374854Y-79038023D01*
X76374842Y-79037945D01*
X76316254Y-78857632D01*
X76316252Y-78857629D01*
X76316252Y-78857627D01*
X76230180Y-78688703D01*
X76118741Y-78535321D01*
X75984679Y-78401259D01*
X75831296Y-78289819D01*
X75662368Y-78203746D01*
X75552139Y-78167930D01*
X75494465Y-78128493D01*
X75467267Y-78064135D01*
X75479182Y-77995288D01*
X75526426Y-77943813D01*
X75552138Y-77932070D01*
X75662368Y-77896254D01*
X75831296Y-77810181D01*
X75984679Y-77698741D01*
X76118741Y-77564679D01*
X76230181Y-77411296D01*
X76316254Y-77242368D01*
X76374842Y-77062055D01*
X76396626Y-76924514D01*
X76404500Y-76874800D01*
X76404500Y-76685199D01*
X76374854Y-76498023D01*
X76374842Y-76497945D01*
X76316254Y-76317632D01*
X76316252Y-76317629D01*
X76316252Y-76317627D01*
X76255562Y-76198517D01*
X76230181Y-76148704D01*
X76118741Y-75995321D01*
X75984679Y-75861259D01*
X75831296Y-75749819D01*
X75662368Y-75663746D01*
X75552139Y-75627930D01*
X75494465Y-75588493D01*
X75467267Y-75524135D01*
X75479182Y-75455288D01*
X75526426Y-75403813D01*
X75552138Y-75392070D01*
X75662368Y-75356254D01*
X75831296Y-75270181D01*
X75984679Y-75158741D01*
X76118741Y-75024679D01*
X76230181Y-74871296D01*
X76316254Y-74702368D01*
X76374842Y-74522055D01*
X76397735Y-74377510D01*
X76404500Y-74334800D01*
X76404500Y-74145199D01*
X76381582Y-74000500D01*
X76374842Y-73957945D01*
X76316254Y-73777632D01*
X76316252Y-73777629D01*
X76316252Y-73777627D01*
X76258066Y-73663432D01*
X76230181Y-73608704D01*
X76118741Y-73455321D01*
X75984679Y-73321259D01*
X75831296Y-73209819D01*
X75662368Y-73123746D01*
X75552139Y-73087930D01*
X75494465Y-73048493D01*
X75467267Y-72984135D01*
X75479182Y-72915288D01*
X75526426Y-72863813D01*
X75552138Y-72852070D01*
X75662368Y-72816254D01*
X75831296Y-72730181D01*
X75984679Y-72618741D01*
X76118741Y-72484679D01*
X76230181Y-72331296D01*
X76316254Y-72162368D01*
X76374842Y-71982055D01*
X76394317Y-71859090D01*
X76404500Y-71794800D01*
X76404500Y-71605199D01*
X76388023Y-71501171D01*
X76374842Y-71417945D01*
X76316254Y-71237632D01*
X76316252Y-71237629D01*
X76316252Y-71237627D01*
X76265299Y-71137628D01*
X76230181Y-71068704D01*
X76118741Y-70915321D01*
X75984679Y-70781259D01*
X75831296Y-70669819D01*
X75662368Y-70583746D01*
X75552139Y-70547930D01*
X75494465Y-70508493D01*
X75467267Y-70444135D01*
X75479182Y-70375288D01*
X75526426Y-70323813D01*
X75552138Y-70312070D01*
X75662368Y-70276254D01*
X75831296Y-70190181D01*
X75984679Y-70078741D01*
X76118741Y-69944679D01*
X76230181Y-69791296D01*
X76316254Y-69622368D01*
X76374842Y-69442055D01*
X76403612Y-69260405D01*
X76404500Y-69254800D01*
X76404500Y-69065199D01*
X76385099Y-68942708D01*
X76374842Y-68877945D01*
X76316254Y-68697632D01*
X76316252Y-68697629D01*
X76316252Y-68697627D01*
X76249025Y-68565688D01*
X76230181Y-68528704D01*
X76118741Y-68375321D01*
X75984679Y-68241259D01*
X75831296Y-68129819D01*
X75662368Y-68043746D01*
X75552139Y-68007930D01*
X75494465Y-67968493D01*
X75467267Y-67904135D01*
X75479182Y-67835288D01*
X75526426Y-67783813D01*
X75552138Y-67772070D01*
X75662368Y-67736254D01*
X75831296Y-67650181D01*
X75984679Y-67538741D01*
X76118741Y-67404679D01*
X76230181Y-67251296D01*
X76316254Y-67082368D01*
X76374842Y-66902055D01*
X76391318Y-66798022D01*
X76404500Y-66714800D01*
X76404500Y-66525199D01*
X76386344Y-66410566D01*
X76374842Y-66337945D01*
X76316254Y-66157632D01*
X76316252Y-66157629D01*
X76316252Y-66157627D01*
X76246905Y-66021527D01*
X76230181Y-65988704D01*
X76118741Y-65835321D01*
X75984679Y-65701259D01*
X75831296Y-65589819D01*
X75662368Y-65503746D01*
X75552139Y-65467930D01*
X75494465Y-65428493D01*
X75467267Y-65364135D01*
X75479182Y-65295288D01*
X75526426Y-65243813D01*
X75552138Y-65232070D01*
X75662368Y-65196254D01*
X75831296Y-65110181D01*
X75984679Y-64998741D01*
X76118741Y-64864679D01*
X76230181Y-64711296D01*
X76316254Y-64542368D01*
X76374842Y-64362055D01*
X76398905Y-64210123D01*
X76404500Y-64174800D01*
X76404500Y-63985199D01*
X76377417Y-63814204D01*
X76374842Y-63797945D01*
X76316254Y-63617632D01*
X76316252Y-63617629D01*
X76316252Y-63617627D01*
X76266253Y-63519500D01*
X76230181Y-63448704D01*
X76118741Y-63295321D01*
X75984679Y-63161259D01*
X75831296Y-63049819D01*
X75662368Y-62963746D01*
X75552139Y-62927930D01*
X75494465Y-62888493D01*
X75467267Y-62824135D01*
X75479182Y-62755288D01*
X75526426Y-62703813D01*
X75552138Y-62692070D01*
X75662368Y-62656254D01*
X75831296Y-62570181D01*
X75984679Y-62458741D01*
X76118741Y-62324679D01*
X76230181Y-62171296D01*
X76316254Y-62002368D01*
X76374842Y-61822055D01*
X76391318Y-61718022D01*
X76404500Y-61634800D01*
X76404500Y-61445199D01*
X76384208Y-61317081D01*
X76374842Y-61257945D01*
X76316254Y-61077632D01*
X76316252Y-61077629D01*
X76316252Y-61077627D01*
X76267316Y-60981585D01*
X76230181Y-60908704D01*
X76118741Y-60755321D01*
X75984679Y-60621259D01*
X75831296Y-60509819D01*
X75662368Y-60423746D01*
X75552139Y-60387930D01*
X75494465Y-60348493D01*
X75467267Y-60284135D01*
X75479182Y-60215288D01*
X75526426Y-60163813D01*
X75552138Y-60152070D01*
X75662368Y-60116254D01*
X75831296Y-60030181D01*
X75984679Y-59918741D01*
X76118741Y-59784679D01*
X76230181Y-59631296D01*
X76316254Y-59462368D01*
X76374842Y-59282055D01*
X76395192Y-59153566D01*
X76404500Y-59094800D01*
X76404500Y-58905199D01*
X76383137Y-58770318D01*
X76374842Y-58717945D01*
X76316254Y-58537632D01*
X76316252Y-58537629D01*
X76316252Y-58537627D01*
X76267316Y-58441585D01*
X76230181Y-58368704D01*
X76118741Y-58215321D01*
X75984679Y-58081259D01*
X75831296Y-57969819D01*
X75662368Y-57883746D01*
X75552139Y-57847930D01*
X75494465Y-57808493D01*
X75467267Y-57744135D01*
X75479182Y-57675288D01*
X75526426Y-57623813D01*
X75552138Y-57612070D01*
X75662368Y-57576254D01*
X75831296Y-57490181D01*
X75984679Y-57378741D01*
X76118741Y-57244679D01*
X76230181Y-57091296D01*
X76316254Y-56922368D01*
X76374842Y-56742055D01*
X76395192Y-56613566D01*
X76404500Y-56554800D01*
X76404500Y-56365199D01*
X76383137Y-56230318D01*
X76374842Y-56177945D01*
X76316254Y-55997632D01*
X76316252Y-55997629D01*
X76316252Y-55997627D01*
X76252722Y-55872944D01*
X76230181Y-55828704D01*
X76118741Y-55675321D01*
X75984679Y-55541259D01*
X75831296Y-55429819D01*
X75662368Y-55343746D01*
X75552139Y-55307930D01*
X75494465Y-55268493D01*
X75467267Y-55204135D01*
X75479182Y-55135288D01*
X75526426Y-55083813D01*
X75552138Y-55072070D01*
X75662368Y-55036254D01*
X75831296Y-54950181D01*
X75984679Y-54838741D01*
X76118741Y-54704679D01*
X76230181Y-54551296D01*
X76316254Y-54382368D01*
X76374842Y-54202055D01*
X76395192Y-54073566D01*
X76404500Y-54014800D01*
X76404500Y-53825199D01*
X76384747Y-53700485D01*
X76374842Y-53637945D01*
X76316254Y-53457632D01*
X76316252Y-53457629D01*
X76316252Y-53457627D01*
X76264809Y-53356666D01*
X76230181Y-53288704D01*
X76118741Y-53135321D01*
X75984679Y-53001259D01*
X75831296Y-52889819D01*
X75662368Y-52803746D01*
X75552139Y-52767930D01*
X75494465Y-52728493D01*
X75467267Y-52664135D01*
X75479182Y-52595288D01*
X75526426Y-52543813D01*
X75552138Y-52532070D01*
X75662368Y-52496254D01*
X75831296Y-52410181D01*
X75984679Y-52298741D01*
X76118741Y-52164679D01*
X76230181Y-52011296D01*
X76316254Y-51842368D01*
X76374842Y-51662055D01*
X76398359Y-51513570D01*
X76404500Y-51474800D01*
X76404500Y-51285199D01*
X76384747Y-51160485D01*
X76374842Y-51097945D01*
X76316254Y-50917632D01*
X76316252Y-50917629D01*
X76316252Y-50917627D01*
X76250555Y-50788691D01*
X76230181Y-50748704D01*
X76118741Y-50595321D01*
X75984679Y-50461259D01*
X75831296Y-50349819D01*
X75662372Y-50263747D01*
X75603905Y-50244750D01*
X75482055Y-50205158D01*
X75482051Y-50205157D01*
X75482050Y-50205157D01*
X75294800Y-50175500D01*
X75294796Y-50175500D01*
X75105204Y-50175500D01*
X75105200Y-50175500D01*
X74917949Y-50205157D01*
X74917946Y-50205157D01*
X74917945Y-50205158D01*
X74859482Y-50224153D01*
X74737627Y-50263747D01*
X74568703Y-50349819D01*
X74415319Y-50461260D01*
X74281260Y-50595319D01*
X74169819Y-50748703D01*
X74083747Y-50917627D01*
X74025157Y-51097949D01*
X73995500Y-51285199D01*
X61236828Y-51285199D01*
X61329376Y-51192651D01*
X63705007Y-48817021D01*
X67785209Y-44736819D01*
X67846532Y-44703334D01*
X67872890Y-44700500D01*
X84727111Y-44700500D01*
X84794150Y-44720185D01*
X84814792Y-44736819D01*
X86863181Y-46785208D01*
X86896666Y-46846531D01*
X86899500Y-46872889D01*
X86899500Y-72727111D01*
X86879815Y-72794150D01*
X86863181Y-72814792D01*
X86160792Y-73517181D01*
X86099469Y-73550666D01*
X86073111Y-73553500D01*
X85341403Y-73553500D01*
X85108131Y-73590446D01*
X84883503Y-73663433D01*
X84673063Y-73770659D01*
X84622385Y-73807479D01*
X84556579Y-73830959D01*
X84488525Y-73815134D01*
X84439830Y-73765028D01*
X84425500Y-73707161D01*
X84425500Y-70938394D01*
X84420910Y-70915319D01*
X84417124Y-70896286D01*
X84401463Y-70817548D01*
X84354311Y-70703714D01*
X84354309Y-70703711D01*
X84328986Y-70665811D01*
X84328981Y-70665805D01*
X84324768Y-70659500D01*
X84285858Y-70601267D01*
X84198733Y-70514142D01*
X84198732Y-70514141D01*
X82412927Y-68728337D01*
X82412925Y-68728334D01*
X82412925Y-68728335D01*
X82405858Y-68721268D01*
X82405858Y-68721267D01*
X82318733Y-68634142D01*
X82318732Y-68634141D01*
X82318731Y-68634140D01*
X82273552Y-68603952D01*
X82273546Y-68603949D01*
X82267509Y-68599915D01*
X82216286Y-68565688D01*
X82126997Y-68528704D01*
X82122450Y-68526820D01*
X82122447Y-68526819D01*
X82102453Y-68518537D01*
X82092427Y-68516543D01*
X82042029Y-68506518D01*
X81981610Y-68494500D01*
X81981607Y-68494500D01*
X81981606Y-68494500D01*
X81442557Y-68494500D01*
X81407003Y-68489294D01*
X81084284Y-68392708D01*
X80386907Y-68183991D01*
X79566692Y-67938510D01*
X79508112Y-67900430D01*
X79479418Y-67836724D01*
X79489721Y-67767618D01*
X79529359Y-67719398D01*
X79679792Y-67610104D01*
X79830104Y-67459792D01*
X79830106Y-67459788D01*
X79830109Y-67459786D01*
X79955048Y-67287820D01*
X79955047Y-67287820D01*
X79955051Y-67287816D01*
X80051557Y-67098412D01*
X80117246Y-66896243D01*
X80150500Y-66686287D01*
X80150500Y-66473713D01*
X80117246Y-66263757D01*
X80051557Y-66061588D01*
X79955051Y-65872184D01*
X79955049Y-65872181D01*
X79955048Y-65872179D01*
X79830109Y-65700213D01*
X79679786Y-65549890D01*
X79507820Y-65424951D01*
X79507115Y-65424591D01*
X79499054Y-65420485D01*
X79448259Y-65372512D01*
X79431463Y-65304692D01*
X79453999Y-65238556D01*
X79499054Y-65199515D01*
X79507816Y-65195051D01*
X79586214Y-65138092D01*
X79679786Y-65070109D01*
X79679788Y-65070106D01*
X79679792Y-65070104D01*
X79830104Y-64919792D01*
X79830106Y-64919788D01*
X79830109Y-64919786D01*
X79955048Y-64747820D01*
X79955047Y-64747820D01*
X79955051Y-64747816D01*
X80051557Y-64558412D01*
X80117246Y-64356243D01*
X80150500Y-64146287D01*
X80150500Y-63933713D01*
X80117246Y-63723757D01*
X80051557Y-63521588D01*
X79955051Y-63332184D01*
X79955049Y-63332181D01*
X79955048Y-63332179D01*
X79830109Y-63160213D01*
X79679786Y-63009890D01*
X79507820Y-62884951D01*
X79507115Y-62884591D01*
X79499054Y-62880485D01*
X79448259Y-62832512D01*
X79431463Y-62764692D01*
X79453999Y-62698556D01*
X79499054Y-62659515D01*
X79507816Y-62655051D01*
X79529789Y-62639086D01*
X79679786Y-62530109D01*
X79679788Y-62530106D01*
X79679792Y-62530104D01*
X79830104Y-62379792D01*
X79830106Y-62379788D01*
X79830109Y-62379786D01*
X79955048Y-62207820D01*
X79955047Y-62207820D01*
X79955051Y-62207816D01*
X80051557Y-62018412D01*
X80117246Y-61816243D01*
X80150500Y-61606287D01*
X80150500Y-61393713D01*
X80117246Y-61183757D01*
X80051557Y-60981588D01*
X79955051Y-60792184D01*
X79955049Y-60792181D01*
X79955048Y-60792179D01*
X79830109Y-60620213D01*
X79679786Y-60469890D01*
X79507820Y-60344951D01*
X79507115Y-60344591D01*
X79499054Y-60340485D01*
X79448259Y-60292512D01*
X79431463Y-60224692D01*
X79453999Y-60158556D01*
X79499054Y-60119515D01*
X79507816Y-60115051D01*
X79586214Y-60058092D01*
X79679786Y-59990109D01*
X79679788Y-59990106D01*
X79679792Y-59990104D01*
X79830104Y-59839792D01*
X79830106Y-59839788D01*
X79830109Y-59839786D01*
X79955048Y-59667820D01*
X79955047Y-59667820D01*
X79955051Y-59667816D01*
X80051557Y-59478412D01*
X80117246Y-59276243D01*
X80150500Y-59066287D01*
X80150500Y-58853713D01*
X80117246Y-58643757D01*
X80051557Y-58441588D01*
X79955051Y-58252184D01*
X79955049Y-58252181D01*
X79955048Y-58252179D01*
X79830109Y-58080213D01*
X79679786Y-57929890D01*
X79507820Y-57804951D01*
X79507115Y-57804591D01*
X79499054Y-57800485D01*
X79448259Y-57752512D01*
X79431463Y-57684692D01*
X79453999Y-57618556D01*
X79499054Y-57579515D01*
X79507816Y-57575051D01*
X79586214Y-57518092D01*
X79679786Y-57450109D01*
X79679788Y-57450106D01*
X79679792Y-57450104D01*
X79830104Y-57299792D01*
X79830106Y-57299788D01*
X79830109Y-57299786D01*
X79955048Y-57127820D01*
X79955047Y-57127820D01*
X79955051Y-57127816D01*
X80051557Y-56938412D01*
X80117246Y-56736243D01*
X80150500Y-56526287D01*
X80150500Y-56313713D01*
X80117246Y-56103757D01*
X80051557Y-55901588D01*
X79955051Y-55712184D01*
X79955049Y-55712181D01*
X79955048Y-55712179D01*
X79830109Y-55540213D01*
X79679786Y-55389890D01*
X79507820Y-55264951D01*
X79507115Y-55264591D01*
X79499054Y-55260485D01*
X79448259Y-55212512D01*
X79431463Y-55144692D01*
X79453999Y-55078556D01*
X79499054Y-55039515D01*
X79507816Y-55035051D01*
X79586214Y-54978092D01*
X79679786Y-54910109D01*
X79679788Y-54910106D01*
X79679792Y-54910104D01*
X79830104Y-54759792D01*
X79830106Y-54759788D01*
X79830109Y-54759786D01*
X79955048Y-54587820D01*
X79955047Y-54587820D01*
X79955051Y-54587816D01*
X80051557Y-54398412D01*
X80117246Y-54196243D01*
X80150500Y-53986287D01*
X80150500Y-53773713D01*
X80117246Y-53563757D01*
X80051557Y-53361588D01*
X79955051Y-53172184D01*
X79955049Y-53172181D01*
X79955048Y-53172179D01*
X79830109Y-53000213D01*
X79679786Y-52849890D01*
X79507820Y-52724951D01*
X79507115Y-52724591D01*
X79499054Y-52720485D01*
X79448259Y-52672512D01*
X79431463Y-52604692D01*
X79453999Y-52538556D01*
X79499054Y-52499515D01*
X79507816Y-52495051D01*
X79594471Y-52432093D01*
X79679786Y-52370109D01*
X79679788Y-52370106D01*
X79679792Y-52370104D01*
X79830104Y-52219792D01*
X79830106Y-52219788D01*
X79830109Y-52219786D01*
X79955048Y-52047820D01*
X79955047Y-52047820D01*
X79955051Y-52047816D01*
X80051557Y-51858412D01*
X80117246Y-51656243D01*
X80150500Y-51446287D01*
X80150500Y-51233713D01*
X80117246Y-51023757D01*
X80051557Y-50821588D01*
X79955051Y-50632184D01*
X79955049Y-50632181D01*
X79955048Y-50632179D01*
X79830109Y-50460213D01*
X79679786Y-50309890D01*
X79507820Y-50184951D01*
X79318414Y-50088444D01*
X79318413Y-50088443D01*
X79318412Y-50088443D01*
X79116243Y-50022754D01*
X79116241Y-50022753D01*
X79116240Y-50022753D01*
X78954957Y-49997208D01*
X78906287Y-49989500D01*
X78693713Y-49989500D01*
X78645042Y-49997208D01*
X78483760Y-50022753D01*
X78281585Y-50088444D01*
X78092179Y-50184951D01*
X77920213Y-50309890D01*
X77769890Y-50460213D01*
X77644951Y-50632179D01*
X77548444Y-50821585D01*
X77482753Y-51023760D01*
X77459501Y-51170568D01*
X77449500Y-51233713D01*
X77449500Y-51446287D01*
X77454016Y-51474800D01*
X77475994Y-51613567D01*
X77482754Y-51656243D01*
X77543231Y-51842372D01*
X77548444Y-51858414D01*
X77644951Y-52047820D01*
X77769890Y-52219786D01*
X77920213Y-52370109D01*
X78092182Y-52495050D01*
X78100946Y-52499516D01*
X78151742Y-52547491D01*
X78168536Y-52615312D01*
X78145998Y-52681447D01*
X78100946Y-52720484D01*
X78092182Y-52724949D01*
X77920213Y-52849890D01*
X77769890Y-53000213D01*
X77644951Y-53172179D01*
X77548444Y-53361585D01*
X77482753Y-53563760D01*
X77458723Y-53715483D01*
X77449500Y-53773713D01*
X77449500Y-53986287D01*
X77454016Y-54014800D01*
X77474241Y-54142499D01*
X77482754Y-54196243D01*
X77543231Y-54382372D01*
X77548444Y-54398414D01*
X77644951Y-54587820D01*
X77769890Y-54759786D01*
X77920213Y-54910109D01*
X78092182Y-55035050D01*
X78100946Y-55039516D01*
X78151742Y-55087491D01*
X78168536Y-55155312D01*
X78145998Y-55221447D01*
X78100946Y-55260484D01*
X78092182Y-55264949D01*
X77920213Y-55389890D01*
X77769890Y-55540213D01*
X77644951Y-55712179D01*
X77548444Y-55901585D01*
X77482753Y-56103760D01*
X77449500Y-56313713D01*
X77449500Y-56526287D01*
X77482754Y-56736243D01*
X77543231Y-56922372D01*
X77548444Y-56938414D01*
X77644951Y-57127820D01*
X77769890Y-57299786D01*
X77920213Y-57450109D01*
X78092182Y-57575050D01*
X78100946Y-57579516D01*
X78151742Y-57627491D01*
X78168536Y-57695312D01*
X78145998Y-57761447D01*
X78100946Y-57800484D01*
X78092182Y-57804949D01*
X77920213Y-57929890D01*
X77769890Y-58080213D01*
X77644951Y-58252179D01*
X77548444Y-58441585D01*
X77482753Y-58643760D01*
X77454446Y-58822488D01*
X77449500Y-58853713D01*
X77449500Y-59066287D01*
X77454016Y-59094800D01*
X77474480Y-59224008D01*
X77482754Y-59276243D01*
X77543231Y-59462372D01*
X77548444Y-59478414D01*
X77644951Y-59667820D01*
X77769890Y-59839786D01*
X77920213Y-59990109D01*
X78092182Y-60115050D01*
X78100946Y-60119516D01*
X78151742Y-60167491D01*
X78168536Y-60235312D01*
X78145998Y-60301447D01*
X78100946Y-60340484D01*
X78092182Y-60344949D01*
X77920213Y-60469890D01*
X77769890Y-60620213D01*
X77644951Y-60792179D01*
X77548444Y-60981585D01*
X77482753Y-61183760D01*
X77459501Y-61330568D01*
X77449500Y-61393713D01*
X77449500Y-61606287D01*
X77454016Y-61634800D01*
X77477216Y-61781282D01*
X77482754Y-61816243D01*
X77544611Y-62006619D01*
X77548444Y-62018414D01*
X77644951Y-62207820D01*
X77769890Y-62379786D01*
X77920213Y-62530109D01*
X78092182Y-62655050D01*
X78100946Y-62659516D01*
X78151742Y-62707491D01*
X78168536Y-62775312D01*
X78145998Y-62841447D01*
X78100946Y-62880484D01*
X78092182Y-62884949D01*
X77920213Y-63009890D01*
X77769890Y-63160213D01*
X77644951Y-63332179D01*
X77548444Y-63521585D01*
X77482753Y-63723760D01*
X77461939Y-63855176D01*
X77449500Y-63933713D01*
X77449500Y-64146287D01*
X77482754Y-64356243D01*
X77543231Y-64542372D01*
X77548444Y-64558414D01*
X77644951Y-64747820D01*
X77769890Y-64919786D01*
X77920213Y-65070109D01*
X78092182Y-65195050D01*
X78100946Y-65199516D01*
X78151742Y-65247491D01*
X78168536Y-65315312D01*
X78145998Y-65381447D01*
X78100946Y-65420484D01*
X78092182Y-65424949D01*
X77920213Y-65549890D01*
X77769890Y-65700213D01*
X77644951Y-65872179D01*
X77548444Y-66061585D01*
X77482753Y-66263760D01*
X77459501Y-66410568D01*
X77449500Y-66473713D01*
X77449500Y-66686287D01*
X77482754Y-66896243D01*
X77543231Y-67082372D01*
X77548444Y-67098414D01*
X77644951Y-67287820D01*
X77769890Y-67459786D01*
X77920213Y-67610109D01*
X78092182Y-67735050D01*
X78100946Y-67739516D01*
X78151742Y-67787491D01*
X78168536Y-67855312D01*
X78145998Y-67921447D01*
X78100946Y-67960484D01*
X78092182Y-67964949D01*
X77920213Y-68089890D01*
X77769890Y-68240213D01*
X77644951Y-68412179D01*
X77548444Y-68601585D01*
X77482753Y-68803760D01*
X77449500Y-69013713D01*
X77449500Y-69226287D01*
X77454904Y-69260405D01*
X77480125Y-69419648D01*
X77482754Y-69436243D01*
X77543231Y-69622372D01*
X77548444Y-69638414D01*
X77644951Y-69827820D01*
X77769890Y-69999786D01*
X77920213Y-70150109D01*
X78092182Y-70275050D01*
X78100946Y-70279516D01*
X78151742Y-70327491D01*
X78168536Y-70395312D01*
X78145998Y-70461447D01*
X78100946Y-70500484D01*
X78092182Y-70504949D01*
X77920213Y-70629890D01*
X77769890Y-70780213D01*
X77644951Y-70952179D01*
X77548444Y-71141585D01*
X77482753Y-71343760D01*
X77471003Y-71417949D01*
X77449500Y-71553713D01*
X77449500Y-71766287D01*
X77454016Y-71794800D01*
X77475653Y-71931413D01*
X77482754Y-71976243D01*
X77543231Y-72162372D01*
X77548444Y-72178414D01*
X77644951Y-72367820D01*
X77769890Y-72539786D01*
X77920213Y-72690109D01*
X78092182Y-72815050D01*
X78100946Y-72819516D01*
X78151742Y-72867491D01*
X78168536Y-72935312D01*
X78145998Y-73001447D01*
X78100946Y-73040484D01*
X78092182Y-73044949D01*
X77920213Y-73169890D01*
X77769890Y-73320213D01*
X77644951Y-73492179D01*
X77548444Y-73681585D01*
X77482753Y-73883760D01*
X77460156Y-74026433D01*
X77449500Y-74093713D01*
X77449500Y-74306287D01*
X77454016Y-74334800D01*
X77475653Y-74471413D01*
X77482754Y-74516243D01*
X77543231Y-74702372D01*
X77548444Y-74718414D01*
X77644951Y-74907820D01*
X77769890Y-75079786D01*
X77769896Y-75079792D01*
X77920208Y-75230104D01*
X78092184Y-75355051D01*
X78100942Y-75359513D01*
X78151739Y-75407483D01*
X78168537Y-75475303D01*
X78146003Y-75541440D01*
X78100950Y-75580481D01*
X78092187Y-75584946D01*
X78092184Y-75584948D01*
X77920213Y-75709890D01*
X77769890Y-75860213D01*
X77644951Y-76032179D01*
X77548444Y-76221585D01*
X77482753Y-76423760D01*
X77471003Y-76497949D01*
X77449500Y-76633713D01*
X77449500Y-76846287D01*
X77454016Y-76874800D01*
X77475653Y-77011413D01*
X77482754Y-77056243D01*
X77543231Y-77242372D01*
X77548444Y-77258414D01*
X77644951Y-77447820D01*
X77769890Y-77619786D01*
X77769896Y-77619792D01*
X77920208Y-77770104D01*
X78092184Y-77895051D01*
X78100942Y-77899513D01*
X78151739Y-77947483D01*
X78168537Y-78015303D01*
X78146003Y-78081440D01*
X78100950Y-78120481D01*
X78092187Y-78124946D01*
X78092184Y-78124948D01*
X77920213Y-78249890D01*
X77769890Y-78400213D01*
X77644951Y-78572179D01*
X77548444Y-78761585D01*
X77482753Y-78963760D01*
X77454449Y-79142464D01*
X77449500Y-79173713D01*
X77449500Y-79386287D01*
X77454016Y-79414800D01*
X77480483Y-79581908D01*
X77482754Y-79596243D01*
X77543231Y-79782372D01*
X77548444Y-79798414D01*
X77644951Y-79987820D01*
X77769890Y-80159786D01*
X77920213Y-80310109D01*
X78092182Y-80435050D01*
X78100946Y-80439516D01*
X78151742Y-80487491D01*
X78168536Y-80555312D01*
X78145998Y-80621447D01*
X78100946Y-80660484D01*
X78092182Y-80664949D01*
X77920213Y-80789890D01*
X77769890Y-80940213D01*
X77644951Y-81112179D01*
X77548444Y-81301585D01*
X77482753Y-81503760D01*
X77460156Y-81646433D01*
X77449500Y-81713713D01*
X77449500Y-81926287D01*
X77454016Y-81954800D01*
X77475653Y-82091413D01*
X77482754Y-82136243D01*
X77543231Y-82322372D01*
X77548444Y-82338414D01*
X77644951Y-82527820D01*
X77769890Y-82699786D01*
X77920213Y-82850109D01*
X78092182Y-82975050D01*
X78100946Y-82979516D01*
X78151742Y-83027491D01*
X78168536Y-83095312D01*
X78145998Y-83161447D01*
X78100946Y-83200484D01*
X78092182Y-83204949D01*
X77920213Y-83329890D01*
X77769890Y-83480213D01*
X77644951Y-83652179D01*
X77548444Y-83841585D01*
X77482753Y-84043760D01*
X77471003Y-84117949D01*
X77449500Y-84253713D01*
X77449500Y-84466287D01*
X77454016Y-84494800D01*
X77475653Y-84631413D01*
X77482754Y-84676243D01*
X77543231Y-84862372D01*
X77548444Y-84878414D01*
X77644951Y-85067820D01*
X77769890Y-85239786D01*
X77920213Y-85390109D01*
X78092182Y-85515050D01*
X78100946Y-85519516D01*
X78151742Y-85567491D01*
X78168536Y-85635312D01*
X78145998Y-85701447D01*
X78100946Y-85740484D01*
X78092182Y-85744949D01*
X77920213Y-85869890D01*
X77769890Y-86020213D01*
X77644951Y-86192179D01*
X77548444Y-86381585D01*
X77482753Y-86583760D01*
X77471003Y-86657949D01*
X77449500Y-86793713D01*
X77449500Y-87006287D01*
X77454016Y-87034800D01*
X77480879Y-87204408D01*
X77482754Y-87216243D01*
X77543231Y-87402372D01*
X77548444Y-87418414D01*
X77644951Y-87607820D01*
X77769890Y-87779786D01*
X77920213Y-87930109D01*
X78092182Y-88055050D01*
X78100946Y-88059516D01*
X78151742Y-88107491D01*
X78168536Y-88175312D01*
X78145998Y-88241447D01*
X78100946Y-88280484D01*
X78092182Y-88284949D01*
X77920213Y-88409890D01*
X77769890Y-88560213D01*
X77644951Y-88732179D01*
X77548444Y-88921585D01*
X77482753Y-89123760D01*
X77471003Y-89197949D01*
X77449500Y-89333713D01*
X77449500Y-89546287D01*
X77454016Y-89574800D01*
X77476823Y-89718800D01*
X77482754Y-89756243D01*
X77543231Y-89942372D01*
X77548444Y-89958414D01*
X77644951Y-90147820D01*
X77769890Y-90319786D01*
X77920213Y-90470109D01*
X78092182Y-90595050D01*
X78100946Y-90599516D01*
X78151742Y-90647491D01*
X78168536Y-90715312D01*
X78145998Y-90781447D01*
X78100946Y-90820484D01*
X78092182Y-90824949D01*
X77920213Y-90949890D01*
X77769890Y-91100213D01*
X77644951Y-91272179D01*
X77548444Y-91461585D01*
X77482753Y-91663760D01*
X77469995Y-91744312D01*
X77449500Y-91873713D01*
X77449500Y-92086287D01*
X77454016Y-92114800D01*
X77477010Y-92259981D01*
X77482754Y-92296243D01*
X77546630Y-92492833D01*
X77548444Y-92498414D01*
X77644951Y-92687820D01*
X77769890Y-92859786D01*
X77920213Y-93010109D01*
X78092182Y-93135050D01*
X78100946Y-93139516D01*
X78151742Y-93187491D01*
X78168536Y-93255312D01*
X78145998Y-93321447D01*
X78100946Y-93360484D01*
X78092182Y-93364949D01*
X77920213Y-93489890D01*
X77769890Y-93640213D01*
X77644951Y-93812179D01*
X77548444Y-94001585D01*
X77482753Y-94203760D01*
X77454113Y-94384586D01*
X77449500Y-94413713D01*
X77449500Y-94626287D01*
X77454016Y-94654800D01*
X77477092Y-94800499D01*
X77482754Y-94836243D01*
X77543761Y-95024003D01*
X77548444Y-95038414D01*
X77644951Y-95227820D01*
X77769890Y-95399786D01*
X77883430Y-95513326D01*
X77916915Y-95574649D01*
X77911931Y-95644341D01*
X77870059Y-95700274D01*
X77839083Y-95717189D01*
X77707669Y-95766203D01*
X77707664Y-95766206D01*
X77592455Y-95852452D01*
X77592452Y-95852455D01*
X77506206Y-95967664D01*
X77506202Y-95967671D01*
X77455908Y-96102517D01*
X77449501Y-96162116D01*
X77449501Y-96162123D01*
X77449500Y-96162135D01*
X77449500Y-97957870D01*
X77449501Y-97957876D01*
X77455908Y-98017483D01*
X77506202Y-98152328D01*
X77506206Y-98152335D01*
X77592452Y-98267544D01*
X77592455Y-98267547D01*
X77707664Y-98353793D01*
X77707671Y-98353797D01*
X77842517Y-98404091D01*
X77842516Y-98404091D01*
X77849444Y-98404835D01*
X77902127Y-98410500D01*
X79697872Y-98410499D01*
X79757483Y-98404091D01*
X79892331Y-98353796D01*
X80007546Y-98267546D01*
X80093796Y-98152331D01*
X80144091Y-98017483D01*
X80150500Y-97957873D01*
X80150499Y-96162128D01*
X80144091Y-96102517D01*
X80131895Y-96069819D01*
X80093797Y-95967671D01*
X80093793Y-95967664D01*
X80007547Y-95852455D01*
X80007544Y-95852452D01*
X79892335Y-95766206D01*
X79892328Y-95766202D01*
X79760917Y-95717189D01*
X79704983Y-95675318D01*
X79680566Y-95609853D01*
X79695418Y-95541580D01*
X79716563Y-95513332D01*
X79830104Y-95399792D01*
X79955051Y-95227816D01*
X80051557Y-95038412D01*
X80117246Y-94836243D01*
X80150500Y-94626287D01*
X80150500Y-94413713D01*
X80117246Y-94203757D01*
X80051557Y-94001588D01*
X79955051Y-93812184D01*
X79955049Y-93812181D01*
X79955048Y-93812179D01*
X79830109Y-93640213D01*
X79679786Y-93489890D01*
X79507820Y-93364951D01*
X79507115Y-93364591D01*
X79499054Y-93360485D01*
X79448259Y-93312512D01*
X79431463Y-93244692D01*
X79453999Y-93178556D01*
X79499054Y-93139515D01*
X79507816Y-93135051D01*
X79529789Y-93119086D01*
X79679786Y-93010109D01*
X79679788Y-93010106D01*
X79679792Y-93010104D01*
X79830104Y-92859792D01*
X79830106Y-92859788D01*
X79830109Y-92859786D01*
X79955048Y-92687820D01*
X79955047Y-92687820D01*
X79955051Y-92687816D01*
X80051557Y-92498412D01*
X80117246Y-92296243D01*
X80150500Y-92086287D01*
X80150500Y-91873713D01*
X80117246Y-91663757D01*
X80051557Y-91461588D01*
X79955051Y-91272184D01*
X79955049Y-91272181D01*
X79955048Y-91272179D01*
X79830109Y-91100213D01*
X79679786Y-90949890D01*
X79507820Y-90824951D01*
X79507115Y-90824591D01*
X79499054Y-90820485D01*
X79448259Y-90772512D01*
X79431463Y-90704692D01*
X79453999Y-90638556D01*
X79499054Y-90599515D01*
X79507816Y-90595051D01*
X79529789Y-90579086D01*
X79679786Y-90470109D01*
X79679788Y-90470106D01*
X79679792Y-90470104D01*
X79830104Y-90319792D01*
X79830106Y-90319788D01*
X79830109Y-90319786D01*
X79955048Y-90147820D01*
X79955047Y-90147820D01*
X79955051Y-90147816D01*
X80051557Y-89958412D01*
X80117246Y-89756243D01*
X80150500Y-89546287D01*
X80150500Y-89333713D01*
X80117246Y-89123757D01*
X80051557Y-88921588D01*
X79955051Y-88732184D01*
X79955049Y-88732181D01*
X79955048Y-88732179D01*
X79830109Y-88560213D01*
X79679786Y-88409890D01*
X79507820Y-88284951D01*
X79507115Y-88284591D01*
X79499054Y-88280485D01*
X79448259Y-88232512D01*
X79431463Y-88164692D01*
X79453999Y-88098556D01*
X79499054Y-88059515D01*
X79507816Y-88055051D01*
X79529789Y-88039086D01*
X79679786Y-87930109D01*
X79679788Y-87930106D01*
X79679792Y-87930104D01*
X79830104Y-87779792D01*
X79830106Y-87779788D01*
X79830109Y-87779786D01*
X79955048Y-87607820D01*
X79955047Y-87607820D01*
X79955051Y-87607816D01*
X80051557Y-87418412D01*
X80117246Y-87216243D01*
X80150500Y-87006287D01*
X80150500Y-86793713D01*
X80117246Y-86583757D01*
X80051557Y-86381588D01*
X79955051Y-86192184D01*
X79955049Y-86192181D01*
X79955048Y-86192179D01*
X79830109Y-86020213D01*
X79679786Y-85869890D01*
X79507820Y-85744951D01*
X79507115Y-85744591D01*
X79499054Y-85740485D01*
X79448259Y-85692512D01*
X79431463Y-85624692D01*
X79453999Y-85558556D01*
X79499054Y-85519515D01*
X79507816Y-85515051D01*
X79529789Y-85499086D01*
X79679786Y-85390109D01*
X79679788Y-85390106D01*
X79679792Y-85390104D01*
X79830104Y-85239792D01*
X79830106Y-85239788D01*
X79830109Y-85239786D01*
X79955048Y-85067820D01*
X79955047Y-85067820D01*
X79955051Y-85067816D01*
X80051557Y-84878412D01*
X80117246Y-84676243D01*
X80150500Y-84466287D01*
X80150500Y-84253713D01*
X80117246Y-84043757D01*
X80051557Y-83841588D01*
X79955051Y-83652184D01*
X79955049Y-83652181D01*
X79955048Y-83652179D01*
X79830109Y-83480213D01*
X79679786Y-83329890D01*
X79507820Y-83204951D01*
X79507115Y-83204591D01*
X79499054Y-83200485D01*
X79448259Y-83152512D01*
X79431463Y-83084692D01*
X79453999Y-83018556D01*
X79499054Y-82979515D01*
X79507816Y-82975051D01*
X79529789Y-82959086D01*
X79679786Y-82850109D01*
X79679788Y-82850106D01*
X79679792Y-82850104D01*
X79830104Y-82699792D01*
X79830106Y-82699788D01*
X79830109Y-82699786D01*
X79955048Y-82527820D01*
X79955047Y-82527820D01*
X79955051Y-82527816D01*
X80051557Y-82338412D01*
X80117246Y-82136243D01*
X80150500Y-81926287D01*
X80150500Y-81713713D01*
X80117246Y-81503757D01*
X80051557Y-81301588D01*
X79955051Y-81112184D01*
X79955049Y-81112181D01*
X79955048Y-81112179D01*
X79830109Y-80940213D01*
X79679786Y-80789890D01*
X79507820Y-80664951D01*
X79507115Y-80664591D01*
X79499054Y-80660485D01*
X79448259Y-80612512D01*
X79431463Y-80544692D01*
X79453999Y-80478556D01*
X79499054Y-80439515D01*
X79507816Y-80435051D01*
X79529789Y-80419086D01*
X79679786Y-80310109D01*
X79679788Y-80310106D01*
X79679792Y-80310104D01*
X79830104Y-80159792D01*
X79830106Y-80159788D01*
X79830109Y-80159786D01*
X79955048Y-79987820D01*
X79955047Y-79987820D01*
X79955051Y-79987816D01*
X80051557Y-79798412D01*
X80117246Y-79596243D01*
X80150500Y-79386287D01*
X80150500Y-79274452D01*
X80170185Y-79207413D01*
X80222989Y-79161658D01*
X80292147Y-79151714D01*
X80355703Y-79180739D01*
X80362181Y-79186771D01*
X90051016Y-88875606D01*
X90051045Y-88875637D01*
X90141263Y-88965855D01*
X90141267Y-88965858D01*
X90243707Y-89034307D01*
X90243713Y-89034310D01*
X90243714Y-89034311D01*
X90357548Y-89081463D01*
X90417971Y-89093481D01*
X90478393Y-89105500D01*
X90478394Y-89105500D01*
X131141558Y-89105500D01*
X131208597Y-89125185D01*
X131221088Y-89134364D01*
X131805551Y-89622952D01*
X131805575Y-89622970D01*
X131805580Y-89622975D01*
X131830334Y-89642392D01*
X131856107Y-89656180D01*
X131895669Y-89685796D01*
X131947836Y-89705253D01*
X131957201Y-89710263D01*
X131964697Y-89712986D01*
X131964703Y-89712987D01*
X131964707Y-89712989D01*
X131973159Y-89715272D01*
X131984148Y-89718796D01*
X132030517Y-89736091D01*
X132090127Y-89742500D01*
X133709872Y-89742499D01*
X133769483Y-89736091D01*
X133904331Y-89685796D01*
X134019546Y-89599546D01*
X134105796Y-89484331D01*
X134156091Y-89349483D01*
X134162500Y-89289873D01*
X134162499Y-87670128D01*
X134156091Y-87610517D01*
X134121219Y-87517021D01*
X134105797Y-87475671D01*
X134105793Y-87475664D01*
X134019547Y-87360455D01*
X134019544Y-87360452D01*
X133904335Y-87274206D01*
X133904328Y-87274202D01*
X133769482Y-87223908D01*
X133769483Y-87223908D01*
X133709883Y-87217501D01*
X133709881Y-87217500D01*
X133709873Y-87217500D01*
X133709865Y-87217500D01*
X133671198Y-87217500D01*
X133604159Y-87197815D01*
X133558404Y-87145011D01*
X133548460Y-87075853D01*
X133577485Y-87012297D01*
X133598313Y-86993182D01*
X133621277Y-86976497D01*
X133722464Y-86902981D01*
X133862981Y-86762464D01*
X133979787Y-86601694D01*
X134070005Y-86424632D01*
X134131413Y-86235636D01*
X134162500Y-86039361D01*
X134162500Y-85840639D01*
X134131413Y-85644364D01*
X134070005Y-85455368D01*
X134070005Y-85455367D01*
X134024035Y-85365149D01*
X133979787Y-85278306D01*
X133862981Y-85117536D01*
X133722464Y-84977019D01*
X133561694Y-84860213D01*
X133405218Y-84780484D01*
X133354423Y-84732510D01*
X133337628Y-84664689D01*
X133360165Y-84598554D01*
X133405218Y-84559515D01*
X133561694Y-84479787D01*
X133722464Y-84362981D01*
X133862981Y-84222464D01*
X133979787Y-84061694D01*
X134070005Y-83884632D01*
X134131413Y-83695636D01*
X134162500Y-83499361D01*
X134162500Y-83300639D01*
X134131413Y-83104364D01*
X134089396Y-82975048D01*
X134070006Y-82915370D01*
X134070005Y-82915367D01*
X134023452Y-82824003D01*
X133979787Y-82738306D01*
X133862981Y-82577536D01*
X133722464Y-82437019D01*
X133561694Y-82320213D01*
X133405218Y-82240484D01*
X133354423Y-82192510D01*
X133337628Y-82124689D01*
X133360165Y-82058554D01*
X133405218Y-82019515D01*
X133561694Y-81939787D01*
X133722464Y-81822981D01*
X133862981Y-81682464D01*
X133979787Y-81521694D01*
X134070005Y-81344632D01*
X134131413Y-81155636D01*
X134162500Y-80959361D01*
X134162500Y-80760639D01*
X134131413Y-80564364D01*
X134070005Y-80375368D01*
X134070005Y-80375367D01*
X134019370Y-80275992D01*
X133979787Y-80198306D01*
X133862981Y-80037536D01*
X133722464Y-79897019D01*
X133561694Y-79780213D01*
X133405218Y-79700484D01*
X133354423Y-79652510D01*
X133337628Y-79584689D01*
X133360165Y-79518554D01*
X133405218Y-79479515D01*
X133561694Y-79399787D01*
X133722464Y-79282981D01*
X133862981Y-79142464D01*
X133979787Y-78981694D01*
X134070005Y-78804632D01*
X134131413Y-78615636D01*
X134162500Y-78419361D01*
X134162500Y-78220639D01*
X134131413Y-78024364D01*
X134070005Y-77835368D01*
X134070005Y-77835367D01*
X134004173Y-77706166D01*
X133979787Y-77658306D01*
X133862981Y-77497536D01*
X133722464Y-77357019D01*
X133561694Y-77240213D01*
X133405218Y-77160484D01*
X133354423Y-77112510D01*
X133337628Y-77044689D01*
X133360165Y-76978554D01*
X133405218Y-76939515D01*
X133561694Y-76859787D01*
X133722464Y-76742981D01*
X133862981Y-76602464D01*
X133979787Y-76441694D01*
X134070005Y-76264632D01*
X134131413Y-76075636D01*
X134162500Y-75879361D01*
X134162500Y-75680639D01*
X134131413Y-75484364D01*
X134070005Y-75295368D01*
X134070005Y-75295367D01*
X134023452Y-75204003D01*
X133979787Y-75118306D01*
X133862981Y-74957536D01*
X133722464Y-74817019D01*
X133561694Y-74700213D01*
X133405218Y-74620484D01*
X133354423Y-74572510D01*
X133337628Y-74504689D01*
X133360165Y-74438554D01*
X133405218Y-74399515D01*
X133561694Y-74319787D01*
X133722464Y-74202981D01*
X133862981Y-74062464D01*
X133979787Y-73901694D01*
X134070005Y-73724632D01*
X134131413Y-73535636D01*
X134162500Y-73339361D01*
X134162500Y-73140639D01*
X134131413Y-72944364D01*
X134096637Y-72837334D01*
X134070006Y-72755370D01*
X134070005Y-72755367D01*
X134023452Y-72664003D01*
X133979787Y-72578306D01*
X133862981Y-72417536D01*
X133722464Y-72277019D01*
X133561694Y-72160213D01*
X133405218Y-72080484D01*
X133354423Y-72032510D01*
X133337628Y-71964689D01*
X133360165Y-71898554D01*
X133405218Y-71859515D01*
X133561694Y-71779787D01*
X133722464Y-71662981D01*
X133862981Y-71522464D01*
X133979787Y-71361694D01*
X134059515Y-71205218D01*
X134107490Y-71154423D01*
X134175311Y-71137628D01*
X134241446Y-71160165D01*
X134280484Y-71205218D01*
X134360213Y-71361694D01*
X134477019Y-71522464D01*
X134617536Y-71662981D01*
X134778306Y-71779787D01*
X134807763Y-71794796D01*
X134955367Y-71870005D01*
X134955370Y-71870006D01*
X135049866Y-71900709D01*
X135144364Y-71931413D01*
X135340639Y-71962500D01*
X135348110Y-71962500D01*
X135415149Y-71982185D01*
X135460904Y-72034989D01*
X135470848Y-72104147D01*
X135470583Y-72105898D01*
X135459098Y-72178412D01*
X135447500Y-72251639D01*
X135447500Y-72450361D01*
X135452936Y-72484680D01*
X135478587Y-72646637D01*
X135539993Y-72835629D01*
X135539994Y-72835632D01*
X135615661Y-72984135D01*
X135630213Y-73012694D01*
X135747019Y-73173464D01*
X135887536Y-73313981D01*
X136048306Y-73430787D01*
X136110911Y-73462686D01*
X136225367Y-73521005D01*
X136225370Y-73521006D01*
X136316656Y-73550666D01*
X136414364Y-73582413D01*
X136610639Y-73613500D01*
X136610640Y-73613500D01*
X136809360Y-73613500D01*
X136809361Y-73613500D01*
X137005636Y-73582413D01*
X137194632Y-73521005D01*
X137371694Y-73430787D01*
X137532464Y-73313981D01*
X137672981Y-73173464D01*
X137789787Y-73012694D01*
X137880005Y-72835632D01*
X137941413Y-72646636D01*
X137972500Y-72450361D01*
X137972500Y-72251639D01*
X137960902Y-72178412D01*
X137949417Y-72105898D01*
X137958372Y-72036604D01*
X138003368Y-71983152D01*
X138070120Y-71962513D01*
X138071890Y-71962500D01*
X138079360Y-71962500D01*
X138079361Y-71962500D01*
X138275636Y-71931413D01*
X138464632Y-71870005D01*
X138641694Y-71779787D01*
X138802464Y-71662981D01*
X138942981Y-71522464D01*
X139059787Y-71361694D01*
X139150005Y-71184632D01*
X139211413Y-70995636D01*
X139242500Y-70799361D01*
X139242500Y-70600639D01*
X139211413Y-70404364D01*
X139150005Y-70215368D01*
X139150005Y-70215367D01*
X139090475Y-70098535D01*
X139059787Y-70038306D01*
X138942981Y-69877536D01*
X138802464Y-69737019D01*
X138641694Y-69620213D01*
X138626425Y-69612433D01*
X138464632Y-69529994D01*
X138464629Y-69529993D01*
X138275637Y-69468587D01*
X138177498Y-69453043D01*
X138079361Y-69437500D01*
X137880639Y-69437500D01*
X137815214Y-69447862D01*
X137684362Y-69468587D01*
X137495370Y-69529993D01*
X137495367Y-69529994D01*
X137318305Y-69620213D01*
X137157533Y-69737021D01*
X137017021Y-69877533D01*
X136900213Y-70038305D01*
X136820485Y-70194780D01*
X136772510Y-70245576D01*
X136704689Y-70262371D01*
X136638554Y-70239833D01*
X136599515Y-70194780D01*
X136550475Y-70098535D01*
X136519787Y-70038306D01*
X136402981Y-69877536D01*
X136262464Y-69737019D01*
X136101694Y-69620213D01*
X136086425Y-69612433D01*
X135924632Y-69529994D01*
X135924629Y-69529993D01*
X135735637Y-69468587D01*
X135637498Y-69453043D01*
X135539361Y-69437500D01*
X135340639Y-69437500D01*
X135275214Y-69447862D01*
X135144362Y-69468587D01*
X134955370Y-69529993D01*
X134955367Y-69529994D01*
X134778305Y-69620213D01*
X134617533Y-69737021D01*
X134477021Y-69877533D01*
X134360213Y-70038305D01*
X134280485Y-70194780D01*
X134232510Y-70245576D01*
X134164689Y-70262371D01*
X134098554Y-70239833D01*
X134059515Y-70194780D01*
X134010475Y-70098535D01*
X133979787Y-70038306D01*
X133862981Y-69877536D01*
X133722464Y-69737019D01*
X133561694Y-69620213D01*
X133546425Y-69612433D01*
X133384632Y-69529994D01*
X133384629Y-69529993D01*
X133195637Y-69468587D01*
X133097498Y-69453043D01*
X132999361Y-69437500D01*
X132800639Y-69437500D01*
X132735214Y-69447862D01*
X132604362Y-69468587D01*
X132415370Y-69529993D01*
X132415367Y-69529994D01*
X132238305Y-69620213D01*
X132077533Y-69737021D01*
X131937021Y-69877533D01*
X131831053Y-70023386D01*
X131775723Y-70066051D01*
X131730735Y-70074500D01*
X129247893Y-70074500D01*
X129226570Y-70078741D01*
X129226569Y-70078740D01*
X129127055Y-70098535D01*
X129127041Y-70098539D01*
X129100294Y-70109618D01*
X129100272Y-70109627D01*
X129098167Y-70110500D01*
X129013215Y-70145688D01*
X129013214Y-70145689D01*
X128994904Y-70157922D01*
X128994898Y-70157926D01*
X128910768Y-70214140D01*
X128885076Y-70239833D01*
X128823642Y-70301267D01*
X128823639Y-70301270D01*
X125329511Y-73795397D01*
X125268188Y-73828882D01*
X125222432Y-73830189D01*
X125053922Y-73803500D01*
X125053917Y-73803500D01*
X124857083Y-73803500D01*
X124857078Y-73803500D01*
X124662673Y-73834290D01*
X124475470Y-73895117D01*
X124300094Y-73984476D01*
X124242346Y-74026433D01*
X124140854Y-74100172D01*
X124140852Y-74100174D01*
X124140851Y-74100174D01*
X124001674Y-74239351D01*
X124001674Y-74239352D01*
X124001672Y-74239354D01*
X123953043Y-74306286D01*
X123885976Y-74398594D01*
X123796617Y-74573970D01*
X123735790Y-74761173D01*
X123705000Y-74955577D01*
X123705000Y-75152422D01*
X123735790Y-75346826D01*
X123796617Y-75534029D01*
X123880929Y-75699500D01*
X123885976Y-75709405D01*
X124001672Y-75868646D01*
X124140854Y-76007828D01*
X124300095Y-76123524D01*
X124349512Y-76148703D01*
X124475470Y-76212882D01*
X124475472Y-76212882D01*
X124475475Y-76212884D01*
X124536933Y-76232853D01*
X124662673Y-76273709D01*
X124857078Y-76304500D01*
X124857083Y-76304500D01*
X125053922Y-76304500D01*
X125248326Y-76273709D01*
X125276271Y-76264629D01*
X125435525Y-76212884D01*
X125610905Y-76123524D01*
X125770146Y-76007828D01*
X125909328Y-75868646D01*
X126025024Y-75709405D01*
X126114384Y-75534025D01*
X126175209Y-75346826D01*
X126183359Y-75295367D01*
X126206000Y-75152422D01*
X126206000Y-74955577D01*
X126179310Y-74787065D01*
X126188265Y-74717772D01*
X126214099Y-74679989D01*
X129532271Y-71361819D01*
X129593594Y-71328334D01*
X129619952Y-71325500D01*
X131730735Y-71325500D01*
X131797774Y-71345185D01*
X131831052Y-71376613D01*
X131937019Y-71522464D01*
X132077536Y-71662981D01*
X132238306Y-71779787D01*
X132356832Y-71840179D01*
X132394780Y-71859515D01*
X132445576Y-71907490D01*
X132462371Y-71975311D01*
X132439833Y-72041446D01*
X132394780Y-72080485D01*
X132238305Y-72160213D01*
X132077533Y-72277021D01*
X131937021Y-72417533D01*
X131820213Y-72578305D01*
X131729994Y-72755367D01*
X131729993Y-72755370D01*
X131668587Y-72944362D01*
X131649455Y-73065158D01*
X131637500Y-73140639D01*
X131637500Y-73339361D01*
X131653043Y-73437498D01*
X131668587Y-73535637D01*
X131729993Y-73724629D01*
X131729994Y-73724632D01*
X131818396Y-73898128D01*
X131820213Y-73901694D01*
X131937019Y-74062464D01*
X132077536Y-74202981D01*
X132238306Y-74319787D01*
X132267763Y-74334796D01*
X132394780Y-74399515D01*
X132445576Y-74447490D01*
X132462371Y-74515311D01*
X132439833Y-74581446D01*
X132394780Y-74620485D01*
X132238305Y-74700213D01*
X132077533Y-74817021D01*
X131937021Y-74957533D01*
X131820213Y-75118305D01*
X131729994Y-75295367D01*
X131729993Y-75295370D01*
X131668587Y-75484362D01*
X131650675Y-75597453D01*
X131637500Y-75680639D01*
X131637500Y-75879361D01*
X131647664Y-75943535D01*
X131668587Y-76075637D01*
X131729993Y-76264629D01*
X131729994Y-76264632D01*
X131811075Y-76423760D01*
X131820213Y-76441694D01*
X131937019Y-76602464D01*
X132077536Y-76742981D01*
X132238306Y-76859787D01*
X132356832Y-76920179D01*
X132394780Y-76939515D01*
X132445576Y-76987490D01*
X132462371Y-77055311D01*
X132439833Y-77121446D01*
X132394780Y-77160485D01*
X132238305Y-77240213D01*
X132077533Y-77357021D01*
X131937021Y-77497533D01*
X131820213Y-77658305D01*
X131729994Y-77835367D01*
X131729993Y-77835370D01*
X131668587Y-78024362D01*
X131637500Y-78220639D01*
X131637500Y-78419360D01*
X131668587Y-78615637D01*
X131729993Y-78804629D01*
X131729994Y-78804632D01*
X131811075Y-78963760D01*
X131820213Y-78981694D01*
X131937019Y-79142464D01*
X132077536Y-79282981D01*
X132238306Y-79399787D01*
X132267763Y-79414796D01*
X132394780Y-79479515D01*
X132445576Y-79527490D01*
X132462371Y-79595311D01*
X132439833Y-79661446D01*
X132394780Y-79700485D01*
X132238305Y-79780213D01*
X132077533Y-79897021D01*
X131937021Y-80037533D01*
X131820213Y-80198305D01*
X131729994Y-80375367D01*
X131729993Y-80375370D01*
X131668587Y-80564362D01*
X131650666Y-80677510D01*
X131637500Y-80760639D01*
X131637500Y-80959361D01*
X131643143Y-80994988D01*
X131668587Y-81155637D01*
X131729993Y-81344629D01*
X131729994Y-81344632D01*
X131811075Y-81503760D01*
X131820213Y-81521694D01*
X131937019Y-81682464D01*
X132077536Y-81822981D01*
X132238306Y-81939787D01*
X132267763Y-81954796D01*
X132394780Y-82019515D01*
X132445576Y-82067490D01*
X132462371Y-82135311D01*
X132439833Y-82201446D01*
X132394780Y-82240485D01*
X132238305Y-82320213D01*
X132077533Y-82437021D01*
X131937021Y-82577533D01*
X131820213Y-82738305D01*
X131729994Y-82915367D01*
X131729993Y-82915370D01*
X131668587Y-83104362D01*
X131649455Y-83225158D01*
X131637500Y-83300639D01*
X131637500Y-83499361D01*
X131653043Y-83597498D01*
X131668587Y-83695637D01*
X131729993Y-83884629D01*
X131729994Y-83884632D01*
X131820213Y-84061694D01*
X131937019Y-84222464D01*
X132077536Y-84362981D01*
X132238306Y-84479787D01*
X132379443Y-84551700D01*
X132430238Y-84599673D01*
X132447033Y-84667494D01*
X132424496Y-84733629D01*
X132369781Y-84777081D01*
X132358034Y-84781175D01*
X130556092Y-85309491D01*
X130521205Y-85314500D01*
X90850452Y-85314500D01*
X90783413Y-85294815D01*
X90762771Y-85278181D01*
X87521771Y-82037181D01*
X87488286Y-81975858D01*
X87493270Y-81906166D01*
X87535142Y-81850233D01*
X87600606Y-81825816D01*
X87609452Y-81825500D01*
X105861607Y-81825500D01*
X105922029Y-81813481D01*
X105982452Y-81801463D01*
X106015792Y-81787652D01*
X106096286Y-81754312D01*
X106157045Y-81713713D01*
X106198733Y-81685858D01*
X106285858Y-81598733D01*
X106290178Y-81594413D01*
X106290187Y-81594402D01*
X122202772Y-65681819D01*
X122264095Y-65648334D01*
X122290453Y-65645500D01*
X131141558Y-65645500D01*
X131208597Y-65665185D01*
X131221088Y-65674364D01*
X131805551Y-66162952D01*
X131805575Y-66162970D01*
X131805580Y-66162975D01*
X131830334Y-66182392D01*
X131856107Y-66196180D01*
X131895669Y-66225796D01*
X131947836Y-66245253D01*
X131957201Y-66250263D01*
X131964697Y-66252986D01*
X131964703Y-66252987D01*
X131964707Y-66252989D01*
X131973159Y-66255272D01*
X131984148Y-66258796D01*
X132030517Y-66276091D01*
X132090127Y-66282500D01*
X133709872Y-66282499D01*
X133769483Y-66276091D01*
X133904331Y-66225796D01*
X134019546Y-66139546D01*
X134105796Y-66024331D01*
X134156091Y-65889483D01*
X134162500Y-65829873D01*
X134162499Y-64210128D01*
X134156091Y-64150517D01*
X134154513Y-64146287D01*
X134105797Y-64015671D01*
X134105793Y-64015664D01*
X134019547Y-63900455D01*
X134019544Y-63900452D01*
X133904335Y-63814206D01*
X133904328Y-63814202D01*
X133769482Y-63763908D01*
X133769483Y-63763908D01*
X133709883Y-63757501D01*
X133709881Y-63757500D01*
X133709873Y-63757500D01*
X133709865Y-63757500D01*
X133671198Y-63757500D01*
X133604159Y-63737815D01*
X133558404Y-63685011D01*
X133548460Y-63615853D01*
X133577485Y-63552297D01*
X133598313Y-63533182D01*
X133632568Y-63508294D01*
X133722464Y-63442981D01*
X133862981Y-63302464D01*
X133979787Y-63141694D01*
X134070005Y-62964632D01*
X134131413Y-62775636D01*
X134162500Y-62579361D01*
X134162500Y-62380639D01*
X134131413Y-62184364D01*
X134077493Y-62018414D01*
X134070006Y-61995370D01*
X134070005Y-61995367D01*
X134004352Y-61866518D01*
X133979787Y-61818306D01*
X133862981Y-61657536D01*
X133722464Y-61517019D01*
X133561694Y-61400213D01*
X133405218Y-61320484D01*
X133354423Y-61272510D01*
X133337628Y-61204689D01*
X133360165Y-61138554D01*
X133405218Y-61099515D01*
X133561694Y-61019787D01*
X133722464Y-60902981D01*
X133862981Y-60762464D01*
X133979787Y-60601694D01*
X134070005Y-60424632D01*
X134131413Y-60235636D01*
X134162500Y-60039361D01*
X134162500Y-59840639D01*
X134131413Y-59644364D01*
X134077493Y-59478414D01*
X134070006Y-59455370D01*
X134070005Y-59455367D01*
X133981697Y-59282055D01*
X133979787Y-59278306D01*
X133862981Y-59117536D01*
X133722464Y-58977019D01*
X133561694Y-58860213D01*
X133405218Y-58780484D01*
X133354423Y-58732510D01*
X133337628Y-58664689D01*
X133360165Y-58598554D01*
X133405218Y-58559515D01*
X133561694Y-58479787D01*
X133722464Y-58362981D01*
X133862981Y-58222464D01*
X133979787Y-58061694D01*
X134070005Y-57884632D01*
X134131413Y-57695636D01*
X134162500Y-57499361D01*
X134162500Y-57300639D01*
X134131413Y-57104364D01*
X134080813Y-56948632D01*
X134070006Y-56915370D01*
X134070005Y-56915367D01*
X133981697Y-56742055D01*
X133979787Y-56738306D01*
X133862981Y-56577536D01*
X133722464Y-56437019D01*
X133561694Y-56320213D01*
X133405218Y-56240484D01*
X133354423Y-56192510D01*
X133337628Y-56124689D01*
X133360165Y-56058554D01*
X133405218Y-56019515D01*
X133561694Y-55939787D01*
X133722464Y-55822981D01*
X133862981Y-55682464D01*
X133979787Y-55521694D01*
X134070005Y-55344632D01*
X134131413Y-55155636D01*
X134162500Y-54959361D01*
X134162500Y-54760639D01*
X134131413Y-54564364D01*
X134077493Y-54398414D01*
X134070006Y-54375370D01*
X134070005Y-54375367D01*
X133981697Y-54202055D01*
X133979787Y-54198306D01*
X133862981Y-54037536D01*
X133722464Y-53897019D01*
X133561694Y-53780213D01*
X133405218Y-53700484D01*
X133354423Y-53652510D01*
X133337628Y-53584689D01*
X133360165Y-53518554D01*
X133405218Y-53479515D01*
X133561694Y-53399787D01*
X133722464Y-53282981D01*
X133862981Y-53142464D01*
X133979787Y-52981694D01*
X134070005Y-52804632D01*
X134131413Y-52615636D01*
X134162500Y-52419361D01*
X134162500Y-52220639D01*
X134131413Y-52024364D01*
X134077493Y-51858414D01*
X134070006Y-51835370D01*
X134070005Y-51835367D01*
X133981697Y-51662055D01*
X133979787Y-51658306D01*
X133862981Y-51497536D01*
X133722464Y-51357019D01*
X133561694Y-51240213D01*
X133405218Y-51160484D01*
X133354423Y-51112510D01*
X133337628Y-51044689D01*
X133360165Y-50978554D01*
X133405218Y-50939515D01*
X133561694Y-50859787D01*
X133722464Y-50742981D01*
X133862981Y-50602464D01*
X133979787Y-50441694D01*
X134070005Y-50264632D01*
X134131413Y-50075636D01*
X134162500Y-49879361D01*
X134162500Y-49680639D01*
X134131413Y-49484364D01*
X134070005Y-49295368D01*
X134070005Y-49295367D01*
X134023452Y-49204003D01*
X133979787Y-49118306D01*
X133862981Y-48957536D01*
X133722464Y-48817019D01*
X133561694Y-48700213D01*
X133405218Y-48620484D01*
X133354423Y-48572510D01*
X133337628Y-48504689D01*
X133360165Y-48438554D01*
X133405218Y-48399515D01*
X133561694Y-48319787D01*
X133722464Y-48202981D01*
X133862981Y-48062464D01*
X133979787Y-47901694D01*
X134059515Y-47745218D01*
X134107490Y-47694423D01*
X134175311Y-47677628D01*
X134241446Y-47700165D01*
X134280484Y-47745218D01*
X134360213Y-47901694D01*
X134477019Y-48062464D01*
X134617536Y-48202981D01*
X134778306Y-48319787D01*
X134856333Y-48359544D01*
X134955367Y-48410005D01*
X134955370Y-48410006D01*
X135049866Y-48440709D01*
X135144364Y-48471413D01*
X135340639Y-48502500D01*
X135348110Y-48502500D01*
X135415149Y-48522185D01*
X135460904Y-48574989D01*
X135470848Y-48644147D01*
X135470583Y-48645898D01*
X135447500Y-48791639D01*
X135447500Y-48990360D01*
X135478587Y-49186637D01*
X135539993Y-49375629D01*
X135539994Y-49375632D01*
X135595396Y-49484362D01*
X135630213Y-49552694D01*
X135747019Y-49713464D01*
X135887536Y-49853981D01*
X136048306Y-49970787D01*
X136135149Y-50015035D01*
X136225367Y-50061005D01*
X136225370Y-50061006D01*
X136309814Y-50088443D01*
X136414364Y-50122413D01*
X136610639Y-50153500D01*
X136610640Y-50153500D01*
X136809360Y-50153500D01*
X136809361Y-50153500D01*
X137005636Y-50122413D01*
X137194632Y-50061005D01*
X137371694Y-49970787D01*
X137532464Y-49853981D01*
X137672981Y-49713464D01*
X137789787Y-49552694D01*
X137880005Y-49375632D01*
X137941413Y-49186636D01*
X137972500Y-48990361D01*
X137972500Y-48791639D01*
X137949417Y-48645898D01*
X137958372Y-48576604D01*
X138003368Y-48523152D01*
X138070120Y-48502513D01*
X138071890Y-48502500D01*
X138079360Y-48502500D01*
X138079361Y-48502500D01*
X138275636Y-48471413D01*
X138464632Y-48410005D01*
X138641694Y-48319787D01*
X138802464Y-48202981D01*
X138942981Y-48062464D01*
X139059787Y-47901694D01*
X139150005Y-47724632D01*
X139211413Y-47535636D01*
X139242500Y-47339361D01*
X139242500Y-47140639D01*
X139211413Y-46944364D01*
X139150005Y-46755368D01*
X139150005Y-46755367D01*
X139059786Y-46578305D01*
X138942981Y-46417536D01*
X138802464Y-46277019D01*
X138641694Y-46160213D01*
X138622629Y-46150499D01*
X138464632Y-46069994D01*
X138464629Y-46069993D01*
X138275637Y-46008587D01*
X138177498Y-45993043D01*
X138079361Y-45977500D01*
X137880639Y-45977500D01*
X137815214Y-45987862D01*
X137684362Y-46008587D01*
X137495370Y-46069993D01*
X137495367Y-46069994D01*
X137318305Y-46160213D01*
X137157533Y-46277021D01*
X137017021Y-46417533D01*
X136900213Y-46578305D01*
X136820485Y-46734780D01*
X136772510Y-46785576D01*
X136704689Y-46802371D01*
X136638554Y-46779833D01*
X136599515Y-46734780D01*
X136519786Y-46578305D01*
X136402981Y-46417536D01*
X136262464Y-46277019D01*
X136101694Y-46160213D01*
X136082629Y-46150499D01*
X135924632Y-46069994D01*
X135924629Y-46069993D01*
X135735637Y-46008587D01*
X135637498Y-45993043D01*
X135539361Y-45977500D01*
X135340639Y-45977500D01*
X135275214Y-45987862D01*
X135144362Y-46008587D01*
X134955370Y-46069993D01*
X134955367Y-46069994D01*
X134778305Y-46160213D01*
X134617533Y-46277021D01*
X134477021Y-46417533D01*
X134360213Y-46578305D01*
X134280485Y-46734780D01*
X134232510Y-46785576D01*
X134164689Y-46802371D01*
X134098554Y-46779833D01*
X134059515Y-46734780D01*
X133979786Y-46578305D01*
X133862981Y-46417536D01*
X133722464Y-46277019D01*
X133561694Y-46160213D01*
X133542629Y-46150499D01*
X133384632Y-46069994D01*
X133384629Y-46069993D01*
X133195637Y-46008587D01*
X133097498Y-45993043D01*
X132999361Y-45977500D01*
X132800639Y-45977500D01*
X132735214Y-45987862D01*
X132604362Y-46008587D01*
X132415370Y-46069993D01*
X132415367Y-46069994D01*
X132238305Y-46160213D01*
X132077533Y-46277021D01*
X131937021Y-46417533D01*
X131820213Y-46578305D01*
X131729994Y-46755367D01*
X131729993Y-46755370D01*
X131668587Y-46944362D01*
X131637500Y-47140639D01*
X131637500Y-47339360D01*
X131668587Y-47535637D01*
X131729993Y-47724629D01*
X131729994Y-47724632D01*
X131820213Y-47901694D01*
X131937019Y-48062464D01*
X132077536Y-48202981D01*
X132238306Y-48319787D01*
X132316333Y-48359544D01*
X132394780Y-48399515D01*
X132445576Y-48447490D01*
X132462371Y-48515311D01*
X132439833Y-48581446D01*
X132394780Y-48620485D01*
X132238305Y-48700213D01*
X132077533Y-48817021D01*
X131937021Y-48957533D01*
X131820213Y-49118305D01*
X131729994Y-49295367D01*
X131729993Y-49295370D01*
X131668587Y-49484362D01*
X131640468Y-49661902D01*
X131637500Y-49680639D01*
X131637500Y-49879361D01*
X131653043Y-49977498D01*
X131668587Y-50075637D01*
X131729993Y-50264629D01*
X131729994Y-50264632D01*
X131816245Y-50433906D01*
X131820213Y-50441694D01*
X131937019Y-50602464D01*
X132077536Y-50742981D01*
X132238306Y-50859787D01*
X132335741Y-50909433D01*
X132394780Y-50939515D01*
X132445576Y-50987490D01*
X132462371Y-51055311D01*
X132439833Y-51121446D01*
X132394780Y-51160485D01*
X132238305Y-51240213D01*
X132077533Y-51357021D01*
X131937021Y-51497533D01*
X131820213Y-51658305D01*
X131729994Y-51835367D01*
X131729993Y-51835370D01*
X131668587Y-52024362D01*
X131664743Y-52048632D01*
X131637500Y-52220639D01*
X131637500Y-52419361D01*
X131649488Y-52495048D01*
X131668587Y-52615637D01*
X131729993Y-52804629D01*
X131729994Y-52804632D01*
X131771599Y-52886285D01*
X131820213Y-52981694D01*
X131937019Y-53142464D01*
X132077536Y-53282981D01*
X132238306Y-53399787D01*
X132351823Y-53457627D01*
X132394780Y-53479515D01*
X132445576Y-53527490D01*
X132462371Y-53595311D01*
X132439833Y-53661446D01*
X132394780Y-53700485D01*
X132238305Y-53780213D01*
X132077533Y-53897021D01*
X131937021Y-54037533D01*
X131820213Y-54198305D01*
X131729994Y-54375367D01*
X131729993Y-54375370D01*
X131668587Y-54564362D01*
X131664872Y-54587820D01*
X131637500Y-54760639D01*
X131637500Y-54959361D01*
X131649488Y-55035048D01*
X131668587Y-55155637D01*
X131729993Y-55344629D01*
X131729994Y-55344632D01*
X131787504Y-55457500D01*
X131820213Y-55521694D01*
X131937019Y-55682464D01*
X132077536Y-55822981D01*
X132238306Y-55939787D01*
X132283254Y-55962689D01*
X132394780Y-56019515D01*
X132445576Y-56067490D01*
X132462371Y-56135311D01*
X132439833Y-56201446D01*
X132394780Y-56240485D01*
X132238305Y-56320213D01*
X132077533Y-56437021D01*
X131937021Y-56577533D01*
X131820213Y-56738305D01*
X131729994Y-56915367D01*
X131729993Y-56915370D01*
X131668587Y-57104362D01*
X131664872Y-57127820D01*
X131637500Y-57300639D01*
X131637500Y-57499361D01*
X131649488Y-57575048D01*
X131668587Y-57695637D01*
X131729993Y-57884629D01*
X131729994Y-57884632D01*
X131753058Y-57929896D01*
X131820213Y-58061694D01*
X131937019Y-58222464D01*
X132077536Y-58362981D01*
X132238306Y-58479787D01*
X132331161Y-58527099D01*
X132394780Y-58559515D01*
X132445576Y-58607490D01*
X132462371Y-58675311D01*
X132439833Y-58741446D01*
X132394780Y-58780485D01*
X132238305Y-58860213D01*
X132077533Y-58977021D01*
X131937021Y-59117533D01*
X131820213Y-59278305D01*
X131729994Y-59455367D01*
X131729993Y-59455370D01*
X131668587Y-59644362D01*
X131646363Y-59784679D01*
X131637500Y-59840639D01*
X131637500Y-60039361D01*
X131649488Y-60115048D01*
X131668587Y-60235637D01*
X131729993Y-60424629D01*
X131729994Y-60424632D01*
X131753058Y-60469896D01*
X131820213Y-60601694D01*
X131937019Y-60762464D01*
X132077536Y-60902981D01*
X132238306Y-61019787D01*
X132379443Y-61091700D01*
X132430238Y-61139673D01*
X132447033Y-61207494D01*
X132424496Y-61273629D01*
X132369781Y-61317081D01*
X132358034Y-61321175D01*
X130556092Y-61849491D01*
X130521205Y-61854500D01*
X122458389Y-61854500D01*
X122407535Y-61864615D01*
X122407530Y-61864616D01*
X122397971Y-61866518D01*
X122337548Y-61878537D01*
X122290397Y-61898067D01*
X122223715Y-61925688D01*
X122223714Y-61925689D01*
X122201347Y-61940633D01*
X122201344Y-61940635D01*
X122121268Y-61994140D01*
X122096997Y-62018412D01*
X122034142Y-62081267D01*
X122034139Y-62081270D01*
X114889123Y-69226287D01*
X107777229Y-76338181D01*
X107715906Y-76371666D01*
X107689548Y-76374500D01*
X87846889Y-76374500D01*
X87779850Y-76354815D01*
X87734095Y-76302011D01*
X87724151Y-76232853D01*
X87753176Y-76169297D01*
X87759208Y-76162819D01*
X88651847Y-75270180D01*
X89544517Y-74377510D01*
X89683343Y-74186434D01*
X89790568Y-73975992D01*
X89793849Y-73965893D01*
X89812606Y-73908166D01*
X89812606Y-73908165D01*
X89815867Y-73898128D01*
X89863553Y-73751368D01*
X89886149Y-73608703D01*
X89900500Y-73518097D01*
X89900500Y-68506617D01*
X93340000Y-68506617D01*
X93340000Y-68703382D01*
X93370778Y-68897705D01*
X93431581Y-69084835D01*
X93520905Y-69260145D01*
X93546319Y-69295125D01*
X93546320Y-69295125D01*
X94066212Y-68775233D01*
X94077482Y-68817292D01*
X94149890Y-68942708D01*
X94252292Y-69045110D01*
X94377708Y-69117518D01*
X94419764Y-69128787D01*
X93899873Y-69648677D01*
X93899873Y-69648678D01*
X93934858Y-69674096D01*
X94110164Y-69763418D01*
X94297294Y-69824221D01*
X94491618Y-69855000D01*
X94688382Y-69855000D01*
X94882705Y-69824221D01*
X95069835Y-69763418D01*
X95245143Y-69674095D01*
X95280125Y-69648678D01*
X95280126Y-69648678D01*
X94760235Y-69128787D01*
X94802292Y-69117518D01*
X94927708Y-69045110D01*
X95030110Y-68942708D01*
X95102518Y-68817292D01*
X95113787Y-68775235D01*
X95633678Y-69295126D01*
X95633678Y-69295125D01*
X95659097Y-69260141D01*
X95749234Y-69083236D01*
X95797208Y-69032439D01*
X95865029Y-69015644D01*
X95931164Y-69038181D01*
X95970204Y-69083235D01*
X95971115Y-69085024D01*
X95971116Y-69085025D01*
X96060476Y-69260405D01*
X96176172Y-69419646D01*
X96315354Y-69558828D01*
X96474595Y-69674524D01*
X96516085Y-69695664D01*
X96649970Y-69763882D01*
X96649972Y-69763882D01*
X96649975Y-69763884D01*
X96734340Y-69791296D01*
X96837173Y-69824709D01*
X97031578Y-69855500D01*
X97031583Y-69855500D01*
X97228422Y-69855500D01*
X97422826Y-69824709D01*
X97488069Y-69803510D01*
X97610025Y-69763884D01*
X97785405Y-69674524D01*
X97944646Y-69558828D01*
X98083828Y-69419646D01*
X98199524Y-69260405D01*
X98284515Y-69093600D01*
X98332489Y-69042803D01*
X98400310Y-69026008D01*
X98466445Y-69048545D01*
X98505485Y-69093600D01*
X98590474Y-69260403D01*
X98615702Y-69295125D01*
X98706172Y-69419646D01*
X98845354Y-69558828D01*
X99004595Y-69674524D01*
X99046085Y-69695664D01*
X99179970Y-69763882D01*
X99179972Y-69763882D01*
X99179975Y-69763884D01*
X99264340Y-69791296D01*
X99367173Y-69824709D01*
X99561578Y-69855500D01*
X99561583Y-69855500D01*
X99758422Y-69855500D01*
X99952826Y-69824709D01*
X100018069Y-69803510D01*
X100140025Y-69763884D01*
X100315405Y-69674524D01*
X100474646Y-69558828D01*
X100613828Y-69419646D01*
X100729524Y-69260405D01*
X100818884Y-69085025D01*
X100819515Y-69083787D01*
X100867489Y-69032990D01*
X100935310Y-69016195D01*
X101001445Y-69038732D01*
X101040485Y-69083787D01*
X101130474Y-69260403D01*
X101155702Y-69295125D01*
X101246172Y-69419646D01*
X101385354Y-69558828D01*
X101544595Y-69674524D01*
X101586085Y-69695664D01*
X101719970Y-69763882D01*
X101719972Y-69763882D01*
X101719975Y-69763884D01*
X101804340Y-69791296D01*
X101907173Y-69824709D01*
X102101578Y-69855500D01*
X102101583Y-69855500D01*
X102298422Y-69855500D01*
X102492826Y-69824709D01*
X102558069Y-69803510D01*
X102680025Y-69763884D01*
X102855405Y-69674524D01*
X103014646Y-69558828D01*
X103153828Y-69419646D01*
X103269524Y-69260405D01*
X103358884Y-69085025D01*
X103359515Y-69083787D01*
X103407489Y-69032990D01*
X103475310Y-69016195D01*
X103541445Y-69038732D01*
X103580485Y-69083787D01*
X103670474Y-69260403D01*
X103695702Y-69295125D01*
X103786172Y-69419646D01*
X103925354Y-69558828D01*
X104084595Y-69674524D01*
X104126085Y-69695664D01*
X104259970Y-69763882D01*
X104259972Y-69763882D01*
X104259975Y-69763884D01*
X104344340Y-69791296D01*
X104447173Y-69824709D01*
X104641578Y-69855500D01*
X104641583Y-69855500D01*
X104838422Y-69855500D01*
X105032826Y-69824709D01*
X105098069Y-69803510D01*
X105220025Y-69763884D01*
X105395405Y-69674524D01*
X105554646Y-69558828D01*
X105693828Y-69419646D01*
X105809524Y-69260405D01*
X105894515Y-69093600D01*
X105942489Y-69042803D01*
X106010310Y-69026008D01*
X106076445Y-69048545D01*
X106115485Y-69093600D01*
X106200474Y-69260403D01*
X106225702Y-69295125D01*
X106316172Y-69419646D01*
X106455354Y-69558828D01*
X106614595Y-69674524D01*
X106656085Y-69695664D01*
X106789970Y-69763882D01*
X106789972Y-69763882D01*
X106789975Y-69763884D01*
X106874340Y-69791296D01*
X106977173Y-69824709D01*
X107171578Y-69855500D01*
X107171583Y-69855500D01*
X107368422Y-69855500D01*
X107562826Y-69824709D01*
X107628069Y-69803510D01*
X107750025Y-69763884D01*
X107925405Y-69674524D01*
X108084646Y-69558828D01*
X108223828Y-69419646D01*
X108339524Y-69260405D01*
X108428884Y-69085025D01*
X108429515Y-69083787D01*
X108477489Y-69032990D01*
X108545310Y-69016195D01*
X108611445Y-69038732D01*
X108650485Y-69083787D01*
X108740474Y-69260403D01*
X108765702Y-69295125D01*
X108856172Y-69419646D01*
X108995354Y-69558828D01*
X109154595Y-69674524D01*
X109196085Y-69695664D01*
X109329970Y-69763882D01*
X109329972Y-69763882D01*
X109329975Y-69763884D01*
X109414340Y-69791296D01*
X109517173Y-69824709D01*
X109711578Y-69855500D01*
X109711583Y-69855500D01*
X109908422Y-69855500D01*
X110102826Y-69824709D01*
X110168069Y-69803510D01*
X110290025Y-69763884D01*
X110465405Y-69674524D01*
X110624646Y-69558828D01*
X110763828Y-69419646D01*
X110879524Y-69260405D01*
X110968884Y-69085025D01*
X110969515Y-69083787D01*
X111017489Y-69032990D01*
X111085310Y-69016195D01*
X111151445Y-69038732D01*
X111190485Y-69083787D01*
X111280474Y-69260403D01*
X111305702Y-69295125D01*
X111396172Y-69419646D01*
X111535354Y-69558828D01*
X111694595Y-69674524D01*
X111736085Y-69695664D01*
X111869970Y-69763882D01*
X111869972Y-69763882D01*
X111869975Y-69763884D01*
X111954340Y-69791296D01*
X112057173Y-69824709D01*
X112251578Y-69855500D01*
X112251583Y-69855500D01*
X112448422Y-69855500D01*
X112642826Y-69824709D01*
X112708069Y-69803510D01*
X112830025Y-69763884D01*
X113005405Y-69674524D01*
X113164646Y-69558828D01*
X113303828Y-69419646D01*
X113419524Y-69260405D01*
X113508884Y-69085025D01*
X113569709Y-68897826D01*
X113572858Y-68877945D01*
X113600500Y-68703422D01*
X113600500Y-68506577D01*
X113569709Y-68312173D01*
X113531248Y-68193804D01*
X113508884Y-68124975D01*
X113508882Y-68124972D01*
X113508882Y-68124970D01*
X113425072Y-67960484D01*
X113419524Y-67949595D01*
X113303828Y-67790354D01*
X113164646Y-67651172D01*
X113005405Y-67535476D01*
X112830029Y-67446117D01*
X112642826Y-67385290D01*
X112448422Y-67354500D01*
X112448417Y-67354500D01*
X112251583Y-67354500D01*
X112251578Y-67354500D01*
X112057173Y-67385290D01*
X111869970Y-67446117D01*
X111694594Y-67535476D01*
X111603741Y-67601485D01*
X111535354Y-67651172D01*
X111535352Y-67651174D01*
X111535351Y-67651174D01*
X111396174Y-67790351D01*
X111396174Y-67790352D01*
X111396172Y-67790354D01*
X111362482Y-67836724D01*
X111280476Y-67949594D01*
X111190485Y-68126213D01*
X111142511Y-68177009D01*
X111074690Y-68193804D01*
X111008555Y-68171267D01*
X110969515Y-68126213D01*
X110933230Y-68055000D01*
X110879524Y-67949595D01*
X110763828Y-67790354D01*
X110624646Y-67651172D01*
X110465405Y-67535476D01*
X110290029Y-67446117D01*
X110102826Y-67385290D01*
X109908422Y-67354500D01*
X109908417Y-67354500D01*
X109711583Y-67354500D01*
X109711578Y-67354500D01*
X109517173Y-67385290D01*
X109329970Y-67446117D01*
X109154594Y-67535476D01*
X109063741Y-67601485D01*
X108995354Y-67651172D01*
X108995352Y-67651174D01*
X108995351Y-67651174D01*
X108856174Y-67790351D01*
X108856174Y-67790352D01*
X108856172Y-67790354D01*
X108822482Y-67836724D01*
X108740476Y-67949594D01*
X108650485Y-68126213D01*
X108602511Y-68177009D01*
X108534690Y-68193804D01*
X108468555Y-68171267D01*
X108429515Y-68126213D01*
X108393230Y-68055000D01*
X108339524Y-67949595D01*
X108223828Y-67790354D01*
X108084646Y-67651172D01*
X107925405Y-67535476D01*
X107750029Y-67446117D01*
X107562826Y-67385290D01*
X107368422Y-67354500D01*
X107368417Y-67354500D01*
X107171583Y-67354500D01*
X107171578Y-67354500D01*
X106977173Y-67385290D01*
X106789970Y-67446117D01*
X106614594Y-67535476D01*
X106523741Y-67601485D01*
X106455354Y-67651172D01*
X106455352Y-67651174D01*
X106455351Y-67651174D01*
X106316174Y-67790351D01*
X106316174Y-67790352D01*
X106316172Y-67790354D01*
X106282482Y-67836724D01*
X106200476Y-67949594D01*
X106115485Y-68116400D01*
X106067511Y-68167196D01*
X105999690Y-68183991D01*
X105933555Y-68161454D01*
X105894515Y-68116400D01*
X105863230Y-68055000D01*
X105809524Y-67949595D01*
X105693828Y-67790354D01*
X105554646Y-67651172D01*
X105395405Y-67535476D01*
X105220029Y-67446117D01*
X105032826Y-67385290D01*
X104838422Y-67354500D01*
X104838417Y-67354500D01*
X104641583Y-67354500D01*
X104641578Y-67354500D01*
X104447173Y-67385290D01*
X104259970Y-67446117D01*
X104084594Y-67535476D01*
X103993741Y-67601485D01*
X103925354Y-67651172D01*
X103925352Y-67651174D01*
X103925351Y-67651174D01*
X103786174Y-67790351D01*
X103786174Y-67790352D01*
X103786172Y-67790354D01*
X103752482Y-67836724D01*
X103670476Y-67949594D01*
X103580485Y-68126213D01*
X103532511Y-68177009D01*
X103464690Y-68193804D01*
X103398555Y-68171267D01*
X103359515Y-68126213D01*
X103323230Y-68055000D01*
X103269524Y-67949595D01*
X103153828Y-67790354D01*
X103014646Y-67651172D01*
X102855405Y-67535476D01*
X102680029Y-67446117D01*
X102492826Y-67385290D01*
X102298422Y-67354500D01*
X102298417Y-67354500D01*
X102101583Y-67354500D01*
X102101578Y-67354500D01*
X101907173Y-67385290D01*
X101719970Y-67446117D01*
X101544594Y-67535476D01*
X101453741Y-67601485D01*
X101385354Y-67651172D01*
X101385352Y-67651174D01*
X101385351Y-67651174D01*
X101246174Y-67790351D01*
X101246174Y-67790352D01*
X101246172Y-67790354D01*
X101212482Y-67836724D01*
X101130476Y-67949594D01*
X101040485Y-68126213D01*
X100992511Y-68177009D01*
X100924690Y-68193804D01*
X100858555Y-68171267D01*
X100819515Y-68126213D01*
X100783230Y-68055000D01*
X100729524Y-67949595D01*
X100613828Y-67790354D01*
X100474646Y-67651172D01*
X100315405Y-67535476D01*
X100140029Y-67446117D01*
X99952826Y-67385290D01*
X99758422Y-67354500D01*
X99758417Y-67354500D01*
X99561583Y-67354500D01*
X99561578Y-67354500D01*
X99367173Y-67385290D01*
X99179970Y-67446117D01*
X99004594Y-67535476D01*
X98913741Y-67601485D01*
X98845354Y-67651172D01*
X98845352Y-67651174D01*
X98845351Y-67651174D01*
X98706174Y-67790351D01*
X98706174Y-67790352D01*
X98706172Y-67790354D01*
X98672482Y-67836724D01*
X98590476Y-67949594D01*
X98505485Y-68116400D01*
X98457511Y-68167196D01*
X98389690Y-68183991D01*
X98323555Y-68161454D01*
X98284515Y-68116400D01*
X98253230Y-68055000D01*
X98199524Y-67949595D01*
X98083828Y-67790354D01*
X97944646Y-67651172D01*
X97785405Y-67535476D01*
X97610029Y-67446117D01*
X97422826Y-67385290D01*
X97228422Y-67354500D01*
X97228417Y-67354500D01*
X97031583Y-67354500D01*
X97031578Y-67354500D01*
X96837173Y-67385290D01*
X96649970Y-67446117D01*
X96474594Y-67535476D01*
X96383741Y-67601485D01*
X96315354Y-67651172D01*
X96315352Y-67651174D01*
X96315351Y-67651174D01*
X96176174Y-67790351D01*
X96176174Y-67790352D01*
X96176172Y-67790354D01*
X96142482Y-67836724D01*
X96060476Y-67949594D01*
X95970204Y-68126764D01*
X95922229Y-68177560D01*
X95854408Y-68194355D01*
X95788274Y-68171818D01*
X95749234Y-68126764D01*
X95659096Y-67949858D01*
X95633678Y-67914873D01*
X95633677Y-67914873D01*
X95113787Y-68434764D01*
X95102518Y-68392708D01*
X95030110Y-68267292D01*
X94927708Y-68164890D01*
X94802292Y-68092482D01*
X94760234Y-68081212D01*
X95280125Y-67561320D01*
X95280125Y-67561319D01*
X95245145Y-67535905D01*
X95069835Y-67446581D01*
X94882705Y-67385778D01*
X94688382Y-67355000D01*
X94491618Y-67355000D01*
X94297294Y-67385778D01*
X94110161Y-67446582D01*
X93934863Y-67535899D01*
X93934859Y-67535902D01*
X93899873Y-67561320D01*
X93899872Y-67561320D01*
X94419765Y-68081212D01*
X94377708Y-68092482D01*
X94252292Y-68164890D01*
X94149890Y-68267292D01*
X94077482Y-68392708D01*
X94066212Y-68434765D01*
X93546320Y-67914872D01*
X93546320Y-67914873D01*
X93520902Y-67949859D01*
X93520899Y-67949863D01*
X93431582Y-68125161D01*
X93370778Y-68312294D01*
X93340000Y-68506617D01*
X89900500Y-68506617D01*
X89900500Y-46081902D01*
X89863553Y-45848631D01*
X89829689Y-45744412D01*
X89790568Y-45624008D01*
X89790566Y-45624005D01*
X89790566Y-45624003D01*
X89751666Y-45547659D01*
X89683343Y-45413567D01*
X89655041Y-45374612D01*
X89544523Y-45222496D01*
X89544519Y-45222491D01*
X88690916Y-44368888D01*
X88607286Y-44285258D01*
X100449500Y-44285258D01*
X100449500Y-44514741D01*
X100473957Y-44700500D01*
X100479452Y-44742238D01*
X100479453Y-44742240D01*
X100538842Y-44963887D01*
X100626650Y-45175876D01*
X100626657Y-45175890D01*
X100741392Y-45374617D01*
X100881081Y-45556661D01*
X100881089Y-45556670D01*
X101043330Y-45718911D01*
X101043338Y-45718918D01*
X101225382Y-45858607D01*
X101225385Y-45858608D01*
X101225388Y-45858611D01*
X101424112Y-45973344D01*
X101424117Y-45973346D01*
X101424123Y-45973349D01*
X101509196Y-46008587D01*
X101636113Y-46061158D01*
X101857762Y-46120548D01*
X102085266Y-46150500D01*
X102085273Y-46150500D01*
X102314727Y-46150500D01*
X102314734Y-46150500D01*
X102542238Y-46120548D01*
X102763887Y-46061158D01*
X102975888Y-45973344D01*
X103174612Y-45858611D01*
X103356661Y-45718919D01*
X103356665Y-45718914D01*
X103356670Y-45718911D01*
X103518911Y-45556670D01*
X103518914Y-45556665D01*
X103518919Y-45556661D01*
X103658611Y-45374612D01*
X103773344Y-45175888D01*
X103861158Y-44963887D01*
X103920548Y-44742238D01*
X103950500Y-44514734D01*
X103950500Y-44285266D01*
X103920548Y-44057762D01*
X103861158Y-43836113D01*
X103773344Y-43624112D01*
X103658611Y-43425388D01*
X103658608Y-43425385D01*
X103658607Y-43425382D01*
X103518918Y-43243338D01*
X103518911Y-43243330D01*
X103356670Y-43081089D01*
X103356661Y-43081081D01*
X103174617Y-42941392D01*
X102975890Y-42826657D01*
X102975876Y-42826650D01*
X102763887Y-42738842D01*
X102542238Y-42679452D01*
X102504215Y-42674446D01*
X102314741Y-42649500D01*
X102314734Y-42649500D01*
X102085266Y-42649500D01*
X102085258Y-42649500D01*
X101868715Y-42678009D01*
X101857762Y-42679452D01*
X101764076Y-42704554D01*
X101636112Y-42738842D01*
X101424123Y-42826650D01*
X101424109Y-42826657D01*
X101225382Y-42941392D01*
X101043338Y-43081081D01*
X100881081Y-43243338D01*
X100741392Y-43425382D01*
X100626657Y-43624109D01*
X100626650Y-43624123D01*
X100538842Y-43836112D01*
X100479453Y-44057759D01*
X100479451Y-44057770D01*
X100449500Y-44285258D01*
X88607286Y-44285258D01*
X86377512Y-42055485D01*
X86377511Y-42055484D01*
X86377508Y-42055482D01*
X86186434Y-41916657D01*
X85975996Y-41809433D01*
X85751368Y-41736446D01*
X85518097Y-41699500D01*
X85518092Y-41699500D01*
X67318092Y-41699500D01*
X67081908Y-41699500D01*
X67081903Y-41699500D01*
X66848631Y-41736446D01*
X66624003Y-41809433D01*
X66413563Y-41916659D01*
X66222496Y-42055476D01*
X66222491Y-42055480D01*
X56855485Y-51422487D01*
X56855484Y-51422488D01*
X56716655Y-51613567D01*
X56622004Y-51799333D01*
X56614575Y-51813914D01*
X56611902Y-51819158D01*
X56609430Y-51824011D01*
X56536447Y-52048627D01*
X56536447Y-52048630D01*
X56499500Y-52281902D01*
X56499500Y-76522716D01*
X56479815Y-76589755D01*
X56463181Y-76610397D01*
X51216181Y-81857397D01*
X51154858Y-81890882D01*
X51085166Y-81885898D01*
X51029233Y-81844026D01*
X51004816Y-81778562D01*
X51004500Y-81769716D01*
X51004500Y-81765199D01*
X50985689Y-81646433D01*
X50974842Y-81577945D01*
X50916254Y-81397632D01*
X50916252Y-81397629D01*
X50916252Y-81397627D01*
X50830180Y-81228703D01*
X50825666Y-81222490D01*
X50718741Y-81075321D01*
X50584679Y-80941259D01*
X50431296Y-80829819D01*
X50262368Y-80743746D01*
X50152139Y-80707930D01*
X50094465Y-80668493D01*
X50067267Y-80604135D01*
X50079182Y-80535288D01*
X50126426Y-80483813D01*
X50152138Y-80472070D01*
X50262368Y-80436254D01*
X50431296Y-80350181D01*
X50584679Y-80238741D01*
X50718741Y-80104679D01*
X50830181Y-79951296D01*
X50916254Y-79782368D01*
X50974842Y-79602055D01*
X50994250Y-79479515D01*
X51004500Y-79414800D01*
X51004500Y-79225199D01*
X50974854Y-79038023D01*
X50974842Y-79037945D01*
X50916254Y-78857632D01*
X50916252Y-78857629D01*
X50916252Y-78857627D01*
X50830180Y-78688703D01*
X50718741Y-78535321D01*
X50584679Y-78401259D01*
X50431296Y-78289819D01*
X50262368Y-78203746D01*
X50152139Y-78167930D01*
X50094465Y-78128493D01*
X50067267Y-78064135D01*
X50079182Y-77995288D01*
X50126426Y-77943813D01*
X50152138Y-77932070D01*
X50262368Y-77896254D01*
X50431296Y-77810181D01*
X50584679Y-77698741D01*
X50718741Y-77564679D01*
X50830181Y-77411296D01*
X50916254Y-77242368D01*
X50974842Y-77062055D01*
X50996626Y-76924514D01*
X51004500Y-76874800D01*
X51004500Y-76685199D01*
X50974854Y-76498023D01*
X50974842Y-76497945D01*
X50916254Y-76317632D01*
X50916252Y-76317629D01*
X50916252Y-76317627D01*
X50855562Y-76198517D01*
X50830181Y-76148704D01*
X50718741Y-75995321D01*
X50584679Y-75861259D01*
X50431296Y-75749819D01*
X50262368Y-75663746D01*
X50152139Y-75627930D01*
X50094465Y-75588493D01*
X50067267Y-75524135D01*
X50079182Y-75455288D01*
X50126426Y-75403813D01*
X50152138Y-75392070D01*
X50262368Y-75356254D01*
X50431296Y-75270181D01*
X50584679Y-75158741D01*
X50718741Y-75024679D01*
X50830181Y-74871296D01*
X50916254Y-74702368D01*
X50974842Y-74522055D01*
X50997735Y-74377510D01*
X51004500Y-74334800D01*
X51004500Y-74145199D01*
X50981582Y-74000500D01*
X50974842Y-73957945D01*
X50916254Y-73777632D01*
X50916252Y-73777629D01*
X50916252Y-73777627D01*
X50858066Y-73663432D01*
X50830181Y-73608704D01*
X50718741Y-73455321D01*
X50584679Y-73321259D01*
X50431296Y-73209819D01*
X50262368Y-73123746D01*
X50152139Y-73087930D01*
X50094465Y-73048493D01*
X50067267Y-72984135D01*
X50079182Y-72915288D01*
X50126426Y-72863813D01*
X50152138Y-72852070D01*
X50262368Y-72816254D01*
X50431296Y-72730181D01*
X50584679Y-72618741D01*
X50718741Y-72484679D01*
X50830181Y-72331296D01*
X50916254Y-72162368D01*
X50974842Y-71982055D01*
X50994317Y-71859090D01*
X51004500Y-71794800D01*
X51004500Y-71605199D01*
X50988023Y-71501171D01*
X50974842Y-71417945D01*
X50916254Y-71237632D01*
X50916252Y-71237629D01*
X50916252Y-71237627D01*
X50865299Y-71137628D01*
X50830181Y-71068704D01*
X50718741Y-70915321D01*
X50584679Y-70781259D01*
X50431296Y-70669819D01*
X50262368Y-70583746D01*
X50152139Y-70547930D01*
X50094465Y-70508493D01*
X50067267Y-70444135D01*
X50079182Y-70375288D01*
X50126426Y-70323813D01*
X50152138Y-70312070D01*
X50262368Y-70276254D01*
X50431296Y-70190181D01*
X50584679Y-70078741D01*
X50718741Y-69944679D01*
X50830181Y-69791296D01*
X50916254Y-69622368D01*
X50974842Y-69442055D01*
X51003612Y-69260405D01*
X51004500Y-69254800D01*
X51004500Y-69065199D01*
X50985099Y-68942708D01*
X50974842Y-68877945D01*
X50916254Y-68697632D01*
X50916252Y-68697629D01*
X50916252Y-68697627D01*
X50849025Y-68565688D01*
X50830181Y-68528704D01*
X50718741Y-68375321D01*
X50584679Y-68241259D01*
X50431296Y-68129819D01*
X50262368Y-68043746D01*
X50152139Y-68007930D01*
X50094465Y-67968493D01*
X50067267Y-67904135D01*
X50079182Y-67835288D01*
X50126426Y-67783813D01*
X50152138Y-67772070D01*
X50262368Y-67736254D01*
X50431296Y-67650181D01*
X50584679Y-67538741D01*
X50718741Y-67404679D01*
X50830181Y-67251296D01*
X50916254Y-67082368D01*
X50974842Y-66902055D01*
X50991318Y-66798022D01*
X51004500Y-66714800D01*
X51004500Y-66525199D01*
X50986344Y-66410566D01*
X50974842Y-66337945D01*
X50916254Y-66157632D01*
X50916252Y-66157629D01*
X50916252Y-66157627D01*
X50846905Y-66021527D01*
X50830181Y-65988704D01*
X50718741Y-65835321D01*
X50584679Y-65701259D01*
X50431296Y-65589819D01*
X50262368Y-65503746D01*
X50152139Y-65467930D01*
X50094465Y-65428493D01*
X50067267Y-65364135D01*
X50079182Y-65295288D01*
X50126426Y-65243813D01*
X50152138Y-65232070D01*
X50262368Y-65196254D01*
X50431296Y-65110181D01*
X50584679Y-64998741D01*
X50718741Y-64864679D01*
X50830181Y-64711296D01*
X50916254Y-64542368D01*
X50974842Y-64362055D01*
X50998905Y-64210123D01*
X51004500Y-64174800D01*
X51004500Y-63985199D01*
X50977417Y-63814204D01*
X50974842Y-63797945D01*
X50916254Y-63617632D01*
X50916252Y-63617629D01*
X50916252Y-63617627D01*
X50866253Y-63519500D01*
X50830181Y-63448704D01*
X50718741Y-63295321D01*
X50584679Y-63161259D01*
X50431296Y-63049819D01*
X50262368Y-62963746D01*
X50152139Y-62927930D01*
X50094465Y-62888493D01*
X50067267Y-62824135D01*
X50079182Y-62755288D01*
X50126426Y-62703813D01*
X50152138Y-62692070D01*
X50262368Y-62656254D01*
X50431296Y-62570181D01*
X50584679Y-62458741D01*
X50718741Y-62324679D01*
X50830181Y-62171296D01*
X50916254Y-62002368D01*
X50974842Y-61822055D01*
X50991318Y-61718022D01*
X51004500Y-61634800D01*
X51004500Y-61445199D01*
X50984208Y-61317081D01*
X50974842Y-61257945D01*
X50916254Y-61077632D01*
X50916252Y-61077629D01*
X50916252Y-61077627D01*
X50867316Y-60981585D01*
X50830181Y-60908704D01*
X50718741Y-60755321D01*
X50584679Y-60621259D01*
X50431296Y-60509819D01*
X50262368Y-60423746D01*
X50152139Y-60387930D01*
X50094465Y-60348493D01*
X50067267Y-60284135D01*
X50079182Y-60215288D01*
X50126426Y-60163813D01*
X50152138Y-60152070D01*
X50262368Y-60116254D01*
X50431296Y-60030181D01*
X50584679Y-59918741D01*
X50718741Y-59784679D01*
X50830181Y-59631296D01*
X50916254Y-59462368D01*
X50974842Y-59282055D01*
X50995192Y-59153566D01*
X51004500Y-59094800D01*
X51004500Y-58905199D01*
X50983137Y-58770318D01*
X50974842Y-58717945D01*
X50916254Y-58537632D01*
X50916252Y-58537629D01*
X50916252Y-58537627D01*
X50867316Y-58441585D01*
X50830181Y-58368704D01*
X50718741Y-58215321D01*
X50584679Y-58081259D01*
X50431296Y-57969819D01*
X50262368Y-57883746D01*
X50152139Y-57847930D01*
X50094465Y-57808493D01*
X50067267Y-57744135D01*
X50079182Y-57675288D01*
X50126426Y-57623813D01*
X50152138Y-57612070D01*
X50262368Y-57576254D01*
X50431296Y-57490181D01*
X50584679Y-57378741D01*
X50718741Y-57244679D01*
X50830181Y-57091296D01*
X50916254Y-56922368D01*
X50974842Y-56742055D01*
X50995192Y-56613566D01*
X51004500Y-56554800D01*
X51004500Y-56365199D01*
X50983137Y-56230318D01*
X50974842Y-56177945D01*
X50916254Y-55997632D01*
X50916252Y-55997629D01*
X50916252Y-55997627D01*
X50852722Y-55872944D01*
X50830181Y-55828704D01*
X50718741Y-55675321D01*
X50584679Y-55541259D01*
X50431296Y-55429819D01*
X50262368Y-55343746D01*
X50152139Y-55307930D01*
X50094465Y-55268493D01*
X50067267Y-55204135D01*
X50079182Y-55135288D01*
X50126426Y-55083813D01*
X50152138Y-55072070D01*
X50262368Y-55036254D01*
X50431296Y-54950181D01*
X50584679Y-54838741D01*
X50718741Y-54704679D01*
X50830181Y-54551296D01*
X50916254Y-54382368D01*
X50974842Y-54202055D01*
X50995192Y-54073566D01*
X51004500Y-54014800D01*
X51004500Y-53825199D01*
X50984747Y-53700485D01*
X50974842Y-53637945D01*
X50916254Y-53457632D01*
X50916252Y-53457629D01*
X50916252Y-53457627D01*
X50864809Y-53356666D01*
X50830181Y-53288704D01*
X50718741Y-53135321D01*
X50584679Y-53001259D01*
X50431296Y-52889819D01*
X50291295Y-52818485D01*
X50240499Y-52770510D01*
X50223704Y-52702689D01*
X50246241Y-52636555D01*
X50300956Y-52593103D01*
X50347590Y-52584000D01*
X50551828Y-52584000D01*
X50551844Y-52583999D01*
X50611372Y-52577598D01*
X50611379Y-52577596D01*
X50746086Y-52527354D01*
X50746093Y-52527350D01*
X50861187Y-52441190D01*
X50861190Y-52441187D01*
X50947350Y-52326093D01*
X50947354Y-52326086D01*
X50997596Y-52191379D01*
X50997598Y-52191372D01*
X51003999Y-52131844D01*
X51004000Y-52131827D01*
X51004000Y-51630000D01*
X50175278Y-51630000D01*
X50219333Y-51553694D01*
X50250000Y-51439244D01*
X50250000Y-51320756D01*
X50219333Y-51206306D01*
X50175278Y-51130000D01*
X51004000Y-51130000D01*
X51004000Y-50628172D01*
X51003999Y-50628155D01*
X50997598Y-50568627D01*
X50997596Y-50568620D01*
X50947354Y-50433913D01*
X50947350Y-50433906D01*
X50861190Y-50318812D01*
X50861187Y-50318809D01*
X50746093Y-50232649D01*
X50746086Y-50232645D01*
X50611379Y-50182403D01*
X50611372Y-50182401D01*
X50551844Y-50176000D01*
X50050000Y-50176000D01*
X50050000Y-51004722D01*
X49973694Y-50960667D01*
X49859244Y-50930000D01*
X49740756Y-50930000D01*
X49626306Y-50960667D01*
X49550000Y-51004722D01*
X49550000Y-50176000D01*
X49048155Y-50176000D01*
X48988627Y-50182401D01*
X48988620Y-50182403D01*
X48853913Y-50232645D01*
X48853906Y-50232649D01*
X48738812Y-50318809D01*
X48738809Y-50318812D01*
X48652649Y-50433906D01*
X48652645Y-50433913D01*
X48602403Y-50568620D01*
X48602401Y-50568627D01*
X48596000Y-50628155D01*
X48596000Y-51130000D01*
X49424722Y-51130000D01*
X49380667Y-51206306D01*
X49350000Y-51320756D01*
X49350000Y-51439244D01*
X49380667Y-51553694D01*
X49424722Y-51630000D01*
X48596000Y-51630000D01*
X48596000Y-52131844D01*
X48602401Y-52191372D01*
X48602403Y-52191379D01*
X48652645Y-52326086D01*
X48652649Y-52326093D01*
X48738809Y-52441187D01*
X48738812Y-52441190D01*
X48853906Y-52527350D01*
X48853913Y-52527354D01*
X48988620Y-52577596D01*
X48988627Y-52577598D01*
X49048155Y-52583999D01*
X49048172Y-52584000D01*
X49252410Y-52584000D01*
X49319449Y-52603685D01*
X49365204Y-52656489D01*
X49375148Y-52725647D01*
X49346123Y-52789203D01*
X49308705Y-52818485D01*
X49168703Y-52889819D01*
X49015319Y-53001260D01*
X48881260Y-53135319D01*
X48769819Y-53288703D01*
X48683747Y-53457627D01*
X48649263Y-53563757D01*
X48631734Y-53617708D01*
X48625157Y-53637949D01*
X48595500Y-53825199D01*
X48595500Y-54014800D01*
X48624237Y-54196239D01*
X48625158Y-54202055D01*
X48662974Y-54318439D01*
X48683747Y-54382372D01*
X48769819Y-54551296D01*
X48881259Y-54704679D01*
X49015321Y-54838741D01*
X49168704Y-54950181D01*
X49248515Y-54990846D01*
X49337627Y-55036252D01*
X49337629Y-55036252D01*
X49337632Y-55036254D01*
X49447860Y-55072069D01*
X49505534Y-55111507D01*
X49532732Y-55175866D01*
X49520817Y-55244712D01*
X49473573Y-55296188D01*
X49447861Y-55307929D01*
X49405838Y-55321583D01*
X49337627Y-55343747D01*
X49168703Y-55429819D01*
X49015319Y-55541260D01*
X48881260Y-55675319D01*
X48769819Y-55828703D01*
X48683747Y-55997627D01*
X48673332Y-56029682D01*
X48632457Y-56155483D01*
X48625157Y-56177949D01*
X48595500Y-56365199D01*
X48595500Y-56554800D01*
X48622300Y-56724010D01*
X48625158Y-56742055D01*
X48664750Y-56863905D01*
X48683747Y-56922372D01*
X48769819Y-57091296D01*
X48881259Y-57244679D01*
X49015321Y-57378741D01*
X49168704Y-57490181D01*
X49248515Y-57530846D01*
X49337627Y-57576252D01*
X49337629Y-57576252D01*
X49337632Y-57576254D01*
X49447860Y-57612069D01*
X49505534Y-57651507D01*
X49532732Y-57715866D01*
X49520817Y-57784712D01*
X49473573Y-57836188D01*
X49447861Y-57847929D01*
X49405838Y-57861583D01*
X49337627Y-57883747D01*
X49168703Y-57969819D01*
X49015319Y-58081260D01*
X48881260Y-58215319D01*
X48769819Y-58368703D01*
X48683747Y-58537627D01*
X48673332Y-58569682D01*
X48640737Y-58670000D01*
X48625157Y-58717949D01*
X48595500Y-58905199D01*
X48595500Y-59094800D01*
X48624237Y-59276239D01*
X48625158Y-59282055D01*
X48664750Y-59403905D01*
X48683747Y-59462372D01*
X48769819Y-59631296D01*
X48881259Y-59784679D01*
X49015321Y-59918741D01*
X49168704Y-60030181D01*
X49248515Y-60070846D01*
X49337627Y-60116252D01*
X49337629Y-60116252D01*
X49337632Y-60116254D01*
X49447860Y-60152069D01*
X49505534Y-60191507D01*
X49532732Y-60255866D01*
X49520817Y-60324712D01*
X49473573Y-60376188D01*
X49447861Y-60387929D01*
X49405838Y-60401583D01*
X49337627Y-60423747D01*
X49168703Y-60509819D01*
X49015319Y-60621260D01*
X48881260Y-60755319D01*
X48769819Y-60908703D01*
X48683747Y-61077627D01*
X48625157Y-61257949D01*
X48595500Y-61445199D01*
X48595500Y-61634800D01*
X48625157Y-61822050D01*
X48625158Y-61822055D01*
X48649856Y-61898067D01*
X48683747Y-62002372D01*
X48746967Y-62126446D01*
X48769819Y-62171296D01*
X48881259Y-62324679D01*
X49015321Y-62458741D01*
X49168704Y-62570181D01*
X49248515Y-62610846D01*
X49337627Y-62656252D01*
X49337629Y-62656252D01*
X49337632Y-62656254D01*
X49447860Y-62692069D01*
X49505534Y-62731507D01*
X49532732Y-62795866D01*
X49520817Y-62864712D01*
X49473573Y-62916188D01*
X49447861Y-62927929D01*
X49405838Y-62941583D01*
X49337627Y-62963747D01*
X49168703Y-63049819D01*
X49015319Y-63161260D01*
X48881260Y-63295319D01*
X48769819Y-63448703D01*
X48683747Y-63617627D01*
X48653274Y-63711413D01*
X48631058Y-63779789D01*
X48625157Y-63797949D01*
X48595500Y-63985199D01*
X48595500Y-64174800D01*
X48604808Y-64233567D01*
X48625158Y-64362055D01*
X48658831Y-64465689D01*
X48683747Y-64542372D01*
X48769819Y-64711296D01*
X48881259Y-64864679D01*
X49015321Y-64998741D01*
X49168704Y-65110181D01*
X49248515Y-65150846D01*
X49337627Y-65196252D01*
X49337629Y-65196252D01*
X49337632Y-65196254D01*
X49447860Y-65232069D01*
X49505534Y-65271507D01*
X49532732Y-65335866D01*
X49520817Y-65404712D01*
X49473573Y-65456188D01*
X49447861Y-65467929D01*
X49405838Y-65481583D01*
X49337627Y-65503747D01*
X49168703Y-65589819D01*
X49015319Y-65701260D01*
X48881260Y-65835319D01*
X48769819Y-65988703D01*
X48683747Y-66157627D01*
X48625157Y-66337949D01*
X48595500Y-66525199D01*
X48595500Y-66714800D01*
X48624237Y-66896239D01*
X48625158Y-66902055D01*
X48664750Y-67023905D01*
X48683747Y-67082372D01*
X48769819Y-67251296D01*
X48881259Y-67404679D01*
X49015321Y-67538741D01*
X49168704Y-67650181D01*
X49248515Y-67690846D01*
X49337627Y-67736252D01*
X49337629Y-67736252D01*
X49337632Y-67736254D01*
X49447860Y-67772069D01*
X49505534Y-67811507D01*
X49532732Y-67875866D01*
X49520817Y-67944712D01*
X49473573Y-67996188D01*
X49447861Y-68007929D01*
X49405838Y-68021583D01*
X49337627Y-68043747D01*
X49168703Y-68129819D01*
X49015319Y-68241260D01*
X48881260Y-68375319D01*
X48769819Y-68528703D01*
X48683747Y-68697627D01*
X48625157Y-68877949D01*
X48595500Y-69065199D01*
X48595500Y-69254800D01*
X48624437Y-69437501D01*
X48625158Y-69442055D01*
X48653732Y-69529995D01*
X48683747Y-69622372D01*
X48746485Y-69745500D01*
X48769819Y-69791296D01*
X48881259Y-69944679D01*
X49015321Y-70078741D01*
X49168704Y-70190181D01*
X49248515Y-70230846D01*
X49337627Y-70276252D01*
X49337629Y-70276252D01*
X49337632Y-70276254D01*
X49447860Y-70312069D01*
X49505534Y-70351507D01*
X49532732Y-70415866D01*
X49520817Y-70484712D01*
X49473573Y-70536188D01*
X49447861Y-70547929D01*
X49405838Y-70561583D01*
X49337627Y-70583747D01*
X49168703Y-70669819D01*
X49015319Y-70781260D01*
X48881260Y-70915319D01*
X48769819Y-71068703D01*
X48683747Y-71237627D01*
X48654275Y-71328334D01*
X48638588Y-71376614D01*
X48625157Y-71417949D01*
X48595500Y-71605199D01*
X48595500Y-71794800D01*
X48625157Y-71982050D01*
X48625158Y-71982055D01*
X48663284Y-72099392D01*
X48683747Y-72162372D01*
X48754883Y-72301983D01*
X48769819Y-72331296D01*
X48881259Y-72484679D01*
X49015321Y-72618741D01*
X49168704Y-72730181D01*
X49248515Y-72770846D01*
X49337627Y-72816252D01*
X49337629Y-72816252D01*
X49337632Y-72816254D01*
X49447860Y-72852069D01*
X49505534Y-72891507D01*
X49532732Y-72955866D01*
X49520817Y-73024712D01*
X49473573Y-73076188D01*
X49447861Y-73087929D01*
X49405838Y-73101583D01*
X49337627Y-73123747D01*
X49168703Y-73209819D01*
X49015319Y-73321260D01*
X48881260Y-73455319D01*
X48769819Y-73608703D01*
X48683747Y-73777627D01*
X48649263Y-73883757D01*
X48640905Y-73909483D01*
X48625157Y-73957949D01*
X48595500Y-74145199D01*
X48595500Y-74334800D01*
X48625157Y-74522050D01*
X48625158Y-74522055D01*
X48662014Y-74635484D01*
X48683747Y-74702372D01*
X48769819Y-74871296D01*
X48881259Y-75024679D01*
X49015321Y-75158741D01*
X49168704Y-75270181D01*
X49248515Y-75310846D01*
X49337627Y-75356252D01*
X49337629Y-75356252D01*
X49337632Y-75356254D01*
X49447860Y-75392069D01*
X49505534Y-75431507D01*
X49532732Y-75495866D01*
X49520817Y-75564712D01*
X49473573Y-75616188D01*
X49447861Y-75627929D01*
X49405838Y-75641583D01*
X49337627Y-75663747D01*
X49168703Y-75749819D01*
X49015319Y-75861260D01*
X48881260Y-75995319D01*
X48769819Y-76148703D01*
X48683747Y-76317627D01*
X48625157Y-76497949D01*
X48595500Y-76685199D01*
X48595500Y-76874800D01*
X48625157Y-77062050D01*
X48625158Y-77062055D01*
X48663703Y-77180683D01*
X48683747Y-77242372D01*
X48763416Y-77398729D01*
X48769819Y-77411296D01*
X48881259Y-77564679D01*
X49015321Y-77698741D01*
X49168704Y-77810181D01*
X49221695Y-77837181D01*
X49337627Y-77896252D01*
X49337629Y-77896252D01*
X49337632Y-77896254D01*
X49447860Y-77932069D01*
X49505534Y-77971507D01*
X49532732Y-78035866D01*
X49520817Y-78104712D01*
X49473573Y-78156188D01*
X49447861Y-78167929D01*
X49418377Y-78177510D01*
X49337627Y-78203747D01*
X49168703Y-78289819D01*
X49015319Y-78401260D01*
X48881260Y-78535319D01*
X48769819Y-78688703D01*
X48683747Y-78857627D01*
X48625157Y-79037949D01*
X48595500Y-79225199D01*
X48595500Y-79414800D01*
X48625157Y-79602050D01*
X48625158Y-79602055D01*
X48662014Y-79715485D01*
X48683747Y-79782372D01*
X48769819Y-79951296D01*
X48881259Y-80104679D01*
X49015321Y-80238741D01*
X49168704Y-80350181D01*
X49248515Y-80390846D01*
X49337627Y-80436252D01*
X49337629Y-80436252D01*
X49337632Y-80436254D01*
X49447860Y-80472069D01*
X49505534Y-80511507D01*
X49532732Y-80575866D01*
X49520817Y-80644712D01*
X49473573Y-80696188D01*
X49447861Y-80707929D01*
X49405838Y-80721583D01*
X49337627Y-80743747D01*
X49168703Y-80829819D01*
X49015319Y-80941260D01*
X48881260Y-81075319D01*
X48769819Y-81228703D01*
X48683747Y-81397627D01*
X48625157Y-81577949D01*
X48595500Y-81765199D01*
X48595500Y-81954800D01*
X48625157Y-82142050D01*
X48625158Y-82142055D01*
X48662014Y-82255484D01*
X48683747Y-82322372D01*
X48769819Y-82491296D01*
X48881259Y-82644679D01*
X49015321Y-82778741D01*
X49124274Y-82857900D01*
X49166938Y-82913229D01*
X49172917Y-82982843D01*
X49140311Y-83044637D01*
X49107683Y-83068701D01*
X49013569Y-83116655D01*
X48964217Y-83152512D01*
X48822490Y-83255483D01*
X48822488Y-83255485D01*
X48822487Y-83255485D01*
X48655485Y-83422487D01*
X48655485Y-83422488D01*
X48655483Y-83422490D01*
X48613548Y-83480208D01*
X48516657Y-83613566D01*
X48409433Y-83824003D01*
X48336446Y-84048631D01*
X48299500Y-84281902D01*
X47750500Y-84281902D01*
X47750500Y-84253713D01*
X47717246Y-84043757D01*
X47651557Y-83841588D01*
X47555051Y-83652184D01*
X47555049Y-83652181D01*
X47555048Y-83652179D01*
X47430109Y-83480213D01*
X47279786Y-83329890D01*
X47107820Y-83204951D01*
X47107115Y-83204591D01*
X47099054Y-83200485D01*
X47048259Y-83152512D01*
X47031463Y-83084692D01*
X47053999Y-83018556D01*
X47099054Y-82979515D01*
X47107816Y-82975051D01*
X47129789Y-82959086D01*
X47279786Y-82850109D01*
X47279788Y-82850106D01*
X47279792Y-82850104D01*
X47430104Y-82699792D01*
X47430106Y-82699788D01*
X47430109Y-82699786D01*
X47555048Y-82527820D01*
X47555047Y-82527820D01*
X47555051Y-82527816D01*
X47651557Y-82338412D01*
X47717246Y-82136243D01*
X47750500Y-81926287D01*
X47750500Y-81713713D01*
X47717246Y-81503757D01*
X47651557Y-81301588D01*
X47555051Y-81112184D01*
X47555049Y-81112181D01*
X47555048Y-81112179D01*
X47430109Y-80940213D01*
X47279786Y-80789890D01*
X47107820Y-80664951D01*
X47107115Y-80664591D01*
X47099054Y-80660485D01*
X47048259Y-80612512D01*
X47031463Y-80544692D01*
X47053999Y-80478556D01*
X47099054Y-80439515D01*
X47107816Y-80435051D01*
X47129789Y-80419086D01*
X47279786Y-80310109D01*
X47279788Y-80310106D01*
X47279792Y-80310104D01*
X47430104Y-80159792D01*
X47430106Y-80159788D01*
X47430109Y-80159786D01*
X47555048Y-79987820D01*
X47555047Y-79987820D01*
X47555051Y-79987816D01*
X47651557Y-79798412D01*
X47717246Y-79596243D01*
X47750500Y-79386287D01*
X47750500Y-79173713D01*
X47717246Y-78963757D01*
X47651557Y-78761588D01*
X47555051Y-78572184D01*
X47555049Y-78572181D01*
X47555048Y-78572179D01*
X47430109Y-78400213D01*
X47279786Y-78249890D01*
X47107820Y-78124951D01*
X47107115Y-78124591D01*
X47099054Y-78120485D01*
X47048259Y-78072512D01*
X47031463Y-78004692D01*
X47053999Y-77938556D01*
X47099054Y-77899515D01*
X47107816Y-77895051D01*
X47187468Y-77837181D01*
X47279786Y-77770109D01*
X47279788Y-77770106D01*
X47279792Y-77770104D01*
X47430104Y-77619792D01*
X47430106Y-77619788D01*
X47430109Y-77619786D01*
X47555048Y-77447820D01*
X47555047Y-77447820D01*
X47555051Y-77447816D01*
X47651557Y-77258412D01*
X47717246Y-77056243D01*
X47750500Y-76846287D01*
X47750500Y-76633713D01*
X47717246Y-76423757D01*
X47651557Y-76221588D01*
X47555051Y-76032184D01*
X47555049Y-76032181D01*
X47555048Y-76032179D01*
X47430109Y-75860213D01*
X47279786Y-75709890D01*
X47107820Y-75584951D01*
X47107115Y-75584591D01*
X47099054Y-75580485D01*
X47048259Y-75532512D01*
X47031463Y-75464692D01*
X47053999Y-75398556D01*
X47099054Y-75359515D01*
X47107816Y-75355051D01*
X47129789Y-75339086D01*
X47279786Y-75230109D01*
X47279788Y-75230106D01*
X47279792Y-75230104D01*
X47430104Y-75079792D01*
X47430106Y-75079788D01*
X47430109Y-75079786D01*
X47555048Y-74907820D01*
X47555047Y-74907820D01*
X47555051Y-74907816D01*
X47651557Y-74718412D01*
X47717246Y-74516243D01*
X47750500Y-74306287D01*
X47750500Y-74093713D01*
X47717246Y-73883757D01*
X47651557Y-73681588D01*
X47555051Y-73492184D01*
X47555049Y-73492181D01*
X47555048Y-73492179D01*
X47430109Y-73320213D01*
X47279786Y-73169890D01*
X47107820Y-73044951D01*
X47107115Y-73044591D01*
X47099054Y-73040485D01*
X47048259Y-72992512D01*
X47031463Y-72924692D01*
X47053999Y-72858556D01*
X47099054Y-72819515D01*
X47107816Y-72815051D01*
X47158162Y-72778473D01*
X47279786Y-72690109D01*
X47279788Y-72690106D01*
X47279792Y-72690104D01*
X47430104Y-72539792D01*
X47430106Y-72539788D01*
X47430109Y-72539786D01*
X47555048Y-72367820D01*
X47555047Y-72367820D01*
X47555051Y-72367816D01*
X47651557Y-72178412D01*
X47717246Y-71976243D01*
X47750500Y-71766287D01*
X47750500Y-71553713D01*
X47717246Y-71343757D01*
X47651557Y-71141588D01*
X47555051Y-70952184D01*
X47555049Y-70952181D01*
X47555048Y-70952179D01*
X47430109Y-70780213D01*
X47279786Y-70629890D01*
X47107820Y-70504951D01*
X47107115Y-70504591D01*
X47099054Y-70500485D01*
X47048259Y-70452512D01*
X47031463Y-70384692D01*
X47053999Y-70318556D01*
X47099054Y-70279515D01*
X47107816Y-70275051D01*
X47156290Y-70239833D01*
X47279786Y-70150109D01*
X47279788Y-70150106D01*
X47279792Y-70150104D01*
X47430104Y-69999792D01*
X47430106Y-69999788D01*
X47430109Y-69999786D01*
X47555048Y-69827820D01*
X47555047Y-69827820D01*
X47555051Y-69827816D01*
X47651557Y-69638412D01*
X47717246Y-69436243D01*
X47750500Y-69226287D01*
X47750500Y-69013713D01*
X47717246Y-68803757D01*
X47651557Y-68601588D01*
X47555051Y-68412184D01*
X47555049Y-68412181D01*
X47555048Y-68412179D01*
X47430109Y-68240213D01*
X47279786Y-68089890D01*
X47107820Y-67964951D01*
X47107115Y-67964591D01*
X47099054Y-67960485D01*
X47048259Y-67912512D01*
X47031463Y-67844692D01*
X47053999Y-67778556D01*
X47099054Y-67739515D01*
X47107816Y-67735051D01*
X47223264Y-67651174D01*
X47279786Y-67610109D01*
X47279788Y-67610106D01*
X47279792Y-67610104D01*
X47430104Y-67459792D01*
X47430106Y-67459788D01*
X47430109Y-67459786D01*
X47555048Y-67287820D01*
X47555047Y-67287820D01*
X47555051Y-67287816D01*
X47651557Y-67098412D01*
X47717246Y-66896243D01*
X47750500Y-66686287D01*
X47750500Y-66473713D01*
X47717246Y-66263757D01*
X47651557Y-66061588D01*
X47555051Y-65872184D01*
X47555049Y-65872181D01*
X47555048Y-65872179D01*
X47430109Y-65700213D01*
X47279786Y-65549890D01*
X47107820Y-65424951D01*
X47107115Y-65424591D01*
X47099054Y-65420485D01*
X47048259Y-65372512D01*
X47031463Y-65304692D01*
X47053999Y-65238556D01*
X47099054Y-65199515D01*
X47107816Y-65195051D01*
X47186214Y-65138092D01*
X47279786Y-65070109D01*
X47279788Y-65070106D01*
X47279792Y-65070104D01*
X47430104Y-64919792D01*
X47430106Y-64919788D01*
X47430109Y-64919786D01*
X47555048Y-64747820D01*
X47555047Y-64747820D01*
X47555051Y-64747816D01*
X47651557Y-64558412D01*
X47717246Y-64356243D01*
X47750500Y-64146287D01*
X47750500Y-63933713D01*
X47717246Y-63723757D01*
X47651557Y-63521588D01*
X47555051Y-63332184D01*
X47555049Y-63332181D01*
X47555048Y-63332179D01*
X47430109Y-63160213D01*
X47279786Y-63009890D01*
X47107820Y-62884951D01*
X47107115Y-62884591D01*
X47099054Y-62880485D01*
X47048259Y-62832512D01*
X47031463Y-62764692D01*
X47053999Y-62698556D01*
X47099054Y-62659515D01*
X47107816Y-62655051D01*
X47129789Y-62639086D01*
X47279786Y-62530109D01*
X47279788Y-62530106D01*
X47279792Y-62530104D01*
X47430104Y-62379792D01*
X47430106Y-62379788D01*
X47430109Y-62379786D01*
X47555048Y-62207820D01*
X47555047Y-62207820D01*
X47555051Y-62207816D01*
X47651557Y-62018412D01*
X47717246Y-61816243D01*
X47750500Y-61606287D01*
X47750500Y-61393713D01*
X47717246Y-61183757D01*
X47651557Y-60981588D01*
X47555051Y-60792184D01*
X47555049Y-60792181D01*
X47555048Y-60792179D01*
X47430109Y-60620213D01*
X47279786Y-60469890D01*
X47107820Y-60344951D01*
X47107115Y-60344591D01*
X47099054Y-60340485D01*
X47048259Y-60292512D01*
X47031463Y-60224692D01*
X47053999Y-60158556D01*
X47099054Y-60119515D01*
X47107816Y-60115051D01*
X47186214Y-60058092D01*
X47279786Y-59990109D01*
X47279788Y-59990106D01*
X47279792Y-59990104D01*
X47430104Y-59839792D01*
X47430106Y-59839788D01*
X47430109Y-59839786D01*
X47555048Y-59667820D01*
X47555047Y-59667820D01*
X47555051Y-59667816D01*
X47651557Y-59478412D01*
X47717246Y-59276243D01*
X47750500Y-59066287D01*
X47750500Y-58853713D01*
X47717246Y-58643757D01*
X47651557Y-58441588D01*
X47555051Y-58252184D01*
X47555049Y-58252181D01*
X47555048Y-58252179D01*
X47430109Y-58080213D01*
X47279786Y-57929890D01*
X47107820Y-57804951D01*
X47107115Y-57804591D01*
X47099054Y-57800485D01*
X47048259Y-57752512D01*
X47031463Y-57684692D01*
X47053999Y-57618556D01*
X47099054Y-57579515D01*
X47107816Y-57575051D01*
X47186214Y-57518092D01*
X47279786Y-57450109D01*
X47279788Y-57450106D01*
X47279792Y-57450104D01*
X47430104Y-57299792D01*
X47430106Y-57299788D01*
X47430109Y-57299786D01*
X47555048Y-57127820D01*
X47555047Y-57127820D01*
X47555051Y-57127816D01*
X47651557Y-56938412D01*
X47717246Y-56736243D01*
X47750500Y-56526287D01*
X47750500Y-56313713D01*
X47717246Y-56103757D01*
X47651557Y-55901588D01*
X47555051Y-55712184D01*
X47555049Y-55712181D01*
X47555048Y-55712179D01*
X47430109Y-55540213D01*
X47279786Y-55389890D01*
X47107820Y-55264951D01*
X47107115Y-55264591D01*
X47099054Y-55260485D01*
X47048259Y-55212512D01*
X47031463Y-55144692D01*
X47053999Y-55078556D01*
X47099054Y-55039515D01*
X47107816Y-55035051D01*
X47186214Y-54978092D01*
X47279786Y-54910109D01*
X47279788Y-54910106D01*
X47279792Y-54910104D01*
X47430104Y-54759792D01*
X47430106Y-54759788D01*
X47430109Y-54759786D01*
X47555048Y-54587820D01*
X47555047Y-54587820D01*
X47555051Y-54587816D01*
X47651557Y-54398412D01*
X47717246Y-54196243D01*
X47750500Y-53986287D01*
X47750500Y-53773713D01*
X47717246Y-53563757D01*
X47651557Y-53361588D01*
X47555051Y-53172184D01*
X47555049Y-53172181D01*
X47555048Y-53172179D01*
X47430109Y-53000213D01*
X47316181Y-52886285D01*
X47282696Y-52824962D01*
X47287680Y-52755270D01*
X47329552Y-52699337D01*
X47360529Y-52682422D01*
X47492086Y-52633354D01*
X47492093Y-52633350D01*
X47607187Y-52547190D01*
X47607190Y-52547187D01*
X47693350Y-52432093D01*
X47693354Y-52432086D01*
X47743596Y-52297379D01*
X47743598Y-52297372D01*
X47749999Y-52237844D01*
X47750000Y-52237827D01*
X47750000Y-51590000D01*
X46833012Y-51590000D01*
X46865925Y-51532993D01*
X46900000Y-51405826D01*
X46900000Y-51274174D01*
X46865925Y-51147007D01*
X46833012Y-51090000D01*
X47750000Y-51090000D01*
X47750000Y-50442172D01*
X47749999Y-50442155D01*
X47743598Y-50382627D01*
X47743596Y-50382620D01*
X47693354Y-50247913D01*
X47693350Y-50247906D01*
X47607190Y-50132812D01*
X47607187Y-50132809D01*
X47492093Y-50046649D01*
X47492086Y-50046645D01*
X47357379Y-49996403D01*
X47357372Y-49996401D01*
X47297844Y-49990000D01*
X46650000Y-49990000D01*
X46650000Y-50906988D01*
X46592993Y-50874075D01*
X46465826Y-50840000D01*
X46334174Y-50840000D01*
X46207007Y-50874075D01*
X46150000Y-50906988D01*
X46150000Y-49990000D01*
X45502155Y-49990000D01*
X45442627Y-49996401D01*
X45442620Y-49996403D01*
X45307913Y-50046645D01*
X45307906Y-50046649D01*
X45192812Y-50132809D01*
X45192809Y-50132812D01*
X45106649Y-50247906D01*
X45106645Y-50247913D01*
X45056403Y-50382620D01*
X45056401Y-50382627D01*
X45050000Y-50442155D01*
X45050000Y-51090000D01*
X45966988Y-51090000D01*
X45934075Y-51147007D01*
X45900000Y-51274174D01*
X45900000Y-51405826D01*
X45934075Y-51532993D01*
X45966988Y-51590000D01*
X45050000Y-51590000D01*
X45050000Y-52237844D01*
X45056401Y-52297372D01*
X45056403Y-52297379D01*
X45106645Y-52432086D01*
X45106649Y-52432093D01*
X45192809Y-52547187D01*
X45192812Y-52547190D01*
X45307906Y-52633350D01*
X45307913Y-52633354D01*
X45439470Y-52682422D01*
X45495404Y-52724293D01*
X45519821Y-52789758D01*
X45504969Y-52858031D01*
X45483819Y-52886285D01*
X45369889Y-53000215D01*
X45244951Y-53172179D01*
X45148444Y-53361585D01*
X45082753Y-53563760D01*
X45058723Y-53715483D01*
X45049500Y-53773713D01*
X42400500Y-53773713D01*
X42400500Y-38624500D01*
X42420185Y-38557461D01*
X42472989Y-38511706D01*
X42524500Y-38500500D01*
X161075500Y-38500500D01*
X161142539Y-38520185D01*
G37*
G04 #@! TD.AperFunction*
G04 #@! TA.AperFunction,Conductor*
G36*
X158541539Y-46920185D02*
G01*
X158587294Y-46972989D01*
X158598500Y-47024500D01*
X158598500Y-63395500D01*
X158578815Y-63462539D01*
X158526011Y-63508294D01*
X158474500Y-63519500D01*
X146337309Y-63519500D01*
X146270270Y-63499815D01*
X146249628Y-63483181D01*
X145735942Y-62969494D01*
X145796081Y-62953381D01*
X145911920Y-62886502D01*
X146006502Y-62791920D01*
X146073381Y-62676081D01*
X146089495Y-62615942D01*
X146652268Y-63178715D01*
X146679362Y-63141425D01*
X146769542Y-62964437D01*
X146830924Y-62775523D01*
X146830924Y-62775520D01*
X146862000Y-62579321D01*
X146862000Y-62380678D01*
X146830924Y-62184479D01*
X146830924Y-62184476D01*
X146769542Y-61995562D01*
X146679358Y-61818567D01*
X146652268Y-61781283D01*
X146089494Y-62344057D01*
X146073381Y-62283919D01*
X146006502Y-62168080D01*
X145911920Y-62073498D01*
X145796081Y-62006619D01*
X145735940Y-61990504D01*
X146249628Y-61476819D01*
X146310951Y-61443334D01*
X146337309Y-61440500D01*
X156578097Y-61440500D01*
X156811368Y-61403553D01*
X156841652Y-61393713D01*
X157035992Y-61330568D01*
X157246434Y-61223343D01*
X157437510Y-61084517D01*
X157744517Y-60777510D01*
X157883343Y-60586433D01*
X157990568Y-60375992D01*
X158063553Y-60151368D01*
X158068598Y-60119514D01*
X158100500Y-59918097D01*
X158100500Y-59681902D01*
X158068270Y-59478414D01*
X158063553Y-59448631D01*
X157990568Y-59224008D01*
X157883343Y-59013566D01*
X157744517Y-58822490D01*
X157577510Y-58655483D01*
X157572774Y-58652042D01*
X157530110Y-58596712D01*
X157524132Y-58527099D01*
X157556739Y-58465304D01*
X157557907Y-58464119D01*
X157744517Y-58277510D01*
X157883343Y-58086434D01*
X157990568Y-57875992D01*
X158063552Y-57651369D01*
X158084661Y-57518092D01*
X158100499Y-57418097D01*
X158100499Y-57181902D01*
X158079004Y-57046197D01*
X158063552Y-56948632D01*
X157995214Y-56738306D01*
X157990569Y-56724010D01*
X157990568Y-56724007D01*
X157889824Y-56526287D01*
X157883343Y-56513567D01*
X157744517Y-56322490D01*
X157577510Y-56155483D01*
X157404805Y-56030005D01*
X157386432Y-56016656D01*
X157374674Y-56010665D01*
X157323880Y-55962689D01*
X157307087Y-55894867D01*
X157329627Y-55828733D01*
X157358089Y-55799863D01*
X157417248Y-55756882D01*
X157417248Y-55756881D01*
X157417252Y-55756879D01*
X157556879Y-55617252D01*
X157556881Y-55617248D01*
X157556884Y-55617246D01*
X157626305Y-55521694D01*
X157672944Y-55457501D01*
X157762591Y-55281561D01*
X157823610Y-55093763D01*
X157841930Y-54978097D01*
X157854500Y-54898736D01*
X157854500Y-54701263D01*
X157823610Y-54506236D01*
X157788576Y-54398414D01*
X157762591Y-54318439D01*
X157672944Y-54142499D01*
X157665486Y-54132234D01*
X157556884Y-53982753D01*
X157417250Y-53843119D01*
X157417245Y-53843115D01*
X157358088Y-53800135D01*
X157338481Y-53774709D01*
X157317684Y-53750231D01*
X157317280Y-53747214D01*
X157315422Y-53744805D01*
X157312674Y-53712814D01*
X157308412Y-53680979D01*
X157309703Y-53678222D01*
X157309443Y-53675192D01*
X157324428Y-53646790D01*
X157338053Y-53617708D01*
X157340962Y-53615453D01*
X157342048Y-53613397D01*
X157364949Y-53594856D01*
X157369688Y-53591874D01*
X157386433Y-53583343D01*
X157406952Y-53568434D01*
X157410454Y-53566232D01*
X157430066Y-53560679D01*
X157454280Y-53551352D01*
X157453932Y-53549876D01*
X157461479Y-53548092D01*
X157461481Y-53548091D01*
X157461483Y-53548091D01*
X157596331Y-53497796D01*
X157711546Y-53411546D01*
X157797796Y-53296331D01*
X157848091Y-53161483D01*
X157848091Y-53161477D01*
X157849875Y-53153933D01*
X157851351Y-53154281D01*
X157870877Y-53103589D01*
X157883343Y-53086433D01*
X157990568Y-52875992D01*
X158063553Y-52651368D01*
X158078841Y-52554842D01*
X158100500Y-52418097D01*
X158100500Y-52181902D01*
X158063553Y-51948631D01*
X158019217Y-51812181D01*
X157990568Y-51724008D01*
X157990566Y-51724005D01*
X157990566Y-51724003D01*
X157934295Y-51613566D01*
X157883343Y-51513567D01*
X157870872Y-51496403D01*
X157851352Y-51445719D01*
X157849876Y-51446068D01*
X157848092Y-51438520D01*
X157797797Y-51303671D01*
X157797793Y-51303664D01*
X157711547Y-51188455D01*
X157711544Y-51188452D01*
X157596335Y-51102206D01*
X157596328Y-51102202D01*
X157461487Y-51051910D01*
X157453940Y-51050127D01*
X157454287Y-51048656D01*
X157403595Y-51029125D01*
X157386436Y-51016658D01*
X157175996Y-50909433D01*
X156951368Y-50836446D01*
X156718097Y-50799500D01*
X156718092Y-50799500D01*
X156453304Y-50799500D01*
X156217120Y-50799500D01*
X156217115Y-50799500D01*
X155983843Y-50836446D01*
X155759212Y-50909434D01*
X155672382Y-50953677D01*
X155603713Y-50966573D01*
X155538973Y-50940296D01*
X155498716Y-50883190D01*
X155494471Y-50818999D01*
X155500500Y-50788691D01*
X155500500Y-50611306D01*
X155500499Y-50611304D01*
X155465896Y-50437341D01*
X155465893Y-50437332D01*
X155398016Y-50273459D01*
X155398009Y-50273446D01*
X155299464Y-50125965D01*
X155299461Y-50125961D01*
X155174038Y-50000538D01*
X155174034Y-50000535D01*
X155026553Y-49901990D01*
X155026540Y-49901983D01*
X154862667Y-49834106D01*
X154862658Y-49834103D01*
X154688694Y-49799500D01*
X154688691Y-49799500D01*
X154511309Y-49799500D01*
X154511306Y-49799500D01*
X154337341Y-49834103D01*
X154337332Y-49834106D01*
X154173459Y-49901983D01*
X154173446Y-49901990D01*
X154025965Y-50000535D01*
X154025961Y-50000538D01*
X153900538Y-50125961D01*
X153900535Y-50125965D01*
X153801990Y-50273446D01*
X153801983Y-50273459D01*
X153734106Y-50437332D01*
X153734103Y-50437341D01*
X153699500Y-50611304D01*
X153699500Y-50788695D01*
X153734103Y-50962658D01*
X153734106Y-50962667D01*
X153801983Y-51126540D01*
X153801990Y-51126553D01*
X153900535Y-51274034D01*
X153900538Y-51274038D01*
X154025961Y-51399461D01*
X154025965Y-51399464D01*
X154173446Y-51498009D01*
X154173459Y-51498016D01*
X154257903Y-51532993D01*
X154337334Y-51565894D01*
X154337336Y-51565894D01*
X154337341Y-51565896D01*
X154511304Y-51600499D01*
X154511307Y-51600500D01*
X154613321Y-51600500D01*
X154680360Y-51620185D01*
X154726115Y-51672989D01*
X154736059Y-51742147D01*
X154707034Y-51805703D01*
X154701002Y-51812181D01*
X153190004Y-53323181D01*
X153128681Y-53356666D01*
X153102323Y-53359500D01*
X146645307Y-53359500D01*
X146578268Y-53339815D01*
X146532513Y-53287011D01*
X146522569Y-53217853D01*
X146551594Y-53154297D01*
X146557626Y-53147819D01*
X146562981Y-53142464D01*
X146679787Y-52981694D01*
X146770005Y-52804632D01*
X146831413Y-52615636D01*
X146862500Y-52419361D01*
X146862500Y-52220639D01*
X146831413Y-52024364D01*
X146777493Y-51858414D01*
X146770006Y-51835370D01*
X146770005Y-51835367D01*
X146681697Y-51662055D01*
X146679787Y-51658306D01*
X146562981Y-51497536D01*
X146557626Y-51492181D01*
X146524141Y-51430858D01*
X146529125Y-51361166D01*
X146570997Y-51305233D01*
X146636461Y-51280816D01*
X146645307Y-51280500D01*
X150138097Y-51280500D01*
X150371368Y-51243553D01*
X150401652Y-51233713D01*
X150595992Y-51170568D01*
X150806434Y-51063343D01*
X150997510Y-50924517D01*
X154985208Y-46936819D01*
X155046531Y-46903334D01*
X155072889Y-46900500D01*
X158474500Y-46900500D01*
X158541539Y-46920185D01*
G37*
G04 #@! TD.AperFunction*
G04 #@! TA.AperFunction,Conductor*
G36*
X132747987Y-85197195D02*
G01*
X132753603Y-85204170D01*
X132753848Y-85205165D01*
X132900540Y-85937703D01*
X132900540Y-85942297D01*
X132753848Y-86674834D01*
X132748864Y-86682274D01*
X132740079Y-86684009D01*
X132739084Y-86683764D01*
X130637050Y-86067465D01*
X130630075Y-86061849D01*
X130628642Y-86056238D01*
X130628642Y-85823761D01*
X130632069Y-85815488D01*
X130637047Y-85812535D01*
X132739085Y-85196235D01*
X132747987Y-85197195D01*
G37*
G04 #@! TD.AperFunction*
G04 #@! TA.AperFunction,Conductor*
G36*
X79512284Y-73738136D02*
G01*
X79512846Y-73739071D01*
X80137318Y-74896994D01*
X80675826Y-75895517D01*
X80676737Y-75904426D01*
X80673801Y-75909344D01*
X80509344Y-76073801D01*
X80501071Y-76077228D01*
X80495518Y-76075826D01*
X79398219Y-75484048D01*
X78339071Y-74912846D01*
X78333416Y-74905903D01*
X78334327Y-74896994D01*
X78334879Y-74896074D01*
X78797995Y-74201239D01*
X78801239Y-74197995D01*
X79496061Y-73734888D01*
X79504844Y-73733152D01*
X79512284Y-73738136D01*
G37*
G04 #@! TD.AperFunction*
G04 #@! TA.AperFunction,Conductor*
G36*
X80889805Y-70479212D02*
G01*
X80894462Y-70486861D01*
X80894601Y-70488658D01*
X80894601Y-70720201D01*
X80891231Y-70728417D01*
X79513534Y-72125355D01*
X79505285Y-72128839D01*
X79498710Y-72126871D01*
X78803041Y-71662696D01*
X78798061Y-71655255D01*
X78636537Y-70838289D01*
X78638294Y-70829510D01*
X78645746Y-70824543D01*
X78646175Y-70824467D01*
X80881106Y-70477097D01*
X80889805Y-70479212D01*
G37*
G04 #@! TD.AperFunction*
G04 #@! TA.AperFunction,Conductor*
G36*
X132145566Y-64265557D02*
G01*
X132892710Y-65011721D01*
X132896142Y-65019992D01*
X132892721Y-65028268D01*
X132892710Y-65028279D01*
X132145566Y-65774442D01*
X132137290Y-65777863D01*
X132129794Y-65775140D01*
X131380196Y-65148507D01*
X131376046Y-65140571D01*
X131376000Y-65139530D01*
X131376000Y-64900469D01*
X131379427Y-64892196D01*
X131380196Y-64891492D01*
X132129795Y-64264858D01*
X132138339Y-64262182D01*
X132145566Y-64265557D01*
G37*
G04 #@! TD.AperFunction*
G04 #@! TA.AperFunction,Conductor*
G36*
X79512284Y-76278136D02*
G01*
X79512846Y-76279071D01*
X80137318Y-77436994D01*
X80675826Y-78435517D01*
X80676737Y-78444426D01*
X80673801Y-78449344D01*
X80509344Y-78613801D01*
X80501071Y-78617228D01*
X80495518Y-78615826D01*
X79398219Y-78024048D01*
X78339071Y-77452846D01*
X78333416Y-77445903D01*
X78334327Y-77436994D01*
X78334879Y-77436074D01*
X78797995Y-76741239D01*
X78801239Y-76737995D01*
X79496061Y-76274888D01*
X79504844Y-76273152D01*
X79512284Y-76278136D01*
G37*
G04 #@! TD.AperFunction*
G04 #@! TA.AperFunction,Conductor*
G36*
X132145566Y-87725557D02*
G01*
X132892710Y-88471721D01*
X132896142Y-88479992D01*
X132892721Y-88488268D01*
X132892710Y-88488279D01*
X132145566Y-89234442D01*
X132137290Y-89237863D01*
X132129794Y-89235140D01*
X131380196Y-88608507D01*
X131376046Y-88600571D01*
X131376000Y-88599530D01*
X131376000Y-88360469D01*
X131379427Y-88352196D01*
X131380196Y-88351492D01*
X132129795Y-87724858D01*
X132138339Y-87722182D01*
X132145566Y-87725557D01*
G37*
G04 #@! TD.AperFunction*
G04 #@! TA.AperFunction,Conductor*
G36*
X78978127Y-68290014D02*
G01*
X81325322Y-68992502D01*
X81332265Y-68998157D01*
X81333667Y-69003711D01*
X81333667Y-69236288D01*
X81330240Y-69244561D01*
X81325322Y-69247497D01*
X78978134Y-69949983D01*
X78969225Y-69949072D01*
X78963570Y-69942129D01*
X78963306Y-69941070D01*
X78799459Y-69122293D01*
X78799459Y-69117704D01*
X78822271Y-69003711D01*
X78963306Y-68298928D01*
X78968290Y-68291489D01*
X78977075Y-68289752D01*
X78978127Y-68290014D01*
G37*
G04 #@! TD.AperFunction*
G04 #@! TA.AperFunction,Conductor*
G36*
X132747987Y-61737195D02*
G01*
X132753603Y-61744170D01*
X132753848Y-61745165D01*
X132900540Y-62477703D01*
X132900540Y-62482297D01*
X132753848Y-63214834D01*
X132748864Y-63222274D01*
X132740079Y-63224009D01*
X132739084Y-63223764D01*
X130637050Y-62607465D01*
X130630075Y-62601849D01*
X130628642Y-62596238D01*
X130628642Y-62363761D01*
X130632069Y-62355488D01*
X130637047Y-62352535D01*
X132739085Y-61736235D01*
X132747987Y-61737195D01*
G37*
G04 #@! TD.AperFunction*
M02*
