M48
; DRILL file {KiCad 9.0.4} date 2026-02-27T08:05:12+0100
; FORMAT={-:-/ absolute / metric / decimal}
; #@! TF.CreationDate,2026-02-27T08:05:12+01:00
; #@! TF.GenerationSoftware,Kicad,Pcbnew,9.0.4
; #@! TF.FileFunction,MixedPlating,1,2
FMAT,2
METRIC
; #@! TA.AperFunction,Plated,PTH,ComponentDrill
T1C0.700
; #@! TA.AperFunction,Plated,PTH,ComponentDrill
T2C0.900
; #@! TA.AperFunction,Plated,PTH,ComponentDrill
T3C1.000
; #@! TA.AperFunction,Plated,PTH,ComponentDrill
T4C1.016
; #@! TA.AperFunction,Plated,PTH,ComponentDrill
T5C1.100
; #@! TA.AperFunction,Plated,PTH,ComponentDrill
T6C1.200
; #@! TA.AperFunction,NonPlated,NPTH,ComponentDrill
T7C1.300
; #@! TA.AperFunction,NonPlated,NPTH,ComponentDrill
T8C3.000
%
G90
G05
T1
X137.2Y-92.66
X137.2Y-97.74
T2
X49.8Y-51.38
X49.8Y-53.92
X49.8Y-56.46
X49.8Y-59.0
X49.8Y-61.54
X49.8Y-64.08
X49.8Y-66.62
X49.8Y-69.16
X49.8Y-71.7
X49.8Y-74.24
X49.8Y-76.78
X49.8Y-79.32
X49.8Y-81.86
X49.8Y-84.4
X49.8Y-86.94
X49.8Y-89.48
X49.8Y-92.02
X49.8Y-94.56
X49.8Y-97.1
X75.2Y-51.38
X75.2Y-53.92
X75.2Y-56.46
X75.2Y-59.0
X75.2Y-61.54
X75.2Y-64.08
X75.2Y-66.62
X75.2Y-69.16
X75.2Y-71.7
X75.2Y-74.24
X75.2Y-76.78
X75.2Y-79.32
X75.2Y-81.86
X75.2Y-84.4
X75.2Y-86.94
X75.2Y-89.48
X75.2Y-92.02
X75.2Y-94.56
X75.2Y-97.1
X143.26Y-93.4
X145.8Y-93.4
T3
X46.4Y-51.34
X46.4Y-53.88
X46.4Y-56.42
X46.4Y-58.96
X46.4Y-61.5
X46.4Y-64.04
X46.4Y-66.58
X46.4Y-69.12
X46.4Y-71.66
X46.4Y-74.2
X46.4Y-76.74
X46.4Y-79.28
X46.4Y-81.82
X46.4Y-84.36
X46.4Y-86.9
X46.4Y-89.44
X46.4Y-91.98
X46.4Y-94.52
X46.4Y-97.06
X78.8Y-51.34
X78.8Y-53.88
X78.8Y-56.42
X78.8Y-58.96
X78.8Y-61.5
X78.8Y-64.04
X78.8Y-66.58
X78.8Y-69.12
X78.8Y-71.66
X78.8Y-74.2
X78.8Y-76.74
X78.8Y-79.28
X78.8Y-81.82
X78.8Y-84.36
X78.8Y-86.9
X78.8Y-89.44
X78.8Y-91.98
X78.8Y-94.52
X78.8Y-97.06
X156.6Y-52.3
X156.6Y-54.8
X156.6Y-57.3
X156.6Y-59.8
X157.0Y-74.7
X157.0Y-77.2
X157.0Y-79.7
X157.0Y-82.2
T4
X132.9Y-47.24
X132.9Y-49.78
X132.9Y-52.32
X132.9Y-54.86
X132.9Y-57.4
X132.9Y-59.94
X132.9Y-62.48
X132.9Y-65.02
X132.9Y-70.7
X132.9Y-73.24
X132.9Y-75.78
X132.9Y-78.32
X132.9Y-80.86
X132.9Y-83.4
X132.9Y-85.94
X132.9Y-88.48
X135.44Y-47.24
X135.44Y-70.7
X136.71Y-48.891
X136.71Y-72.351
X137.98Y-47.24
X137.98Y-70.7
X145.6Y-47.24
X145.6Y-49.78
X145.6Y-52.32
X145.6Y-54.86
X145.6Y-57.4
X145.6Y-59.94
X145.6Y-62.48
X145.6Y-65.02
X145.6Y-70.7
X145.6Y-73.24
X145.6Y-75.78
X145.6Y-78.32
X145.6Y-80.86
X145.6Y-83.4
X145.6Y-85.94
X145.6Y-88.48
T5
X85.459Y-75.054
X85.459Y-92.2
X94.59Y-68.605
X97.13Y-68.605
X99.66Y-68.605
X102.2Y-68.605
X104.74Y-68.605
X107.27Y-68.605
X109.81Y-68.605
X112.35Y-68.605
X124.956Y-75.054
X124.956Y-92.2
T6
X155.6Y-93.06
X155.6Y-95.6
T7
X154.6Y-50.7
X155.0Y-73.1
T8
X102.2Y-44.4
X103.0Y-99.0
M30
