G04 #@! TF.GenerationSoftware,KiCad,Pcbnew,9.0.4*
G04 #@! TF.CreationDate,2026-02-27T08:05:58+01:00*
G04 #@! TF.ProjectId,SABR-PCB,53414252-2050-4434-9220-424f41524420,rev?*
G04 #@! TF.SameCoordinates,Original*
G04 #@! TF.FileFunction,Copper,L1,Top*
G04 #@! TF.FilePolarity,Positive*
%FSLAX46Y46*%
G04 Gerber Fmt 4.6, Leading zero omitted, Abs format (unit mm)*
G04 Created by KiCad (PCBNEW 9.0.4) date 2026-02-27 08:05:58*
%MOMM*%
%LPD*%
G01*
G04 APERTURE LIST*
G04 Aperture macros list*
%AMRoundRect*
0 Rectangle with rounded corners*
0 $1 Rounding radius*
0 $2 $3 $4 $5 $6 $7 $8 $9 X,Y pos of 4 corners*
0 Add a 4 corners polygon primitive as box body*
4,1,4,$2,$3,$4,$5,$6,$7,$8,$9,$2,$3,0*
0 Add four circle primitives for the rounded corners*
1,1,$1+$1,$2,$3*
1,1,$1+$1,$4,$5*
1,1,$1+$1,$6,$7*
1,1,$1+$1,$8,$9*
0 Add four rect primitives between the rounded corners*
20,1,$1+$1,$2,$3,$4,$5,0*
20,1,$1+$1,$4,$5,$6,$7,0*
20,1,$1+$1,$6,$7,$8,$9,0*
20,1,$1+$1,$8,$9,$2,$3,0*%
G04 Aperture macros list end*
G04 #@! TA.AperFunction,ComponentPad*
%ADD10R,1.524000X1.524000*%
G04 #@! TD*
G04 #@! TA.AperFunction,ComponentPad*
%ADD11C,1.524000*%
G04 #@! TD*
G04 #@! TA.AperFunction,ComponentPad*
%ADD12R,1.700000X1.700000*%
G04 #@! TD*
G04 #@! TA.AperFunction,ComponentPad*
%ADD13C,1.700000*%
G04 #@! TD*
G04 #@! TA.AperFunction,ComponentPad*
%ADD14R,1.800000X1.800000*%
G04 #@! TD*
G04 #@! TA.AperFunction,ComponentPad*
%ADD15C,1.800000*%
G04 #@! TD*
G04 #@! TA.AperFunction,ComponentPad*
%ADD16R,1.508000X1.508000*%
G04 #@! TD*
G04 #@! TA.AperFunction,ComponentPad*
%ADD17C,1.508000*%
G04 #@! TD*
G04 #@! TA.AperFunction,ComponentPad*
%ADD18RoundRect,0.250000X-0.750000X0.750000X-0.750000X-0.750000X0.750000X-0.750000X0.750000X0.750000X0*%
G04 #@! TD*
G04 #@! TA.AperFunction,ComponentPad*
%ADD19C,2.000000*%
G04 #@! TD*
G04 #@! TA.AperFunction,ComponentPad*
%ADD20C,1.500000*%
G04 #@! TD*
G04 #@! TA.AperFunction,ComponentPad*
%ADD21R,1.408000X1.408000*%
G04 #@! TD*
G04 #@! TA.AperFunction,ComponentPad*
%ADD22C,1.408000*%
G04 #@! TD*
G04 #@! TA.AperFunction,ComponentPad*
%ADD23C,1.400000*%
G04 #@! TD*
G04 #@! TA.AperFunction,Conductor*
%ADD24C,0.250000*%
G04 #@! TD*
G04 #@! TA.AperFunction,Conductor*
%ADD25C,2.000000*%
G04 #@! TD*
G04 APERTURE END LIST*
D10*
X132900000Y-65020000D03*
D11*
X132900000Y-62480000D03*
X132900000Y-59940000D03*
X132900000Y-57400000D03*
X132900000Y-54860000D03*
X132900000Y-52320000D03*
X132900000Y-49780000D03*
X132900000Y-47240000D03*
D10*
X145600000Y-47240000D03*
D11*
X145600000Y-49780000D03*
X145600000Y-52320000D03*
X145600000Y-54860000D03*
X145600000Y-57400000D03*
X145600000Y-59940000D03*
X145600000Y-62480000D03*
X145600000Y-65020000D03*
X137980000Y-47240000D03*
X135440000Y-47240000D03*
X136710000Y-48891000D03*
D12*
X46400000Y-51340000D03*
D13*
X46400000Y-53880000D03*
X46400000Y-56420000D03*
X46400000Y-58960000D03*
X46400000Y-61500000D03*
X46400000Y-64040000D03*
X46400000Y-66580000D03*
X46400000Y-69120000D03*
X46400000Y-71660000D03*
X46400000Y-74200000D03*
X46400000Y-76740000D03*
X46400000Y-79280000D03*
X46400000Y-81820000D03*
X46400000Y-84360000D03*
X46400000Y-86900000D03*
X46400000Y-89440000D03*
X46400000Y-91980000D03*
X46400000Y-94520000D03*
X46400000Y-97060000D03*
D14*
X145800000Y-93400000D03*
D15*
X143260000Y-93400000D03*
D16*
X157000000Y-74700000D03*
D17*
X157000000Y-77200000D03*
X157000000Y-79700000D03*
X157000000Y-82200000D03*
D12*
X78800000Y-97060000D03*
D13*
X78800000Y-94520000D03*
X78800000Y-91980000D03*
X78800000Y-89440000D03*
X78800000Y-86900000D03*
X78800000Y-84360000D03*
X78800000Y-81820000D03*
X78800000Y-79280000D03*
X78800000Y-76740000D03*
X78800000Y-74200000D03*
X78800000Y-71660000D03*
X78800000Y-69120000D03*
X78800000Y-66580000D03*
X78800000Y-64040000D03*
X78800000Y-61500000D03*
X78800000Y-58960000D03*
X78800000Y-56420000D03*
X78800000Y-53880000D03*
X78800000Y-51340000D03*
D18*
X155600000Y-93060000D03*
D19*
X155600000Y-95600000D03*
D20*
X94590000Y-68605000D03*
X97130000Y-68605000D03*
X99660000Y-68605000D03*
X102200000Y-68605000D03*
X104740000Y-68605000D03*
X107270000Y-68605000D03*
X109810000Y-68605000D03*
X112350000Y-68605000D03*
D16*
X156600000Y-52300000D03*
D17*
X156600000Y-54800000D03*
X156600000Y-57300000D03*
X156600000Y-59800000D03*
D21*
X49800000Y-51380000D03*
D22*
X49800000Y-53920000D03*
X49800000Y-56460000D03*
X49800000Y-59000000D03*
X49800000Y-61540000D03*
X49800000Y-64080000D03*
X49800000Y-66620000D03*
X49800000Y-69160000D03*
X49800000Y-71700000D03*
X49800000Y-74240000D03*
X49800000Y-76780000D03*
X49800000Y-79320000D03*
X49800000Y-81860000D03*
X49800000Y-84400000D03*
X49800000Y-86940000D03*
X49800000Y-89480000D03*
X49800000Y-92020000D03*
X49800000Y-94560000D03*
X49800000Y-97100000D03*
X75200000Y-51380000D03*
X75200000Y-53920000D03*
X75200000Y-56460000D03*
X75200000Y-59000000D03*
X75200000Y-61540000D03*
X75200000Y-64080000D03*
X75200000Y-66620000D03*
X75200000Y-69160000D03*
X75200000Y-71700000D03*
X75200000Y-74240000D03*
X75200000Y-76780000D03*
X75200000Y-79320000D03*
X75200000Y-81860000D03*
X75200000Y-84400000D03*
X75200000Y-86940000D03*
X75200000Y-89480000D03*
X75200000Y-92020000D03*
X75200000Y-94560000D03*
X75200000Y-97100000D03*
D10*
X132900000Y-88480000D03*
D11*
X132900000Y-85940000D03*
X132900000Y-83400000D03*
X132900000Y-80860000D03*
X132900000Y-78320000D03*
X132900000Y-75780000D03*
X132900000Y-73240000D03*
X132900000Y-70700000D03*
D10*
X145600000Y-70700000D03*
D11*
X145600000Y-73240000D03*
X145600000Y-75780000D03*
X145600000Y-78320000D03*
X145600000Y-80860000D03*
X145600000Y-83400000D03*
X145600000Y-85940000D03*
X145600000Y-88480000D03*
X137980000Y-70700000D03*
X135440000Y-70700000D03*
X136710000Y-72351000D03*
D23*
X137200000Y-92660000D03*
X137200000Y-97740000D03*
D20*
X124955500Y-92200000D03*
X124955500Y-75054000D03*
X85459500Y-92200000D03*
X85459500Y-75054000D03*
D24*
X147420000Y-49780000D02*
X145600000Y-49780000D01*
X148400000Y-43600000D02*
X148400000Y-48800000D01*
X148400000Y-48800000D02*
X147420000Y-49780000D01*
X136540000Y-43600000D02*
X148400000Y-43600000D01*
X132900000Y-47240000D02*
X136540000Y-43600000D01*
D25*
X142520000Y-92660000D02*
X143260000Y-93400000D01*
X137200000Y-92660000D02*
X142520000Y-92660000D01*
D24*
X49760000Y-94520000D02*
X49800000Y-94560000D01*
X46400000Y-94520000D02*
X49760000Y-94520000D01*
X46400000Y-89440000D02*
X49760000Y-89440000D01*
X49760000Y-89440000D02*
X49800000Y-89480000D01*
X49760000Y-71660000D02*
X49800000Y-71700000D01*
X46400000Y-71660000D02*
X49760000Y-71660000D01*
X49760000Y-53880000D02*
X49800000Y-53920000D01*
X46400000Y-53880000D02*
X49760000Y-53880000D01*
X46400000Y-86900000D02*
X49760000Y-86900000D01*
X49760000Y-86900000D02*
X49800000Y-86940000D01*
X46400000Y-91980000D02*
X49760000Y-91980000D01*
X49760000Y-91980000D02*
X49800000Y-92020000D01*
X49760000Y-79280000D02*
X49800000Y-79320000D01*
X46400000Y-79280000D02*
X49760000Y-79280000D01*
X49760000Y-58960000D02*
X49800000Y-59000000D01*
X46400000Y-58960000D02*
X49760000Y-58960000D01*
X46400000Y-64040000D02*
X49760000Y-64040000D01*
X49760000Y-64040000D02*
X49800000Y-64080000D01*
X46400000Y-76740000D02*
X49760000Y-76740000D01*
X49760000Y-76740000D02*
X49800000Y-76780000D01*
X49760000Y-66580000D02*
X49800000Y-66620000D01*
X46400000Y-66580000D02*
X49760000Y-66580000D01*
X46400000Y-81820000D02*
X49760000Y-81820000D01*
X49760000Y-81820000D02*
X49800000Y-81860000D01*
X49760000Y-56420000D02*
X49800000Y-56460000D01*
X46400000Y-56420000D02*
X49760000Y-56420000D01*
D25*
X129400000Y-92200000D02*
X129400000Y-79498500D01*
X143399000Y-87356630D02*
X138243370Y-87356630D01*
X146600000Y-92600000D02*
X155140000Y-92600000D01*
X145363898Y-73240000D02*
X143399000Y-75204898D01*
X144522370Y-88480000D02*
X145600000Y-88480000D01*
X145800000Y-93400000D02*
X145800000Y-88680000D01*
X155140000Y-92600000D02*
X155600000Y-93060000D01*
X133400000Y-92200000D02*
X129400000Y-92200000D01*
X145800000Y-93400000D02*
X146600000Y-92600000D01*
X145800000Y-88680000D02*
X145600000Y-88480000D01*
X124955500Y-75054000D02*
X129400000Y-79498500D01*
X143399000Y-87356630D02*
X144522370Y-88480000D01*
X143399000Y-75204898D02*
X143399000Y-87356630D01*
X138243370Y-87356630D02*
X133400000Y-92200000D01*
X145600000Y-73240000D02*
X145363898Y-73240000D01*
D24*
X46400000Y-69120000D02*
X49760000Y-69120000D01*
X49760000Y-69120000D02*
X49800000Y-69160000D01*
X49760000Y-74200000D02*
X49800000Y-74240000D01*
X46400000Y-74200000D02*
X49760000Y-74200000D01*
X49760000Y-61500000D02*
X49800000Y-61540000D01*
X46400000Y-61500000D02*
X49760000Y-61500000D01*
X75200000Y-92020000D02*
X78760000Y-92020000D01*
X78760000Y-92020000D02*
X78800000Y-91980000D01*
X75200000Y-74240000D02*
X78760000Y-74240000D01*
X78760000Y-74240000D02*
X78800000Y-74200000D01*
X75200000Y-59000000D02*
X78760000Y-59000000D01*
X78760000Y-59000000D02*
X78800000Y-58960000D01*
X78760000Y-71700000D02*
X78800000Y-71660000D01*
X75200000Y-71700000D02*
X78760000Y-71700000D01*
X75200000Y-89480000D02*
X78760000Y-89480000D01*
X78760000Y-89480000D02*
X78800000Y-89440000D01*
X129520000Y-72400000D02*
X121800000Y-72400000D01*
X107300000Y-86900000D02*
X78800000Y-86900000D01*
X78760000Y-86940000D02*
X78800000Y-86900000D01*
X132900000Y-75780000D02*
X129520000Y-72400000D01*
X121800000Y-72400000D02*
X107300000Y-86900000D01*
X75200000Y-86940000D02*
X78760000Y-86940000D01*
X78760000Y-97100000D02*
X78800000Y-97060000D01*
X75200000Y-97100000D02*
X78760000Y-97100000D01*
X78760000Y-76780000D02*
X78800000Y-76740000D01*
X75200000Y-76780000D02*
X78760000Y-76780000D01*
X80000000Y-56200000D02*
X79020000Y-56200000D01*
X97000000Y-73000000D02*
X88600000Y-73000000D01*
X80800000Y-65200000D02*
X80800000Y-57000000D01*
X80800000Y-57000000D02*
X80000000Y-56200000D01*
X99660000Y-68605000D02*
X99660000Y-70340000D01*
X75200000Y-56460000D02*
X78760000Y-56460000D01*
X99660000Y-70340000D02*
X97000000Y-73000000D01*
X79020000Y-56200000D02*
X78800000Y-56420000D01*
X78760000Y-56460000D02*
X78800000Y-56420000D01*
X88600000Y-73000000D02*
X80800000Y-65200000D01*
X78760000Y-61540000D02*
X78800000Y-61500000D01*
X75200000Y-61540000D02*
X78760000Y-61540000D01*
X78760000Y-66620000D02*
X78800000Y-66580000D01*
X75200000Y-66620000D02*
X78760000Y-66620000D01*
X75200000Y-53920000D02*
X78760000Y-53920000D01*
X78760000Y-53920000D02*
X78800000Y-53880000D01*
X132900000Y-49780000D02*
X126020000Y-49780000D01*
X75200000Y-79320000D02*
X78760000Y-79320000D01*
X109520000Y-79280000D02*
X78800000Y-79280000D01*
X119000000Y-56800000D02*
X119000000Y-69800000D01*
X119000000Y-69800000D02*
X109520000Y-79280000D01*
X126020000Y-49780000D02*
X119000000Y-56800000D01*
X78760000Y-79320000D02*
X78800000Y-79280000D01*
X78760000Y-69160000D02*
X78800000Y-69120000D01*
X75200000Y-69160000D02*
X78760000Y-69160000D01*
X132900000Y-52320000D02*
X126080000Y-52320000D01*
X78760000Y-81860000D02*
X78800000Y-81820000D01*
X126080000Y-52320000D02*
X120200000Y-58200000D01*
X108980000Y-81820000D02*
X78800000Y-81820000D01*
X75200000Y-81860000D02*
X78760000Y-81860000D01*
X120200000Y-70600000D02*
X108980000Y-81820000D01*
X120200000Y-58200000D02*
X120200000Y-70600000D01*
X75200000Y-94560000D02*
X78760000Y-94560000D01*
X78760000Y-94560000D02*
X78800000Y-94520000D01*
D25*
X46440000Y-51380000D02*
X46400000Y-51340000D01*
X82400000Y-47000000D02*
X94590000Y-59190000D01*
X46400000Y-51340000D02*
X50740000Y-47000000D01*
X94590000Y-59190000D02*
X94590000Y-68605000D01*
X49800000Y-51380000D02*
X46440000Y-51380000D01*
D24*
X49760000Y-51340000D02*
X49800000Y-51380000D01*
D25*
X50740000Y-47000000D02*
X82400000Y-47000000D01*
D24*
X88000000Y-73800000D02*
X78800000Y-64600000D01*
X102200000Y-68605000D02*
X97005000Y-73800000D01*
X97005000Y-73800000D02*
X88000000Y-73800000D01*
X78760000Y-64080000D02*
X78800000Y-64040000D01*
X78800000Y-64600000D02*
X78800000Y-64040000D01*
X75200000Y-64080000D02*
X78760000Y-64080000D01*
X75200000Y-84400000D02*
X75400000Y-84400000D01*
X79760000Y-83400000D02*
X78800000Y-84360000D01*
X120800000Y-71800000D02*
X109200000Y-83400000D01*
X131460000Y-71800000D02*
X120800000Y-71800000D01*
X75400000Y-84400000D02*
X75440000Y-84360000D01*
X75440000Y-84360000D02*
X78800000Y-84360000D01*
X109200000Y-83400000D02*
X79760000Y-83400000D01*
X132900000Y-73240000D02*
X131460000Y-71800000D01*
D25*
X160099000Y-93200000D02*
X160099000Y-73889000D01*
X143562000Y-47240000D02*
X143399000Y-47403000D01*
X155600000Y-95600000D02*
X157699000Y-95600000D01*
X157699000Y-95600000D02*
X160099000Y-93200000D01*
X137200000Y-97740000D02*
X128140000Y-97740000D01*
X124955500Y-94555500D02*
X124955500Y-92200000D01*
X155600000Y-95600000D02*
X153460000Y-97740000D01*
X156910000Y-70700000D02*
X145600000Y-70700000D01*
X160099000Y-73889000D02*
X156910000Y-70700000D01*
X143399000Y-68499000D02*
X145600000Y-70700000D01*
X153460000Y-97740000D02*
X137200000Y-97740000D01*
X145600000Y-47240000D02*
X143562000Y-47240000D01*
X128140000Y-97740000D02*
X124955500Y-94555500D01*
X143399000Y-47403000D02*
X143399000Y-68499000D01*
X147200000Y-52400000D02*
X147280000Y-52320000D01*
X156600000Y-54800000D02*
X149600000Y-54800000D01*
X149600000Y-54800000D02*
X147200000Y-52400000D01*
X147280000Y-52320000D02*
X145600000Y-52320000D01*
X156500000Y-74700000D02*
X157000000Y-74700000D01*
X152880000Y-78320000D02*
X156500000Y-74700000D01*
X145600000Y-78320000D02*
X152880000Y-78320000D01*
X49800000Y-97100000D02*
X49300000Y-96600000D01*
X46860000Y-96600000D02*
X46400000Y-97060000D01*
D24*
X49760000Y-97060000D02*
X49800000Y-97100000D01*
D25*
X49300000Y-96600000D02*
X46860000Y-96600000D01*
D24*
X49760000Y-84360000D02*
X49800000Y-84400000D01*
D25*
X49800000Y-84400000D02*
X46440000Y-84400000D01*
X46440000Y-84400000D02*
X46400000Y-84360000D01*
D24*
X78760000Y-51380000D02*
X78800000Y-51340000D01*
D25*
X97130000Y-69870000D02*
X97130000Y-68605000D01*
X80002081Y-51340000D02*
X78800000Y-51340000D01*
X83800000Y-62000000D02*
X93000000Y-71200000D01*
D24*
X75200000Y-51380000D02*
X78760000Y-51380000D01*
D25*
X83800000Y-55137919D02*
X80002081Y-51340000D01*
D24*
X78860000Y-51400000D02*
X78800000Y-51340000D01*
D25*
X95800000Y-71200000D02*
X97130000Y-69870000D01*
X93000000Y-71200000D02*
X95800000Y-71200000D01*
X83800000Y-62000000D02*
X83800000Y-55137919D01*
G04 #@! TA.AperFunction,Conductor*
G36*
X161142539Y-38520185D02*
G01*
X161188294Y-38572989D01*
X161199500Y-38624500D01*
X161199500Y-72568111D01*
X161179815Y-72635150D01*
X161127011Y-72680905D01*
X161057853Y-72690849D01*
X160994297Y-72661824D01*
X160987819Y-72655792D01*
X157887511Y-69555484D01*
X157867450Y-69540909D01*
X157696434Y-69416657D01*
X157485996Y-69309433D01*
X157261368Y-69236446D01*
X157028097Y-69199500D01*
X157028092Y-69199500D01*
X146272889Y-69199500D01*
X146205850Y-69179815D01*
X146185208Y-69163181D01*
X144935819Y-67913792D01*
X144902334Y-67852469D01*
X144899500Y-67826111D01*
X144899500Y-66281802D01*
X144919185Y-66214763D01*
X144971989Y-66169008D01*
X145041147Y-66159064D01*
X145079797Y-66171318D01*
X145115563Y-66189542D01*
X145304477Y-66250924D01*
X145500679Y-66282000D01*
X145699321Y-66282000D01*
X145895520Y-66250924D01*
X145895523Y-66250924D01*
X146084437Y-66189542D01*
X146261425Y-66099362D01*
X146298715Y-66072268D01*
X145735942Y-65509495D01*
X145796081Y-65493381D01*
X145911920Y-65426502D01*
X146006502Y-65331920D01*
X146073381Y-65216081D01*
X146089495Y-65155942D01*
X146652268Y-65718715D01*
X146679362Y-65681425D01*
X146769542Y-65504437D01*
X146830924Y-65315523D01*
X146830924Y-65315520D01*
X146862000Y-65119321D01*
X146862000Y-64920678D01*
X146830924Y-64724479D01*
X146830924Y-64724476D01*
X146769542Y-64535562D01*
X146679358Y-64358567D01*
X146652268Y-64321283D01*
X146089494Y-64884057D01*
X146073381Y-64823919D01*
X146006502Y-64708080D01*
X145911920Y-64613498D01*
X145796081Y-64546619D01*
X145735941Y-64530504D01*
X146298715Y-63967730D01*
X146261432Y-63940641D01*
X146104668Y-63860765D01*
X146053872Y-63812790D01*
X146037077Y-63744969D01*
X146059615Y-63678834D01*
X146104667Y-63639796D01*
X146261694Y-63559787D01*
X146422464Y-63442981D01*
X146562981Y-63302464D01*
X146679787Y-63141694D01*
X146770005Y-62964632D01*
X146831413Y-62775636D01*
X146862500Y-62579361D01*
X146862500Y-62380639D01*
X146831413Y-62184364D01*
X146777493Y-62018414D01*
X146770006Y-61995370D01*
X146770005Y-61995367D01*
X146681697Y-61822055D01*
X146679787Y-61818306D01*
X146562981Y-61657536D01*
X146422464Y-61517019D01*
X146261694Y-61400213D01*
X146105218Y-61320484D01*
X146054423Y-61272510D01*
X146037628Y-61204689D01*
X146060165Y-61138554D01*
X146105218Y-61099515D01*
X146261694Y-61019787D01*
X146422464Y-60902981D01*
X146562981Y-60762464D01*
X146679787Y-60601694D01*
X146770005Y-60424632D01*
X146831413Y-60235636D01*
X146862500Y-60039361D01*
X146862500Y-59840639D01*
X146831413Y-59644364D01*
X146777493Y-59478414D01*
X146770006Y-59455370D01*
X146770005Y-59455367D01*
X146681697Y-59282055D01*
X146679787Y-59278306D01*
X146562981Y-59117536D01*
X146422464Y-58977019D01*
X146261694Y-58860213D01*
X146105218Y-58780484D01*
X146054423Y-58732510D01*
X146037628Y-58664689D01*
X146060165Y-58598554D01*
X146105218Y-58559515D01*
X146261694Y-58479787D01*
X146422464Y-58362981D01*
X146562981Y-58222464D01*
X146679787Y-58061694D01*
X146770005Y-57884632D01*
X146831413Y-57695636D01*
X146862500Y-57499361D01*
X146862500Y-57300639D01*
X146831413Y-57104364D01*
X146777493Y-56938414D01*
X146770006Y-56915370D01*
X146770005Y-56915367D01*
X146720617Y-56818439D01*
X146679787Y-56738306D01*
X146562981Y-56577536D01*
X146422464Y-56437019D01*
X146261694Y-56320213D01*
X146105218Y-56240484D01*
X146054423Y-56192510D01*
X146037628Y-56124689D01*
X146060165Y-56058554D01*
X146105218Y-56019515D01*
X146261694Y-55939787D01*
X146422464Y-55822981D01*
X146562981Y-55682464D01*
X146679787Y-55521694D01*
X146770005Y-55344632D01*
X146831413Y-55155636D01*
X146862500Y-54959361D01*
X146862500Y-54760639D01*
X146831413Y-54564364D01*
X146793810Y-54448632D01*
X146793240Y-54446878D01*
X146791245Y-54377037D01*
X146827325Y-54317204D01*
X146890026Y-54286376D01*
X146959441Y-54294341D01*
X146998851Y-54320878D01*
X147810912Y-55132940D01*
X148622491Y-55944519D01*
X148622493Y-55944521D01*
X148707833Y-56006523D01*
X148764729Y-56047860D01*
X148813567Y-56083343D01*
X148947659Y-56151666D01*
X149024003Y-56190566D01*
X149024005Y-56190566D01*
X149024008Y-56190568D01*
X149136306Y-56227056D01*
X149248631Y-56263553D01*
X149481903Y-56300500D01*
X149481908Y-56300500D01*
X149481909Y-56300500D01*
X149718092Y-56300500D01*
X155532168Y-56300500D01*
X155599207Y-56320185D01*
X155644962Y-56372989D01*
X155654906Y-56442147D01*
X155632486Y-56497385D01*
X155527058Y-56642495D01*
X155479290Y-56736243D01*
X155437863Y-56817549D01*
X155437408Y-56818441D01*
X155376389Y-57006236D01*
X155345500Y-57201263D01*
X155345500Y-57398736D01*
X155376389Y-57593763D01*
X155433884Y-57770713D01*
X155437409Y-57781561D01*
X155527056Y-57957501D01*
X155527058Y-57957504D01*
X155643115Y-58117246D01*
X155782753Y-58256884D01*
X155928782Y-58362978D01*
X155942499Y-58372944D01*
X156073151Y-58439515D01*
X156123947Y-58487490D01*
X156140742Y-58555311D01*
X156118204Y-58621446D01*
X156073151Y-58660484D01*
X156039757Y-58677500D01*
X155942495Y-58727058D01*
X155782753Y-58843115D01*
X155643115Y-58982753D01*
X155527058Y-59142495D01*
X155437408Y-59318441D01*
X155376389Y-59506236D01*
X155345500Y-59701263D01*
X155345500Y-59898736D01*
X155376389Y-60093763D01*
X155420656Y-60230000D01*
X155437409Y-60281561D01*
X155527056Y-60457501D01*
X155527058Y-60457504D01*
X155643115Y-60617246D01*
X155782753Y-60756884D01*
X155932234Y-60865486D01*
X155942499Y-60872944D01*
X156118439Y-60962591D01*
X156243637Y-61003270D01*
X156306236Y-61023610D01*
X156501264Y-61054500D01*
X156501269Y-61054500D01*
X156698736Y-61054500D01*
X156893763Y-61023610D01*
X156905532Y-61019786D01*
X157081561Y-60962591D01*
X157257501Y-60872944D01*
X157349217Y-60806309D01*
X157417246Y-60756884D01*
X157417248Y-60756881D01*
X157417252Y-60756879D01*
X157556879Y-60617252D01*
X157556881Y-60617248D01*
X157556884Y-60617246D01*
X157634933Y-60509819D01*
X157672944Y-60457501D01*
X157762591Y-60281561D01*
X157823610Y-60093763D01*
X157854500Y-59898736D01*
X157854500Y-59701263D01*
X157823610Y-59506236D01*
X157803270Y-59443637D01*
X157762591Y-59318439D01*
X157672944Y-59142499D01*
X157665486Y-59132234D01*
X157556884Y-58982753D01*
X157417246Y-58843115D01*
X157257505Y-58727058D01*
X157221254Y-58708587D01*
X157126846Y-58660483D01*
X157076052Y-58612510D01*
X157059257Y-58544689D01*
X157081794Y-58478554D01*
X157126845Y-58439517D01*
X157257501Y-58372944D01*
X157404273Y-58266309D01*
X157417246Y-58256884D01*
X157417248Y-58256881D01*
X157417252Y-58256879D01*
X157556879Y-58117252D01*
X157556881Y-58117248D01*
X157556884Y-58117246D01*
X157607779Y-58047192D01*
X157672944Y-57957501D01*
X157762591Y-57781561D01*
X157823610Y-57593763D01*
X157826383Y-57576254D01*
X157854500Y-57398736D01*
X157854500Y-57201263D01*
X157823610Y-57006236D01*
X157794085Y-56915367D01*
X157762591Y-56818439D01*
X157672944Y-56642499D01*
X157654814Y-56617545D01*
X157556884Y-56482753D01*
X157417250Y-56343119D01*
X157417245Y-56343115D01*
X157358088Y-56300135D01*
X157315422Y-56244805D01*
X157309443Y-56175192D01*
X157342048Y-56113397D01*
X157374678Y-56089332D01*
X157386433Y-56083343D01*
X157577510Y-55944517D01*
X157744517Y-55777510D01*
X157883343Y-55586433D01*
X157990568Y-55375992D01*
X158063553Y-55151368D01*
X158066691Y-55131557D01*
X158100500Y-54918097D01*
X158100500Y-54681902D01*
X158063553Y-54448631D01*
X158020849Y-54317204D01*
X157990568Y-54224008D01*
X157990566Y-54224005D01*
X157990566Y-54224003D01*
X157934002Y-54112991D01*
X157883343Y-54013567D01*
X157744517Y-53822490D01*
X157596577Y-53674550D01*
X157563092Y-53613227D01*
X157568076Y-53543535D01*
X157609945Y-53487604D01*
X157711546Y-53411546D01*
X157797796Y-53296331D01*
X157848091Y-53161483D01*
X157854500Y-53101873D01*
X157854499Y-51498128D01*
X157848091Y-51438517D01*
X157833525Y-51399464D01*
X157797797Y-51303671D01*
X157797793Y-51303664D01*
X157711547Y-51188455D01*
X157711544Y-51188452D01*
X157596335Y-51102206D01*
X157596328Y-51102202D01*
X157461482Y-51051908D01*
X157461483Y-51051908D01*
X157401883Y-51045501D01*
X157401881Y-51045500D01*
X157401873Y-51045500D01*
X157401864Y-51045500D01*
X155798129Y-51045500D01*
X155798123Y-51045501D01*
X155738515Y-51051909D01*
X155633200Y-51091188D01*
X155563508Y-51096172D01*
X155502186Y-51062686D01*
X155468701Y-51001363D01*
X155468251Y-50950816D01*
X155494372Y-50819500D01*
X155500500Y-50788693D01*
X155500500Y-50611306D01*
X155500499Y-50611304D01*
X155465896Y-50437341D01*
X155465893Y-50437332D01*
X155398016Y-50273459D01*
X155398009Y-50273446D01*
X155299464Y-50125965D01*
X155299461Y-50125961D01*
X155174038Y-50000538D01*
X155174034Y-50000535D01*
X155026553Y-49901990D01*
X155026540Y-49901983D01*
X154862667Y-49834106D01*
X154862658Y-49834103D01*
X154688694Y-49799500D01*
X154688691Y-49799500D01*
X154511309Y-49799500D01*
X154511306Y-49799500D01*
X154337341Y-49834103D01*
X154337332Y-49834106D01*
X154173459Y-49901983D01*
X154173446Y-49901990D01*
X154025965Y-50000535D01*
X154025961Y-50000538D01*
X153900538Y-50125961D01*
X153900535Y-50125965D01*
X153801990Y-50273446D01*
X153801983Y-50273459D01*
X153734106Y-50437332D01*
X153734103Y-50437341D01*
X153699500Y-50611304D01*
X153699500Y-50788695D01*
X153734103Y-50962658D01*
X153734106Y-50962667D01*
X153801983Y-51126540D01*
X153801990Y-51126553D01*
X153900535Y-51274034D01*
X153900538Y-51274038D01*
X154025961Y-51399461D01*
X154025965Y-51399464D01*
X154173446Y-51498009D01*
X154173459Y-51498016D01*
X154219007Y-51516882D01*
X154337334Y-51565894D01*
X154337336Y-51565894D01*
X154337341Y-51565896D01*
X154511304Y-51600499D01*
X154511307Y-51600500D01*
X154511309Y-51600500D01*
X154688693Y-51600500D01*
X154688694Y-51600499D01*
X154746682Y-51588964D01*
X154862658Y-51565896D01*
X154862661Y-51565894D01*
X154862666Y-51565894D01*
X155026267Y-51498129D01*
X155026540Y-51498016D01*
X155026540Y-51498015D01*
X155026547Y-51498013D01*
X155152611Y-51413778D01*
X155219286Y-51392902D01*
X155286666Y-51411386D01*
X155333356Y-51463364D01*
X155345500Y-51516882D01*
X155345500Y-53101870D01*
X155345501Y-53101876D01*
X155351991Y-53162247D01*
X155339584Y-53231006D01*
X155291973Y-53282143D01*
X155228701Y-53299500D01*
X150272890Y-53299500D01*
X150205851Y-53279815D01*
X150185209Y-53263181D01*
X148689165Y-51767138D01*
X148666361Y-51735752D01*
X148664128Y-51731369D01*
X148563343Y-51533567D01*
X148424517Y-51342490D01*
X148257510Y-51175483D01*
X148066433Y-51036657D01*
X148047470Y-51026995D01*
X147855996Y-50929433D01*
X147631368Y-50856446D01*
X147398097Y-50819500D01*
X147398092Y-50819500D01*
X146337309Y-50819500D01*
X146270270Y-50799815D01*
X146249628Y-50783181D01*
X145735942Y-50269495D01*
X145796081Y-50253381D01*
X145911920Y-50186502D01*
X146006502Y-50091920D01*
X146073381Y-49976081D01*
X146089495Y-49915942D01*
X146652268Y-50478715D01*
X146679362Y-50441425D01*
X146769542Y-50264437D01*
X146830924Y-50075523D01*
X146830924Y-50075520D01*
X146862000Y-49879321D01*
X146862000Y-49680678D01*
X146830924Y-49484479D01*
X146830924Y-49484476D01*
X146769542Y-49295562D01*
X146679358Y-49118567D01*
X146652268Y-49081283D01*
X146089494Y-49644057D01*
X146073381Y-49583919D01*
X146006502Y-49468080D01*
X145911920Y-49373498D01*
X145796081Y-49306619D01*
X145735941Y-49290504D01*
X146298715Y-48727730D01*
X146296991Y-48705813D01*
X146290559Y-48697472D01*
X146290501Y-48696806D01*
X146290099Y-48696273D01*
X146287513Y-48662010D01*
X146284580Y-48627859D01*
X146284891Y-48627268D01*
X146284841Y-48626602D01*
X146301170Y-48596416D01*
X146317186Y-48566064D01*
X146317874Y-48565538D01*
X146318086Y-48565148D01*
X146324959Y-48560133D01*
X146346257Y-48543886D01*
X146347994Y-48542928D01*
X146386433Y-48523343D01*
X146395549Y-48516719D01*
X146402312Y-48512992D01*
X146422265Y-48508569D01*
X146448915Y-48498301D01*
X146469483Y-48496091D01*
X146604331Y-48445796D01*
X146719546Y-48359546D01*
X146805796Y-48244331D01*
X146856091Y-48109483D01*
X146858302Y-48088913D01*
X146881281Y-48029271D01*
X146881388Y-48029123D01*
X146883343Y-48026433D01*
X146990568Y-47815992D01*
X147063553Y-47591368D01*
X147072398Y-47535523D01*
X147100500Y-47358097D01*
X147100500Y-47121902D01*
X147063553Y-46888631D01*
X146990566Y-46664003D01*
X146935022Y-46554993D01*
X146883343Y-46453567D01*
X146881275Y-46450721D01*
X146858301Y-46391081D01*
X146856091Y-46370518D01*
X146856090Y-46370515D01*
X146805797Y-46235671D01*
X146805793Y-46235664D01*
X146719547Y-46120455D01*
X146719544Y-46120452D01*
X146604335Y-46034206D01*
X146604328Y-46034202D01*
X146469483Y-45983909D01*
X146448906Y-45981696D01*
X146389285Y-45958729D01*
X146386433Y-45956657D01*
X146175996Y-45849433D01*
X145951368Y-45776446D01*
X145718097Y-45739500D01*
X145718092Y-45739500D01*
X143680092Y-45739500D01*
X143443908Y-45739500D01*
X143443903Y-45739500D01*
X143210631Y-45776446D01*
X142986003Y-45849433D01*
X142775563Y-45956659D01*
X142584496Y-46095476D01*
X142584491Y-46095480D01*
X142254485Y-46425487D01*
X142254484Y-46425488D01*
X142115657Y-46616565D01*
X142044934Y-46755368D01*
X142008434Y-46827003D01*
X142008433Y-46827005D01*
X142008432Y-46827008D01*
X141992319Y-46876596D01*
X141935446Y-47051631D01*
X141898500Y-47284902D01*
X141898500Y-68617097D01*
X141935446Y-68850368D01*
X142008433Y-69074996D01*
X142085520Y-69226287D01*
X142115657Y-69285434D01*
X142226140Y-69437500D01*
X142254484Y-69476511D01*
X144322724Y-71544751D01*
X144351225Y-71589099D01*
X144394202Y-71704328D01*
X144394206Y-71704335D01*
X144480452Y-71819544D01*
X144480455Y-71819547D01*
X144595664Y-71905793D01*
X144595671Y-71905797D01*
X144640618Y-71922561D01*
X144730517Y-71956091D01*
X144751090Y-71958302D01*
X144759302Y-71960891D01*
X144764665Y-71960529D01*
X144779851Y-71967369D01*
X144797685Y-71972992D01*
X144804453Y-71976722D01*
X144813566Y-71983343D01*
X144851985Y-72002918D01*
X144853739Y-72003885D01*
X144876985Y-72027313D01*
X144900977Y-72049972D01*
X144901479Y-72051999D01*
X144902951Y-72053483D01*
X144909843Y-72085772D01*
X144917773Y-72117793D01*
X144917099Y-72119769D01*
X144917536Y-72121814D01*
X144905878Y-72152699D01*
X144903487Y-72159714D01*
X144901282Y-72187730D01*
X145464057Y-72750504D01*
X145403919Y-72766619D01*
X145288080Y-72833498D01*
X145193498Y-72928080D01*
X145126619Y-73043919D01*
X145110504Y-73104057D01*
X144547730Y-72541282D01*
X144547729Y-72541283D01*
X144520643Y-72578564D01*
X144430457Y-72755562D01*
X144369075Y-72944476D01*
X144369075Y-72944479D01*
X144338000Y-73140678D01*
X144338000Y-73339321D01*
X144369075Y-73535520D01*
X144369075Y-73535523D01*
X144430457Y-73724437D01*
X144520641Y-73901432D01*
X144547730Y-73938715D01*
X144547731Y-73938716D01*
X145110504Y-73375942D01*
X145126619Y-73436081D01*
X145193498Y-73551920D01*
X145288080Y-73646502D01*
X145403919Y-73713381D01*
X145464057Y-73729494D01*
X144901283Y-74292268D01*
X144901283Y-74292269D01*
X144938567Y-74319358D01*
X145095331Y-74399234D01*
X145146127Y-74447209D01*
X145162922Y-74515030D01*
X145140384Y-74581165D01*
X145095331Y-74620204D01*
X144938305Y-74700213D01*
X144777533Y-74817021D01*
X144637021Y-74957533D01*
X144520213Y-75118305D01*
X144429994Y-75295367D01*
X144429993Y-75295370D01*
X144368587Y-75484362D01*
X144337500Y-75680639D01*
X144337500Y-75879360D01*
X144368587Y-76075637D01*
X144429993Y-76264629D01*
X144429994Y-76264632D01*
X144511075Y-76423760D01*
X144520213Y-76441694D01*
X144637019Y-76602464D01*
X144777536Y-76742981D01*
X144866273Y-76807452D01*
X144908938Y-76862782D01*
X144914917Y-76932396D01*
X144882311Y-76994191D01*
X144849683Y-77018254D01*
X144813569Y-77036655D01*
X144742092Y-77088587D01*
X144622490Y-77175483D01*
X144622488Y-77175485D01*
X144622487Y-77175485D01*
X144455485Y-77342487D01*
X144455485Y-77342488D01*
X144455483Y-77342490D01*
X144444927Y-77357019D01*
X144316657Y-77533566D01*
X144209433Y-77744003D01*
X144136446Y-77968631D01*
X144099500Y-78201902D01*
X144099500Y-78438097D01*
X144136446Y-78671368D01*
X144209433Y-78895996D01*
X144284079Y-79042495D01*
X144316657Y-79106433D01*
X144455483Y-79297510D01*
X144622490Y-79464517D01*
X144709165Y-79527490D01*
X144813568Y-79603344D01*
X144849681Y-79621744D01*
X144900477Y-79669718D01*
X144917273Y-79737539D01*
X144894736Y-79803674D01*
X144866273Y-79832546D01*
X144777542Y-79897014D01*
X144777533Y-79897021D01*
X144637021Y-80037533D01*
X144520213Y-80198305D01*
X144429994Y-80375367D01*
X144429993Y-80375370D01*
X144368587Y-80564362D01*
X144337500Y-80760639D01*
X144337500Y-80959360D01*
X144368587Y-81155637D01*
X144429993Y-81344629D01*
X144429994Y-81344632D01*
X144511075Y-81503760D01*
X144520213Y-81521694D01*
X144637019Y-81682464D01*
X144777536Y-81822981D01*
X144938306Y-81939787D01*
X144967763Y-81954796D01*
X145094780Y-82019515D01*
X145145576Y-82067490D01*
X145162371Y-82135311D01*
X145139833Y-82201446D01*
X145094780Y-82240485D01*
X144938305Y-82320213D01*
X144777533Y-82437021D01*
X144637021Y-82577533D01*
X144520213Y-82738305D01*
X144429994Y-82915367D01*
X144429993Y-82915370D01*
X144368587Y-83104362D01*
X144337500Y-83300639D01*
X144337500Y-83499360D01*
X144368587Y-83695637D01*
X144429993Y-83884629D01*
X144429994Y-83884632D01*
X144518609Y-84058546D01*
X144520213Y-84061694D01*
X144637019Y-84222464D01*
X144777536Y-84362981D01*
X144938306Y-84479787D01*
X145056832Y-84540179D01*
X145094780Y-84559515D01*
X145145576Y-84607490D01*
X145162371Y-84675311D01*
X145139833Y-84741446D01*
X145094780Y-84780485D01*
X144938305Y-84860213D01*
X144777533Y-84977021D01*
X144637021Y-85117533D01*
X144520213Y-85278305D01*
X144429994Y-85455367D01*
X144429993Y-85455370D01*
X144368587Y-85644362D01*
X144337500Y-85840639D01*
X144337500Y-86039360D01*
X144368587Y-86235637D01*
X144429993Y-86424629D01*
X144429994Y-86424632D01*
X144511075Y-86583760D01*
X144520213Y-86601694D01*
X144637019Y-86762464D01*
X144777536Y-86902981D01*
X144938306Y-87019787D01*
X145095332Y-87099796D01*
X145146127Y-87147769D01*
X145162922Y-87215590D01*
X145140385Y-87281725D01*
X145095332Y-87320764D01*
X144938566Y-87400641D01*
X144901283Y-87427729D01*
X144901282Y-87427730D01*
X145464058Y-87990504D01*
X145403919Y-88006619D01*
X145288080Y-88073498D01*
X145193498Y-88168080D01*
X145126619Y-88283919D01*
X145110504Y-88344057D01*
X144547730Y-87781282D01*
X144547729Y-87781283D01*
X144520643Y-87818564D01*
X144430457Y-87995562D01*
X144369075Y-88184476D01*
X144369075Y-88184479D01*
X144338000Y-88380678D01*
X144338000Y-88579321D01*
X144369075Y-88775520D01*
X144369075Y-88775523D01*
X144430457Y-88964437D01*
X144520641Y-89141432D01*
X144547730Y-89178715D01*
X144547731Y-89178716D01*
X145110504Y-88615942D01*
X145126619Y-88676081D01*
X145193498Y-88791920D01*
X145288080Y-88886502D01*
X145403919Y-88953381D01*
X145464057Y-88969494D01*
X144901283Y-89532268D01*
X144901283Y-89532269D01*
X144938567Y-89559358D01*
X145115562Y-89649542D01*
X145304477Y-89710924D01*
X145500679Y-89742000D01*
X145699321Y-89742000D01*
X145895520Y-89710924D01*
X145895523Y-89710924D01*
X146084437Y-89649542D01*
X146261425Y-89559362D01*
X146298716Y-89532268D01*
X145735942Y-88969494D01*
X145796081Y-88953381D01*
X145911920Y-88886502D01*
X146006502Y-88791920D01*
X146073381Y-88676081D01*
X146089495Y-88615942D01*
X146652268Y-89178715D01*
X146679362Y-89141425D01*
X146769542Y-88964437D01*
X146830924Y-88775523D01*
X146830924Y-88775520D01*
X146862000Y-88579321D01*
X146862000Y-88380678D01*
X146830924Y-88184479D01*
X146830924Y-88184476D01*
X146769542Y-87995562D01*
X146679358Y-87818567D01*
X146652268Y-87781283D01*
X146089494Y-88344057D01*
X146073381Y-88283919D01*
X146006502Y-88168080D01*
X145911920Y-88073498D01*
X145796081Y-88006619D01*
X145735942Y-87990504D01*
X146298716Y-87427731D01*
X146298715Y-87427730D01*
X146261432Y-87400641D01*
X146104668Y-87320765D01*
X146053872Y-87272790D01*
X146037077Y-87204969D01*
X146059615Y-87138834D01*
X146104667Y-87099796D01*
X146261694Y-87019787D01*
X146422464Y-86902981D01*
X146562981Y-86762464D01*
X146679787Y-86601694D01*
X146770005Y-86424632D01*
X146831413Y-86235636D01*
X146862500Y-86039361D01*
X146862500Y-85840639D01*
X146831413Y-85644364D01*
X146770005Y-85455368D01*
X146770005Y-85455367D01*
X146724035Y-85365149D01*
X146679787Y-85278306D01*
X146562981Y-85117536D01*
X146422464Y-84977019D01*
X146261694Y-84860213D01*
X146105218Y-84780484D01*
X146054423Y-84732510D01*
X146037628Y-84664689D01*
X146060165Y-84598554D01*
X146105218Y-84559515D01*
X146261694Y-84479787D01*
X146422464Y-84362981D01*
X146562981Y-84222464D01*
X146679787Y-84061694D01*
X146770005Y-83884632D01*
X146831413Y-83695636D01*
X146862500Y-83499361D01*
X146862500Y-83300639D01*
X146831413Y-83104364D01*
X146789397Y-82975051D01*
X146770006Y-82915370D01*
X146770005Y-82915367D01*
X146700391Y-82778743D01*
X146679787Y-82738306D01*
X146562981Y-82577536D01*
X146422464Y-82437019D01*
X146261694Y-82320213D01*
X146105218Y-82240484D01*
X146054423Y-82192510D01*
X146037628Y-82124689D01*
X146060165Y-82058554D01*
X146105218Y-82019515D01*
X146261694Y-81939787D01*
X146422464Y-81822981D01*
X146562981Y-81682464D01*
X146679787Y-81521694D01*
X146770005Y-81344632D01*
X146831413Y-81155636D01*
X146862500Y-80959361D01*
X146862500Y-80760639D01*
X146831413Y-80564364D01*
X146789397Y-80435050D01*
X146770006Y-80375370D01*
X146770005Y-80375367D01*
X146724035Y-80285149D01*
X146679787Y-80198306D01*
X146562981Y-80037536D01*
X146557626Y-80032181D01*
X146524141Y-79970858D01*
X146529125Y-79901166D01*
X146570997Y-79845233D01*
X146636461Y-79820816D01*
X146645307Y-79820500D01*
X152998097Y-79820500D01*
X153231368Y-79783553D01*
X153285827Y-79765858D01*
X153455992Y-79710568D01*
X153666434Y-79603343D01*
X153857510Y-79464517D01*
X155650252Y-77671773D01*
X155711573Y-77638290D01*
X155781264Y-77643274D01*
X155837198Y-77685146D01*
X155848409Y-77703151D01*
X155902945Y-77810181D01*
X155927058Y-77857505D01*
X156043115Y-78017246D01*
X156182753Y-78156884D01*
X156310776Y-78249896D01*
X156342499Y-78272944D01*
X156473151Y-78339515D01*
X156523947Y-78387490D01*
X156540742Y-78455311D01*
X156518204Y-78521446D01*
X156473151Y-78560484D01*
X156364912Y-78615636D01*
X156342495Y-78627058D01*
X156182753Y-78743115D01*
X156043115Y-78882753D01*
X155927058Y-79042495D01*
X155837408Y-79218441D01*
X155776389Y-79406236D01*
X155745500Y-79601263D01*
X155745500Y-79798736D01*
X155776389Y-79993763D01*
X155821210Y-80131705D01*
X155837409Y-80181561D01*
X155927056Y-80357501D01*
X155927058Y-80357504D01*
X156043115Y-80517246D01*
X156182753Y-80656884D01*
X156302311Y-80743746D01*
X156342499Y-80772944D01*
X156473151Y-80839515D01*
X156523947Y-80887490D01*
X156540742Y-80955311D01*
X156518204Y-81021446D01*
X156473151Y-81060484D01*
X156371696Y-81112179D01*
X156342495Y-81127058D01*
X156182753Y-81243115D01*
X156043115Y-81382753D01*
X155927058Y-81542495D01*
X155837408Y-81718441D01*
X155776389Y-81906236D01*
X155745500Y-82101263D01*
X155745500Y-82298736D01*
X155776389Y-82493763D01*
X155832916Y-82667734D01*
X155837409Y-82681561D01*
X155923287Y-82850104D01*
X155927058Y-82857504D01*
X156043115Y-83017246D01*
X156182753Y-83156884D01*
X156332234Y-83265486D01*
X156342499Y-83272944D01*
X156518439Y-83362591D01*
X156643637Y-83403270D01*
X156706236Y-83423610D01*
X156901264Y-83454500D01*
X156901269Y-83454500D01*
X157098736Y-83454500D01*
X157293763Y-83423610D01*
X157297219Y-83422487D01*
X157481561Y-83362591D01*
X157657501Y-83272944D01*
X157759971Y-83198496D01*
X157817246Y-83156884D01*
X157817248Y-83156881D01*
X157817252Y-83156879D01*
X157956879Y-83017252D01*
X157956881Y-83017248D01*
X157956884Y-83017246D01*
X158042430Y-82899500D01*
X158072944Y-82857501D01*
X158162591Y-82681561D01*
X158223610Y-82493763D01*
X158232597Y-82437021D01*
X158254500Y-82298736D01*
X158254500Y-82101263D01*
X158223610Y-81906236D01*
X158203270Y-81843637D01*
X158162591Y-81718439D01*
X158072944Y-81542499D01*
X158044797Y-81503757D01*
X157956884Y-81382753D01*
X157817246Y-81243115D01*
X157657505Y-81127058D01*
X157628313Y-81112184D01*
X157526846Y-81060483D01*
X157476052Y-81012510D01*
X157459257Y-80944689D01*
X157481794Y-80878554D01*
X157526845Y-80839517D01*
X157657501Y-80772944D01*
X157697689Y-80743746D01*
X157817246Y-80656884D01*
X157817248Y-80656881D01*
X157817252Y-80656879D01*
X157956879Y-80517252D01*
X157956881Y-80517248D01*
X157956884Y-80517246D01*
X158019395Y-80431205D01*
X158072944Y-80357501D01*
X158162591Y-80181561D01*
X158223610Y-79993763D01*
X158234924Y-79922330D01*
X158254500Y-79798736D01*
X158254500Y-79601263D01*
X158223610Y-79406236D01*
X158188283Y-79297511D01*
X158162591Y-79218439D01*
X158072944Y-79042499D01*
X158028767Y-78981694D01*
X157956884Y-78882753D01*
X157817246Y-78743115D01*
X157657505Y-78627058D01*
X157635088Y-78615636D01*
X157526846Y-78560483D01*
X157476052Y-78512510D01*
X157459257Y-78444689D01*
X157481794Y-78378554D01*
X157526845Y-78339517D01*
X157657501Y-78272944D01*
X157689232Y-78249890D01*
X157817246Y-78156884D01*
X157817248Y-78156881D01*
X157817252Y-78156879D01*
X157956879Y-78017252D01*
X157956881Y-78017248D01*
X157956884Y-78017246D01*
X158015007Y-77937245D01*
X158072944Y-77857501D01*
X158162591Y-77681561D01*
X158223610Y-77493763D01*
X158230887Y-77447816D01*
X158254500Y-77298736D01*
X158254500Y-77101263D01*
X158223610Y-76906236D01*
X158203270Y-76843637D01*
X158162591Y-76718439D01*
X158072944Y-76542499D01*
X158040574Y-76497945D01*
X157956884Y-76382753D01*
X157817250Y-76243119D01*
X157817245Y-76243115D01*
X157758088Y-76200135D01*
X157738481Y-76174709D01*
X157717684Y-76150231D01*
X157717280Y-76147214D01*
X157715422Y-76144805D01*
X157712674Y-76112814D01*
X157708412Y-76080979D01*
X157709703Y-76078222D01*
X157709443Y-76075192D01*
X157724428Y-76046790D01*
X157738053Y-76017708D01*
X157740962Y-76015453D01*
X157742048Y-76013397D01*
X157764949Y-75994856D01*
X157769688Y-75991874D01*
X157786433Y-75983343D01*
X157806952Y-75968434D01*
X157810454Y-75966232D01*
X157830066Y-75960679D01*
X157854280Y-75951352D01*
X157853932Y-75949876D01*
X157861479Y-75948092D01*
X157861481Y-75948091D01*
X157861483Y-75948091D01*
X157996331Y-75897796D01*
X158111546Y-75811546D01*
X158197796Y-75696331D01*
X158248091Y-75561483D01*
X158248091Y-75561477D01*
X158249875Y-75553933D01*
X158250103Y-75553986D01*
X158249862Y-75550887D01*
X158256005Y-75537060D01*
X158261986Y-75517741D01*
X158265948Y-75510373D01*
X158283343Y-75486433D01*
X158364644Y-75326869D01*
X158365293Y-75325664D01*
X158388905Y-75301750D01*
X158411990Y-75277309D01*
X158413380Y-75276964D01*
X158414385Y-75275947D01*
X158447186Y-75268593D01*
X158479811Y-75260514D01*
X158481164Y-75260975D01*
X158482562Y-75260662D01*
X158514133Y-75272210D01*
X158545945Y-75283051D01*
X158546835Y-75284172D01*
X158548180Y-75284664D01*
X158568494Y-75311445D01*
X158589397Y-75337766D01*
X158589721Y-75339430D01*
X158590405Y-75340331D01*
X158590741Y-75344655D01*
X158598500Y-75384400D01*
X158598500Y-92527110D01*
X158578815Y-92594149D01*
X158562181Y-92614791D01*
X157311681Y-93865291D01*
X157250358Y-93898776D01*
X157180666Y-93893792D01*
X157124733Y-93851920D01*
X157100316Y-93786456D01*
X157100000Y-93777610D01*
X157100000Y-93310000D01*
X156148482Y-93310000D01*
X156159111Y-93291591D01*
X156200000Y-93138991D01*
X156200000Y-92981009D01*
X156159111Y-92828409D01*
X156148482Y-92810000D01*
X157099999Y-92810000D01*
X157099999Y-92260028D01*
X157099998Y-92260013D01*
X157089505Y-92157302D01*
X157034358Y-91990880D01*
X157034356Y-91990875D01*
X156942315Y-91841654D01*
X156818345Y-91717684D01*
X156669124Y-91625643D01*
X156669119Y-91625641D01*
X156502697Y-91570494D01*
X156502690Y-91570493D01*
X156399986Y-91560000D01*
X155850000Y-91560000D01*
X155850000Y-92511517D01*
X155831591Y-92500889D01*
X155678991Y-92460000D01*
X155521009Y-92460000D01*
X155368409Y-92500889D01*
X155350000Y-92511517D01*
X155350000Y-91560000D01*
X154800028Y-91560000D01*
X154800012Y-91560001D01*
X154697302Y-91570494D01*
X154530880Y-91625641D01*
X154530875Y-91625643D01*
X154381654Y-91717684D01*
X154257684Y-91841654D01*
X154165643Y-91990875D01*
X154165641Y-91990880D01*
X154110494Y-92157302D01*
X154110493Y-92157309D01*
X154100000Y-92260013D01*
X154100000Y-92810000D01*
X155051518Y-92810000D01*
X155040889Y-92828409D01*
X155000000Y-92981009D01*
X155000000Y-93138991D01*
X155040889Y-93291591D01*
X155051518Y-93310000D01*
X154100001Y-93310000D01*
X154100001Y-93859986D01*
X154110494Y-93962697D01*
X154165641Y-94129119D01*
X154165643Y-94129124D01*
X154257684Y-94278345D01*
X154381656Y-94402317D01*
X154430019Y-94432147D01*
X154476744Y-94484094D01*
X154487967Y-94553057D01*
X154460124Y-94617139D01*
X154452604Y-94625367D01*
X152874792Y-96203181D01*
X152813469Y-96236666D01*
X152787111Y-96239500D01*
X128812889Y-96239500D01*
X128745850Y-96219815D01*
X128725208Y-96203181D01*
X126492319Y-93970292D01*
X126458834Y-93908969D01*
X126456000Y-93882611D01*
X126456000Y-92541902D01*
X135699500Y-92541902D01*
X135699500Y-92778097D01*
X135736446Y-93011368D01*
X135809433Y-93235996D01*
X135897658Y-93409145D01*
X135916657Y-93446433D01*
X136055483Y-93637510D01*
X136222490Y-93804517D01*
X136413567Y-93943343D01*
X136512991Y-93994002D01*
X136624003Y-94050566D01*
X136624005Y-94050566D01*
X136624008Y-94050568D01*
X136744412Y-94089689D01*
X136848631Y-94123553D01*
X137081903Y-94160500D01*
X137081908Y-94160500D01*
X141847111Y-94160500D01*
X141914150Y-94180185D01*
X141934792Y-94196819D01*
X142282490Y-94544517D01*
X142473566Y-94683343D01*
X142572992Y-94734003D01*
X142684003Y-94790566D01*
X142684005Y-94790566D01*
X142684008Y-94790568D01*
X142713034Y-94799999D01*
X142908631Y-94863553D01*
X143141903Y-94900500D01*
X143141908Y-94900500D01*
X143378097Y-94900500D01*
X143611368Y-94863553D01*
X143835992Y-94790568D01*
X144046434Y-94683343D01*
X144237510Y-94544517D01*
X144262978Y-94519048D01*
X144324298Y-94485563D01*
X144393990Y-94490545D01*
X144449925Y-94532414D01*
X144453093Y-94537343D01*
X144542809Y-94657187D01*
X144542812Y-94657190D01*
X144657906Y-94743350D01*
X144657913Y-94743354D01*
X144792620Y-94793596D01*
X144792627Y-94793598D01*
X144852155Y-94799999D01*
X144852172Y-94800000D01*
X145550000Y-94800000D01*
X145550000Y-93775277D01*
X145626306Y-93819333D01*
X145740756Y-93850000D01*
X145859244Y-93850000D01*
X145973694Y-93819333D01*
X146050000Y-93775277D01*
X146050000Y-94800000D01*
X146747828Y-94800000D01*
X146747844Y-94799999D01*
X146807372Y-94793598D01*
X146807379Y-94793596D01*
X146942086Y-94743354D01*
X146942093Y-94743350D01*
X147057187Y-94657190D01*
X147057190Y-94657187D01*
X147143350Y-94542093D01*
X147143354Y-94542086D01*
X147193596Y-94407379D01*
X147193598Y-94407372D01*
X147199999Y-94347844D01*
X147200000Y-94347827D01*
X147200000Y-93650000D01*
X146175278Y-93650000D01*
X146219333Y-93573694D01*
X146250000Y-93459244D01*
X146250000Y-93340756D01*
X146219333Y-93226306D01*
X146175278Y-93150000D01*
X147200000Y-93150000D01*
X147200000Y-92452172D01*
X147199999Y-92452155D01*
X147193598Y-92392627D01*
X147193596Y-92392620D01*
X147159125Y-92300197D01*
X147143354Y-92257913D01*
X147143350Y-92257906D01*
X147057190Y-92142812D01*
X147057187Y-92142809D01*
X146942093Y-92056649D01*
X146942086Y-92056645D01*
X146807379Y-92006403D01*
X146807372Y-92006401D01*
X146747844Y-92000000D01*
X146050000Y-92000000D01*
X146050000Y-93024722D01*
X145973694Y-92980667D01*
X145859244Y-92950000D01*
X145740756Y-92950000D01*
X145626306Y-92980667D01*
X145550000Y-93024722D01*
X145550000Y-92000000D01*
X144852155Y-92000000D01*
X144792627Y-92006401D01*
X144792620Y-92006403D01*
X144657913Y-92056645D01*
X144657906Y-92056649D01*
X144542812Y-92142809D01*
X144542809Y-92142812D01*
X144451331Y-92265011D01*
X144448962Y-92263237D01*
X144410050Y-92302123D01*
X144341772Y-92316952D01*
X144276316Y-92292513D01*
X144262979Y-92280952D01*
X143497511Y-91515484D01*
X143423330Y-91461588D01*
X143306434Y-91376657D01*
X143095996Y-91269433D01*
X142871368Y-91196446D01*
X142638097Y-91159500D01*
X142638092Y-91159500D01*
X137081908Y-91159500D01*
X137081903Y-91159500D01*
X136848631Y-91196446D01*
X136624003Y-91269433D01*
X136413566Y-91376657D01*
X136304550Y-91455862D01*
X136222490Y-91515483D01*
X136222488Y-91515485D01*
X136222487Y-91515485D01*
X136055485Y-91682487D01*
X136055485Y-91682488D01*
X136055483Y-91682490D01*
X136015190Y-91737949D01*
X135916657Y-91873566D01*
X135809433Y-92084003D01*
X135736446Y-92308631D01*
X135699500Y-92541902D01*
X126456000Y-92541902D01*
X126456000Y-92081902D01*
X126419053Y-91848631D01*
X126346599Y-91625643D01*
X126346068Y-91624008D01*
X126346066Y-91624005D01*
X126346066Y-91624003D01*
X126238842Y-91413566D01*
X126100017Y-91222490D01*
X125933010Y-91055483D01*
X125741933Y-90916657D01*
X125716594Y-90903746D01*
X125531496Y-90809433D01*
X125306868Y-90736446D01*
X125073597Y-90699500D01*
X125073592Y-90699500D01*
X124837408Y-90699500D01*
X124837403Y-90699500D01*
X124604131Y-90736446D01*
X124379503Y-90809433D01*
X124169066Y-90916657D01*
X124068368Y-90989819D01*
X123977990Y-91055483D01*
X123977988Y-91055485D01*
X123977987Y-91055485D01*
X123810985Y-91222487D01*
X123810985Y-91222488D01*
X123810983Y-91222490D01*
X123801661Y-91235321D01*
X123672157Y-91413566D01*
X123564933Y-91624003D01*
X123491946Y-91848631D01*
X123455000Y-92081902D01*
X123455000Y-94673597D01*
X123491946Y-94906868D01*
X123564933Y-95131496D01*
X123614011Y-95227816D01*
X123672157Y-95341934D01*
X123810983Y-95533010D01*
X127162490Y-98884517D01*
X127353566Y-99023343D01*
X127452992Y-99074003D01*
X127564003Y-99130566D01*
X127564005Y-99130566D01*
X127564008Y-99130568D01*
X127684412Y-99169689D01*
X127788631Y-99203553D01*
X128021903Y-99240500D01*
X128021908Y-99240500D01*
X153578097Y-99240500D01*
X153811368Y-99203553D01*
X154035992Y-99130568D01*
X154246434Y-99023343D01*
X154437510Y-98884517D01*
X156185208Y-97136819D01*
X156246531Y-97103334D01*
X156272889Y-97100500D01*
X157817097Y-97100500D01*
X158050368Y-97063553D01*
X158274992Y-96990568D01*
X158485434Y-96883343D01*
X158676510Y-96744517D01*
X160987819Y-94433208D01*
X161049142Y-94399723D01*
X161118834Y-94404707D01*
X161174767Y-94446579D01*
X161199184Y-94512043D01*
X161199500Y-94520889D01*
X161199500Y-103375500D01*
X161179815Y-103442539D01*
X161127011Y-103488294D01*
X161075500Y-103499500D01*
X42524500Y-103499500D01*
X42457461Y-103479815D01*
X42411706Y-103427011D01*
X42400500Y-103375500D01*
X42400500Y-98885258D01*
X101249500Y-98885258D01*
X101249500Y-99114741D01*
X101274446Y-99304215D01*
X101279452Y-99342238D01*
X101279453Y-99342240D01*
X101338842Y-99563887D01*
X101426650Y-99775876D01*
X101426657Y-99775890D01*
X101541392Y-99974617D01*
X101681081Y-100156661D01*
X101681089Y-100156670D01*
X101843330Y-100318911D01*
X101843338Y-100318918D01*
X102025382Y-100458607D01*
X102025385Y-100458608D01*
X102025388Y-100458611D01*
X102224112Y-100573344D01*
X102224117Y-100573346D01*
X102224123Y-100573349D01*
X102315480Y-100611190D01*
X102436113Y-100661158D01*
X102657762Y-100720548D01*
X102885266Y-100750500D01*
X102885273Y-100750500D01*
X103114727Y-100750500D01*
X103114734Y-100750500D01*
X103342238Y-100720548D01*
X103563887Y-100661158D01*
X103775888Y-100573344D01*
X103974612Y-100458611D01*
X104156661Y-100318919D01*
X104156665Y-100318914D01*
X104156670Y-100318911D01*
X104318911Y-100156670D01*
X104318914Y-100156665D01*
X104318919Y-100156661D01*
X104458611Y-99974612D01*
X104573344Y-99775888D01*
X104661158Y-99563887D01*
X104720548Y-99342238D01*
X104750500Y-99114734D01*
X104750500Y-98885266D01*
X104720548Y-98657762D01*
X104661158Y-98436113D01*
X104594116Y-98274259D01*
X104573349Y-98224123D01*
X104573346Y-98224117D01*
X104573344Y-98224112D01*
X104458611Y-98025388D01*
X104458608Y-98025385D01*
X104458607Y-98025382D01*
X104318918Y-97843338D01*
X104318911Y-97843330D01*
X104156670Y-97681089D01*
X104156661Y-97681081D01*
X103974617Y-97541392D01*
X103775890Y-97426657D01*
X103775876Y-97426650D01*
X103563887Y-97338842D01*
X103342238Y-97279452D01*
X103304215Y-97274446D01*
X103114741Y-97249500D01*
X103114734Y-97249500D01*
X102885266Y-97249500D01*
X102885258Y-97249500D01*
X102668715Y-97278009D01*
X102657762Y-97279452D01*
X102564076Y-97304554D01*
X102436112Y-97338842D01*
X102224123Y-97426650D01*
X102224109Y-97426657D01*
X102025382Y-97541392D01*
X101843338Y-97681081D01*
X101681081Y-97843338D01*
X101541392Y-98025382D01*
X101426657Y-98224109D01*
X101426650Y-98224123D01*
X101338842Y-98436112D01*
X101279453Y-98657759D01*
X101279451Y-98657770D01*
X101249500Y-98885258D01*
X42400500Y-98885258D01*
X42400500Y-51221902D01*
X44899500Y-51221902D01*
X44899500Y-51458097D01*
X44936447Y-51691369D01*
X44936447Y-51691372D01*
X45009430Y-51915988D01*
X45009430Y-51915989D01*
X45035985Y-51968106D01*
X45049500Y-52024399D01*
X45049500Y-52237869D01*
X45049501Y-52237876D01*
X45055908Y-52297483D01*
X45106202Y-52432328D01*
X45106206Y-52432335D01*
X45192452Y-52547544D01*
X45192455Y-52547547D01*
X45307664Y-52633793D01*
X45307671Y-52633797D01*
X45439082Y-52682810D01*
X45495016Y-52724681D01*
X45519433Y-52790145D01*
X45504582Y-52858418D01*
X45483431Y-52886673D01*
X45369889Y-53000215D01*
X45244951Y-53172179D01*
X45148444Y-53361585D01*
X45082753Y-53563760D01*
X45059501Y-53710568D01*
X45049500Y-53773713D01*
X45049500Y-53986287D01*
X45082754Y-54196243D01*
X45143231Y-54382372D01*
X45148444Y-54398414D01*
X45244951Y-54587820D01*
X45369890Y-54759786D01*
X45520213Y-54910109D01*
X45692182Y-55035050D01*
X45700946Y-55039516D01*
X45751742Y-55087491D01*
X45768536Y-55155312D01*
X45745998Y-55221447D01*
X45700946Y-55260484D01*
X45692182Y-55264949D01*
X45520213Y-55389890D01*
X45369890Y-55540213D01*
X45244951Y-55712179D01*
X45148444Y-55901585D01*
X45148443Y-55901587D01*
X45148443Y-55901588D01*
X45136032Y-55939786D01*
X45082753Y-56103760D01*
X45051651Y-56300135D01*
X45049500Y-56313713D01*
X45049500Y-56526287D01*
X45082754Y-56736243D01*
X45148437Y-56938394D01*
X45148444Y-56938414D01*
X45244951Y-57127820D01*
X45369890Y-57299786D01*
X45520213Y-57450109D01*
X45692182Y-57575050D01*
X45700946Y-57579516D01*
X45751742Y-57627491D01*
X45768536Y-57695312D01*
X45745998Y-57761447D01*
X45700946Y-57800484D01*
X45692182Y-57804949D01*
X45520213Y-57929890D01*
X45369890Y-58080213D01*
X45244951Y-58252179D01*
X45148444Y-58441585D01*
X45148443Y-58441587D01*
X45148443Y-58441588D01*
X45142756Y-58459090D01*
X45082753Y-58643760D01*
X45069560Y-58727058D01*
X45049500Y-58853713D01*
X45049500Y-59066287D01*
X45082754Y-59276243D01*
X45143231Y-59462372D01*
X45148444Y-59478414D01*
X45244951Y-59667820D01*
X45369890Y-59839786D01*
X45520213Y-59990109D01*
X45692182Y-60115050D01*
X45700946Y-60119516D01*
X45751742Y-60167491D01*
X45768536Y-60235312D01*
X45745998Y-60301447D01*
X45700946Y-60340484D01*
X45692182Y-60344949D01*
X45520213Y-60469890D01*
X45369890Y-60620213D01*
X45244951Y-60792179D01*
X45148444Y-60981585D01*
X45148443Y-60981587D01*
X45148443Y-60981588D01*
X45136032Y-61019786D01*
X45082753Y-61183760D01*
X45071003Y-61257949D01*
X45049500Y-61393713D01*
X45049500Y-61606287D01*
X45082754Y-61816243D01*
X45143231Y-62002372D01*
X45148444Y-62018414D01*
X45244951Y-62207820D01*
X45369890Y-62379786D01*
X45520213Y-62530109D01*
X45692182Y-62655050D01*
X45700946Y-62659516D01*
X45751742Y-62707491D01*
X45768536Y-62775312D01*
X45745998Y-62841447D01*
X45700946Y-62880484D01*
X45692182Y-62884949D01*
X45520213Y-63009890D01*
X45369890Y-63160213D01*
X45244951Y-63332179D01*
X45148444Y-63521585D01*
X45148443Y-63521587D01*
X45148443Y-63521588D01*
X45144676Y-63533182D01*
X45082753Y-63723760D01*
X45068428Y-63814206D01*
X45049500Y-63933713D01*
X45049500Y-64146287D01*
X45082754Y-64356243D01*
X45144611Y-64546619D01*
X45148444Y-64558414D01*
X45244951Y-64747820D01*
X45369890Y-64919786D01*
X45520213Y-65070109D01*
X45692182Y-65195050D01*
X45700946Y-65199516D01*
X45751742Y-65247491D01*
X45768536Y-65315312D01*
X45745998Y-65381447D01*
X45700946Y-65420484D01*
X45692182Y-65424949D01*
X45520213Y-65549890D01*
X45369890Y-65700213D01*
X45244951Y-65872179D01*
X45148444Y-66061585D01*
X45082753Y-66263760D01*
X45071003Y-66337949D01*
X45049500Y-66473713D01*
X45049500Y-66686287D01*
X45082754Y-66896243D01*
X45143231Y-67082372D01*
X45148444Y-67098414D01*
X45244951Y-67287820D01*
X45369890Y-67459786D01*
X45520213Y-67610109D01*
X45692182Y-67735050D01*
X45700946Y-67739516D01*
X45751742Y-67787491D01*
X45768536Y-67855312D01*
X45745998Y-67921447D01*
X45700946Y-67960484D01*
X45692182Y-67964949D01*
X45520213Y-68089890D01*
X45369890Y-68240213D01*
X45244951Y-68412179D01*
X45148444Y-68601585D01*
X45082753Y-68803760D01*
X45054642Y-68981245D01*
X45049500Y-69013713D01*
X45049500Y-69226287D01*
X45054904Y-69260405D01*
X45080125Y-69419648D01*
X45082754Y-69436243D01*
X45143231Y-69622372D01*
X45148444Y-69638414D01*
X45244951Y-69827820D01*
X45369890Y-69999786D01*
X45520213Y-70150109D01*
X45692182Y-70275050D01*
X45700946Y-70279516D01*
X45751742Y-70327491D01*
X45768536Y-70395312D01*
X45745998Y-70461447D01*
X45700946Y-70500484D01*
X45692182Y-70504949D01*
X45520213Y-70629890D01*
X45369890Y-70780213D01*
X45244951Y-70952179D01*
X45148444Y-71141585D01*
X45148443Y-71141587D01*
X45148443Y-71141588D01*
X45136768Y-71177519D01*
X45082753Y-71343760D01*
X45054449Y-71522464D01*
X45049500Y-71553713D01*
X45049500Y-71766287D01*
X45054016Y-71794800D01*
X45080879Y-71964408D01*
X45082754Y-71976243D01*
X45143231Y-72162372D01*
X45148444Y-72178414D01*
X45244951Y-72367820D01*
X45369890Y-72539786D01*
X45520213Y-72690109D01*
X45692182Y-72815050D01*
X45700946Y-72819516D01*
X45751742Y-72867491D01*
X45768536Y-72935312D01*
X45745998Y-73001447D01*
X45700946Y-73040484D01*
X45692182Y-73044949D01*
X45520213Y-73169890D01*
X45369890Y-73320213D01*
X45244951Y-73492179D01*
X45148444Y-73681585D01*
X45082753Y-73883760D01*
X45062708Y-74010319D01*
X45049500Y-74093713D01*
X45049500Y-74306287D01*
X45057107Y-74354313D01*
X45081848Y-74510527D01*
X45082754Y-74516243D01*
X45147754Y-74716292D01*
X45148444Y-74718414D01*
X45244951Y-74907820D01*
X45369890Y-75079786D01*
X45520213Y-75230109D01*
X45692182Y-75355050D01*
X45700946Y-75359516D01*
X45751742Y-75407491D01*
X45768536Y-75475312D01*
X45745998Y-75541447D01*
X45700946Y-75580484D01*
X45692182Y-75584949D01*
X45520213Y-75709890D01*
X45369890Y-75860213D01*
X45244951Y-76032179D01*
X45148444Y-76221585D01*
X45082753Y-76423760D01*
X45063947Y-76542499D01*
X45049500Y-76633713D01*
X45049500Y-76846287D01*
X45054016Y-76874800D01*
X45079651Y-77036655D01*
X45082754Y-77056243D01*
X45143231Y-77242372D01*
X45148444Y-77258414D01*
X45244951Y-77447820D01*
X45369890Y-77619786D01*
X45520213Y-77770109D01*
X45692182Y-77895050D01*
X45700946Y-77899516D01*
X45751742Y-77947491D01*
X45768536Y-78015312D01*
X45745998Y-78081447D01*
X45700946Y-78120484D01*
X45692182Y-78124949D01*
X45520213Y-78249890D01*
X45369890Y-78400213D01*
X45244951Y-78572179D01*
X45148444Y-78761585D01*
X45082753Y-78963760D01*
X45071003Y-79037949D01*
X45049500Y-79173713D01*
X45049500Y-79386287D01*
X45054016Y-79414800D01*
X45075653Y-79551413D01*
X45082754Y-79596243D01*
X45143231Y-79782372D01*
X45148444Y-79798414D01*
X45244951Y-79987820D01*
X45369890Y-80159786D01*
X45520213Y-80310109D01*
X45692182Y-80435050D01*
X45700946Y-80439516D01*
X45751742Y-80487491D01*
X45768536Y-80555312D01*
X45745998Y-80621447D01*
X45700946Y-80660484D01*
X45692182Y-80664949D01*
X45520213Y-80789890D01*
X45369890Y-80940213D01*
X45244951Y-81112179D01*
X45148444Y-81301585D01*
X45082753Y-81503760D01*
X45071003Y-81577949D01*
X45049500Y-81713713D01*
X45049500Y-81926287D01*
X45054016Y-81954800D01*
X45077214Y-82101269D01*
X45082754Y-82136243D01*
X45143231Y-82322372D01*
X45148444Y-82338414D01*
X45244951Y-82527820D01*
X45369890Y-82699786D01*
X45520211Y-82850107D01*
X45584721Y-82896975D01*
X45627388Y-82952305D01*
X45633368Y-83021918D01*
X45600762Y-83083713D01*
X45584723Y-83097611D01*
X45422496Y-83215478D01*
X45422487Y-83215485D01*
X45255484Y-83382488D01*
X45116657Y-83573565D01*
X45009433Y-83784003D01*
X44936446Y-84008631D01*
X44899500Y-84241902D01*
X44899500Y-84478097D01*
X44936446Y-84711368D01*
X45009433Y-84935996D01*
X45101931Y-85117533D01*
X45116657Y-85146434D01*
X45241846Y-85318741D01*
X45255484Y-85337511D01*
X45255486Y-85337513D01*
X45462491Y-85544519D01*
X45462493Y-85544521D01*
X45527165Y-85591507D01*
X45554762Y-85611557D01*
X45577195Y-85627855D01*
X45619860Y-85683183D01*
X45625841Y-85752796D01*
X45593236Y-85814592D01*
X45577196Y-85828491D01*
X45520209Y-85869894D01*
X45369890Y-86020213D01*
X45244951Y-86192179D01*
X45148444Y-86381585D01*
X45082753Y-86583760D01*
X45071003Y-86657949D01*
X45049500Y-86793713D01*
X45049500Y-87006287D01*
X45054016Y-87034800D01*
X45082650Y-87215590D01*
X45082754Y-87216243D01*
X45143231Y-87402372D01*
X45148444Y-87418414D01*
X45244951Y-87607820D01*
X45369890Y-87779786D01*
X45520213Y-87930109D01*
X45692182Y-88055050D01*
X45700946Y-88059516D01*
X45751742Y-88107491D01*
X45768536Y-88175312D01*
X45745998Y-88241447D01*
X45700946Y-88280484D01*
X45692182Y-88284949D01*
X45520213Y-88409890D01*
X45369890Y-88560213D01*
X45244951Y-88732179D01*
X45148444Y-88921585D01*
X45082753Y-89123760D01*
X45071003Y-89197949D01*
X45049500Y-89333713D01*
X45049500Y-89546287D01*
X45082754Y-89756243D01*
X45143231Y-89942372D01*
X45148444Y-89958414D01*
X45244951Y-90147820D01*
X45369890Y-90319786D01*
X45520213Y-90470109D01*
X45692182Y-90595050D01*
X45700946Y-90599516D01*
X45751742Y-90647491D01*
X45768536Y-90715312D01*
X45745998Y-90781447D01*
X45700946Y-90820484D01*
X45692182Y-90824949D01*
X45520213Y-90949890D01*
X45369890Y-91100213D01*
X45244951Y-91272179D01*
X45148444Y-91461585D01*
X45082753Y-91663760D01*
X45071003Y-91737949D01*
X45049500Y-91873713D01*
X45049500Y-92086287D01*
X45054016Y-92114800D01*
X45077015Y-92260013D01*
X45082754Y-92296243D01*
X45143231Y-92482372D01*
X45148444Y-92498414D01*
X45244951Y-92687820D01*
X45369890Y-92859786D01*
X45520213Y-93010109D01*
X45692182Y-93135050D01*
X45700946Y-93139516D01*
X45751742Y-93187491D01*
X45768536Y-93255312D01*
X45745998Y-93321447D01*
X45700946Y-93360484D01*
X45692182Y-93364949D01*
X45520213Y-93489890D01*
X45369890Y-93640213D01*
X45244951Y-93812179D01*
X45148444Y-94001585D01*
X45082753Y-94203760D01*
X45071003Y-94277949D01*
X45049500Y-94413713D01*
X45049500Y-94626287D01*
X45054016Y-94654800D01*
X45077013Y-94800000D01*
X45082754Y-94836243D01*
X45143231Y-95022372D01*
X45148444Y-95038414D01*
X45244951Y-95227820D01*
X45369890Y-95399786D01*
X45520207Y-95550103D01*
X45557777Y-95577399D01*
X45600443Y-95632729D01*
X45606422Y-95702342D01*
X45573817Y-95764138D01*
X45572573Y-95765399D01*
X45255485Y-96082486D01*
X45255484Y-96082488D01*
X45116657Y-96273565D01*
X45009433Y-96484003D01*
X44936446Y-96708631D01*
X44899500Y-96941902D01*
X44899500Y-97178097D01*
X44936446Y-97411368D01*
X45009433Y-97635996D01*
X45106085Y-97825685D01*
X45116657Y-97846434D01*
X45255483Y-98037510D01*
X45422490Y-98204517D01*
X45613566Y-98343343D01*
X45692065Y-98383340D01*
X45824003Y-98450566D01*
X45824005Y-98450566D01*
X45824008Y-98450568D01*
X45944412Y-98489689D01*
X46048631Y-98523553D01*
X46281903Y-98560500D01*
X46281908Y-98560500D01*
X46518097Y-98560500D01*
X46751368Y-98523553D01*
X46975992Y-98450568D01*
X47186434Y-98343343D01*
X47377510Y-98204517D01*
X47445208Y-98136819D01*
X47506531Y-98103334D01*
X47532889Y-98100500D01*
X48627110Y-98100500D01*
X48694149Y-98120185D01*
X48714791Y-98136819D01*
X48822491Y-98244519D01*
X48822496Y-98244523D01*
X48917217Y-98313341D01*
X49013567Y-98383343D01*
X49117132Y-98436112D01*
X49224003Y-98490566D01*
X49224005Y-98490566D01*
X49224008Y-98490568D01*
X49325525Y-98523553D01*
X49448631Y-98563553D01*
X49681903Y-98600500D01*
X49681908Y-98600500D01*
X49918097Y-98600500D01*
X50047690Y-98579973D01*
X50151369Y-98563553D01*
X50375992Y-98490568D01*
X50586434Y-98383343D01*
X50777510Y-98244518D01*
X50944518Y-98077510D01*
X51083343Y-97886434D01*
X51190568Y-97675992D01*
X51263553Y-97451369D01*
X51281375Y-97338842D01*
X51300500Y-97218097D01*
X51300500Y-96981902D01*
X51263553Y-96748631D01*
X51190566Y-96524003D01*
X51111925Y-96369663D01*
X51083343Y-96313567D01*
X51054280Y-96273565D01*
X50944523Y-96122496D01*
X50944519Y-96122491D01*
X50522902Y-95700874D01*
X50489417Y-95639551D01*
X50494401Y-95569859D01*
X50536273Y-95513926D01*
X50537641Y-95512916D01*
X50584679Y-95478741D01*
X50718741Y-95344679D01*
X50830181Y-95191296D01*
X50916254Y-95022368D01*
X50974842Y-94842055D01*
X50999979Y-94683342D01*
X51004500Y-94654800D01*
X51004500Y-94465199D01*
X50988023Y-94361171D01*
X50974842Y-94277945D01*
X50916254Y-94097632D01*
X50916252Y-94097629D01*
X50916252Y-94097627D01*
X50837639Y-93943342D01*
X50830181Y-93928704D01*
X50718741Y-93775321D01*
X50584679Y-93641259D01*
X50431296Y-93529819D01*
X50292785Y-93459244D01*
X50262370Y-93443747D01*
X50262369Y-93443746D01*
X50262368Y-93443746D01*
X50152139Y-93407930D01*
X50094465Y-93368493D01*
X50067267Y-93304135D01*
X50079182Y-93235288D01*
X50126426Y-93183813D01*
X50152138Y-93172070D01*
X50262368Y-93136254D01*
X50431296Y-93050181D01*
X50584679Y-92938741D01*
X50718741Y-92804679D01*
X50830181Y-92651296D01*
X50916254Y-92482368D01*
X50974842Y-92302055D01*
X51000063Y-92142812D01*
X51004500Y-92114800D01*
X51004500Y-91925199D01*
X50988023Y-91821171D01*
X50974842Y-91737945D01*
X50916254Y-91557632D01*
X50916252Y-91557629D01*
X50916252Y-91557627D01*
X50842849Y-91413567D01*
X50830181Y-91388704D01*
X50718741Y-91235321D01*
X50584679Y-91101259D01*
X50431296Y-90989819D01*
X50262368Y-90903746D01*
X50152139Y-90867930D01*
X50094465Y-90828493D01*
X50067267Y-90764135D01*
X50079182Y-90695288D01*
X50126426Y-90643813D01*
X50152138Y-90632070D01*
X50262368Y-90596254D01*
X50431296Y-90510181D01*
X50584679Y-90398741D01*
X50718741Y-90264679D01*
X50830181Y-90111296D01*
X50916254Y-89942368D01*
X50974842Y-89762055D01*
X51000580Y-89599547D01*
X51004500Y-89574800D01*
X51004500Y-89385199D01*
X50988023Y-89281171D01*
X50974842Y-89197945D01*
X50916254Y-89017632D01*
X50916252Y-89017629D01*
X50916252Y-89017627D01*
X50830180Y-88848703D01*
X50819173Y-88833553D01*
X50718741Y-88695321D01*
X50584679Y-88561259D01*
X50431296Y-88449819D01*
X50262368Y-88363746D01*
X50152139Y-88327930D01*
X50094465Y-88288493D01*
X50067267Y-88224135D01*
X50079182Y-88155288D01*
X50126426Y-88103813D01*
X50152138Y-88092070D01*
X50262368Y-88056254D01*
X50431296Y-87970181D01*
X50584679Y-87858741D01*
X50718741Y-87724679D01*
X50830181Y-87571296D01*
X50916254Y-87402368D01*
X50974842Y-87222055D01*
X50992588Y-87110005D01*
X51004500Y-87034800D01*
X51004500Y-86845199D01*
X50988023Y-86741171D01*
X50974842Y-86657945D01*
X50916254Y-86477632D01*
X50916252Y-86477629D01*
X50916252Y-86477627D01*
X50830180Y-86308703D01*
X50803271Y-86271666D01*
X50718741Y-86155321D01*
X50584679Y-86021259D01*
X50475725Y-85942098D01*
X50433061Y-85886770D01*
X50427082Y-85817156D01*
X50459688Y-85755361D01*
X50492314Y-85731298D01*
X50586433Y-85683343D01*
X50777510Y-85544517D01*
X50944517Y-85377510D01*
X51083343Y-85186433D01*
X51190568Y-84975992D01*
X51263553Y-84751368D01*
X51300500Y-84518097D01*
X51300500Y-84281902D01*
X51263553Y-84048631D01*
X51190566Y-83824003D01*
X51125159Y-83695636D01*
X51083343Y-83613567D01*
X50944517Y-83422490D01*
X50777510Y-83255483D01*
X50586433Y-83116657D01*
X50562303Y-83104362D01*
X50492317Y-83068702D01*
X50441521Y-83020727D01*
X50424726Y-82952906D01*
X50447264Y-82886771D01*
X50475724Y-82857901D01*
X50584679Y-82778741D01*
X50718741Y-82644679D01*
X50830181Y-82491296D01*
X50916254Y-82322368D01*
X50974842Y-82142055D01*
X50994250Y-82019515D01*
X51004500Y-81954800D01*
X51004500Y-81765199D01*
X50988023Y-81661171D01*
X50974842Y-81577945D01*
X50916254Y-81397632D01*
X50916252Y-81397629D01*
X50916252Y-81397627D01*
X50867316Y-81301585D01*
X50830181Y-81228704D01*
X50718741Y-81075321D01*
X50584679Y-80941259D01*
X50431296Y-80829819D01*
X50319672Y-80772944D01*
X50262370Y-80743747D01*
X50262369Y-80743746D01*
X50262368Y-80743746D01*
X50152139Y-80707930D01*
X50094465Y-80668493D01*
X50067267Y-80604135D01*
X50079182Y-80535288D01*
X50126426Y-80483813D01*
X50152138Y-80472070D01*
X50262368Y-80436254D01*
X50431296Y-80350181D01*
X50584679Y-80238741D01*
X50718741Y-80104679D01*
X50830181Y-79951296D01*
X50916254Y-79782368D01*
X50974842Y-79602055D01*
X50996626Y-79464514D01*
X51004500Y-79414800D01*
X51004500Y-79225199D01*
X50975563Y-79042499D01*
X50974842Y-79037945D01*
X50916254Y-78857632D01*
X50916252Y-78857629D01*
X50916252Y-78857627D01*
X50830180Y-78688703D01*
X50718741Y-78535321D01*
X50584679Y-78401259D01*
X50431296Y-78289819D01*
X50262368Y-78203746D01*
X50152139Y-78167930D01*
X50094465Y-78128493D01*
X50067267Y-78064135D01*
X50079182Y-77995288D01*
X50126426Y-77943813D01*
X50152138Y-77932070D01*
X50262368Y-77896254D01*
X50431296Y-77810181D01*
X50584679Y-77698741D01*
X50718741Y-77564679D01*
X50830181Y-77411296D01*
X50916254Y-77242368D01*
X50974842Y-77062055D01*
X50994250Y-76939515D01*
X51004500Y-76874800D01*
X51004500Y-76685199D01*
X50981898Y-76542495D01*
X50974842Y-76497945D01*
X50916254Y-76317632D01*
X50916252Y-76317629D01*
X50916252Y-76317627D01*
X50830180Y-76148703D01*
X50827348Y-76144805D01*
X50718741Y-75995321D01*
X50584679Y-75861259D01*
X50431296Y-75749819D01*
X50262368Y-75663746D01*
X50152139Y-75627930D01*
X50094465Y-75588493D01*
X50067267Y-75524135D01*
X50079182Y-75455288D01*
X50126426Y-75403813D01*
X50152138Y-75392070D01*
X50262368Y-75356254D01*
X50431296Y-75270181D01*
X50584679Y-75158741D01*
X50718741Y-75024679D01*
X50830181Y-74871296D01*
X50916254Y-74702368D01*
X50974842Y-74522055D01*
X50994667Y-74396884D01*
X51004500Y-74334800D01*
X51004500Y-74145199D01*
X50981582Y-74000500D01*
X50974842Y-73957945D01*
X50916254Y-73777632D01*
X50916252Y-73777629D01*
X50916252Y-73777627D01*
X50849440Y-73646502D01*
X50830181Y-73608704D01*
X50718741Y-73455321D01*
X50584679Y-73321259D01*
X50431296Y-73209819D01*
X50262368Y-73123746D01*
X50152139Y-73087930D01*
X50094465Y-73048493D01*
X50067267Y-72984135D01*
X50079182Y-72915288D01*
X50126426Y-72863813D01*
X50152138Y-72852070D01*
X50262368Y-72816254D01*
X50431296Y-72730181D01*
X50584679Y-72618741D01*
X50718741Y-72484679D01*
X50830181Y-72331296D01*
X50916254Y-72162368D01*
X50974842Y-71982055D01*
X51000580Y-71819547D01*
X51004500Y-71794800D01*
X51004500Y-71605199D01*
X50988023Y-71501171D01*
X50974842Y-71417945D01*
X50916254Y-71237632D01*
X50916252Y-71237629D01*
X50916252Y-71237627D01*
X50849440Y-71106502D01*
X50830181Y-71068704D01*
X50718741Y-70915321D01*
X50584679Y-70781259D01*
X50431296Y-70669819D01*
X50262368Y-70583746D01*
X50152139Y-70547930D01*
X50094465Y-70508493D01*
X50067267Y-70444135D01*
X50079182Y-70375288D01*
X50126426Y-70323813D01*
X50152138Y-70312070D01*
X50262368Y-70276254D01*
X50431296Y-70190181D01*
X50584679Y-70078741D01*
X50718741Y-69944679D01*
X50830181Y-69791296D01*
X50916254Y-69622368D01*
X50974842Y-69442055D01*
X51003612Y-69260405D01*
X51004500Y-69254800D01*
X51004500Y-69065199D01*
X50985218Y-68943460D01*
X50974842Y-68877945D01*
X50916254Y-68697632D01*
X50916252Y-68697629D01*
X50916252Y-68697627D01*
X50830180Y-68528703D01*
X50814109Y-68506583D01*
X50718741Y-68375321D01*
X50584679Y-68241259D01*
X50431296Y-68129819D01*
X50262368Y-68043746D01*
X50152139Y-68007930D01*
X50094465Y-67968493D01*
X50067267Y-67904135D01*
X50079182Y-67835288D01*
X50126426Y-67783813D01*
X50152138Y-67772070D01*
X50262368Y-67736254D01*
X50431296Y-67650181D01*
X50584679Y-67538741D01*
X50718741Y-67404679D01*
X50830181Y-67251296D01*
X50916254Y-67082368D01*
X50974842Y-66902055D01*
X50991318Y-66798022D01*
X51004500Y-66714800D01*
X51004500Y-66525199D01*
X50988023Y-66421171D01*
X50974842Y-66337945D01*
X50916254Y-66157632D01*
X50916252Y-66157629D01*
X50916252Y-66157627D01*
X50830180Y-65988703D01*
X50758092Y-65889483D01*
X50718741Y-65835321D01*
X50584679Y-65701259D01*
X50431296Y-65589819D01*
X50262368Y-65503746D01*
X50152139Y-65467930D01*
X50094465Y-65428493D01*
X50067267Y-65364135D01*
X50079182Y-65295288D01*
X50126426Y-65243813D01*
X50152138Y-65232070D01*
X50262368Y-65196254D01*
X50431296Y-65110181D01*
X50584679Y-64998741D01*
X50718741Y-64864679D01*
X50830181Y-64711296D01*
X50916254Y-64542368D01*
X50974842Y-64362055D01*
X50998904Y-64210128D01*
X51004500Y-64174800D01*
X51004500Y-63985199D01*
X50977417Y-63814204D01*
X50974842Y-63797945D01*
X50916254Y-63617632D01*
X50916252Y-63617629D01*
X50916252Y-63617627D01*
X50830180Y-63448703D01*
X50755786Y-63346309D01*
X50718741Y-63295321D01*
X50584679Y-63161259D01*
X50431296Y-63049819D01*
X50262368Y-62963746D01*
X50152139Y-62927930D01*
X50094465Y-62888493D01*
X50067267Y-62824135D01*
X50079182Y-62755288D01*
X50126426Y-62703813D01*
X50152138Y-62692070D01*
X50262368Y-62656254D01*
X50431296Y-62570181D01*
X50584679Y-62458741D01*
X50718741Y-62324679D01*
X50830181Y-62171296D01*
X50916254Y-62002368D01*
X50974842Y-61822055D01*
X50991318Y-61718022D01*
X51004500Y-61634800D01*
X51004500Y-61445199D01*
X50984747Y-61320485D01*
X50974842Y-61257945D01*
X50916254Y-61077632D01*
X50916252Y-61077629D01*
X50916252Y-61077627D01*
X50830180Y-60908703D01*
X50826021Y-60902978D01*
X50718741Y-60755321D01*
X50584679Y-60621259D01*
X50431296Y-60509819D01*
X50262368Y-60423746D01*
X50152139Y-60387930D01*
X50094465Y-60348493D01*
X50067267Y-60284135D01*
X50079182Y-60215288D01*
X50126426Y-60163813D01*
X50152138Y-60152070D01*
X50262368Y-60116254D01*
X50431296Y-60030181D01*
X50584679Y-59918741D01*
X50718741Y-59784679D01*
X50830181Y-59631296D01*
X50916254Y-59462368D01*
X50974842Y-59282055D01*
X50996945Y-59142499D01*
X51004500Y-59094800D01*
X51004500Y-58905199D01*
X50984747Y-58780485D01*
X50974842Y-58717945D01*
X50916254Y-58537632D01*
X50916252Y-58537629D01*
X50916252Y-58537627D01*
X50847944Y-58403566D01*
X50830181Y-58368704D01*
X50718741Y-58215321D01*
X50584679Y-58081259D01*
X50431296Y-57969819D01*
X50262368Y-57883746D01*
X50152139Y-57847930D01*
X50094465Y-57808493D01*
X50067267Y-57744135D01*
X50079182Y-57675288D01*
X50126426Y-57623813D01*
X50152138Y-57612070D01*
X50262368Y-57576254D01*
X50431296Y-57490181D01*
X50584679Y-57378741D01*
X50718741Y-57244679D01*
X50830181Y-57091296D01*
X50916254Y-56922368D01*
X50974842Y-56742055D01*
X50997140Y-56601267D01*
X51004500Y-56554799D01*
X51004500Y-56365199D01*
X50984747Y-56240485D01*
X50974842Y-56177945D01*
X50916254Y-55997632D01*
X50916252Y-55997629D01*
X50916252Y-55997627D01*
X50830180Y-55828703D01*
X50826021Y-55822978D01*
X50718741Y-55675321D01*
X50584679Y-55541259D01*
X50431296Y-55429819D01*
X50262368Y-55343746D01*
X50152139Y-55307930D01*
X50094465Y-55268493D01*
X50067267Y-55204135D01*
X50079182Y-55135288D01*
X50126426Y-55083813D01*
X50152138Y-55072070D01*
X50262368Y-55036254D01*
X50431296Y-54950181D01*
X50584679Y-54838741D01*
X50718741Y-54704679D01*
X50830181Y-54551296D01*
X50916254Y-54382368D01*
X50974842Y-54202055D01*
X50991318Y-54098022D01*
X51004500Y-54014800D01*
X51004500Y-53825199D01*
X50984747Y-53700485D01*
X50974842Y-53637945D01*
X50916254Y-53457632D01*
X50916252Y-53457629D01*
X50916252Y-53457627D01*
X50867316Y-53361585D01*
X50830181Y-53288704D01*
X50718741Y-53135321D01*
X50584679Y-53001259D01*
X50475725Y-52922098D01*
X50433061Y-52866770D01*
X50427082Y-52797156D01*
X50459688Y-52735361D01*
X50492314Y-52711298D01*
X50586433Y-52663343D01*
X50777510Y-52524517D01*
X50857309Y-52444717D01*
X50861546Y-52441546D01*
X50864717Y-52437309D01*
X50944517Y-52357510D01*
X51083343Y-52166433D01*
X51190568Y-51955992D01*
X51263553Y-51731368D01*
X51275125Y-51658305D01*
X51300500Y-51498097D01*
X51300500Y-51261902D01*
X51263553Y-51028631D01*
X51208691Y-50859786D01*
X51190568Y-50804008D01*
X51190566Y-50804005D01*
X51190566Y-50804003D01*
X51087876Y-50602464D01*
X51083343Y-50593567D01*
X50944517Y-50402490D01*
X50864717Y-50322690D01*
X50861546Y-50318454D01*
X50857309Y-50315282D01*
X50777510Y-50235483D01*
X50586433Y-50096657D01*
X50545177Y-50075636D01*
X50375996Y-49989433D01*
X50188491Y-49928508D01*
X50130816Y-49889070D01*
X50103618Y-49824711D01*
X50115533Y-49755865D01*
X50139126Y-49722899D01*
X51325208Y-48536819D01*
X51386531Y-48503334D01*
X51412889Y-48500500D01*
X81727111Y-48500500D01*
X81794150Y-48520185D01*
X81814792Y-48536819D01*
X93053181Y-59775208D01*
X93086666Y-59836531D01*
X93089500Y-59862889D01*
X93089500Y-68723097D01*
X93113427Y-68874166D01*
X93104472Y-68943460D01*
X93059476Y-68996911D01*
X92992725Y-69017551D01*
X92925411Y-68998826D01*
X92903273Y-68981245D01*
X85336819Y-61414791D01*
X85303334Y-61353468D01*
X85300500Y-61327110D01*
X85300500Y-55019821D01*
X85263553Y-54786550D01*
X85198980Y-54587816D01*
X85190568Y-54561927D01*
X85190566Y-54561924D01*
X85190566Y-54561922D01*
X85096362Y-54377037D01*
X85083343Y-54351486D01*
X85075411Y-54340568D01*
X85059549Y-54318736D01*
X85059547Y-54318735D01*
X85059547Y-54318734D01*
X84944518Y-54160409D01*
X80979591Y-50195483D01*
X80788515Y-50056657D01*
X80764571Y-50044457D01*
X80578077Y-49949433D01*
X80353449Y-49876446D01*
X80120178Y-49839500D01*
X80120173Y-49839500D01*
X78681908Y-49839500D01*
X78681903Y-49839500D01*
X78448631Y-49876446D01*
X78224003Y-49949433D01*
X78013563Y-50056659D01*
X77822493Y-50195479D01*
X77822486Y-50195485D01*
X77789327Y-50228644D01*
X77739029Y-50259193D01*
X76787629Y-50560007D01*
X76717775Y-50561449D01*
X76715893Y-50560922D01*
X75489604Y-50207334D01*
X75488216Y-50206965D01*
X75488216Y-50206966D01*
X75488212Y-50206965D01*
X75484948Y-50206098D01*
X75482055Y-50205158D01*
X75480454Y-50204904D01*
X75474313Y-50203273D01*
X75474311Y-50203273D01*
X75468938Y-50201846D01*
X75468004Y-50201619D01*
X75467986Y-50201615D01*
X75394371Y-50189393D01*
X75387659Y-50189016D01*
X75387681Y-50188614D01*
X75372597Y-50187822D01*
X75294800Y-50175500D01*
X75294796Y-50175500D01*
X75105204Y-50175500D01*
X75105200Y-50175500D01*
X74917949Y-50205157D01*
X74917946Y-50205157D01*
X74917945Y-50205158D01*
X74859482Y-50224153D01*
X74737627Y-50263747D01*
X74568703Y-50349819D01*
X74415319Y-50461260D01*
X74281260Y-50595319D01*
X74169819Y-50748703D01*
X74083747Y-50917627D01*
X74053274Y-51011413D01*
X74036615Y-51062686D01*
X74025157Y-51097949D01*
X73995500Y-51285199D01*
X73995500Y-51474800D01*
X74015409Y-51600500D01*
X74025158Y-51662055D01*
X74053968Y-51750722D01*
X74083747Y-51842372D01*
X74161328Y-51994631D01*
X74169819Y-52011296D01*
X74281259Y-52164679D01*
X74415321Y-52298741D01*
X74568704Y-52410181D01*
X74636485Y-52444717D01*
X74737627Y-52496252D01*
X74737629Y-52496252D01*
X74737632Y-52496254D01*
X74847860Y-52532069D01*
X74905534Y-52571507D01*
X74932732Y-52635866D01*
X74920817Y-52704712D01*
X74873573Y-52756188D01*
X74847861Y-52767929D01*
X74805838Y-52781583D01*
X74737627Y-52803747D01*
X74568703Y-52889819D01*
X74415319Y-53001260D01*
X74281260Y-53135319D01*
X74169819Y-53288703D01*
X74083747Y-53457627D01*
X74054354Y-53548091D01*
X74033190Y-53613227D01*
X74025157Y-53637949D01*
X73995500Y-53825199D01*
X73995500Y-54014800D01*
X74018562Y-54160408D01*
X74025158Y-54202055D01*
X74052556Y-54286376D01*
X74083747Y-54382372D01*
X74117509Y-54448632D01*
X74169819Y-54551296D01*
X74281259Y-54704679D01*
X74415321Y-54838741D01*
X74568704Y-54950181D01*
X74648515Y-54990846D01*
X74737627Y-55036252D01*
X74737629Y-55036252D01*
X74737632Y-55036254D01*
X74847860Y-55072069D01*
X74905534Y-55111507D01*
X74932732Y-55175866D01*
X74920817Y-55244712D01*
X74873573Y-55296188D01*
X74847861Y-55307929D01*
X74827638Y-55314501D01*
X74737627Y-55343747D01*
X74568703Y-55429819D01*
X74415319Y-55541260D01*
X74281260Y-55675319D01*
X74169819Y-55828703D01*
X74083747Y-55997627D01*
X74025157Y-56177949D01*
X73995500Y-56365199D01*
X73995500Y-56554796D01*
X73995499Y-56554799D01*
X74024564Y-56738305D01*
X74025158Y-56742055D01*
X74049977Y-56818439D01*
X74083747Y-56922372D01*
X74145421Y-57043413D01*
X74169819Y-57091296D01*
X74281259Y-57244679D01*
X74415321Y-57378741D01*
X74568704Y-57490181D01*
X74648515Y-57530846D01*
X74737627Y-57576252D01*
X74737629Y-57576252D01*
X74737632Y-57576254D01*
X74847860Y-57612069D01*
X74905534Y-57651507D01*
X74932732Y-57715866D01*
X74920817Y-57784712D01*
X74873573Y-57836188D01*
X74847861Y-57847929D01*
X74815146Y-57858560D01*
X74737627Y-57883747D01*
X74568703Y-57969819D01*
X74415319Y-58081260D01*
X74281260Y-58215319D01*
X74169819Y-58368703D01*
X74083747Y-58537627D01*
X74025157Y-58717949D01*
X73995500Y-58905199D01*
X73995500Y-59094800D01*
X74003055Y-59142499D01*
X74025158Y-59282055D01*
X74036980Y-59318439D01*
X74083747Y-59462372D01*
X74106098Y-59506237D01*
X74169819Y-59631296D01*
X74281259Y-59784679D01*
X74415321Y-59918741D01*
X74568704Y-60030181D01*
X74648515Y-60070846D01*
X74737627Y-60116252D01*
X74737629Y-60116252D01*
X74737632Y-60116254D01*
X74847860Y-60152069D01*
X74905534Y-60191507D01*
X74932732Y-60255866D01*
X74920817Y-60324712D01*
X74873573Y-60376188D01*
X74847861Y-60387929D01*
X74805838Y-60401583D01*
X74737627Y-60423747D01*
X74568703Y-60509819D01*
X74415319Y-60621260D01*
X74281260Y-60755319D01*
X74169819Y-60908703D01*
X74083747Y-61077627D01*
X74025157Y-61257949D01*
X73995500Y-61445199D01*
X73995500Y-61634800D01*
X74024237Y-61816239D01*
X74025158Y-61822055D01*
X74044606Y-61881908D01*
X74083747Y-62002372D01*
X74167056Y-62165873D01*
X74169819Y-62171296D01*
X74281259Y-62324679D01*
X74415321Y-62458741D01*
X74568704Y-62570181D01*
X74648515Y-62610846D01*
X74737627Y-62656252D01*
X74737629Y-62656252D01*
X74737632Y-62656254D01*
X74847860Y-62692069D01*
X74905534Y-62731507D01*
X74932732Y-62795866D01*
X74920817Y-62864712D01*
X74873573Y-62916188D01*
X74847861Y-62927929D01*
X74805838Y-62941583D01*
X74737627Y-62963747D01*
X74568703Y-63049819D01*
X74415319Y-63161260D01*
X74281260Y-63295319D01*
X74169819Y-63448703D01*
X74083747Y-63617627D01*
X74063860Y-63678834D01*
X74036218Y-63763908D01*
X74025157Y-63797949D01*
X73995500Y-63985199D01*
X73995500Y-64174800D01*
X74025157Y-64362050D01*
X74025158Y-64362055D01*
X74064750Y-64483905D01*
X74083747Y-64542372D01*
X74119988Y-64613498D01*
X74169819Y-64711296D01*
X74281259Y-64864679D01*
X74415321Y-64998741D01*
X74568704Y-65110181D01*
X74648515Y-65150846D01*
X74737627Y-65196252D01*
X74737629Y-65196252D01*
X74737632Y-65196254D01*
X74847860Y-65232069D01*
X74905534Y-65271507D01*
X74932732Y-65335866D01*
X74920817Y-65404712D01*
X74873573Y-65456188D01*
X74847861Y-65467929D01*
X74805838Y-65481583D01*
X74737627Y-65503747D01*
X74568703Y-65589819D01*
X74415319Y-65701260D01*
X74281260Y-65835319D01*
X74169819Y-65988703D01*
X74083747Y-66157627D01*
X74025157Y-66337949D01*
X73995500Y-66525199D01*
X73995500Y-66714800D01*
X74024237Y-66896239D01*
X74025158Y-66902055D01*
X74038941Y-66944473D01*
X74083747Y-67082372D01*
X74113848Y-67141447D01*
X74169819Y-67251296D01*
X74281259Y-67404679D01*
X74415321Y-67538741D01*
X74568704Y-67650181D01*
X74648515Y-67690846D01*
X74737627Y-67736252D01*
X74737629Y-67736252D01*
X74737632Y-67736254D01*
X74847860Y-67772069D01*
X74905534Y-67811507D01*
X74932732Y-67875866D01*
X74920817Y-67944712D01*
X74873573Y-67996188D01*
X74847861Y-68007929D01*
X74805838Y-68021583D01*
X74737627Y-68043747D01*
X74568703Y-68129819D01*
X74415319Y-68241260D01*
X74281260Y-68375319D01*
X74169819Y-68528703D01*
X74083747Y-68697627D01*
X74049263Y-68803757D01*
X74034119Y-68850368D01*
X74025157Y-68877949D01*
X73995500Y-69065199D01*
X73995500Y-69254800D01*
X74024516Y-69438000D01*
X74025158Y-69442055D01*
X74062014Y-69555484D01*
X74083747Y-69622372D01*
X74155851Y-69763882D01*
X74169819Y-69791296D01*
X74281259Y-69944679D01*
X74415321Y-70078741D01*
X74568704Y-70190181D01*
X74618517Y-70215562D01*
X74737627Y-70276252D01*
X74737629Y-70276252D01*
X74737632Y-70276254D01*
X74847860Y-70312069D01*
X74905534Y-70351507D01*
X74932732Y-70415866D01*
X74920817Y-70484712D01*
X74873573Y-70536188D01*
X74847861Y-70547929D01*
X74805838Y-70561583D01*
X74737627Y-70583747D01*
X74568703Y-70669819D01*
X74415319Y-70781260D01*
X74281260Y-70915319D01*
X74169819Y-71068703D01*
X74083747Y-71237627D01*
X74058886Y-71314142D01*
X74030577Y-71401269D01*
X74025157Y-71417949D01*
X73995500Y-71605199D01*
X73995500Y-71794800D01*
X74024237Y-71976239D01*
X74025158Y-71982055D01*
X74064750Y-72103905D01*
X74083747Y-72162372D01*
X74150731Y-72293834D01*
X74169819Y-72331296D01*
X74281259Y-72484679D01*
X74415321Y-72618741D01*
X74568704Y-72730181D01*
X74618517Y-72755562D01*
X74737627Y-72816252D01*
X74737629Y-72816252D01*
X74737632Y-72816254D01*
X74847860Y-72852069D01*
X74905534Y-72891507D01*
X74932732Y-72955866D01*
X74920817Y-73024712D01*
X74873573Y-73076188D01*
X74847861Y-73087929D01*
X74805838Y-73101583D01*
X74737627Y-73123747D01*
X74568703Y-73209819D01*
X74415319Y-73321260D01*
X74281260Y-73455319D01*
X74169819Y-73608703D01*
X74083747Y-73777627D01*
X74025157Y-73957949D01*
X73995500Y-74145199D01*
X73995500Y-74334800D01*
X74025157Y-74522050D01*
X74025158Y-74522055D01*
X74057049Y-74620204D01*
X74083747Y-74702372D01*
X74142710Y-74818092D01*
X74169819Y-74871296D01*
X74281259Y-75024679D01*
X74415321Y-75158741D01*
X74568704Y-75270181D01*
X74630662Y-75301750D01*
X74737627Y-75356252D01*
X74737629Y-75356252D01*
X74737632Y-75356254D01*
X74847860Y-75392069D01*
X74905534Y-75431507D01*
X74932732Y-75495866D01*
X74920817Y-75564712D01*
X74873573Y-75616188D01*
X74847861Y-75627929D01*
X74805838Y-75641583D01*
X74737627Y-75663747D01*
X74568703Y-75749819D01*
X74415319Y-75861260D01*
X74281260Y-75995319D01*
X74169819Y-76148703D01*
X74083747Y-76317627D01*
X74025157Y-76497949D01*
X73995500Y-76685199D01*
X73995500Y-76874800D01*
X74025157Y-77062050D01*
X74025158Y-77062055D01*
X74062014Y-77175485D01*
X74083747Y-77242372D01*
X74169819Y-77411296D01*
X74281259Y-77564679D01*
X74415321Y-77698741D01*
X74568704Y-77810181D01*
X74648515Y-77850846D01*
X74737627Y-77896252D01*
X74737629Y-77896252D01*
X74737632Y-77896254D01*
X74847860Y-77932069D01*
X74905534Y-77971507D01*
X74932732Y-78035866D01*
X74920817Y-78104712D01*
X74873573Y-78156188D01*
X74847861Y-78167929D01*
X74805838Y-78181583D01*
X74737627Y-78203747D01*
X74568703Y-78289819D01*
X74415319Y-78401260D01*
X74281260Y-78535319D01*
X74169819Y-78688703D01*
X74083747Y-78857627D01*
X74025157Y-79037949D01*
X73995500Y-79225199D01*
X73995500Y-79414800D01*
X74025157Y-79602050D01*
X74025158Y-79602055D01*
X74063703Y-79720683D01*
X74083747Y-79782372D01*
X74169819Y-79951296D01*
X74281259Y-80104679D01*
X74415321Y-80238741D01*
X74568704Y-80350181D01*
X74648515Y-80390846D01*
X74737627Y-80436252D01*
X74737629Y-80436252D01*
X74737632Y-80436254D01*
X74847860Y-80472069D01*
X74905534Y-80511507D01*
X74932732Y-80575866D01*
X74920817Y-80644712D01*
X74873573Y-80696188D01*
X74847861Y-80707929D01*
X74805838Y-80721583D01*
X74737627Y-80743747D01*
X74568703Y-80829819D01*
X74415319Y-80941260D01*
X74281260Y-81075319D01*
X74169819Y-81228703D01*
X74083747Y-81397627D01*
X74025157Y-81577949D01*
X73995500Y-81765199D01*
X73995500Y-81954800D01*
X74025157Y-82142050D01*
X74025158Y-82142055D01*
X74033779Y-82168587D01*
X74083747Y-82322372D01*
X74146485Y-82445500D01*
X74169819Y-82491296D01*
X74281259Y-82644679D01*
X74415321Y-82778741D01*
X74568704Y-82890181D01*
X74648515Y-82930846D01*
X74737627Y-82976252D01*
X74737629Y-82976252D01*
X74737632Y-82976254D01*
X74847860Y-83012069D01*
X74905534Y-83051507D01*
X74932732Y-83115866D01*
X74920817Y-83184712D01*
X74873573Y-83236188D01*
X74847861Y-83247929D01*
X74805838Y-83261583D01*
X74737627Y-83283747D01*
X74568703Y-83369819D01*
X74415319Y-83481260D01*
X74281260Y-83615319D01*
X74169819Y-83768703D01*
X74083747Y-83937627D01*
X74025157Y-84117949D01*
X73995500Y-84305199D01*
X73995500Y-84494800D01*
X74025157Y-84682050D01*
X74025158Y-84682055D01*
X74053732Y-84769995D01*
X74083747Y-84862372D01*
X74169819Y-85031296D01*
X74281259Y-85184679D01*
X74415321Y-85318741D01*
X74568704Y-85430181D01*
X74648515Y-85470846D01*
X74737627Y-85516252D01*
X74737629Y-85516252D01*
X74737632Y-85516254D01*
X74847860Y-85552069D01*
X74905534Y-85591507D01*
X74932732Y-85655866D01*
X74920817Y-85724712D01*
X74873573Y-85776188D01*
X74847861Y-85787929D01*
X74805838Y-85801583D01*
X74737627Y-85823747D01*
X74568703Y-85909819D01*
X74415319Y-86021260D01*
X74281260Y-86155319D01*
X74169819Y-86308703D01*
X74083747Y-86477627D01*
X74025157Y-86657949D01*
X73995500Y-86845199D01*
X73995500Y-87034800D01*
X74024437Y-87217501D01*
X74025158Y-87222055D01*
X74048662Y-87294391D01*
X74083747Y-87402372D01*
X74139379Y-87511555D01*
X74169819Y-87571296D01*
X74281259Y-87724679D01*
X74415321Y-87858741D01*
X74568704Y-87970181D01*
X74618517Y-87995562D01*
X74737627Y-88056252D01*
X74737629Y-88056252D01*
X74737632Y-88056254D01*
X74847860Y-88092069D01*
X74905534Y-88131507D01*
X74932732Y-88195866D01*
X74920817Y-88264712D01*
X74873573Y-88316188D01*
X74847861Y-88327929D01*
X74805838Y-88341583D01*
X74737627Y-88363747D01*
X74568703Y-88449819D01*
X74415319Y-88561260D01*
X74281260Y-88695319D01*
X74169819Y-88848703D01*
X74083747Y-89017627D01*
X74025157Y-89197949D01*
X73995500Y-89385199D01*
X73995500Y-89574800D01*
X74022061Y-89742500D01*
X74025158Y-89762055D01*
X74064750Y-89883905D01*
X74083747Y-89942372D01*
X74169819Y-90111296D01*
X74281259Y-90264679D01*
X74415321Y-90398741D01*
X74568704Y-90510181D01*
X74648515Y-90550846D01*
X74737627Y-90596252D01*
X74737629Y-90596252D01*
X74737632Y-90596254D01*
X74847860Y-90632069D01*
X74905534Y-90671507D01*
X74932732Y-90735866D01*
X74920817Y-90804712D01*
X74873573Y-90856188D01*
X74847861Y-90867929D01*
X74805838Y-90881583D01*
X74737627Y-90903747D01*
X74568703Y-90989819D01*
X74415319Y-91101260D01*
X74281260Y-91235319D01*
X74169819Y-91388703D01*
X74083747Y-91557627D01*
X74025157Y-91737949D01*
X73995500Y-91925199D01*
X73995500Y-92114800D01*
X74024864Y-92300197D01*
X74025158Y-92302055D01*
X74054585Y-92392620D01*
X74083747Y-92482372D01*
X74151219Y-92614791D01*
X74169819Y-92651296D01*
X74281259Y-92804679D01*
X74415321Y-92938741D01*
X74568704Y-93050181D01*
X74648515Y-93090846D01*
X74737627Y-93136252D01*
X74737629Y-93136252D01*
X74737632Y-93136254D01*
X74847860Y-93172069D01*
X74905534Y-93211507D01*
X74932732Y-93275866D01*
X74920817Y-93344712D01*
X74873573Y-93396188D01*
X74847861Y-93407929D01*
X74811609Y-93419709D01*
X74737627Y-93443747D01*
X74568703Y-93529819D01*
X74415319Y-93641260D01*
X74281260Y-93775319D01*
X74169819Y-93928703D01*
X74083747Y-94097627D01*
X74025157Y-94277949D01*
X73995500Y-94465199D01*
X73995500Y-94654800D01*
X74017483Y-94793596D01*
X74025158Y-94842055D01*
X74064750Y-94963905D01*
X74083747Y-95022372D01*
X74139347Y-95131492D01*
X74169819Y-95191296D01*
X74281259Y-95344679D01*
X74415321Y-95478741D01*
X74568704Y-95590181D01*
X74607313Y-95609853D01*
X74737627Y-95676252D01*
X74737629Y-95676252D01*
X74737632Y-95676254D01*
X74847860Y-95712069D01*
X74905534Y-95751507D01*
X74932732Y-95815866D01*
X74920817Y-95884712D01*
X74873573Y-95936188D01*
X74847861Y-95947929D01*
X74805838Y-95961583D01*
X74737627Y-95983747D01*
X74568703Y-96069819D01*
X74415319Y-96181260D01*
X74281260Y-96315319D01*
X74169819Y-96468703D01*
X74083747Y-96637627D01*
X74025157Y-96817949D01*
X73995500Y-97005199D01*
X73995500Y-97194800D01*
X74018314Y-97338842D01*
X74025158Y-97382055D01*
X74047680Y-97451369D01*
X74083747Y-97562372D01*
X74121259Y-97635992D01*
X74169819Y-97731296D01*
X74281259Y-97884679D01*
X74415321Y-98018741D01*
X74568704Y-98130181D01*
X74612170Y-98152328D01*
X74737627Y-98216252D01*
X74737629Y-98216252D01*
X74737632Y-98216254D01*
X74917945Y-98274842D01*
X75011574Y-98289671D01*
X75105200Y-98304500D01*
X75105204Y-98304500D01*
X75294800Y-98304500D01*
X75384892Y-98290230D01*
X75482055Y-98274842D01*
X75482061Y-98274840D01*
X75484481Y-98274259D01*
X75485370Y-98274022D01*
X75485334Y-98273895D01*
X75685246Y-98216252D01*
X76977823Y-97843549D01*
X77047690Y-97843889D01*
X77089983Y-97866144D01*
X77203807Y-97957873D01*
X77624615Y-98296996D01*
X77624626Y-98297004D01*
X77624628Y-98297006D01*
X77646040Y-98313341D01*
X77671270Y-98326548D01*
X77707669Y-98353796D01*
X77762127Y-98374107D01*
X77773512Y-98380067D01*
X77780847Y-98382657D01*
X77789519Y-98384956D01*
X77801070Y-98388632D01*
X77842517Y-98404091D01*
X77902127Y-98410500D01*
X79697872Y-98410499D01*
X79757483Y-98404091D01*
X79892331Y-98353796D01*
X80007546Y-98267546D01*
X80093796Y-98152331D01*
X80144091Y-98017483D01*
X80150500Y-97957873D01*
X80150499Y-96162128D01*
X80144091Y-96102517D01*
X80136621Y-96082490D01*
X80093797Y-95967671D01*
X80093793Y-95967664D01*
X80007547Y-95852455D01*
X80007544Y-95852452D01*
X79892335Y-95766206D01*
X79892328Y-95766202D01*
X79760917Y-95717189D01*
X79704983Y-95675318D01*
X79680566Y-95609853D01*
X79695418Y-95541580D01*
X79716563Y-95513332D01*
X79830104Y-95399792D01*
X79955051Y-95227816D01*
X80051557Y-95038412D01*
X80117246Y-94836243D01*
X80150500Y-94626287D01*
X80150500Y-94413713D01*
X80117246Y-94203757D01*
X80051557Y-94001588D01*
X79955051Y-93812184D01*
X79955049Y-93812181D01*
X79955048Y-93812179D01*
X79830109Y-93640213D01*
X79679786Y-93489890D01*
X79507820Y-93364951D01*
X79507115Y-93364591D01*
X79499054Y-93360485D01*
X79448259Y-93312512D01*
X79431463Y-93244692D01*
X79453999Y-93178556D01*
X79499054Y-93139515D01*
X79507816Y-93135051D01*
X79529789Y-93119086D01*
X79679786Y-93010109D01*
X79679788Y-93010106D01*
X79679792Y-93010104D01*
X79830104Y-92859792D01*
X79830106Y-92859788D01*
X79830109Y-92859786D01*
X79955048Y-92687820D01*
X79955047Y-92687820D01*
X79955051Y-92687816D01*
X80051557Y-92498412D01*
X80117246Y-92296243D01*
X80148078Y-92101577D01*
X84209000Y-92101577D01*
X84209000Y-92298422D01*
X84239790Y-92492826D01*
X84300617Y-92680029D01*
X84375782Y-92827547D01*
X84389976Y-92855405D01*
X84505672Y-93014646D01*
X84644854Y-93153828D01*
X84804095Y-93269524D01*
X84880088Y-93308244D01*
X84979470Y-93358882D01*
X84979472Y-93358882D01*
X84979475Y-93358884D01*
X85054558Y-93383280D01*
X85166673Y-93419709D01*
X85361078Y-93450500D01*
X85361083Y-93450500D01*
X85557922Y-93450500D01*
X85752326Y-93419709D01*
X85788445Y-93407973D01*
X85939525Y-93358884D01*
X86114905Y-93269524D01*
X86274146Y-93153828D01*
X86413328Y-93014646D01*
X86529024Y-92855405D01*
X86618384Y-92680025D01*
X86679209Y-92492826D01*
X86695080Y-92392620D01*
X86710000Y-92298422D01*
X86710000Y-92101577D01*
X86679209Y-91907173D01*
X86618382Y-91719970D01*
X86542220Y-91570494D01*
X86529024Y-91544595D01*
X86413328Y-91385354D01*
X86274146Y-91246172D01*
X86114905Y-91130476D01*
X85939529Y-91041117D01*
X85752326Y-90980290D01*
X85557922Y-90949500D01*
X85557917Y-90949500D01*
X85361083Y-90949500D01*
X85361078Y-90949500D01*
X85166673Y-90980290D01*
X84979470Y-91041117D01*
X84804094Y-91130476D01*
X84769746Y-91155432D01*
X84644854Y-91246172D01*
X84644852Y-91246174D01*
X84644851Y-91246174D01*
X84505674Y-91385351D01*
X84505674Y-91385352D01*
X84505672Y-91385354D01*
X84485175Y-91413566D01*
X84389976Y-91544594D01*
X84300617Y-91719970D01*
X84239790Y-91907173D01*
X84209000Y-92101577D01*
X80148078Y-92101577D01*
X80150500Y-92086287D01*
X80150500Y-91873713D01*
X80117246Y-91663757D01*
X80051557Y-91461588D01*
X79955051Y-91272184D01*
X79955049Y-91272181D01*
X79955048Y-91272179D01*
X79830109Y-91100213D01*
X79679786Y-90949890D01*
X79507820Y-90824951D01*
X79507115Y-90824591D01*
X79499054Y-90820485D01*
X79448259Y-90772512D01*
X79431463Y-90704692D01*
X79453999Y-90638556D01*
X79499054Y-90599515D01*
X79507816Y-90595051D01*
X79529789Y-90579086D01*
X79679786Y-90470109D01*
X79679788Y-90470106D01*
X79679792Y-90470104D01*
X79830104Y-90319792D01*
X79830106Y-90319788D01*
X79830109Y-90319786D01*
X79955048Y-90147820D01*
X79955047Y-90147820D01*
X79955051Y-90147816D01*
X80051557Y-89958412D01*
X80117246Y-89756243D01*
X80150500Y-89546287D01*
X80150500Y-89333713D01*
X80117246Y-89123757D01*
X80051557Y-88921588D01*
X79955051Y-88732184D01*
X79955049Y-88732181D01*
X79955048Y-88732179D01*
X79830109Y-88560213D01*
X79679786Y-88409890D01*
X79529359Y-88300600D01*
X79486693Y-88245271D01*
X79480714Y-88175657D01*
X79513319Y-88113862D01*
X79566688Y-88081489D01*
X81271379Y-87571296D01*
X81407001Y-87530706D01*
X81442554Y-87525500D01*
X107361608Y-87525500D01*
X107361608Y-87525499D01*
X107438245Y-87510256D01*
X107482452Y-87501463D01*
X107534985Y-87479703D01*
X107540093Y-87477587D01*
X107540100Y-87477585D01*
X107596281Y-87454314D01*
X107596280Y-87454314D01*
X107596286Y-87454312D01*
X107647509Y-87420084D01*
X107650009Y-87418414D01*
X107676608Y-87400641D01*
X107698733Y-87385858D01*
X107785858Y-87298733D01*
X107790178Y-87294413D01*
X107790187Y-87294402D01*
X120128974Y-74955617D01*
X123705500Y-74955617D01*
X123705500Y-75152382D01*
X123736278Y-75346705D01*
X123797081Y-75533835D01*
X123886405Y-75709145D01*
X123911819Y-75744125D01*
X123911820Y-75744125D01*
X124431712Y-75224233D01*
X124442982Y-75266292D01*
X124515390Y-75391708D01*
X124617792Y-75494110D01*
X124743208Y-75566518D01*
X124785264Y-75577787D01*
X124265373Y-76097677D01*
X124265373Y-76097678D01*
X124300358Y-76123096D01*
X124475664Y-76212418D01*
X124662794Y-76273221D01*
X124857118Y-76304000D01*
X125053882Y-76304000D01*
X125248205Y-76273221D01*
X125435335Y-76212418D01*
X125610643Y-76123095D01*
X125645625Y-76097678D01*
X125645626Y-76097678D01*
X125125735Y-75577787D01*
X125167792Y-75566518D01*
X125293208Y-75494110D01*
X125395610Y-75391708D01*
X125468018Y-75266292D01*
X125479287Y-75224235D01*
X125999178Y-75744126D01*
X125999178Y-75744125D01*
X126024595Y-75709143D01*
X126113918Y-75533835D01*
X126174721Y-75346705D01*
X126205500Y-75152382D01*
X126205500Y-74955617D01*
X126174721Y-74761294D01*
X126113918Y-74574164D01*
X126024596Y-74398858D01*
X125999178Y-74363873D01*
X125999177Y-74363873D01*
X125479287Y-74883764D01*
X125468018Y-74841708D01*
X125395610Y-74716292D01*
X125293208Y-74613890D01*
X125167792Y-74541482D01*
X125125734Y-74530212D01*
X125645625Y-74010320D01*
X125645625Y-74010319D01*
X125610645Y-73984905D01*
X125435335Y-73895581D01*
X125248205Y-73834778D01*
X125053882Y-73804000D01*
X124857118Y-73804000D01*
X124662794Y-73834778D01*
X124475661Y-73895582D01*
X124300363Y-73984899D01*
X124300359Y-73984902D01*
X124265373Y-74010320D01*
X124265372Y-74010320D01*
X124785265Y-74530212D01*
X124743208Y-74541482D01*
X124617792Y-74613890D01*
X124515390Y-74716292D01*
X124442982Y-74841708D01*
X124431712Y-74883765D01*
X123911820Y-74363872D01*
X123911820Y-74363873D01*
X123886402Y-74398859D01*
X123886399Y-74398863D01*
X123797082Y-74574161D01*
X123736278Y-74761294D01*
X123705500Y-74955617D01*
X120128974Y-74955617D01*
X122022772Y-73061819D01*
X122084095Y-73028334D01*
X122110453Y-73025500D01*
X129209548Y-73025500D01*
X129276587Y-73045185D01*
X129297229Y-73061819D01*
X130775641Y-74540231D01*
X130796768Y-74568442D01*
X131375844Y-75627931D01*
X131814681Y-76430837D01*
X131820213Y-76441694D01*
X131823117Y-76445691D01*
X131826533Y-76451630D01*
X131827686Y-76453635D01*
X131828191Y-76454472D01*
X131828193Y-76454474D01*
X131828196Y-76454479D01*
X131828199Y-76454483D01*
X131872560Y-76516714D01*
X131872561Y-76516715D01*
X131877076Y-76521775D01*
X131876737Y-76522076D01*
X131886462Y-76532879D01*
X131937013Y-76602458D01*
X131937019Y-76602464D01*
X132077536Y-76742981D01*
X132238306Y-76859787D01*
X132267763Y-76874796D01*
X132394780Y-76939515D01*
X132445576Y-76987490D01*
X132462371Y-77055311D01*
X132439833Y-77121446D01*
X132394780Y-77160485D01*
X132238305Y-77240213D01*
X132077533Y-77357021D01*
X131937021Y-77497533D01*
X131820213Y-77658305D01*
X131729994Y-77835367D01*
X131729993Y-77835370D01*
X131668587Y-78024362D01*
X131645656Y-78169145D01*
X131637500Y-78220639D01*
X131637500Y-78419361D01*
X131641512Y-78444689D01*
X131668587Y-78615637D01*
X131729993Y-78804629D01*
X131729994Y-78804632D01*
X131811075Y-78963760D01*
X131820213Y-78981694D01*
X131937019Y-79142464D01*
X132077536Y-79282981D01*
X132238306Y-79399787D01*
X132267763Y-79414796D01*
X132394780Y-79479515D01*
X132445576Y-79527490D01*
X132462371Y-79595311D01*
X132439833Y-79661446D01*
X132394780Y-79700485D01*
X132238305Y-79780213D01*
X132077533Y-79897021D01*
X131937021Y-80037533D01*
X131820213Y-80198305D01*
X131729994Y-80375367D01*
X131729993Y-80375370D01*
X131668587Y-80564362D01*
X131637500Y-80760639D01*
X131637500Y-80959360D01*
X131668587Y-81155637D01*
X131729993Y-81344629D01*
X131729994Y-81344632D01*
X131811075Y-81503760D01*
X131820213Y-81521694D01*
X131937019Y-81682464D01*
X132077536Y-81822981D01*
X132238306Y-81939787D01*
X132267763Y-81954796D01*
X132394780Y-82019515D01*
X132445576Y-82067490D01*
X132462371Y-82135311D01*
X132439833Y-82201446D01*
X132394780Y-82240485D01*
X132238305Y-82320213D01*
X132077533Y-82437021D01*
X131937021Y-82577533D01*
X131820213Y-82738305D01*
X131729994Y-82915367D01*
X131729993Y-82915370D01*
X131668587Y-83104362D01*
X131637500Y-83300639D01*
X131637500Y-83499360D01*
X131668587Y-83695637D01*
X131729993Y-83884629D01*
X131729994Y-83884632D01*
X131818609Y-84058546D01*
X131820213Y-84061694D01*
X131937019Y-84222464D01*
X132077536Y-84362981D01*
X132238306Y-84479787D01*
X132356832Y-84540179D01*
X132394780Y-84559515D01*
X132445576Y-84607490D01*
X132462371Y-84675311D01*
X132439833Y-84741446D01*
X132394780Y-84780485D01*
X132238305Y-84860213D01*
X132077533Y-84977021D01*
X131937021Y-85117533D01*
X131820213Y-85278305D01*
X131729994Y-85455367D01*
X131729993Y-85455370D01*
X131668587Y-85644362D01*
X131637500Y-85840639D01*
X131637500Y-86039360D01*
X131668587Y-86235637D01*
X131729993Y-86424629D01*
X131729994Y-86424632D01*
X131811075Y-86583760D01*
X131820213Y-86601694D01*
X131937019Y-86762464D01*
X132077536Y-86902981D01*
X132077539Y-86902983D01*
X132201687Y-86993182D01*
X132244353Y-87048512D01*
X132250332Y-87118125D01*
X132217726Y-87179920D01*
X132156888Y-87214277D01*
X132128805Y-87217500D01*
X132090131Y-87217500D01*
X132090123Y-87217501D01*
X132030516Y-87223908D01*
X131895671Y-87274202D01*
X131895664Y-87274206D01*
X131780455Y-87360452D01*
X131780452Y-87360455D01*
X131694206Y-87475664D01*
X131694202Y-87475671D01*
X131643908Y-87610517D01*
X131637501Y-87670116D01*
X131637501Y-87670123D01*
X131637500Y-87670135D01*
X131637500Y-89289870D01*
X131637501Y-89289876D01*
X131643908Y-89349483D01*
X131694202Y-89484328D01*
X131694206Y-89484335D01*
X131780452Y-89599544D01*
X131780455Y-89599547D01*
X131895664Y-89685793D01*
X131895671Y-89685797D01*
X132030517Y-89736091D01*
X132030516Y-89736091D01*
X132037444Y-89736835D01*
X132090127Y-89742500D01*
X133709872Y-89742499D01*
X133769483Y-89736091D01*
X133904331Y-89685796D01*
X134019546Y-89599546D01*
X134105796Y-89484331D01*
X134121706Y-89441675D01*
X134121707Y-89441673D01*
X134156090Y-89349485D01*
X134156091Y-89349483D01*
X134162500Y-89289873D01*
X134162499Y-87670128D01*
X134156091Y-87610517D01*
X134126323Y-87530706D01*
X134105797Y-87475671D01*
X134105793Y-87475664D01*
X134019547Y-87360455D01*
X134019544Y-87360452D01*
X133904335Y-87274206D01*
X133904328Y-87274202D01*
X133769482Y-87223908D01*
X133769483Y-87223908D01*
X133709883Y-87217501D01*
X133709881Y-87217500D01*
X133709873Y-87217500D01*
X133709865Y-87217500D01*
X133671198Y-87217500D01*
X133604159Y-87197815D01*
X133558404Y-87145011D01*
X133548460Y-87075853D01*
X133577485Y-87012297D01*
X133598313Y-86993182D01*
X133621277Y-86976497D01*
X133722464Y-86902981D01*
X133862981Y-86762464D01*
X133979787Y-86601694D01*
X134070005Y-86424632D01*
X134131413Y-86235636D01*
X134162500Y-86039361D01*
X134162500Y-85840639D01*
X134131413Y-85644364D01*
X134070005Y-85455368D01*
X134070005Y-85455367D01*
X134024035Y-85365149D01*
X133979787Y-85278306D01*
X133862981Y-85117536D01*
X133722464Y-84977019D01*
X133561694Y-84860213D01*
X133405218Y-84780484D01*
X133354423Y-84732510D01*
X133337628Y-84664689D01*
X133360165Y-84598554D01*
X133405218Y-84559515D01*
X133561694Y-84479787D01*
X133722464Y-84362981D01*
X133862981Y-84222464D01*
X133979787Y-84061694D01*
X134070005Y-83884632D01*
X134131413Y-83695636D01*
X134162500Y-83499361D01*
X134162500Y-83300639D01*
X134131413Y-83104364D01*
X134089397Y-82975051D01*
X134070006Y-82915370D01*
X134070005Y-82915367D01*
X134000391Y-82778743D01*
X133979787Y-82738306D01*
X133862981Y-82577536D01*
X133722464Y-82437019D01*
X133561694Y-82320213D01*
X133405218Y-82240484D01*
X133354423Y-82192510D01*
X133337628Y-82124689D01*
X133360165Y-82058554D01*
X133405218Y-82019515D01*
X133561694Y-81939787D01*
X133722464Y-81822981D01*
X133862981Y-81682464D01*
X133979787Y-81521694D01*
X134070005Y-81344632D01*
X134131413Y-81155636D01*
X134162500Y-80959361D01*
X134162500Y-80760639D01*
X134131413Y-80564364D01*
X134089397Y-80435050D01*
X134070006Y-80375370D01*
X134070005Y-80375367D01*
X134024035Y-80285149D01*
X133979787Y-80198306D01*
X133862981Y-80037536D01*
X133722464Y-79897019D01*
X133561694Y-79780213D01*
X133405218Y-79700484D01*
X133354423Y-79652510D01*
X133337628Y-79584689D01*
X133360165Y-79518554D01*
X133405218Y-79479515D01*
X133561694Y-79399787D01*
X133722464Y-79282981D01*
X133862981Y-79142464D01*
X133979787Y-78981694D01*
X134070005Y-78804632D01*
X134131413Y-78615636D01*
X134162500Y-78419361D01*
X134162500Y-78220639D01*
X134131413Y-78024364D01*
X134089397Y-77895050D01*
X134070006Y-77835370D01*
X134070005Y-77835367D01*
X134002642Y-77703161D01*
X133979787Y-77658306D01*
X133862981Y-77497536D01*
X133722464Y-77357019D01*
X133561694Y-77240213D01*
X133405218Y-77160484D01*
X133354423Y-77112510D01*
X133337628Y-77044689D01*
X133360165Y-76978554D01*
X133405218Y-76939515D01*
X133561694Y-76859787D01*
X133722464Y-76742981D01*
X133862981Y-76602464D01*
X133979787Y-76441694D01*
X134070005Y-76264632D01*
X134131413Y-76075636D01*
X134162500Y-75879361D01*
X134162500Y-75680639D01*
X134131413Y-75484364D01*
X134089396Y-75355048D01*
X134070006Y-75295370D01*
X134070005Y-75295367D01*
X134024035Y-75205149D01*
X133979787Y-75118306D01*
X133862981Y-74957536D01*
X133722464Y-74817019D01*
X133561694Y-74700213D01*
X133561695Y-74700213D01*
X133561693Y-74700212D01*
X133561694Y-74700212D01*
X133552389Y-74695470D01*
X133549227Y-74693800D01*
X133407206Y-74616177D01*
X133357820Y-74566752D01*
X133342995Y-74498474D01*
X133367439Y-74433019D01*
X133410380Y-74396885D01*
X133561694Y-74319787D01*
X133722464Y-74202981D01*
X133862981Y-74062464D01*
X133979787Y-73901694D01*
X134070005Y-73724632D01*
X134131413Y-73535636D01*
X134162500Y-73339361D01*
X134162500Y-73140639D01*
X134131413Y-72944364D01*
X134096637Y-72837334D01*
X134070006Y-72755370D01*
X134070005Y-72755367D01*
X134019268Y-72655792D01*
X133979787Y-72578306D01*
X133862981Y-72417536D01*
X133722464Y-72277019D01*
X133641454Y-72218161D01*
X133638112Y-72215734D01*
X133637611Y-72215260D01*
X133636502Y-72214564D01*
X133633102Y-72212094D01*
X133633099Y-72212092D01*
X133586745Y-72178414D01*
X133561694Y-72160213D01*
X133404667Y-72080203D01*
X133353872Y-72032229D01*
X133337077Y-71964408D01*
X133359614Y-71898273D01*
X133404669Y-71859234D01*
X133561422Y-71779364D01*
X133598715Y-71752268D01*
X133035941Y-71189495D01*
X133096081Y-71173381D01*
X133211920Y-71106502D01*
X133306502Y-71011920D01*
X133373381Y-70896081D01*
X133389495Y-70835942D01*
X133952268Y-71398715D01*
X133979364Y-71361422D01*
X134059234Y-71204669D01*
X134107208Y-71153872D01*
X134175029Y-71137077D01*
X134241164Y-71159614D01*
X134280203Y-71204667D01*
X134360213Y-71361694D01*
X134477019Y-71522464D01*
X134617536Y-71662981D01*
X134778306Y-71779787D01*
X134807763Y-71794796D01*
X134955367Y-71870005D01*
X134955370Y-71870006D01*
X135042369Y-71898273D01*
X135144364Y-71931413D01*
X135340639Y-71962500D01*
X135348110Y-71962500D01*
X135415149Y-71982185D01*
X135460904Y-72034989D01*
X135470848Y-72104147D01*
X135470583Y-72105898D01*
X135461568Y-72162819D01*
X135447500Y-72251639D01*
X135447500Y-72450361D01*
X135452936Y-72484680D01*
X135478587Y-72646637D01*
X135539993Y-72835629D01*
X135539994Y-72835632D01*
X135611627Y-72976218D01*
X135630213Y-73012694D01*
X135747019Y-73173464D01*
X135887536Y-73313981D01*
X136048306Y-73430787D01*
X136135149Y-73475035D01*
X136225367Y-73521005D01*
X136225370Y-73521006D01*
X136319866Y-73551709D01*
X136414364Y-73582413D01*
X136610639Y-73613500D01*
X136610640Y-73613500D01*
X136809360Y-73613500D01*
X136809361Y-73613500D01*
X137005636Y-73582413D01*
X137194632Y-73521005D01*
X137371694Y-73430787D01*
X137532464Y-73313981D01*
X137672981Y-73173464D01*
X137789787Y-73012694D01*
X137880005Y-72835632D01*
X137941413Y-72646636D01*
X137972500Y-72450361D01*
X137972500Y-72251639D01*
X137958432Y-72162819D01*
X137949417Y-72105898D01*
X137958372Y-72036604D01*
X138003368Y-71983152D01*
X138070120Y-71962513D01*
X138071890Y-71962500D01*
X138079360Y-71962500D01*
X138079361Y-71962500D01*
X138275636Y-71931413D01*
X138464632Y-71870005D01*
X138641694Y-71779787D01*
X138802464Y-71662981D01*
X138942981Y-71522464D01*
X139059787Y-71361694D01*
X139150005Y-71184632D01*
X139211413Y-70995636D01*
X139242500Y-70799361D01*
X139242500Y-70600639D01*
X139211413Y-70404364D01*
X139169396Y-70275048D01*
X139150006Y-70215370D01*
X139150005Y-70215367D01*
X139089329Y-70096285D01*
X139059787Y-70038306D01*
X138942981Y-69877536D01*
X138802464Y-69737019D01*
X138641694Y-69620213D01*
X138618771Y-69608533D01*
X138464632Y-69529994D01*
X138464629Y-69529993D01*
X138275637Y-69468587D01*
X138177498Y-69453043D01*
X138079361Y-69437500D01*
X137880639Y-69437500D01*
X137815214Y-69447862D01*
X137684362Y-69468587D01*
X137495370Y-69529993D01*
X137495367Y-69529994D01*
X137318305Y-69620213D01*
X137157533Y-69737021D01*
X137017021Y-69877533D01*
X136900213Y-70038305D01*
X136820485Y-70194780D01*
X136772510Y-70245576D01*
X136704689Y-70262371D01*
X136638554Y-70239833D01*
X136599515Y-70194780D01*
X136549329Y-70096285D01*
X136519787Y-70038306D01*
X136402981Y-69877536D01*
X136262464Y-69737019D01*
X136101694Y-69620213D01*
X136078771Y-69608533D01*
X135924632Y-69529994D01*
X135924629Y-69529993D01*
X135735637Y-69468587D01*
X135637498Y-69453043D01*
X135539361Y-69437500D01*
X135340639Y-69437500D01*
X135275214Y-69447862D01*
X135144362Y-69468587D01*
X134955370Y-69529993D01*
X134955367Y-69529994D01*
X134778305Y-69620213D01*
X134617533Y-69737021D01*
X134477021Y-69877533D01*
X134360213Y-70038305D01*
X134280204Y-70195331D01*
X134232229Y-70246127D01*
X134164408Y-70262922D01*
X134098273Y-70240384D01*
X134059234Y-70195331D01*
X133979358Y-70038567D01*
X133952268Y-70001283D01*
X133389494Y-70564057D01*
X133373381Y-70503919D01*
X133306502Y-70388080D01*
X133211920Y-70293498D01*
X133096081Y-70226619D01*
X133035942Y-70210504D01*
X133598716Y-69647731D01*
X133598715Y-69647730D01*
X133561432Y-69620641D01*
X133384437Y-69530457D01*
X133195522Y-69469075D01*
X132999321Y-69438000D01*
X132800679Y-69438000D01*
X132604479Y-69469075D01*
X132604476Y-69469075D01*
X132415562Y-69530457D01*
X132238564Y-69620643D01*
X132201283Y-69647729D01*
X132201282Y-69647730D01*
X132764058Y-70210504D01*
X132703919Y-70226619D01*
X132588080Y-70293498D01*
X132493498Y-70388080D01*
X132426619Y-70503919D01*
X132410504Y-70564058D01*
X131847730Y-70001282D01*
X131847729Y-70001283D01*
X131820643Y-70038564D01*
X131730457Y-70215562D01*
X131669075Y-70404476D01*
X131669075Y-70404479D01*
X131638000Y-70600678D01*
X131638000Y-70799321D01*
X131669075Y-70995520D01*
X131676060Y-71017019D01*
X131678054Y-71086860D01*
X131641972Y-71146692D01*
X131579271Y-71177519D01*
X131533937Y-71176952D01*
X131521611Y-71174500D01*
X131521607Y-71174500D01*
X131521606Y-71174500D01*
X120861606Y-71174500D01*
X120800402Y-71174500D01*
X120733363Y-71154815D01*
X120687608Y-71102011D01*
X120677664Y-71032853D01*
X120697300Y-70981609D01*
X120741592Y-70915321D01*
X120754311Y-70896286D01*
X120801463Y-70782452D01*
X120810639Y-70736319D01*
X120815217Y-70713305D01*
X120815217Y-70713302D01*
X120825500Y-70661607D01*
X120825500Y-70538393D01*
X120825500Y-58510452D01*
X120845185Y-58443413D01*
X120861819Y-58422771D01*
X126302771Y-52981819D01*
X126364094Y-52948334D01*
X126390452Y-52945500D01*
X130521208Y-52945500D01*
X130556095Y-52950509D01*
X131512797Y-53231006D01*
X132128561Y-53411543D01*
X132358036Y-53478823D01*
X132416829Y-53516574D01*
X132445880Y-53580118D01*
X132435964Y-53649280D01*
X132390230Y-53702103D01*
X132379444Y-53708299D01*
X132238305Y-53780213D01*
X132077533Y-53897021D01*
X131937021Y-54037533D01*
X131820213Y-54198305D01*
X131729994Y-54375367D01*
X131729993Y-54375370D01*
X131668587Y-54564362D01*
X131637500Y-54760639D01*
X131637500Y-54959360D01*
X131668587Y-55155637D01*
X131729993Y-55344629D01*
X131729994Y-55344632D01*
X131753058Y-55389896D01*
X131820213Y-55521694D01*
X131937019Y-55682464D01*
X132077536Y-55822981D01*
X132238306Y-55939787D01*
X132351823Y-55997627D01*
X132394780Y-56019515D01*
X132445576Y-56067490D01*
X132462371Y-56135311D01*
X132439833Y-56201446D01*
X132394780Y-56240485D01*
X132238305Y-56320213D01*
X132077533Y-56437021D01*
X131937021Y-56577533D01*
X131820213Y-56738305D01*
X131729994Y-56915367D01*
X131729993Y-56915370D01*
X131668587Y-57104362D01*
X131637500Y-57300639D01*
X131637500Y-57499360D01*
X131668587Y-57695637D01*
X131729993Y-57884629D01*
X131729994Y-57884632D01*
X131767125Y-57957504D01*
X131820213Y-58061694D01*
X131937019Y-58222464D01*
X132077536Y-58362981D01*
X132238306Y-58479787D01*
X132324313Y-58523610D01*
X132394780Y-58559515D01*
X132445576Y-58607490D01*
X132462371Y-58675311D01*
X132439833Y-58741446D01*
X132394780Y-58780485D01*
X132238305Y-58860213D01*
X132077533Y-58977021D01*
X131937021Y-59117533D01*
X131820213Y-59278305D01*
X131729994Y-59455367D01*
X131729993Y-59455370D01*
X131668587Y-59644362D01*
X131652267Y-59747403D01*
X131637500Y-59840639D01*
X131637500Y-60039361D01*
X131648879Y-60111205D01*
X131668587Y-60235637D01*
X131729993Y-60424629D01*
X131729994Y-60424632D01*
X131753058Y-60469896D01*
X131820213Y-60601694D01*
X131937019Y-60762464D01*
X132077536Y-60902981D01*
X132238306Y-61019787D01*
X132306434Y-61054500D01*
X132394780Y-61099515D01*
X132445576Y-61147490D01*
X132462371Y-61215311D01*
X132439833Y-61281446D01*
X132394780Y-61320485D01*
X132238305Y-61400213D01*
X132077533Y-61517021D01*
X131937021Y-61657533D01*
X131820213Y-61818305D01*
X131729994Y-61995367D01*
X131729993Y-61995370D01*
X131668587Y-62184362D01*
X131637500Y-62380639D01*
X131637500Y-62579360D01*
X131668587Y-62775637D01*
X131729993Y-62964629D01*
X131729994Y-62964632D01*
X131753058Y-63009896D01*
X131820213Y-63141694D01*
X131937019Y-63302464D01*
X132077536Y-63442981D01*
X132077539Y-63442983D01*
X132201687Y-63533182D01*
X132244353Y-63588512D01*
X132250332Y-63658125D01*
X132217726Y-63719920D01*
X132156888Y-63754277D01*
X132128805Y-63757500D01*
X132090131Y-63757500D01*
X132090123Y-63757501D01*
X132030516Y-63763908D01*
X131895671Y-63814202D01*
X131895664Y-63814206D01*
X131780455Y-63900452D01*
X131780452Y-63900455D01*
X131694206Y-64015664D01*
X131694202Y-64015671D01*
X131643908Y-64150517D01*
X131641298Y-64174800D01*
X131637501Y-64210123D01*
X131637500Y-64210135D01*
X131637500Y-65829870D01*
X131637501Y-65829876D01*
X131643908Y-65889483D01*
X131694202Y-66024328D01*
X131694206Y-66024335D01*
X131780452Y-66139544D01*
X131780455Y-66139547D01*
X131895664Y-66225793D01*
X131895671Y-66225797D01*
X132030517Y-66276091D01*
X132030516Y-66276091D01*
X132037444Y-66276835D01*
X132090127Y-66282500D01*
X133709872Y-66282499D01*
X133769483Y-66276091D01*
X133904331Y-66225796D01*
X134019546Y-66139546D01*
X134105796Y-66024331D01*
X134156091Y-65889483D01*
X134162500Y-65829873D01*
X134162499Y-64210128D01*
X134156091Y-64150517D01*
X134154513Y-64146287D01*
X134105797Y-64015671D01*
X134105793Y-64015664D01*
X134019547Y-63900455D01*
X134019544Y-63900452D01*
X133904335Y-63814206D01*
X133904328Y-63814202D01*
X133769482Y-63763908D01*
X133769483Y-63763908D01*
X133709883Y-63757501D01*
X133709881Y-63757500D01*
X133709873Y-63757500D01*
X133709865Y-63757500D01*
X133671198Y-63757500D01*
X133604159Y-63737815D01*
X133558404Y-63685011D01*
X133548460Y-63615853D01*
X133577485Y-63552297D01*
X133598313Y-63533182D01*
X133621277Y-63516497D01*
X133722464Y-63442981D01*
X133862981Y-63302464D01*
X133979787Y-63141694D01*
X134070005Y-62964632D01*
X134131413Y-62775636D01*
X134162500Y-62579361D01*
X134162500Y-62380639D01*
X134131413Y-62184364D01*
X134077493Y-62018414D01*
X134070006Y-61995370D01*
X134070005Y-61995367D01*
X133981697Y-61822055D01*
X133979787Y-61818306D01*
X133862981Y-61657536D01*
X133722464Y-61517019D01*
X133561694Y-61400213D01*
X133405218Y-61320484D01*
X133354423Y-61272510D01*
X133337628Y-61204689D01*
X133360165Y-61138554D01*
X133405218Y-61099515D01*
X133561694Y-61019787D01*
X133722464Y-60902981D01*
X133862981Y-60762464D01*
X133979787Y-60601694D01*
X134070005Y-60424632D01*
X134131413Y-60235636D01*
X134162500Y-60039361D01*
X134162500Y-59840639D01*
X134131413Y-59644364D01*
X134077493Y-59478414D01*
X134070006Y-59455370D01*
X134070005Y-59455367D01*
X133981697Y-59282055D01*
X133979787Y-59278306D01*
X133862981Y-59117536D01*
X133722464Y-58977019D01*
X133561694Y-58860213D01*
X133405218Y-58780484D01*
X133354423Y-58732510D01*
X133337628Y-58664689D01*
X133360165Y-58598554D01*
X133405218Y-58559515D01*
X133561694Y-58479787D01*
X133722464Y-58362981D01*
X133862981Y-58222464D01*
X133979787Y-58061694D01*
X134070005Y-57884632D01*
X134131413Y-57695636D01*
X134162500Y-57499361D01*
X134162500Y-57300639D01*
X134131413Y-57104364D01*
X134077493Y-56938414D01*
X134070006Y-56915370D01*
X134070005Y-56915367D01*
X134020617Y-56818439D01*
X133979787Y-56738306D01*
X133862981Y-56577536D01*
X133722464Y-56437019D01*
X133561694Y-56320213D01*
X133405218Y-56240484D01*
X133354423Y-56192510D01*
X133337628Y-56124689D01*
X133360165Y-56058554D01*
X133405218Y-56019515D01*
X133561694Y-55939787D01*
X133722464Y-55822981D01*
X133862981Y-55682464D01*
X133979787Y-55521694D01*
X134070005Y-55344632D01*
X134131413Y-55155636D01*
X134162500Y-54959361D01*
X134162500Y-54760639D01*
X134131413Y-54564364D01*
X134077493Y-54398414D01*
X134070006Y-54375370D01*
X134070005Y-54375367D01*
X133981697Y-54202055D01*
X133979787Y-54198306D01*
X133862981Y-54037536D01*
X133722464Y-53897019D01*
X133561694Y-53780213D01*
X133405218Y-53700484D01*
X133354423Y-53652510D01*
X133337628Y-53584689D01*
X133360165Y-53518554D01*
X133405218Y-53479515D01*
X133561694Y-53399787D01*
X133722464Y-53282981D01*
X133862981Y-53142464D01*
X133979787Y-52981694D01*
X134070005Y-52804632D01*
X134131413Y-52615636D01*
X134162500Y-52419361D01*
X134162500Y-52220639D01*
X134131413Y-52024364D01*
X134072281Y-51842372D01*
X134070006Y-51835370D01*
X134070005Y-51835367D01*
X133996635Y-51691372D01*
X133979787Y-51658306D01*
X133862981Y-51497536D01*
X133722464Y-51357019D01*
X133561694Y-51240213D01*
X133405218Y-51160484D01*
X133354423Y-51112510D01*
X133337628Y-51044689D01*
X133360165Y-50978554D01*
X133405218Y-50939515D01*
X133561694Y-50859787D01*
X133722464Y-50742981D01*
X133862981Y-50602464D01*
X133979787Y-50441694D01*
X134070005Y-50264632D01*
X134131413Y-50075636D01*
X134162500Y-49879361D01*
X134162500Y-49680639D01*
X134131413Y-49484364D01*
X134070005Y-49295368D01*
X134070005Y-49295367D01*
X134024035Y-49205149D01*
X133979787Y-49118306D01*
X133862981Y-48957536D01*
X133722464Y-48817019D01*
X133561694Y-48700213D01*
X133404667Y-48620203D01*
X133353872Y-48572229D01*
X133337077Y-48504408D01*
X133359614Y-48438273D01*
X133404669Y-48399234D01*
X133561422Y-48319364D01*
X133598716Y-48292268D01*
X133035942Y-47729494D01*
X133096081Y-47713381D01*
X133211920Y-47646502D01*
X133306502Y-47551920D01*
X133373381Y-47436081D01*
X133389495Y-47375942D01*
X133952268Y-47938715D01*
X133979364Y-47901422D01*
X134059234Y-47744669D01*
X134107208Y-47693872D01*
X134175029Y-47677077D01*
X134241164Y-47699614D01*
X134280203Y-47744667D01*
X134360213Y-47901694D01*
X134477019Y-48062464D01*
X134617536Y-48202981D01*
X134778306Y-48319787D01*
X134856333Y-48359544D01*
X134955367Y-48410005D01*
X134955370Y-48410006D01*
X135042369Y-48438273D01*
X135144364Y-48471413D01*
X135340639Y-48502500D01*
X135348110Y-48502500D01*
X135415149Y-48522185D01*
X135460904Y-48574989D01*
X135470848Y-48644147D01*
X135470583Y-48645898D01*
X135447500Y-48791639D01*
X135447500Y-48990360D01*
X135478587Y-49186637D01*
X135539993Y-49375629D01*
X135539994Y-49375632D01*
X135611283Y-49515542D01*
X135630213Y-49552694D01*
X135747019Y-49713464D01*
X135887536Y-49853981D01*
X136048306Y-49970787D01*
X136135149Y-50015035D01*
X136225367Y-50061005D01*
X136225370Y-50061006D01*
X136319866Y-50091709D01*
X136414364Y-50122413D01*
X136610639Y-50153500D01*
X136610640Y-50153500D01*
X136809360Y-50153500D01*
X136809361Y-50153500D01*
X137005636Y-50122413D01*
X137194632Y-50061005D01*
X137371694Y-49970787D01*
X137532464Y-49853981D01*
X137672981Y-49713464D01*
X137789787Y-49552694D01*
X137880005Y-49375632D01*
X137941413Y-49186636D01*
X137972500Y-48990361D01*
X137972500Y-48791639D01*
X137962378Y-48727730D01*
X137949417Y-48645898D01*
X137958372Y-48576604D01*
X138003368Y-48523152D01*
X138070120Y-48502513D01*
X138071890Y-48502500D01*
X138079360Y-48502500D01*
X138079361Y-48502500D01*
X138275636Y-48471413D01*
X138464632Y-48410005D01*
X138641694Y-48319787D01*
X138802464Y-48202981D01*
X138942981Y-48062464D01*
X139059787Y-47901694D01*
X139150005Y-47724632D01*
X139211413Y-47535636D01*
X139242500Y-47339361D01*
X139242500Y-47140639D01*
X139211413Y-46944364D01*
X139150005Y-46755368D01*
X139150005Y-46755367D01*
X139103452Y-46664003D01*
X139059787Y-46578306D01*
X138942981Y-46417536D01*
X138802464Y-46277019D01*
X138641694Y-46160213D01*
X138622629Y-46150499D01*
X138464632Y-46069994D01*
X138464629Y-46069993D01*
X138275637Y-46008587D01*
X138177498Y-45993043D01*
X138079361Y-45977500D01*
X137880639Y-45977500D01*
X137815214Y-45987862D01*
X137684362Y-46008587D01*
X137495370Y-46069993D01*
X137495367Y-46069994D01*
X137318305Y-46160213D01*
X137157533Y-46277021D01*
X137017021Y-46417533D01*
X136900213Y-46578305D01*
X136820485Y-46734780D01*
X136772510Y-46785576D01*
X136704689Y-46802371D01*
X136638554Y-46779833D01*
X136599515Y-46734780D01*
X136580179Y-46696832D01*
X136519787Y-46578306D01*
X136402981Y-46417536D01*
X136262464Y-46277019D01*
X136101694Y-46160213D01*
X136082629Y-46150499D01*
X135924632Y-46069994D01*
X135924629Y-46069993D01*
X135735637Y-46008587D01*
X135637498Y-45993043D01*
X135539361Y-45977500D01*
X135340639Y-45977500D01*
X135275214Y-45987862D01*
X135144362Y-46008587D01*
X134955370Y-46069993D01*
X134955367Y-46069994D01*
X134778305Y-46160213D01*
X134617533Y-46277021D01*
X134477021Y-46417533D01*
X134360213Y-46578305D01*
X134280204Y-46735331D01*
X134232229Y-46786127D01*
X134164408Y-46802922D01*
X134098273Y-46780384D01*
X134059234Y-46735331D01*
X133979358Y-46578567D01*
X133952268Y-46541283D01*
X133389494Y-47104057D01*
X133373381Y-47043919D01*
X133306502Y-46928080D01*
X133211920Y-46833498D01*
X133096081Y-46766619D01*
X133035942Y-46750504D01*
X133598716Y-46187731D01*
X133598715Y-46187730D01*
X133561432Y-46160641D01*
X133384437Y-46070457D01*
X133195522Y-46009075D01*
X132999321Y-45978000D01*
X132800679Y-45978000D01*
X132604479Y-46009075D01*
X132604476Y-46009075D01*
X132415562Y-46070457D01*
X132238564Y-46160643D01*
X132201283Y-46187729D01*
X132201282Y-46187730D01*
X132764058Y-46750504D01*
X132703919Y-46766619D01*
X132588080Y-46833498D01*
X132493498Y-46928080D01*
X132426619Y-47043919D01*
X132410504Y-47104057D01*
X131847730Y-46541282D01*
X131847729Y-46541283D01*
X131820643Y-46578564D01*
X131730457Y-46755562D01*
X131669075Y-46944476D01*
X131669075Y-46944479D01*
X131638000Y-47140678D01*
X131638000Y-47339321D01*
X131669075Y-47535520D01*
X131669075Y-47535523D01*
X131730457Y-47724437D01*
X131820641Y-47901432D01*
X131847730Y-47938715D01*
X131847731Y-47938716D01*
X132410504Y-47375942D01*
X132426619Y-47436081D01*
X132493498Y-47551920D01*
X132588080Y-47646502D01*
X132703919Y-47713381D01*
X132764057Y-47729494D01*
X132201283Y-48292268D01*
X132201283Y-48292269D01*
X132238567Y-48319358D01*
X132380142Y-48391494D01*
X132430938Y-48439468D01*
X132447733Y-48507289D01*
X132425196Y-48573424D01*
X132370481Y-48616876D01*
X132358734Y-48620970D01*
X130556092Y-49149491D01*
X130521205Y-49154500D01*
X125958389Y-49154500D01*
X125897971Y-49166518D01*
X125854743Y-49175116D01*
X125837546Y-49178537D01*
X125723716Y-49225687D01*
X125723707Y-49225692D01*
X125621268Y-49294140D01*
X125577705Y-49337703D01*
X125534142Y-49381267D01*
X118604081Y-56311327D01*
X118604073Y-56311335D01*
X118601270Y-56314139D01*
X118601267Y-56314142D01*
X118514142Y-56401267D01*
X118484460Y-56445689D01*
X118445688Y-56503714D01*
X118424530Y-56554796D01*
X118398538Y-56617545D01*
X118398537Y-56617549D01*
X118390499Y-56657953D01*
X118390500Y-56657954D01*
X118374580Y-56737992D01*
X118374500Y-56738382D01*
X118374500Y-69489547D01*
X118354815Y-69556586D01*
X118338181Y-69577228D01*
X109297229Y-78618181D01*
X109235906Y-78651666D01*
X109209548Y-78654500D01*
X81442557Y-78654500D01*
X81407003Y-78649294D01*
X81303046Y-78618181D01*
X80371952Y-78339515D01*
X79566692Y-78098510D01*
X79508112Y-78060430D01*
X79479418Y-77996724D01*
X79489721Y-77927618D01*
X79529359Y-77879398D01*
X79679792Y-77770104D01*
X79830104Y-77619792D01*
X79830106Y-77619788D01*
X79830109Y-77619786D01*
X79955048Y-77447820D01*
X79955047Y-77447820D01*
X79955051Y-77447816D01*
X80051557Y-77258412D01*
X80117246Y-77056243D01*
X80150500Y-76846287D01*
X80150500Y-76633713D01*
X80117246Y-76423757D01*
X80051557Y-76221588D01*
X79955051Y-76032184D01*
X79955049Y-76032181D01*
X79955048Y-76032179D01*
X79830109Y-75860213D01*
X79679786Y-75709890D01*
X79507820Y-75584951D01*
X79507115Y-75584591D01*
X79499054Y-75580485D01*
X79448259Y-75532512D01*
X79431463Y-75464692D01*
X79453999Y-75398556D01*
X79499054Y-75359515D01*
X79507816Y-75355051D01*
X79581179Y-75301750D01*
X79679786Y-75230109D01*
X79679788Y-75230106D01*
X79679792Y-75230104D01*
X79830104Y-75079792D01*
X79830106Y-75079788D01*
X79830109Y-75079786D01*
X79920351Y-74955577D01*
X84209000Y-74955577D01*
X84209000Y-75152422D01*
X84239790Y-75346826D01*
X84300617Y-75534029D01*
X84389843Y-75709143D01*
X84389976Y-75709405D01*
X84505672Y-75868646D01*
X84644854Y-76007828D01*
X84804095Y-76123524D01*
X84845862Y-76144805D01*
X84979470Y-76212882D01*
X84979472Y-76212882D01*
X84979475Y-76212884D01*
X85072516Y-76243115D01*
X85166673Y-76273709D01*
X85361078Y-76304500D01*
X85361083Y-76304500D01*
X85557922Y-76304500D01*
X85752326Y-76273709D01*
X85780271Y-76264629D01*
X85939525Y-76212884D01*
X86114905Y-76123524D01*
X86274146Y-76007828D01*
X86413328Y-75868646D01*
X86529024Y-75709405D01*
X86618384Y-75534025D01*
X86679209Y-75346826D01*
X86687359Y-75295367D01*
X86710000Y-75152422D01*
X86710000Y-74955577D01*
X86679209Y-74761173D01*
X86631353Y-74613890D01*
X86618384Y-74573975D01*
X86618382Y-74573972D01*
X86618382Y-74573970D01*
X86546564Y-74433019D01*
X86529024Y-74398595D01*
X86413328Y-74239354D01*
X86274146Y-74100172D01*
X86114905Y-73984476D01*
X86111635Y-73982810D01*
X85939529Y-73895117D01*
X85752326Y-73834290D01*
X85557922Y-73803500D01*
X85557917Y-73803500D01*
X85361083Y-73803500D01*
X85361078Y-73803500D01*
X85166673Y-73834290D01*
X84979470Y-73895117D01*
X84804094Y-73984476D01*
X84761814Y-74015195D01*
X84644854Y-74100172D01*
X84644852Y-74100174D01*
X84644851Y-74100174D01*
X84505674Y-74239351D01*
X84505674Y-74239352D01*
X84505672Y-74239354D01*
X84471885Y-74285858D01*
X84389976Y-74398594D01*
X84300617Y-74573970D01*
X84239790Y-74761173D01*
X84209000Y-74955577D01*
X79920351Y-74955577D01*
X79955049Y-74907819D01*
X79961880Y-74894414D01*
X79961880Y-74894413D01*
X79973659Y-74871296D01*
X80051557Y-74718412D01*
X80117246Y-74516243D01*
X80150500Y-74306287D01*
X80150500Y-74093713D01*
X80117246Y-73883757D01*
X80051557Y-73681588D01*
X79955051Y-73492184D01*
X79955049Y-73492181D01*
X79955048Y-73492179D01*
X79830109Y-73320213D01*
X79679786Y-73169890D01*
X79507820Y-73044951D01*
X79507115Y-73044591D01*
X79499054Y-73040485D01*
X79448259Y-72992512D01*
X79431463Y-72924692D01*
X79453999Y-72858556D01*
X79499054Y-72819515D01*
X79507816Y-72815051D01*
X79529789Y-72799086D01*
X79679786Y-72690109D01*
X79679788Y-72690106D01*
X79679792Y-72690104D01*
X79830104Y-72539792D01*
X79830106Y-72539788D01*
X79830109Y-72539786D01*
X79955048Y-72367820D01*
X79955047Y-72367820D01*
X79955051Y-72367816D01*
X80051557Y-72178412D01*
X80117246Y-71976243D01*
X80150500Y-71766287D01*
X80150500Y-71553713D01*
X80117246Y-71343757D01*
X80051557Y-71141588D01*
X79955051Y-70952184D01*
X79955049Y-70952181D01*
X79955048Y-70952179D01*
X79830109Y-70780213D01*
X79679786Y-70629890D01*
X79507820Y-70504951D01*
X79507115Y-70504591D01*
X79499054Y-70500485D01*
X79448259Y-70452512D01*
X79431463Y-70384692D01*
X79453999Y-70318556D01*
X79499054Y-70279515D01*
X79507816Y-70275051D01*
X79548385Y-70245576D01*
X79679786Y-70150109D01*
X79679788Y-70150106D01*
X79679792Y-70150104D01*
X79830104Y-69999792D01*
X79830106Y-69999788D01*
X79830109Y-69999786D01*
X79955048Y-69827820D01*
X79955047Y-69827820D01*
X79955051Y-69827816D01*
X80051557Y-69638412D01*
X80117246Y-69436243D01*
X80150500Y-69226287D01*
X80150500Y-69013713D01*
X80117246Y-68803757D01*
X80051557Y-68601588D01*
X79955051Y-68412184D01*
X79955049Y-68412181D01*
X79955048Y-68412179D01*
X79830109Y-68240213D01*
X79679786Y-68089890D01*
X79507820Y-67964951D01*
X79507115Y-67964591D01*
X79499054Y-67960485D01*
X79448259Y-67912512D01*
X79431463Y-67844692D01*
X79453999Y-67778556D01*
X79499054Y-67739515D01*
X79507816Y-67735051D01*
X79623264Y-67651174D01*
X79679786Y-67610109D01*
X79679788Y-67610106D01*
X79679792Y-67610104D01*
X79830104Y-67459792D01*
X79830106Y-67459788D01*
X79830109Y-67459786D01*
X79955048Y-67287820D01*
X79955047Y-67287820D01*
X79955051Y-67287816D01*
X80051557Y-67098412D01*
X80077869Y-67017430D01*
X80117305Y-66959758D01*
X80181664Y-66932559D01*
X80250510Y-66944473D01*
X80283480Y-66968070D01*
X87514139Y-74198729D01*
X87514142Y-74198733D01*
X87601267Y-74285858D01*
X87658554Y-74324136D01*
X87664969Y-74328422D01*
X87664971Y-74328424D01*
X87681223Y-74339283D01*
X87703715Y-74354312D01*
X87703717Y-74354313D01*
X87703716Y-74354313D01*
X87719655Y-74360914D01*
X87760008Y-74377629D01*
X87817548Y-74401463D01*
X87860493Y-74410005D01*
X87938391Y-74425499D01*
X87938392Y-74425500D01*
X87938393Y-74425500D01*
X97066608Y-74425500D01*
X97066608Y-74425499D01*
X97144507Y-74410005D01*
X97187452Y-74401463D01*
X97228778Y-74384345D01*
X97301286Y-74354312D01*
X97359766Y-74315236D01*
X97403733Y-74285858D01*
X97490858Y-74198733D01*
X97490858Y-74198731D01*
X97501066Y-74188524D01*
X97501067Y-74188521D01*
X100985689Y-70703900D01*
X101013798Y-70682829D01*
X102846995Y-69678808D01*
X102855405Y-69674524D01*
X102858888Y-69671993D01*
X102867321Y-69667134D01*
X102868188Y-69666609D01*
X102929993Y-69622519D01*
X102930000Y-69622511D01*
X102935034Y-69618019D01*
X102935330Y-69618351D01*
X102946218Y-69608543D01*
X103014646Y-69558828D01*
X103153828Y-69419646D01*
X103269524Y-69260405D01*
X103286908Y-69226286D01*
X103359515Y-69083787D01*
X103407489Y-69032990D01*
X103475310Y-69016195D01*
X103541445Y-69038732D01*
X103580485Y-69083787D01*
X103670474Y-69260403D01*
X103705234Y-69308246D01*
X103786172Y-69419646D01*
X103925354Y-69558828D01*
X104084595Y-69674524D01*
X104167455Y-69716743D01*
X104259970Y-69763882D01*
X104259972Y-69763882D01*
X104259975Y-69763884D01*
X104344340Y-69791296D01*
X104447173Y-69824709D01*
X104641578Y-69855500D01*
X104641583Y-69855500D01*
X104838422Y-69855500D01*
X105032826Y-69824709D01*
X105220025Y-69763884D01*
X105395405Y-69674524D01*
X105554646Y-69558828D01*
X105693828Y-69419646D01*
X105809524Y-69260405D01*
X105894515Y-69093600D01*
X105942489Y-69042803D01*
X106010310Y-69026008D01*
X106076445Y-69048545D01*
X106115485Y-69093600D01*
X106200474Y-69260403D01*
X106235234Y-69308246D01*
X106316172Y-69419646D01*
X106455354Y-69558828D01*
X106614595Y-69674524D01*
X106697455Y-69716743D01*
X106789970Y-69763882D01*
X106789972Y-69763882D01*
X106789975Y-69763884D01*
X106874340Y-69791296D01*
X106977173Y-69824709D01*
X107171578Y-69855500D01*
X107171583Y-69855500D01*
X107368422Y-69855500D01*
X107562826Y-69824709D01*
X107750025Y-69763884D01*
X107925405Y-69674524D01*
X108084646Y-69558828D01*
X108223828Y-69419646D01*
X108339524Y-69260405D01*
X108356908Y-69226286D01*
X108429515Y-69083787D01*
X108477489Y-69032990D01*
X108545310Y-69016195D01*
X108611445Y-69038732D01*
X108650485Y-69083787D01*
X108740474Y-69260403D01*
X108775234Y-69308246D01*
X108856172Y-69419646D01*
X108995354Y-69558828D01*
X109154595Y-69674524D01*
X109237455Y-69716743D01*
X109329970Y-69763882D01*
X109329972Y-69763882D01*
X109329975Y-69763884D01*
X109414340Y-69791296D01*
X109517173Y-69824709D01*
X109711578Y-69855500D01*
X109711583Y-69855500D01*
X109908422Y-69855500D01*
X110102826Y-69824709D01*
X110290025Y-69763884D01*
X110465405Y-69674524D01*
X110624646Y-69558828D01*
X110763828Y-69419646D01*
X110879524Y-69260405D01*
X110896908Y-69226286D01*
X110969515Y-69083787D01*
X111017489Y-69032990D01*
X111085310Y-69016195D01*
X111151445Y-69038732D01*
X111190485Y-69083787D01*
X111280474Y-69260403D01*
X111315234Y-69308246D01*
X111396172Y-69419646D01*
X111535354Y-69558828D01*
X111694595Y-69674524D01*
X111777455Y-69716743D01*
X111869970Y-69763882D01*
X111869972Y-69763882D01*
X111869975Y-69763884D01*
X111954340Y-69791296D01*
X112057173Y-69824709D01*
X112251578Y-69855500D01*
X112251583Y-69855500D01*
X112448422Y-69855500D01*
X112642826Y-69824709D01*
X112830025Y-69763884D01*
X113005405Y-69674524D01*
X113164646Y-69558828D01*
X113303828Y-69419646D01*
X113419524Y-69260405D01*
X113508884Y-69085025D01*
X113569709Y-68897826D01*
X113577226Y-68850368D01*
X113600500Y-68703422D01*
X113600500Y-68506577D01*
X113569709Y-68312173D01*
X113529185Y-68187456D01*
X113508884Y-68124975D01*
X113508882Y-68124972D01*
X113508882Y-68124970D01*
X113437644Y-67985158D01*
X113419524Y-67949595D01*
X113303828Y-67790354D01*
X113164646Y-67651172D01*
X113005405Y-67535476D01*
X112979885Y-67522473D01*
X112830029Y-67446117D01*
X112642826Y-67385290D01*
X112448422Y-67354500D01*
X112448417Y-67354500D01*
X112251583Y-67354500D01*
X112251578Y-67354500D01*
X112057173Y-67385290D01*
X111869970Y-67446117D01*
X111694594Y-67535476D01*
X111603741Y-67601485D01*
X111535354Y-67651172D01*
X111535352Y-67651174D01*
X111535351Y-67651174D01*
X111396174Y-67790351D01*
X111396174Y-67790352D01*
X111396172Y-67790354D01*
X111360801Y-67839038D01*
X111280476Y-67949594D01*
X111190485Y-68126213D01*
X111142511Y-68177009D01*
X111074690Y-68193804D01*
X111008555Y-68171267D01*
X110969515Y-68126213D01*
X110937966Y-68064295D01*
X110879524Y-67949595D01*
X110763828Y-67790354D01*
X110624646Y-67651172D01*
X110465405Y-67535476D01*
X110439885Y-67522473D01*
X110290029Y-67446117D01*
X110102826Y-67385290D01*
X109908422Y-67354500D01*
X109908417Y-67354500D01*
X109711583Y-67354500D01*
X109711578Y-67354500D01*
X109517173Y-67385290D01*
X109329970Y-67446117D01*
X109154594Y-67535476D01*
X109063741Y-67601485D01*
X108995354Y-67651172D01*
X108995352Y-67651174D01*
X108995351Y-67651174D01*
X108856174Y-67790351D01*
X108856174Y-67790352D01*
X108856172Y-67790354D01*
X108820801Y-67839038D01*
X108740476Y-67949594D01*
X108650485Y-68126213D01*
X108602511Y-68177009D01*
X108534690Y-68193804D01*
X108468555Y-68171267D01*
X108429515Y-68126213D01*
X108397966Y-68064295D01*
X108339524Y-67949595D01*
X108223828Y-67790354D01*
X108084646Y-67651172D01*
X107925405Y-67535476D01*
X107899885Y-67522473D01*
X107750029Y-67446117D01*
X107562826Y-67385290D01*
X107368422Y-67354500D01*
X107368417Y-67354500D01*
X107171583Y-67354500D01*
X107171578Y-67354500D01*
X106977173Y-67385290D01*
X106789970Y-67446117D01*
X106614594Y-67535476D01*
X106523741Y-67601485D01*
X106455354Y-67651172D01*
X106455352Y-67651174D01*
X106455351Y-67651174D01*
X106316174Y-67790351D01*
X106316174Y-67790352D01*
X106316172Y-67790354D01*
X106280801Y-67839038D01*
X106200476Y-67949594D01*
X106115485Y-68116400D01*
X106067511Y-68167196D01*
X105999690Y-68183991D01*
X105933555Y-68161454D01*
X105894515Y-68116400D01*
X105867966Y-68064295D01*
X105809524Y-67949595D01*
X105693828Y-67790354D01*
X105554646Y-67651172D01*
X105395405Y-67535476D01*
X105369885Y-67522473D01*
X105220029Y-67446117D01*
X105032826Y-67385290D01*
X104838422Y-67354500D01*
X104838417Y-67354500D01*
X104641583Y-67354500D01*
X104641578Y-67354500D01*
X104447173Y-67385290D01*
X104259970Y-67446117D01*
X104084594Y-67535476D01*
X103993741Y-67601485D01*
X103925354Y-67651172D01*
X103925352Y-67651174D01*
X103925351Y-67651174D01*
X103786174Y-67790351D01*
X103786174Y-67790352D01*
X103786172Y-67790354D01*
X103750801Y-67839038D01*
X103670476Y-67949594D01*
X103580485Y-68126213D01*
X103532511Y-68177009D01*
X103464690Y-68193804D01*
X103398555Y-68171267D01*
X103359515Y-68126213D01*
X103327966Y-68064295D01*
X103269524Y-67949595D01*
X103153828Y-67790354D01*
X103014646Y-67651172D01*
X102855405Y-67535476D01*
X102829885Y-67522473D01*
X102680029Y-67446117D01*
X102492826Y-67385290D01*
X102298422Y-67354500D01*
X102298417Y-67354500D01*
X102101583Y-67354500D01*
X102101578Y-67354500D01*
X101907173Y-67385290D01*
X101719970Y-67446117D01*
X101544594Y-67535476D01*
X101453741Y-67601485D01*
X101385354Y-67651172D01*
X101385352Y-67651174D01*
X101385351Y-67651174D01*
X101246174Y-67790351D01*
X101246174Y-67790352D01*
X101246172Y-67790354D01*
X101210801Y-67839038D01*
X101130476Y-67949594D01*
X101130473Y-67949599D01*
X101127051Y-67956314D01*
X101125332Y-67959566D01*
X101035631Y-68123348D01*
X100986163Y-68172690D01*
X100917871Y-68187456D01*
X100852438Y-68162956D01*
X100816389Y-68120078D01*
X100787966Y-68064295D01*
X100729524Y-67949595D01*
X100613828Y-67790354D01*
X100474646Y-67651172D01*
X100315405Y-67535476D01*
X100289885Y-67522473D01*
X100140029Y-67446117D01*
X99952826Y-67385290D01*
X99758422Y-67354500D01*
X99758417Y-67354500D01*
X99561583Y-67354500D01*
X99561578Y-67354500D01*
X99367173Y-67385290D01*
X99179970Y-67446117D01*
X99004594Y-67535476D01*
X98913741Y-67601485D01*
X98845354Y-67651172D01*
X98845352Y-67651174D01*
X98845351Y-67651174D01*
X98706171Y-67790354D01*
X98644538Y-67875184D01*
X98589208Y-67917849D01*
X98519594Y-67923827D01*
X98457800Y-67891220D01*
X98433736Y-67858591D01*
X98432065Y-67855312D01*
X98424516Y-67840496D01*
X98413344Y-67818568D01*
X98379560Y-67772069D01*
X98274517Y-67627490D01*
X98107510Y-67460483D01*
X97916433Y-67321657D01*
X97913228Y-67320024D01*
X97705996Y-67214433D01*
X97481368Y-67141446D01*
X97248097Y-67104500D01*
X97248092Y-67104500D01*
X97011908Y-67104500D01*
X97011903Y-67104500D01*
X96778631Y-67141446D01*
X96554003Y-67214433D01*
X96343563Y-67321659D01*
X96287385Y-67362475D01*
X96221579Y-67385955D01*
X96153525Y-67370130D01*
X96104830Y-67320024D01*
X96090500Y-67262157D01*
X96090500Y-59071902D01*
X96064096Y-58905199D01*
X96053553Y-58838632D01*
X96053552Y-58838628D01*
X96053552Y-58838627D01*
X95980569Y-58614011D01*
X95980569Y-58614010D01*
X95947837Y-58549768D01*
X95947837Y-58549769D01*
X95873343Y-58403566D01*
X95734517Y-58212490D01*
X83377510Y-45855483D01*
X83186434Y-45716657D01*
X82975996Y-45609433D01*
X82751368Y-45536446D01*
X82518097Y-45499500D01*
X82518092Y-45499500D01*
X50858092Y-45499500D01*
X50621908Y-45499500D01*
X50621903Y-45499500D01*
X50388631Y-45536446D01*
X50164003Y-45609433D01*
X49953566Y-45716657D01*
X49922126Y-45739500D01*
X49762490Y-45855483D01*
X49762488Y-45855485D01*
X49762487Y-45855485D01*
X45664790Y-49953181D01*
X45603467Y-49986666D01*
X45577111Y-49989500D01*
X45502130Y-49989500D01*
X45502123Y-49989501D01*
X45442516Y-49995908D01*
X45307671Y-50046202D01*
X45307664Y-50046206D01*
X45192455Y-50132452D01*
X45192452Y-50132455D01*
X45106206Y-50247664D01*
X45106202Y-50247671D01*
X45055908Y-50382517D01*
X45049501Y-50442116D01*
X45049500Y-50442135D01*
X45049500Y-50655599D01*
X45035985Y-50711893D01*
X45009430Y-50764009D01*
X45009430Y-50764011D01*
X44936447Y-50988627D01*
X44936447Y-50988630D01*
X44899500Y-51221902D01*
X42400500Y-51221902D01*
X42400500Y-44285258D01*
X100449500Y-44285258D01*
X100449500Y-44514741D01*
X100474446Y-44704215D01*
X100479452Y-44742238D01*
X100479453Y-44742240D01*
X100538842Y-44963887D01*
X100626650Y-45175876D01*
X100626657Y-45175890D01*
X100741392Y-45374617D01*
X100881081Y-45556661D01*
X100881089Y-45556670D01*
X101043330Y-45718911D01*
X101043338Y-45718918D01*
X101225382Y-45858607D01*
X101225385Y-45858608D01*
X101225388Y-45858611D01*
X101424112Y-45973344D01*
X101424117Y-45973346D01*
X101424123Y-45973349D01*
X101509196Y-46008587D01*
X101636113Y-46061158D01*
X101857762Y-46120548D01*
X102085266Y-46150500D01*
X102085273Y-46150500D01*
X102314727Y-46150500D01*
X102314734Y-46150500D01*
X102542238Y-46120548D01*
X102763887Y-46061158D01*
X102975888Y-45973344D01*
X103174612Y-45858611D01*
X103356661Y-45718919D01*
X103356665Y-45718914D01*
X103356670Y-45718911D01*
X103518911Y-45556670D01*
X103518914Y-45556665D01*
X103518919Y-45556661D01*
X103658611Y-45374612D01*
X103773344Y-45175888D01*
X103861158Y-44963887D01*
X103920548Y-44742238D01*
X103950500Y-44514734D01*
X103950500Y-44285266D01*
X103920548Y-44057762D01*
X103861158Y-43836113D01*
X103773344Y-43624112D01*
X103658611Y-43425388D01*
X103658608Y-43425385D01*
X103658607Y-43425382D01*
X103518918Y-43243338D01*
X103518911Y-43243330D01*
X103356670Y-43081089D01*
X103356661Y-43081081D01*
X103174617Y-42941392D01*
X102975890Y-42826657D01*
X102975876Y-42826650D01*
X102763887Y-42738842D01*
X102542238Y-42679452D01*
X102504215Y-42674446D01*
X102314741Y-42649500D01*
X102314734Y-42649500D01*
X102085266Y-42649500D01*
X102085258Y-42649500D01*
X101868715Y-42678009D01*
X101857762Y-42679452D01*
X101764076Y-42704554D01*
X101636112Y-42738842D01*
X101424123Y-42826650D01*
X101424109Y-42826657D01*
X101225382Y-42941392D01*
X101043338Y-43081081D01*
X100881081Y-43243338D01*
X100741392Y-43425382D01*
X100626657Y-43624109D01*
X100626650Y-43624123D01*
X100538842Y-43836112D01*
X100479453Y-44057759D01*
X100479451Y-44057770D01*
X100449500Y-44285258D01*
X42400500Y-44285258D01*
X42400500Y-38624500D01*
X42420185Y-38557461D01*
X42472989Y-38511706D01*
X42524500Y-38500500D01*
X161075500Y-38500500D01*
X161142539Y-38520185D01*
G37*
G04 #@! TD.AperFunction*
G04 #@! TA.AperFunction,Conductor*
G36*
X154393677Y-72220185D02*
G01*
X154439432Y-72272989D01*
X154449376Y-72342147D01*
X154420351Y-72405703D01*
X154414319Y-72412181D01*
X154300538Y-72525961D01*
X154300535Y-72525965D01*
X154201990Y-72673446D01*
X154201983Y-72673459D01*
X154134106Y-72837332D01*
X154134103Y-72837341D01*
X154099500Y-73011304D01*
X154099500Y-73188695D01*
X154134103Y-73362658D01*
X154134106Y-73362667D01*
X154201983Y-73526540D01*
X154201990Y-73526553D01*
X154300535Y-73674034D01*
X154300538Y-73674038D01*
X154425961Y-73799461D01*
X154425965Y-73799464D01*
X154573446Y-73898009D01*
X154573459Y-73898016D01*
X154671717Y-73938715D01*
X154737334Y-73965894D01*
X154737336Y-73965894D01*
X154737341Y-73965896D01*
X154822374Y-73982810D01*
X154884285Y-74015195D01*
X154918859Y-74075910D01*
X154915120Y-74145680D01*
X154885864Y-74192108D01*
X152294792Y-76783181D01*
X152233469Y-76816666D01*
X152207111Y-76819500D01*
X146645307Y-76819500D01*
X146578268Y-76799815D01*
X146532513Y-76747011D01*
X146522569Y-76677853D01*
X146551594Y-76614297D01*
X146557626Y-76607819D01*
X146562981Y-76602464D01*
X146679787Y-76441694D01*
X146770005Y-76264632D01*
X146831413Y-76075636D01*
X146862500Y-75879361D01*
X146862500Y-75680639D01*
X146831413Y-75484364D01*
X146789396Y-75355048D01*
X146770006Y-75295370D01*
X146770005Y-75295367D01*
X146724035Y-75205149D01*
X146679787Y-75118306D01*
X146562981Y-74957536D01*
X146422464Y-74817019D01*
X146261694Y-74700213D01*
X146104667Y-74620203D01*
X146053872Y-74572229D01*
X146037077Y-74504408D01*
X146059614Y-74438273D01*
X146104669Y-74399234D01*
X146261422Y-74319364D01*
X146298716Y-74292268D01*
X145735942Y-73729494D01*
X145796081Y-73713381D01*
X145911920Y-73646502D01*
X146006502Y-73551920D01*
X146073381Y-73436081D01*
X146089495Y-73375942D01*
X146652268Y-73938715D01*
X146679362Y-73901425D01*
X146769542Y-73724437D01*
X146830924Y-73535523D01*
X146830924Y-73535520D01*
X146862000Y-73339321D01*
X146862000Y-73140678D01*
X146830924Y-72944479D01*
X146830924Y-72944476D01*
X146769542Y-72755562D01*
X146679358Y-72578567D01*
X146652268Y-72541283D01*
X146089494Y-73104057D01*
X146073381Y-73043919D01*
X146006502Y-72928080D01*
X145911920Y-72833498D01*
X145796081Y-72766619D01*
X145735940Y-72750504D01*
X146249628Y-72236819D01*
X146310951Y-72203334D01*
X146337309Y-72200500D01*
X154326638Y-72200500D01*
X154393677Y-72220185D01*
G37*
G04 #@! TD.AperFunction*
G04 #@! TA.AperFunction,Conductor*
G36*
X49659484Y-93873924D02*
G01*
X49664935Y-93881028D01*
X49665106Y-93881757D01*
X49800539Y-94557701D01*
X49800539Y-94562299D01*
X49665200Y-95237771D01*
X49660215Y-95245209D01*
X49651429Y-95246944D01*
X49650277Y-95246651D01*
X47709776Y-94647546D01*
X47702881Y-94641831D01*
X47701527Y-94636367D01*
X47701527Y-94403977D01*
X47704954Y-94395704D01*
X47710197Y-94392676D01*
X49650607Y-93872755D01*
X49659484Y-93873924D01*
G37*
G04 #@! TD.AperFunction*
G04 #@! TA.AperFunction,Conductor*
G36*
X46578127Y-93690014D02*
G01*
X48925322Y-94392502D01*
X48932265Y-94398157D01*
X48933667Y-94403711D01*
X48933667Y-94636288D01*
X48930240Y-94644561D01*
X48925322Y-94647497D01*
X46578134Y-95349983D01*
X46569225Y-95349072D01*
X46563570Y-95342129D01*
X46563306Y-95341070D01*
X46399459Y-94522293D01*
X46399459Y-94517704D01*
X46422271Y-94403711D01*
X46563306Y-93698928D01*
X46568290Y-93691489D01*
X46577075Y-93689752D01*
X46578127Y-93690014D01*
G37*
G04 #@! TD.AperFunction*
G04 #@! TA.AperFunction,Conductor*
G36*
X49659484Y-88793924D02*
G01*
X49664935Y-88801028D01*
X49665106Y-88801757D01*
X49800539Y-89477701D01*
X49800539Y-89482299D01*
X49665200Y-90157771D01*
X49660215Y-90165209D01*
X49651429Y-90166944D01*
X49650277Y-90166651D01*
X47709776Y-89567546D01*
X47702881Y-89561831D01*
X47701527Y-89556367D01*
X47701527Y-89323977D01*
X47704954Y-89315704D01*
X47710197Y-89312676D01*
X49650607Y-88792755D01*
X49659484Y-88793924D01*
G37*
G04 #@! TD.AperFunction*
G04 #@! TA.AperFunction,Conductor*
G36*
X46578127Y-88610014D02*
G01*
X48925322Y-89312502D01*
X48932265Y-89318157D01*
X48933667Y-89323711D01*
X48933667Y-89556288D01*
X48930240Y-89564561D01*
X48925322Y-89567497D01*
X46578134Y-90269983D01*
X46569225Y-90269072D01*
X46563570Y-90262129D01*
X46563306Y-90261070D01*
X46399459Y-89442293D01*
X46399459Y-89437704D01*
X46422271Y-89323711D01*
X46563306Y-88618928D01*
X46568290Y-88611489D01*
X46577075Y-88609752D01*
X46578127Y-88610014D01*
G37*
G04 #@! TD.AperFunction*
G04 #@! TA.AperFunction,Conductor*
G36*
X49659484Y-71013924D02*
G01*
X49664935Y-71021028D01*
X49665106Y-71021757D01*
X49800539Y-71697701D01*
X49800539Y-71702299D01*
X49665200Y-72377771D01*
X49660215Y-72385209D01*
X49651429Y-72386944D01*
X49650277Y-72386651D01*
X47709776Y-71787546D01*
X47702881Y-71781831D01*
X47701527Y-71776367D01*
X47701527Y-71543977D01*
X47704954Y-71535704D01*
X47710197Y-71532676D01*
X49650607Y-71012755D01*
X49659484Y-71013924D01*
G37*
G04 #@! TD.AperFunction*
G04 #@! TA.AperFunction,Conductor*
G36*
X46578127Y-70830014D02*
G01*
X48925322Y-71532502D01*
X48932265Y-71538157D01*
X48933667Y-71543711D01*
X48933667Y-71776288D01*
X48930240Y-71784561D01*
X48925322Y-71787497D01*
X46578134Y-72489983D01*
X46569225Y-72489072D01*
X46563570Y-72482129D01*
X46563306Y-72481070D01*
X46399459Y-71662293D01*
X46399459Y-71657704D01*
X46422271Y-71543711D01*
X46563306Y-70838928D01*
X46568290Y-70831489D01*
X46577075Y-70829752D01*
X46578127Y-70830014D01*
G37*
G04 #@! TD.AperFunction*
G04 #@! TA.AperFunction,Conductor*
G36*
X49659484Y-53233924D02*
G01*
X49664935Y-53241028D01*
X49665106Y-53241757D01*
X49800539Y-53917701D01*
X49800539Y-53922299D01*
X49665200Y-54597771D01*
X49660215Y-54605209D01*
X49651429Y-54606944D01*
X49650277Y-54606651D01*
X47709776Y-54007546D01*
X47702881Y-54001831D01*
X47701527Y-53996367D01*
X47701527Y-53763977D01*
X47704954Y-53755704D01*
X47710197Y-53752676D01*
X49650607Y-53232755D01*
X49659484Y-53233924D01*
G37*
G04 #@! TD.AperFunction*
G04 #@! TA.AperFunction,Conductor*
G36*
X46578127Y-53050014D02*
G01*
X48925322Y-53752502D01*
X48932265Y-53758157D01*
X48933667Y-53763711D01*
X48933667Y-53996288D01*
X48930240Y-54004561D01*
X48925322Y-54007497D01*
X46578134Y-54709983D01*
X46569225Y-54709072D01*
X46563570Y-54702129D01*
X46563306Y-54701070D01*
X46399459Y-53882293D01*
X46399459Y-53877704D01*
X46422271Y-53763711D01*
X46563306Y-53058928D01*
X46568290Y-53051489D01*
X46577075Y-53049752D01*
X46578127Y-53050014D01*
G37*
G04 #@! TD.AperFunction*
G04 #@! TA.AperFunction,Conductor*
G36*
X49659484Y-86253924D02*
G01*
X49664935Y-86261028D01*
X49665106Y-86261757D01*
X49800539Y-86937701D01*
X49800539Y-86942299D01*
X49665200Y-87617771D01*
X49660215Y-87625209D01*
X49651429Y-87626944D01*
X49650277Y-87626651D01*
X47709776Y-87027546D01*
X47702881Y-87021831D01*
X47701527Y-87016367D01*
X47701527Y-86783977D01*
X47704954Y-86775704D01*
X47710197Y-86772676D01*
X49650607Y-86252755D01*
X49659484Y-86253924D01*
G37*
G04 #@! TD.AperFunction*
G04 #@! TA.AperFunction,Conductor*
G36*
X46578127Y-86070014D02*
G01*
X48925322Y-86772502D01*
X48932265Y-86778157D01*
X48933667Y-86783711D01*
X48933667Y-87016288D01*
X48930240Y-87024561D01*
X48925322Y-87027497D01*
X46578134Y-87729983D01*
X46569225Y-87729072D01*
X46563570Y-87722129D01*
X46563306Y-87721070D01*
X46399459Y-86902293D01*
X46399459Y-86897704D01*
X46422271Y-86783711D01*
X46563306Y-86078928D01*
X46568290Y-86071489D01*
X46577075Y-86069752D01*
X46578127Y-86070014D01*
G37*
G04 #@! TD.AperFunction*
G04 #@! TA.AperFunction,Conductor*
G36*
X49659484Y-91333924D02*
G01*
X49664935Y-91341028D01*
X49665106Y-91341757D01*
X49800539Y-92017701D01*
X49800539Y-92022299D01*
X49665200Y-92697771D01*
X49660215Y-92705209D01*
X49651429Y-92706944D01*
X49650277Y-92706651D01*
X47709776Y-92107546D01*
X47702881Y-92101831D01*
X47701527Y-92096367D01*
X47701527Y-91863977D01*
X47704954Y-91855704D01*
X47710197Y-91852676D01*
X49650607Y-91332755D01*
X49659484Y-91333924D01*
G37*
G04 #@! TD.AperFunction*
G04 #@! TA.AperFunction,Conductor*
G36*
X46578127Y-91150014D02*
G01*
X48925322Y-91852502D01*
X48932265Y-91858157D01*
X48933667Y-91863711D01*
X48933667Y-92096288D01*
X48930240Y-92104561D01*
X48925322Y-92107497D01*
X46578134Y-92809983D01*
X46569225Y-92809072D01*
X46563570Y-92802129D01*
X46563306Y-92801070D01*
X46399459Y-91982293D01*
X46399459Y-91977704D01*
X46422271Y-91863711D01*
X46563306Y-91158928D01*
X46568290Y-91151489D01*
X46577075Y-91149752D01*
X46578127Y-91150014D01*
G37*
G04 #@! TD.AperFunction*
G04 #@! TA.AperFunction,Conductor*
G36*
X49659484Y-78633924D02*
G01*
X49664935Y-78641028D01*
X49665106Y-78641757D01*
X49800539Y-79317701D01*
X49800539Y-79322299D01*
X49665200Y-79997771D01*
X49660215Y-80005209D01*
X49651429Y-80006944D01*
X49650277Y-80006651D01*
X47709776Y-79407546D01*
X47702881Y-79401831D01*
X47701527Y-79396367D01*
X47701527Y-79163977D01*
X47704954Y-79155704D01*
X47710197Y-79152676D01*
X49650607Y-78632755D01*
X49659484Y-78633924D01*
G37*
G04 #@! TD.AperFunction*
G04 #@! TA.AperFunction,Conductor*
G36*
X46578127Y-78450014D02*
G01*
X48925322Y-79152502D01*
X48932265Y-79158157D01*
X48933667Y-79163711D01*
X48933667Y-79396288D01*
X48930240Y-79404561D01*
X48925322Y-79407497D01*
X46578134Y-80109983D01*
X46569225Y-80109072D01*
X46563570Y-80102129D01*
X46563306Y-80101070D01*
X46399459Y-79282293D01*
X46399459Y-79277704D01*
X46422271Y-79163711D01*
X46563306Y-78458928D01*
X46568290Y-78451489D01*
X46577075Y-78449752D01*
X46578127Y-78450014D01*
G37*
G04 #@! TD.AperFunction*
G04 #@! TA.AperFunction,Conductor*
G36*
X49659484Y-58313924D02*
G01*
X49664935Y-58321028D01*
X49665106Y-58321757D01*
X49800539Y-58997701D01*
X49800539Y-59002299D01*
X49665200Y-59677771D01*
X49660215Y-59685209D01*
X49651429Y-59686944D01*
X49650277Y-59686651D01*
X47709776Y-59087546D01*
X47702881Y-59081831D01*
X47701527Y-59076367D01*
X47701527Y-58843977D01*
X47704954Y-58835704D01*
X47710197Y-58832676D01*
X49650607Y-58312755D01*
X49659484Y-58313924D01*
G37*
G04 #@! TD.AperFunction*
G04 #@! TA.AperFunction,Conductor*
G36*
X46578127Y-58130014D02*
G01*
X48925322Y-58832502D01*
X48932265Y-58838157D01*
X48933667Y-58843711D01*
X48933667Y-59076288D01*
X48930240Y-59084561D01*
X48925322Y-59087497D01*
X46578134Y-59789983D01*
X46569225Y-59789072D01*
X46563570Y-59782129D01*
X46563306Y-59781070D01*
X46399459Y-58962293D01*
X46399459Y-58957704D01*
X46422271Y-58843711D01*
X46563306Y-58138928D01*
X46568290Y-58131489D01*
X46577075Y-58129752D01*
X46578127Y-58130014D01*
G37*
G04 #@! TD.AperFunction*
G04 #@! TA.AperFunction,Conductor*
G36*
X49659484Y-63393924D02*
G01*
X49664935Y-63401028D01*
X49665106Y-63401757D01*
X49800539Y-64077701D01*
X49800539Y-64082299D01*
X49665200Y-64757771D01*
X49660215Y-64765209D01*
X49651429Y-64766944D01*
X49650277Y-64766651D01*
X47709776Y-64167546D01*
X47702881Y-64161831D01*
X47701527Y-64156367D01*
X47701527Y-63923977D01*
X47704954Y-63915704D01*
X47710197Y-63912676D01*
X49650607Y-63392755D01*
X49659484Y-63393924D01*
G37*
G04 #@! TD.AperFunction*
G04 #@! TA.AperFunction,Conductor*
G36*
X46578127Y-63210014D02*
G01*
X48925322Y-63912502D01*
X48932265Y-63918157D01*
X48933667Y-63923711D01*
X48933667Y-64156288D01*
X48930240Y-64164561D01*
X48925322Y-64167497D01*
X46578134Y-64869983D01*
X46569225Y-64869072D01*
X46563570Y-64862129D01*
X46563306Y-64861070D01*
X46399459Y-64042293D01*
X46399459Y-64037704D01*
X46422271Y-63923711D01*
X46563306Y-63218928D01*
X46568290Y-63211489D01*
X46577075Y-63209752D01*
X46578127Y-63210014D01*
G37*
G04 #@! TD.AperFunction*
G04 #@! TA.AperFunction,Conductor*
G36*
X46578127Y-75910014D02*
G01*
X48925322Y-76612502D01*
X48932265Y-76618157D01*
X48933667Y-76623711D01*
X48933667Y-76856288D01*
X48930240Y-76864561D01*
X48925322Y-76867497D01*
X46578134Y-77569983D01*
X46569225Y-77569072D01*
X46563570Y-77562129D01*
X46563306Y-77561070D01*
X46399459Y-76742293D01*
X46399459Y-76737704D01*
X46422271Y-76623711D01*
X46563306Y-75918928D01*
X46568290Y-75911489D01*
X46577075Y-75909752D01*
X46578127Y-75910014D01*
G37*
G04 #@! TD.AperFunction*
G04 #@! TA.AperFunction,Conductor*
G36*
X49659484Y-76093924D02*
G01*
X49664935Y-76101028D01*
X49665106Y-76101757D01*
X49800539Y-76777701D01*
X49800539Y-76782299D01*
X49665200Y-77457771D01*
X49660215Y-77465209D01*
X49651429Y-77466944D01*
X49650277Y-77466651D01*
X47709776Y-76867546D01*
X47702881Y-76861831D01*
X47701527Y-76856367D01*
X47701527Y-76623977D01*
X47704954Y-76615704D01*
X47710197Y-76612676D01*
X49650607Y-76092755D01*
X49659484Y-76093924D01*
G37*
G04 #@! TD.AperFunction*
G04 #@! TA.AperFunction,Conductor*
G36*
X49659484Y-65933924D02*
G01*
X49664935Y-65941028D01*
X49665106Y-65941757D01*
X49800539Y-66617701D01*
X49800539Y-66622299D01*
X49665200Y-67297771D01*
X49660215Y-67305209D01*
X49651429Y-67306944D01*
X49650277Y-67306651D01*
X47709776Y-66707546D01*
X47702881Y-66701831D01*
X47701527Y-66696367D01*
X47701527Y-66463977D01*
X47704954Y-66455704D01*
X47710197Y-66452676D01*
X49650607Y-65932755D01*
X49659484Y-65933924D01*
G37*
G04 #@! TD.AperFunction*
G04 #@! TA.AperFunction,Conductor*
G36*
X46578127Y-65750014D02*
G01*
X48925322Y-66452502D01*
X48932265Y-66458157D01*
X48933667Y-66463711D01*
X48933667Y-66696288D01*
X48930240Y-66704561D01*
X48925322Y-66707497D01*
X46578134Y-67409983D01*
X46569225Y-67409072D01*
X46563570Y-67402129D01*
X46563306Y-67401070D01*
X46399459Y-66582293D01*
X46399459Y-66577704D01*
X46422271Y-66463711D01*
X46563306Y-65758928D01*
X46568290Y-65751489D01*
X46577075Y-65749752D01*
X46578127Y-65750014D01*
G37*
G04 #@! TD.AperFunction*
G04 #@! TA.AperFunction,Conductor*
G36*
X46578127Y-80990014D02*
G01*
X48925322Y-81692502D01*
X48932265Y-81698157D01*
X48933667Y-81703711D01*
X48933667Y-81936288D01*
X48930240Y-81944561D01*
X48925322Y-81947497D01*
X46578134Y-82649983D01*
X46569225Y-82649072D01*
X46563570Y-82642129D01*
X46563306Y-82641070D01*
X46399459Y-81822293D01*
X46399459Y-81817704D01*
X46422271Y-81703711D01*
X46563306Y-80998928D01*
X46568290Y-80991489D01*
X46577075Y-80989752D01*
X46578127Y-80990014D01*
G37*
G04 #@! TD.AperFunction*
G04 #@! TA.AperFunction,Conductor*
G36*
X49659484Y-81173924D02*
G01*
X49664935Y-81181028D01*
X49665106Y-81181757D01*
X49800539Y-81857701D01*
X49800539Y-81862299D01*
X49665200Y-82537771D01*
X49660215Y-82545209D01*
X49651429Y-82546944D01*
X49650277Y-82546651D01*
X47709776Y-81947546D01*
X47702881Y-81941831D01*
X47701527Y-81936367D01*
X47701527Y-81703977D01*
X47704954Y-81695704D01*
X47710197Y-81692676D01*
X49650607Y-81172755D01*
X49659484Y-81173924D01*
G37*
G04 #@! TD.AperFunction*
G04 #@! TA.AperFunction,Conductor*
G36*
X49659484Y-55773924D02*
G01*
X49664935Y-55781028D01*
X49665106Y-55781757D01*
X49800539Y-56457701D01*
X49800539Y-56462299D01*
X49665200Y-57137771D01*
X49660215Y-57145209D01*
X49651429Y-57146944D01*
X49650277Y-57146651D01*
X47709776Y-56547546D01*
X47702881Y-56541831D01*
X47701527Y-56536367D01*
X47701527Y-56303977D01*
X47704954Y-56295704D01*
X47710197Y-56292676D01*
X49650607Y-55772755D01*
X49659484Y-55773924D01*
G37*
G04 #@! TD.AperFunction*
G04 #@! TA.AperFunction,Conductor*
G36*
X46578127Y-55590014D02*
G01*
X48925322Y-56292502D01*
X48932265Y-56298157D01*
X48933667Y-56303711D01*
X48933667Y-56536288D01*
X48930240Y-56544561D01*
X48925322Y-56547497D01*
X46578134Y-57249983D01*
X46569225Y-57249072D01*
X46563570Y-57242129D01*
X46563306Y-57241070D01*
X46399459Y-56422293D01*
X46399459Y-56417704D01*
X46422271Y-56303711D01*
X46563306Y-55598928D01*
X46568290Y-55591489D01*
X46577075Y-55589752D01*
X46578127Y-55590014D01*
G37*
G04 #@! TD.AperFunction*
G04 #@! TA.AperFunction,Conductor*
G36*
X49659484Y-68473924D02*
G01*
X49664935Y-68481028D01*
X49665106Y-68481757D01*
X49800539Y-69157701D01*
X49800539Y-69162299D01*
X49665200Y-69837771D01*
X49660215Y-69845209D01*
X49651429Y-69846944D01*
X49650277Y-69846651D01*
X47709776Y-69247546D01*
X47702881Y-69241831D01*
X47701527Y-69236367D01*
X47701527Y-69003977D01*
X47704954Y-68995704D01*
X47710197Y-68992676D01*
X49650607Y-68472755D01*
X49659484Y-68473924D01*
G37*
G04 #@! TD.AperFunction*
G04 #@! TA.AperFunction,Conductor*
G36*
X46578127Y-68290014D02*
G01*
X48925322Y-68992502D01*
X48932265Y-68998157D01*
X48933667Y-69003711D01*
X48933667Y-69236288D01*
X48930240Y-69244561D01*
X48925322Y-69247497D01*
X46578134Y-69949983D01*
X46569225Y-69949072D01*
X46563570Y-69942129D01*
X46563306Y-69941070D01*
X46399459Y-69122293D01*
X46399459Y-69117704D01*
X46422271Y-69003711D01*
X46563306Y-68298928D01*
X46568290Y-68291489D01*
X46577075Y-68289752D01*
X46578127Y-68290014D01*
G37*
G04 #@! TD.AperFunction*
G04 #@! TA.AperFunction,Conductor*
G36*
X49659484Y-73553924D02*
G01*
X49664935Y-73561028D01*
X49665106Y-73561757D01*
X49800539Y-74237701D01*
X49800539Y-74242299D01*
X49665200Y-74917771D01*
X49660215Y-74925209D01*
X49651429Y-74926944D01*
X49650277Y-74926651D01*
X47709776Y-74327546D01*
X47702881Y-74321831D01*
X47701527Y-74316367D01*
X47701527Y-74083977D01*
X47704954Y-74075704D01*
X47710197Y-74072676D01*
X49650607Y-73552755D01*
X49659484Y-73553924D01*
G37*
G04 #@! TD.AperFunction*
G04 #@! TA.AperFunction,Conductor*
G36*
X46578127Y-73370014D02*
G01*
X48925322Y-74072502D01*
X48932265Y-74078157D01*
X48933667Y-74083711D01*
X48933667Y-74316288D01*
X48930240Y-74324561D01*
X48925322Y-74327497D01*
X46578134Y-75029983D01*
X46569225Y-75029072D01*
X46563570Y-75022129D01*
X46563306Y-75021070D01*
X46399459Y-74202293D01*
X46399459Y-74197704D01*
X46422271Y-74083711D01*
X46563306Y-73378928D01*
X46568290Y-73371489D01*
X46577075Y-73369752D01*
X46578127Y-73370014D01*
G37*
G04 #@! TD.AperFunction*
G04 #@! TA.AperFunction,Conductor*
G36*
X49659484Y-60853924D02*
G01*
X49664935Y-60861028D01*
X49665106Y-60861757D01*
X49800539Y-61537701D01*
X49800539Y-61542299D01*
X49665200Y-62217771D01*
X49660215Y-62225209D01*
X49651429Y-62226944D01*
X49650277Y-62226651D01*
X47709776Y-61627546D01*
X47702881Y-61621831D01*
X47701527Y-61616367D01*
X47701527Y-61383977D01*
X47704954Y-61375704D01*
X47710197Y-61372676D01*
X49650607Y-60852755D01*
X49659484Y-60853924D01*
G37*
G04 #@! TD.AperFunction*
G04 #@! TA.AperFunction,Conductor*
G36*
X46578127Y-60670014D02*
G01*
X48925322Y-61372502D01*
X48932265Y-61378157D01*
X48933667Y-61383711D01*
X48933667Y-61616288D01*
X48930240Y-61624561D01*
X48925322Y-61627497D01*
X46578134Y-62329983D01*
X46569225Y-62329072D01*
X46563570Y-62322129D01*
X46563306Y-62321070D01*
X46399459Y-61502293D01*
X46399459Y-61497704D01*
X46422271Y-61383711D01*
X46563306Y-60678928D01*
X46568290Y-60671489D01*
X46577075Y-60669752D01*
X46578127Y-60670014D01*
G37*
G04 #@! TD.AperFunction*
G04 #@! TA.AperFunction,Conductor*
G36*
X75349551Y-91333046D02*
G01*
X77290015Y-91892561D01*
X77297014Y-91898146D01*
X77298473Y-91903803D01*
X77298473Y-92136196D01*
X77295046Y-92144469D01*
X77290015Y-92147438D01*
X75349560Y-92706950D01*
X75340661Y-92705949D01*
X75335076Y-92698950D01*
X75334846Y-92698007D01*
X75199460Y-92022295D01*
X75199460Y-92017704D01*
X75334846Y-91341990D01*
X75339831Y-91334554D01*
X75348617Y-91332819D01*
X75349551Y-91333046D01*
G37*
G04 #@! TD.AperFunction*
G04 #@! TA.AperFunction,Conductor*
G36*
X78630654Y-91151040D02*
G01*
X78636416Y-91157895D01*
X78636733Y-91159126D01*
X78800540Y-91977704D01*
X78800540Y-91982296D01*
X78636654Y-92801265D01*
X78631670Y-92808705D01*
X78622885Y-92810442D01*
X78622001Y-92810229D01*
X76274853Y-92147406D01*
X76267823Y-92141859D01*
X76266333Y-92136146D01*
X76266333Y-91903571D01*
X76269760Y-91895298D01*
X76274503Y-91892416D01*
X78621733Y-91150266D01*
X78630654Y-91151040D01*
G37*
G04 #@! TD.AperFunction*
G04 #@! TA.AperFunction,Conductor*
G36*
X75349551Y-73553046D02*
G01*
X77290015Y-74112561D01*
X77297014Y-74118146D01*
X77298473Y-74123803D01*
X77298473Y-74356196D01*
X77295046Y-74364469D01*
X77290015Y-74367438D01*
X75349560Y-74926950D01*
X75340661Y-74925949D01*
X75335076Y-74918950D01*
X75334846Y-74918007D01*
X75199460Y-74242295D01*
X75199460Y-74237704D01*
X75334846Y-73561990D01*
X75339831Y-73554554D01*
X75348617Y-73552819D01*
X75349551Y-73553046D01*
G37*
G04 #@! TD.AperFunction*
G04 #@! TA.AperFunction,Conductor*
G36*
X78630654Y-73371040D02*
G01*
X78636416Y-73377895D01*
X78636733Y-73379126D01*
X78800540Y-74197704D01*
X78800540Y-74202296D01*
X78636654Y-75021265D01*
X78631670Y-75028705D01*
X78622885Y-75030442D01*
X78622001Y-75030229D01*
X76274853Y-74367406D01*
X76267823Y-74361859D01*
X76266333Y-74356146D01*
X76266333Y-74123571D01*
X76269760Y-74115298D01*
X76274503Y-74112416D01*
X78621733Y-73370266D01*
X78630654Y-73371040D01*
G37*
G04 #@! TD.AperFunction*
G04 #@! TA.AperFunction,Conductor*
G36*
X75349551Y-58313046D02*
G01*
X77290015Y-58872561D01*
X77297014Y-58878146D01*
X77298473Y-58883803D01*
X77298473Y-59116196D01*
X77295046Y-59124469D01*
X77290015Y-59127438D01*
X75349560Y-59686950D01*
X75340661Y-59685949D01*
X75335076Y-59678950D01*
X75334846Y-59678007D01*
X75199460Y-59002295D01*
X75199460Y-58997704D01*
X75334846Y-58321990D01*
X75339831Y-58314554D01*
X75348617Y-58312819D01*
X75349551Y-58313046D01*
G37*
G04 #@! TD.AperFunction*
G04 #@! TA.AperFunction,Conductor*
G36*
X78630654Y-58131040D02*
G01*
X78636416Y-58137895D01*
X78636733Y-58139126D01*
X78800540Y-58957704D01*
X78800540Y-58962296D01*
X78636654Y-59781265D01*
X78631670Y-59788705D01*
X78622885Y-59790442D01*
X78622001Y-59790229D01*
X76274853Y-59127406D01*
X76267823Y-59121859D01*
X76266333Y-59116146D01*
X76266333Y-58883571D01*
X76269760Y-58875298D01*
X76274503Y-58872416D01*
X78621733Y-58130266D01*
X78630654Y-58131040D01*
G37*
G04 #@! TD.AperFunction*
G04 #@! TA.AperFunction,Conductor*
G36*
X75349551Y-71013046D02*
G01*
X77290015Y-71572561D01*
X77297014Y-71578146D01*
X77298473Y-71583803D01*
X77298473Y-71816196D01*
X77295046Y-71824469D01*
X77290015Y-71827438D01*
X75349560Y-72386950D01*
X75340661Y-72385949D01*
X75335076Y-72378950D01*
X75334846Y-72378007D01*
X75199460Y-71702295D01*
X75199460Y-71697704D01*
X75334846Y-71021990D01*
X75339831Y-71014554D01*
X75348617Y-71012819D01*
X75349551Y-71013046D01*
G37*
G04 #@! TD.AperFunction*
G04 #@! TA.AperFunction,Conductor*
G36*
X78630654Y-70831040D02*
G01*
X78636416Y-70837895D01*
X78636733Y-70839126D01*
X78800540Y-71657704D01*
X78800540Y-71662296D01*
X78636654Y-72481265D01*
X78631670Y-72488705D01*
X78622885Y-72490442D01*
X78622001Y-72490229D01*
X76274853Y-71827406D01*
X76267823Y-71821859D01*
X76266333Y-71816146D01*
X76266333Y-71583571D01*
X76269760Y-71575298D01*
X76274503Y-71572416D01*
X78621733Y-70830266D01*
X78630654Y-70831040D01*
G37*
G04 #@! TD.AperFunction*
G04 #@! TA.AperFunction,Conductor*
G36*
X75349551Y-88793046D02*
G01*
X77290015Y-89352561D01*
X77297014Y-89358146D01*
X77298473Y-89363803D01*
X77298473Y-89596196D01*
X77295046Y-89604469D01*
X77290015Y-89607438D01*
X75349560Y-90166950D01*
X75340661Y-90165949D01*
X75335076Y-90158950D01*
X75334846Y-90158007D01*
X75199460Y-89482295D01*
X75199460Y-89477704D01*
X75334846Y-88801990D01*
X75339831Y-88794554D01*
X75348617Y-88792819D01*
X75349551Y-88793046D01*
G37*
G04 #@! TD.AperFunction*
G04 #@! TA.AperFunction,Conductor*
G36*
X78630654Y-88611040D02*
G01*
X78636416Y-88617895D01*
X78636733Y-88619126D01*
X78800540Y-89437704D01*
X78800540Y-89442296D01*
X78636654Y-90261265D01*
X78631670Y-90268705D01*
X78622885Y-90270442D01*
X78622001Y-90270229D01*
X76274853Y-89607406D01*
X76267823Y-89601859D01*
X76266333Y-89596146D01*
X76266333Y-89363571D01*
X76269760Y-89355298D01*
X76274503Y-89352416D01*
X78621733Y-88610266D01*
X78630654Y-88611040D01*
G37*
G04 #@! TD.AperFunction*
G04 #@! TA.AperFunction,Conductor*
G36*
X78978127Y-86070014D02*
G01*
X81325322Y-86772502D01*
X81332265Y-86778157D01*
X81333667Y-86783711D01*
X81333667Y-87016288D01*
X81330240Y-87024561D01*
X81325322Y-87027497D01*
X78978134Y-87729983D01*
X78969225Y-87729072D01*
X78963570Y-87722129D01*
X78963306Y-87721070D01*
X78799459Y-86902293D01*
X78799459Y-86897704D01*
X78822271Y-86783711D01*
X78963306Y-86078928D01*
X78968290Y-86071489D01*
X78977075Y-86069752D01*
X78978127Y-86070014D01*
G37*
G04 #@! TD.AperFunction*
G04 #@! TA.AperFunction,Conductor*
G36*
X131389979Y-74089718D02*
G01*
X133312136Y-75140294D01*
X133317752Y-75147268D01*
X133316792Y-75156171D01*
X133316262Y-75157048D01*
X132902006Y-75778757D01*
X132898757Y-75782006D01*
X132277048Y-76196262D01*
X132268263Y-76197997D01*
X132260823Y-76193013D01*
X132260299Y-76192146D01*
X131209718Y-74269980D01*
X131208759Y-74261080D01*
X131211711Y-74256101D01*
X131376100Y-74091712D01*
X131384372Y-74088286D01*
X131389979Y-74089718D01*
G37*
G04 #@! TD.AperFunction*
G04 #@! TA.AperFunction,Conductor*
G36*
X75349551Y-86253046D02*
G01*
X77290015Y-86812561D01*
X77297014Y-86818146D01*
X77298473Y-86823803D01*
X77298473Y-87056196D01*
X77295046Y-87064469D01*
X77290015Y-87067438D01*
X75349560Y-87626950D01*
X75340661Y-87625949D01*
X75335076Y-87618950D01*
X75334846Y-87618007D01*
X75199460Y-86942295D01*
X75199460Y-86937704D01*
X75334846Y-86261990D01*
X75339831Y-86254554D01*
X75348617Y-86252819D01*
X75349551Y-86253046D01*
G37*
G04 #@! TD.AperFunction*
G04 #@! TA.AperFunction,Conductor*
G36*
X78630654Y-86071040D02*
G01*
X78636416Y-86077895D01*
X78636733Y-86079126D01*
X78800540Y-86897704D01*
X78800540Y-86902296D01*
X78636654Y-87721265D01*
X78631670Y-87728705D01*
X78622885Y-87730442D01*
X78622001Y-87730229D01*
X76274853Y-87067406D01*
X76267823Y-87061859D01*
X76266333Y-87056146D01*
X76266333Y-86823571D01*
X76269760Y-86815298D01*
X76274503Y-86812416D01*
X78621733Y-86070266D01*
X78630654Y-86071040D01*
G37*
G04 #@! TD.AperFunction*
G04 #@! TA.AperFunction,Conductor*
G36*
X75349551Y-96413046D02*
G01*
X77290015Y-96972561D01*
X77297014Y-96978146D01*
X77298473Y-96983803D01*
X77298473Y-97216196D01*
X77295046Y-97224469D01*
X77290015Y-97227438D01*
X75349560Y-97786950D01*
X75340661Y-97785949D01*
X75335076Y-97778950D01*
X75334846Y-97778007D01*
X75199460Y-97102295D01*
X75199460Y-97097704D01*
X75334846Y-96421990D01*
X75339831Y-96414554D01*
X75348617Y-96412819D01*
X75349551Y-96413046D01*
G37*
G04 #@! TD.AperFunction*
G04 #@! TA.AperFunction,Conductor*
G36*
X77957744Y-96237331D02*
G01*
X78710828Y-96972029D01*
X78792516Y-97051723D01*
X78796045Y-97059953D01*
X78792721Y-97068268D01*
X78792614Y-97068376D01*
X77957431Y-97902577D01*
X77949156Y-97905999D01*
X77941821Y-97903409D01*
X77104358Y-97228512D01*
X77100067Y-97220652D01*
X77100000Y-97219402D01*
X77100000Y-96980302D01*
X77103427Y-96972029D01*
X77103979Y-96971511D01*
X77941864Y-96236908D01*
X77950343Y-96234032D01*
X77957744Y-96237331D01*
G37*
G04 #@! TD.AperFunction*
G04 #@! TA.AperFunction,Conductor*
G36*
X75349551Y-76093046D02*
G01*
X77290015Y-76652561D01*
X77297014Y-76658146D01*
X77298473Y-76663803D01*
X77298473Y-76896196D01*
X77295046Y-76904469D01*
X77290015Y-76907438D01*
X75349560Y-77466950D01*
X75340661Y-77465949D01*
X75335076Y-77458950D01*
X75334846Y-77458007D01*
X75199460Y-76782295D01*
X75199460Y-76777704D01*
X75334846Y-76101990D01*
X75339831Y-76094554D01*
X75348617Y-76092819D01*
X75349551Y-76093046D01*
G37*
G04 #@! TD.AperFunction*
G04 #@! TA.AperFunction,Conductor*
G36*
X78630654Y-75911040D02*
G01*
X78636416Y-75917895D01*
X78636733Y-75919126D01*
X78800540Y-76737704D01*
X78800540Y-76742296D01*
X78636654Y-77561265D01*
X78631670Y-77568705D01*
X78622885Y-77570442D01*
X78622001Y-77570229D01*
X76274853Y-76907406D01*
X76267823Y-76901859D01*
X76266333Y-76896146D01*
X76266333Y-76663571D01*
X76269760Y-76655298D01*
X76274503Y-76652416D01*
X78621733Y-75910266D01*
X78630654Y-75911040D01*
G37*
G04 #@! TD.AperFunction*
G04 #@! TA.AperFunction,Conductor*
G36*
X79281636Y-55720238D02*
G01*
X79282084Y-55720554D01*
X80877491Y-56903532D01*
X80882095Y-56911211D01*
X80879920Y-56919898D01*
X80878795Y-56921202D01*
X80714589Y-57085408D01*
X80707419Y-57088783D01*
X78976337Y-57252671D01*
X78967777Y-57250039D01*
X78963760Y-57243313D01*
X78800243Y-56424054D01*
X78801984Y-56415274D01*
X79265404Y-55723447D01*
X79272856Y-55718481D01*
X79281636Y-55720238D01*
G37*
G04 #@! TD.AperFunction*
G04 #@! TA.AperFunction,Conductor*
G36*
X99664722Y-68606983D02*
G01*
X100275007Y-69015919D01*
X100279972Y-69023370D01*
X100278938Y-69030912D01*
X99401705Y-70767928D01*
X99394916Y-70773768D01*
X99385987Y-70773098D01*
X99382988Y-70770927D01*
X99220331Y-70608270D01*
X99217048Y-70601825D01*
X98926166Y-68762417D01*
X98928258Y-68753711D01*
X98935429Y-68749117D01*
X99655941Y-68605244D01*
X99664722Y-68606983D01*
G37*
G04 #@! TD.AperFunction*
G04 #@! TA.AperFunction,Conductor*
G36*
X75349551Y-55773046D02*
G01*
X77290015Y-56332561D01*
X77297014Y-56338146D01*
X77298473Y-56343803D01*
X77298473Y-56576196D01*
X77295046Y-56584469D01*
X77290015Y-56587438D01*
X75349560Y-57146950D01*
X75340661Y-57145949D01*
X75335076Y-57138950D01*
X75334846Y-57138007D01*
X75199460Y-56462295D01*
X75199460Y-56457704D01*
X75334846Y-55781990D01*
X75339831Y-55774554D01*
X75348617Y-55772819D01*
X75349551Y-55773046D01*
G37*
G04 #@! TD.AperFunction*
G04 #@! TA.AperFunction,Conductor*
G36*
X78630654Y-55591040D02*
G01*
X78636416Y-55597895D01*
X78636733Y-55599126D01*
X78800540Y-56417704D01*
X78800540Y-56422296D01*
X78636654Y-57241265D01*
X78631670Y-57248705D01*
X78622885Y-57250442D01*
X78622001Y-57250229D01*
X76274853Y-56587406D01*
X76267823Y-56581859D01*
X76266333Y-56576146D01*
X76266333Y-56343571D01*
X76269760Y-56335298D01*
X76274503Y-56332416D01*
X78621733Y-55590266D01*
X78630654Y-55591040D01*
G37*
G04 #@! TD.AperFunction*
G04 #@! TA.AperFunction,Conductor*
G36*
X75349551Y-60853046D02*
G01*
X77290015Y-61412561D01*
X77297014Y-61418146D01*
X77298473Y-61423803D01*
X77298473Y-61656196D01*
X77295046Y-61664469D01*
X77290015Y-61667438D01*
X75349560Y-62226950D01*
X75340661Y-62225949D01*
X75335076Y-62218950D01*
X75334846Y-62218007D01*
X75199460Y-61542295D01*
X75199460Y-61537704D01*
X75334846Y-60861990D01*
X75339831Y-60854554D01*
X75348617Y-60852819D01*
X75349551Y-60853046D01*
G37*
G04 #@! TD.AperFunction*
G04 #@! TA.AperFunction,Conductor*
G36*
X78630654Y-60671040D02*
G01*
X78636416Y-60677895D01*
X78636733Y-60679126D01*
X78800540Y-61497704D01*
X78800540Y-61502296D01*
X78636654Y-62321265D01*
X78631670Y-62328705D01*
X78622885Y-62330442D01*
X78622001Y-62330229D01*
X76274853Y-61667406D01*
X76267823Y-61661859D01*
X76266333Y-61656146D01*
X76266333Y-61423571D01*
X76269760Y-61415298D01*
X76274503Y-61412416D01*
X78621733Y-60670266D01*
X78630654Y-60671040D01*
G37*
G04 #@! TD.AperFunction*
G04 #@! TA.AperFunction,Conductor*
G36*
X75349551Y-65933046D02*
G01*
X77290015Y-66492561D01*
X77297014Y-66498146D01*
X77298473Y-66503803D01*
X77298473Y-66736196D01*
X77295046Y-66744469D01*
X77290015Y-66747438D01*
X75349560Y-67306950D01*
X75340661Y-67305949D01*
X75335076Y-67298950D01*
X75334846Y-67298007D01*
X75199460Y-66622295D01*
X75199460Y-66617704D01*
X75334846Y-65941990D01*
X75339831Y-65934554D01*
X75348617Y-65932819D01*
X75349551Y-65933046D01*
G37*
G04 #@! TD.AperFunction*
G04 #@! TA.AperFunction,Conductor*
G36*
X78630654Y-65751040D02*
G01*
X78636416Y-65757895D01*
X78636733Y-65759126D01*
X78800540Y-66577704D01*
X78800540Y-66582296D01*
X78636654Y-67401265D01*
X78631670Y-67408705D01*
X78622885Y-67410442D01*
X78622001Y-67410229D01*
X76274853Y-66747406D01*
X76267823Y-66741859D01*
X76266333Y-66736146D01*
X76266333Y-66503571D01*
X76269760Y-66495298D01*
X76274503Y-66492416D01*
X78621733Y-65750266D01*
X78630654Y-65751040D01*
G37*
G04 #@! TD.AperFunction*
G04 #@! TA.AperFunction,Conductor*
G36*
X75349551Y-53233046D02*
G01*
X77290015Y-53792561D01*
X77297014Y-53798146D01*
X77298473Y-53803803D01*
X77298473Y-54036196D01*
X77295046Y-54044469D01*
X77290015Y-54047438D01*
X75349560Y-54606950D01*
X75340661Y-54605949D01*
X75335076Y-54598950D01*
X75334846Y-54598007D01*
X75199460Y-53922295D01*
X75199460Y-53917704D01*
X75334846Y-53241990D01*
X75339831Y-53234554D01*
X75348617Y-53232819D01*
X75349551Y-53233046D01*
G37*
G04 #@! TD.AperFunction*
G04 #@! TA.AperFunction,Conductor*
G36*
X78630654Y-53051040D02*
G01*
X78636416Y-53057895D01*
X78636733Y-53059126D01*
X78800540Y-53877704D01*
X78800540Y-53882296D01*
X78636654Y-54701265D01*
X78631670Y-54708705D01*
X78622885Y-54710442D01*
X78622001Y-54710229D01*
X76274853Y-54047406D01*
X76267823Y-54041859D01*
X76266333Y-54036146D01*
X76266333Y-53803571D01*
X76269760Y-53795298D01*
X76274503Y-53792416D01*
X78621733Y-53050266D01*
X78630654Y-53051040D01*
G37*
G04 #@! TD.AperFunction*
G04 #@! TA.AperFunction,Conductor*
G36*
X132747987Y-49037195D02*
G01*
X132753603Y-49044170D01*
X132753848Y-49045165D01*
X132900540Y-49777703D01*
X132900540Y-49782297D01*
X132753848Y-50514834D01*
X132748864Y-50522274D01*
X132740079Y-50524009D01*
X132739084Y-50523764D01*
X130637050Y-49907465D01*
X130630075Y-49901849D01*
X130628642Y-49896238D01*
X130628642Y-49663761D01*
X130632069Y-49655488D01*
X130637047Y-49652535D01*
X132739085Y-49036235D01*
X132747987Y-49037195D01*
G37*
G04 #@! TD.AperFunction*
G04 #@! TA.AperFunction,Conductor*
G36*
X75349551Y-78633046D02*
G01*
X77290015Y-79192561D01*
X77297014Y-79198146D01*
X77298473Y-79203803D01*
X77298473Y-79436196D01*
X77295046Y-79444469D01*
X77290015Y-79447438D01*
X75349560Y-80006950D01*
X75340661Y-80005949D01*
X75335076Y-79998950D01*
X75334846Y-79998007D01*
X75199460Y-79322295D01*
X75199460Y-79317704D01*
X75334846Y-78641990D01*
X75339831Y-78634554D01*
X75348617Y-78632819D01*
X75349551Y-78633046D01*
G37*
G04 #@! TD.AperFunction*
G04 #@! TA.AperFunction,Conductor*
G36*
X78630654Y-78451040D02*
G01*
X78636416Y-78457895D01*
X78636733Y-78459126D01*
X78800540Y-79277704D01*
X78800540Y-79282296D01*
X78636654Y-80101265D01*
X78631670Y-80108705D01*
X78622885Y-80110442D01*
X78622001Y-80110229D01*
X76274853Y-79447406D01*
X76267823Y-79441859D01*
X76266333Y-79436146D01*
X76266333Y-79203571D01*
X76269760Y-79195298D01*
X76274503Y-79192416D01*
X78621733Y-78450266D01*
X78630654Y-78451040D01*
G37*
G04 #@! TD.AperFunction*
G04 #@! TA.AperFunction,Conductor*
G36*
X78978127Y-78450014D02*
G01*
X81325322Y-79152502D01*
X81332265Y-79158157D01*
X81333667Y-79163711D01*
X81333667Y-79396288D01*
X81330240Y-79404561D01*
X81325322Y-79407497D01*
X78978134Y-80109983D01*
X78969225Y-80109072D01*
X78963570Y-80102129D01*
X78963306Y-80101070D01*
X78799459Y-79282293D01*
X78799459Y-79277704D01*
X78822271Y-79163711D01*
X78963306Y-78458928D01*
X78968290Y-78451489D01*
X78977075Y-78449752D01*
X78978127Y-78450014D01*
G37*
G04 #@! TD.AperFunction*
G04 #@! TA.AperFunction,Conductor*
G36*
X75349551Y-68473046D02*
G01*
X77290015Y-69032561D01*
X77297014Y-69038146D01*
X77298473Y-69043803D01*
X77298473Y-69276196D01*
X77295046Y-69284469D01*
X77290015Y-69287438D01*
X75349560Y-69846950D01*
X75340661Y-69845949D01*
X75335076Y-69838950D01*
X75334846Y-69838007D01*
X75199460Y-69162295D01*
X75199460Y-69157704D01*
X75334846Y-68481990D01*
X75339831Y-68474554D01*
X75348617Y-68472819D01*
X75349551Y-68473046D01*
G37*
G04 #@! TD.AperFunction*
G04 #@! TA.AperFunction,Conductor*
G36*
X78630654Y-68291040D02*
G01*
X78636416Y-68297895D01*
X78636733Y-68299126D01*
X78800540Y-69117704D01*
X78800540Y-69122296D01*
X78636654Y-69941265D01*
X78631670Y-69948705D01*
X78622885Y-69950442D01*
X78622001Y-69950229D01*
X76274853Y-69287406D01*
X76267823Y-69281859D01*
X76266333Y-69276146D01*
X76266333Y-69043571D01*
X76269760Y-69035298D01*
X76274503Y-69032416D01*
X78621733Y-68290266D01*
X78630654Y-68291040D01*
G37*
G04 #@! TD.AperFunction*
G04 #@! TA.AperFunction,Conductor*
G36*
X132747987Y-51577195D02*
G01*
X132753603Y-51584170D01*
X132753848Y-51585165D01*
X132900540Y-52317703D01*
X132900540Y-52322297D01*
X132753848Y-53054834D01*
X132748864Y-53062274D01*
X132740079Y-53064009D01*
X132739084Y-53063764D01*
X130637050Y-52447465D01*
X130630075Y-52441849D01*
X130628642Y-52436238D01*
X130628642Y-52203761D01*
X130632069Y-52195488D01*
X130637047Y-52192535D01*
X132739085Y-51576235D01*
X132747987Y-51577195D01*
G37*
G04 #@! TD.AperFunction*
G04 #@! TA.AperFunction,Conductor*
G36*
X78978127Y-80990014D02*
G01*
X81325322Y-81692502D01*
X81332265Y-81698157D01*
X81333667Y-81703711D01*
X81333667Y-81936288D01*
X81330240Y-81944561D01*
X81325322Y-81947497D01*
X78978134Y-82649983D01*
X78969225Y-82649072D01*
X78963570Y-82642129D01*
X78963306Y-82641070D01*
X78799459Y-81822293D01*
X78799459Y-81817704D01*
X78822271Y-81703711D01*
X78963306Y-80998928D01*
X78968290Y-80991489D01*
X78977075Y-80989752D01*
X78978127Y-80990014D01*
G37*
G04 #@! TD.AperFunction*
G04 #@! TA.AperFunction,Conductor*
G36*
X75349551Y-81173046D02*
G01*
X77290015Y-81732561D01*
X77297014Y-81738146D01*
X77298473Y-81743803D01*
X77298473Y-81976196D01*
X77295046Y-81984469D01*
X77290015Y-81987438D01*
X75349560Y-82546950D01*
X75340661Y-82545949D01*
X75335076Y-82538950D01*
X75334846Y-82538007D01*
X75199460Y-81862295D01*
X75199460Y-81857704D01*
X75334846Y-81181990D01*
X75339831Y-81174554D01*
X75348617Y-81172819D01*
X75349551Y-81173046D01*
G37*
G04 #@! TD.AperFunction*
G04 #@! TA.AperFunction,Conductor*
G36*
X78630654Y-80991040D02*
G01*
X78636416Y-80997895D01*
X78636733Y-80999126D01*
X78800540Y-81817704D01*
X78800540Y-81822296D01*
X78636654Y-82641265D01*
X78631670Y-82648705D01*
X78622885Y-82650442D01*
X78622001Y-82650229D01*
X76274853Y-81987406D01*
X76267823Y-81981859D01*
X76266333Y-81976146D01*
X76266333Y-81743571D01*
X76269760Y-81735298D01*
X76274503Y-81732416D01*
X78621733Y-80990266D01*
X78630654Y-80991040D01*
G37*
G04 #@! TD.AperFunction*
G04 #@! TA.AperFunction,Conductor*
G36*
X75349551Y-93873046D02*
G01*
X77290015Y-94432561D01*
X77297014Y-94438146D01*
X77298473Y-94443803D01*
X77298473Y-94676196D01*
X77295046Y-94684469D01*
X77290015Y-94687438D01*
X75349560Y-95246950D01*
X75340661Y-95245949D01*
X75335076Y-95238950D01*
X75334846Y-95238007D01*
X75199460Y-94562295D01*
X75199460Y-94557704D01*
X75334846Y-93881990D01*
X75339831Y-93874554D01*
X75348617Y-93872819D01*
X75349551Y-93873046D01*
G37*
G04 #@! TD.AperFunction*
G04 #@! TA.AperFunction,Conductor*
G36*
X78630654Y-93691040D02*
G01*
X78636416Y-93697895D01*
X78636733Y-93699126D01*
X78800540Y-94517704D01*
X78800540Y-94522296D01*
X78636654Y-95341265D01*
X78631670Y-95348705D01*
X78622885Y-95350442D01*
X78622001Y-95350229D01*
X76274853Y-94687406D01*
X76267823Y-94681859D01*
X76266333Y-94676146D01*
X76266333Y-94443571D01*
X76269760Y-94435298D01*
X76274503Y-94432416D01*
X78621733Y-93690266D01*
X78630654Y-93691040D01*
G37*
G04 #@! TD.AperFunction*
G04 #@! TA.AperFunction,Conductor*
G36*
X79632358Y-63877924D02*
G01*
X79636940Y-63883922D01*
X80330243Y-65948902D01*
X80329627Y-65957836D01*
X80327424Y-65960899D01*
X80162986Y-66125337D01*
X80154713Y-66128764D01*
X80147646Y-66126388D01*
X79216199Y-65420264D01*
X78336539Y-64753400D01*
X78332016Y-64745671D01*
X78333870Y-64737588D01*
X78796598Y-64043336D01*
X78804034Y-64038354D01*
X79623578Y-63876169D01*
X79632358Y-63877924D01*
G37*
G04 #@! TD.AperFunction*
G04 #@! TA.AperFunction,Conductor*
G36*
X101586150Y-68194872D02*
G01*
X101587011Y-68195393D01*
X102198756Y-68602993D01*
X102202006Y-68606243D01*
X102609602Y-69217982D01*
X102611337Y-69226767D01*
X102606352Y-69234206D01*
X102605485Y-69234731D01*
X100715280Y-70269975D01*
X100706378Y-70270943D01*
X100701387Y-70267986D01*
X100537013Y-70103612D01*
X100533586Y-70095339D01*
X100535023Y-70089721D01*
X101570268Y-68199513D01*
X101577248Y-68193904D01*
X101586150Y-68194872D01*
G37*
G04 #@! TD.AperFunction*
G04 #@! TA.AperFunction,Conductor*
G36*
X75349551Y-63393046D02*
G01*
X77290015Y-63952561D01*
X77297014Y-63958146D01*
X77298473Y-63963803D01*
X77298473Y-64196196D01*
X77295046Y-64204469D01*
X77290015Y-64207438D01*
X75349560Y-64766950D01*
X75340661Y-64765949D01*
X75335076Y-64758950D01*
X75334846Y-64758007D01*
X75199460Y-64082295D01*
X75199460Y-64077704D01*
X75334846Y-63401990D01*
X75339831Y-63394554D01*
X75348617Y-63392819D01*
X75349551Y-63393046D01*
G37*
G04 #@! TD.AperFunction*
G04 #@! TA.AperFunction,Conductor*
G36*
X78630654Y-63211040D02*
G01*
X78636416Y-63217895D01*
X78636733Y-63219126D01*
X78800540Y-64037704D01*
X78800540Y-64042296D01*
X78636654Y-64861265D01*
X78631670Y-64868705D01*
X78622885Y-64870442D01*
X78622001Y-64870229D01*
X76274853Y-64207406D01*
X76267823Y-64201859D01*
X76266333Y-64196146D01*
X76266333Y-63963571D01*
X76269760Y-63955298D01*
X76274503Y-63952416D01*
X78621733Y-63210266D01*
X78630654Y-63211040D01*
G37*
G04 #@! TD.AperFunction*
G04 #@! TA.AperFunction,Conductor*
G36*
X80931649Y-83278925D02*
G01*
X80935954Y-83286777D01*
X80936023Y-83288047D01*
X80936023Y-83519891D01*
X80932596Y-83528164D01*
X80932275Y-83528473D01*
X79282285Y-85057435D01*
X79273888Y-85060545D01*
X79265751Y-85056805D01*
X79264611Y-85055363D01*
X78800299Y-84361941D01*
X78798546Y-84357706D01*
X78636647Y-83538847D01*
X78638404Y-83530068D01*
X78645856Y-83525101D01*
X78646848Y-83524948D01*
X80923053Y-83276416D01*
X80931649Y-83278925D01*
G37*
G04 #@! TD.AperFunction*
G04 #@! TA.AperFunction,Conductor*
G36*
X75349379Y-83712751D02*
G01*
X77289801Y-84232676D01*
X77296905Y-84238127D01*
X77298473Y-84243977D01*
X77298473Y-84476367D01*
X77295046Y-84484640D01*
X77290224Y-84487546D01*
X75349722Y-85086651D01*
X75340807Y-85085818D01*
X75335092Y-85078923D01*
X75334799Y-85077771D01*
X75199460Y-84402295D01*
X75199460Y-84397704D01*
X75334893Y-83721755D01*
X75339878Y-83714319D01*
X75348664Y-83712584D01*
X75349379Y-83712751D01*
G37*
G04 #@! TD.AperFunction*
G04 #@! TA.AperFunction,Conductor*
G36*
X78630774Y-83530927D02*
G01*
X78636429Y-83537870D01*
X78636693Y-83538929D01*
X78800540Y-84357704D01*
X78800540Y-84362296D01*
X78636693Y-85181070D01*
X78631709Y-85188510D01*
X78622924Y-85190247D01*
X78621865Y-85189983D01*
X76274678Y-84487497D01*
X76267735Y-84481842D01*
X76266333Y-84476288D01*
X76266333Y-84243711D01*
X76269760Y-84235438D01*
X76274676Y-84232502D01*
X78621866Y-83530016D01*
X78630774Y-83530927D01*
G37*
G04 #@! TD.AperFunction*
G04 #@! TA.AperFunction,Conductor*
G36*
X131241551Y-71682299D02*
G01*
X133310656Y-72600787D01*
X133316827Y-72607276D01*
X133316603Y-72616228D01*
X133315644Y-72617971D01*
X132902296Y-73238054D01*
X132899054Y-73241297D01*
X132276637Y-73656528D01*
X132267853Y-73658269D01*
X132260411Y-73653288D01*
X132260107Y-73652807D01*
X132013602Y-73241297D01*
X131226771Y-71927776D01*
X131225108Y-71921764D01*
X131225108Y-71692994D01*
X131228535Y-71684721D01*
X131236808Y-71681294D01*
X131241551Y-71682299D01*
G37*
G04 #@! TD.AperFunction*
G04 #@! TA.AperFunction,Conductor*
G36*
X75349551Y-50693046D02*
G01*
X77290015Y-51252561D01*
X77297014Y-51258146D01*
X77298473Y-51263803D01*
X77298473Y-51496196D01*
X77295046Y-51504469D01*
X77290015Y-51507438D01*
X75349560Y-52066950D01*
X75340661Y-52065949D01*
X75335076Y-52058950D01*
X75334846Y-52058007D01*
X75199460Y-51382295D01*
X75199460Y-51377704D01*
X75334846Y-50701990D01*
X75339831Y-50694554D01*
X75348617Y-50692819D01*
X75349551Y-50693046D01*
G37*
G04 #@! TD.AperFunction*
G04 #@! TA.AperFunction,Conductor*
G36*
X78630654Y-50511040D02*
G01*
X78636416Y-50517895D01*
X78636733Y-50519126D01*
X78800540Y-51337704D01*
X78800540Y-51342296D01*
X78636654Y-52161265D01*
X78631670Y-52168705D01*
X78622885Y-52170442D01*
X78622001Y-52170229D01*
X76274853Y-51507406D01*
X76267823Y-51501859D01*
X76266333Y-51496146D01*
X76266333Y-51263571D01*
X76269760Y-51255298D01*
X76274503Y-51252416D01*
X78621733Y-50510266D01*
X78630654Y-50511040D01*
G37*
G04 #@! TD.AperFunction*
M02*
